<?xml version="1.0" standalone="no"?>
<!DOCTYPE svg PUBLIC "-//W3C//DTD SVG 1.1//EN" "http://www.w3.org/Graphics/SVG/1.1/DTD/svg11.dtd" >
<svg>
<metadata>
Created by FontForge 20090622 at Thu Mar 19 13:05:26 2020
 By deploy user
Copyright (c) 2019 by Mans Greback. All rights reserved.
</metadata>
<defs>
<font id="AquateScriptPERSONALUSEONLY" horiz-adv-x="670" >
  <font-face 
    font-family="Aquate Script PERSONAL USE ONLY"
    font-weight="400"
    font-stretch="normal"
    units-per-em="1000"
    panose-1="0 0 0 0 0 0 0 0 0 0"
    ascent="750"
    descent="-250"
    x-height="454.5"
    cap-height="705.5"
    bbox="-403.765 -338.655 1675.29 976"
    underline-thickness="50"
    underline-position="-50"
    unicode-range="U+000D-U+FB02"
  />
<missing-glyph horiz-adv-x="269" 
 />
    <glyph glyph-name="fi" unicode="fi" horiz-adv-x="515" 
d="M422 427q9 11 24.5 10t31.5 -7.5t27 -15.5t11 -15q0 -5 -6.5 -18.5t-17 -30.5t-24.5 -35.5t-31 -34.5q-13 -24 -25 -48.5t-20 -45.5t-9.5 -36.5t6.5 -21.5q13 -12 33 -3t39.5 26t35 35.5t18.5 26.5q3 7 8 8t8.5 -4.5t3.5 -17t-6 -27.5q-6 -17 -29.5 -47.5t-53 -60
t-59 -49.5t-48.5 -15t-28.5 30t-12 57.5t0.5 67t11 58.5q7 25 18 50t24 50q-30 -10 -61 -17.5t-60 -9.5q2 -4 3 -8.5t1 -7.5q0 -38 -11 -85.5t-29.5 -96t-42.5 -94.5t-50.5 -82t-54.5 -57.5t-53 -21.5q-20 0 -35 18t-20 54.5t1.5 93t29.5 133.5q13 44 36.5 100.5t54 118.5
t67.5 126t77.5 122.5t84 107.5t87.5 82q11 9 27.5 9t31 -7t24.5 -20t9 -31q-1 -20 -18 -59.5t-46.5 -91t-70.5 -110.5t-89 -119q33 -4 70 -1.5t67 9.5q10 17 20 31zM467 504q8 22 17.5 42.5t18.5 37.5t18.5 28.5t17.5 14.5q9 3 25.5 2t33 -7.5t27.5 -20.5t8 -36t-20 -40.5
t-41 -28.5t-52 -9.5t-53 17.5zM102 207l-31 -82.5t-25.5 -84t-9.5 -67.5t18 -34q9 -3 24 30t30 83t28.5 106.5t19.5 101.5zM346 617q-4 4 -20.5 -13.5t-40 -49.5t-51 -76.5t-54.5 -95.5q3 -2 7 -4t8 -5l65.5 92.5t49.5 76.5t29.5 53t6.5 22z" />
    <glyph glyph-name="fl" unicode="fl" horiz-adv-x="531" 
d="M469 740q-2 -23 -23 -70t-57.5 -107.5t-86.5 -128.5t-109 -134q16 -12 29 -30t13 -35q0 -10 -1 -15q11 -5 23 -5t24 3q18 75 55 157.5t85.5 160t104.5 144t113 109.5q12 9 28 9t31 -7t25 -20t10 -31q-2 -26 -30 -81t-76 -124.5t-111.5 -145.5t-136.5 -144
q-9 -29 -11 -54.5t2 -45.5t12 -32.5t19 -13.5q9 -2 26.5 10.5t38 32t41.5 43.5l39 46q12 16 22 19.5t14 -2.5t1 -20t-16 -32q-20 -29 -49 -62t-60.5 -62.5t-62.5 -49.5t-55 -22q-19 -2 -33.5 8.5t-24.5 29t-14 43t-2 51.5q2 9 3 18.5t3 18.5q-12 -4 -24 -6.5t-22 -3.5
q-12 -56 -38 -113.5t-58 -105t-67.5 -77.5t-68.5 -30q-20 0 -35 18t-20 54.5t1.5 93t29.5 133.5q13 44 36.5 100.5t54 118.5t67.5 126t77.5 122.5t84 107.5t87.5 82q11 9 27.5 9t31 -7t24.5 -20t9 -31zM54 -61q8 -3 20 18.5t25 56.5t25.5 78t21.5 84q-22 16 -30 44l-14 -13
l-31 -82.5t-25.5 -84t-9.5 -67.5t18 -34zM346 617q-5 4 -26.5 -20.5t-51.5 -68.5t-63.5 -102t-61.5 -121q48 60 86.5 115.5t65.5 98.5t40.5 69.5t10.5 28.5zM609 617q-5 4 -24.5 -18t-47 -61t-59 -91.5t-60.5 -110.5q48 54 85.5 103.5t62 88t36 62.5t7.5 27z" />
    <glyph glyph-name="o_r" unicode="or" horiz-adv-x="643" 
d="M173 444q20 11 40.5 5t32.5 -20q6 10 13.5 15.5t14.5 7.5q9 4 24 0t30 -15t26 -29t11 -41q0 -9 -0.5 -19.5t-2.5 -19.5q21 4 46 40t48 103q-3 14 -2.5 32.5t6.5 39.5q6 22 24 29t35.5 4t28 -13t3.5 -20q-7 -11 -13 -26.5t-11 -33.5q37 -8 57.5 -17.5t31.5 -18.5
q9 -4 17 -10.5t13.5 -13.5t8 -13t1.5 -9l-23.5 -36.5l-33.5 -52l-35.5 -59t-29.5 -57.5t-16.5 -47t5.5 -27q7 -5 18 -1.5t23.5 12t26 20.5t24.5 24t18.5 21.5t9.5 14.5q2 0 6.5 -0.5t8 -4t4 -11t-3.5 -19.5q-9 -24 -32.5 -55t-53 -58.5t-60.5 -46t-56 -18.5q-24 0 -32.5 30
t2 84.5t42.5 129.5t89 165q-15 -2 -29 -2.5t-20 -0.5q-14 -29 -33 -53.5t-40.5 -43t-44.5 -30t-45 -14.5q-18 -50 -49 -98.5t-69.5 -86t-82 -60t-85.5 -20.5q-20 1 -37 13t-27.5 33t-14 51t4.5 68q7 32 22.5 71t39.5 77.5t56 73t70 57.5zM238 373l-66.5 -56t-66.5 -63
q-19 -29 -26.5 -55t-6 -47t9.5 -35t20 -18q26 -8 51.5 5t47 40.5t38.5 66t26 81.5q-14 15 -22 46q-3 10 -4 18.5t-1 16.5z" />
    <glyph glyph-name="b_r" unicode="br" horiz-adv-x="643" 
d="M456 0q-24 0 -32.5 30t2 84.5t42.5 129.5t89 165q-15 -2 -29 -2.5t-20 -0.5q-14 -29 -33 -53.5t-40.5 -43t-45 -30t-45.5 -14.5q-21 -50 -56 -97.5t-75 -84.5t-80 -60t-70 -23q-20 0 -37 11.5t-28 33t-14.5 52t4.5 68.5q15 76 49 165t81.5 174.5t106.5 160.5t125 124
q11 9 27 9t31 -7t25 -20t9 -31q-2 -17 -13 -46t-31 -66.5t-47.5 -82t-61.5 -91.5q10 0 24 -6t26 -17t20.5 -27.5t8.5 -36.5q0 -9 -1 -18.5t-3 -20.5q20 7 44.5 42t47.5 101q-3 14 -2.5 32.5t6.5 39.5q6 22 24 29t35.5 4t28 -13t3.5 -20q-7 -11 -13 -26.5t-11 -33.5
q37 -8 57.5 -17.5t31.5 -18.5q9 -4 17 -10.5t13.5 -13.5t8 -13t1.5 -9l-23.5 -36.5l-33.5 -52l-35.5 -59t-29.5 -57.5t-16.5 -47t5.5 -27q7 -5 18 -1.5t23.5 12t26 20.5t24.5 24t18.5 21.5t9.5 14.5q2 0 6.5 -0.5t8 -4t4 -11t-3.5 -19.5q-9 -24 -32.5 -55t-53 -58.5
t-60.5 -46t-56 -18.5zM243 338q-4 13 -5 24.5t-1 20.5q-35 -45 -75 -88t-83 -84q-14 -45 -12 -78t26 -39q19 -5 42 13t45.5 49t42 71t32.5 80q-7 13 -12 31zM319 617q-5 4 -26.5 -20.5t-52 -68.5t-64.5 -102t-62 -121q48 60 87.5 115.5t66.5 98.5t40.5 69.5t10.5 28.5z" />
    <glyph glyph-name="f_r" unicode="fr" horiz-adv-x="581" 
d="M469 740q-1 -20 -18.5 -61.5t-48.5 -94.5t-73 -114t-91 -120q60 3 101 29t70 83q-5 16 -5.5 36t6.5 45q7 22 25 29t35.5 4t28 -13t3.5 -20q-8 -12 -14.5 -30.5t-11.5 -37.5q49 -12 70 -25q10 -2 19.5 -8.5t17 -14.5t11 -15.5t2.5 -10.5l-23.5 -36.5l-33.5 -52l-35.5 -59
t-30 -57.5t-16.5 -47t5 -27q7 -5 18 -1.5t23.5 12t25.5 20.5t24 24t18.5 21.5t9.5 14.5q3 0 7.5 -0.5t7.5 -4t4 -11t-3 -19.5q-9 -24 -32.5 -55t-53 -58.5t-60.5 -46t-56 -18.5q-28 0 -39.5 27.5t-1.5 80t44.5 128t97.5 171.5q-18 -2 -36 -3.5t-24 -1.5q-20 -24 -47 -47.5
t-57 -41.5t-59.5 -29t-53.5 -11q16 -30 12.5 -74.5t-20 -93.5t-42.5 -97.5t-56.5 -87.5t-61.5 -63t-57 -24q-20 0 -35 18t-20 54.5t1.5 93t29.5 133.5q13 44 36.5 100.5t54 118.5t67.5 126t77.5 122.5t84 107.5t87.5 82q11 9 27.5 9t31 -7t24.5 -20t9 -31zM102 207
l-31 -82.5t-25.5 -84t-9.5 -67.5t18 -34q9 -3 24 30t30 83t28.5 106.5t19.5 101.5zM346 617q-4 4 -20.5 -13.5t-40.5 -49.5t-51.5 -76.5t-54.5 -95.5q4 -3 7 -5.5t8 -4.5q37 49 66.5 93t49.5 77t29.5 53t6.5 22z" />
    <glyph glyph-name="l_l" unicode="ll" horiz-adv-x="477" 
d="M319 211q-8 -60 3.5 -99t37.5 -51q15 -9 36.5 -5.5t36.5 20.5q14 -25 3.5 -56.5t-35.5 -54.5t-59.5 -30t-67.5 17q-20 13 -32 33t-18.5 43.5t-8 48t0.5 47.5q-21 -24 -44.5 -46t-47.5 -39.5t-46.5 -28t-41.5 -10.5q-14 0 -24 10.5t-16.5 28.5t-9 42t-0.5 51
q4 52 19.5 113t39 125t54 127.5t65.5 119t72 100.5t75 72q12 9 30 9t35 -7t29 -20t12 -31q-2 -26 -26.5 -83t-67 -129t-101 -150.5t-128.5 -148.5q-16 -52 -13.5 -90t22.5 -41q7 -2 20.5 5t30.5 20t36 30t36 35q15 77 51 163.5t85.5 169t108 153t118.5 115.5q12 9 28.5 9
t31.5 -7t25 -20t9 -31t-14.5 -51t-37.5 -76t-57 -94t-73 -104t-86 -105.5t-96 -98.5zM561 617q-5 4 -27 -20.5t-52 -68.5t-64 -102t-63 -121q48 60 87 115.5t66 98.5t41 69.5t12 28.5zM293 617q-4 4 -19 -17t-36 -58.5t-46.5 -88t-50.5 -107.5q39 54 68.5 102.5t49 85
t28.5 59t6 24.5z" />
    <glyph glyph-name="t_t" unicode="tt" horiz-adv-x="400" 
d="M-23 499q-3 7 -5.5 15.5t2.5 19.5q4 10 18 21q7 5 17 11.5t23 11.5q17 8 47 17.5t70 20.5q6 1 12 3t14 4q20 34 40 57.5t40 32.5q10 4 25.5 1t29.5 -10.5t23.5 -18.5t6.5 -24q0 -1 -2 -5l64 7q28 39 53 50q9 3 22.5 1t27 -8t24 -15t12.5 -21q34 0 61 -4.5t42 -10.5l8 -3
l7 -5q4 -3 6.5 -7l4.5 -7q11 -12 14 -32q5 -18 3 -37.5t-9 -36.5q-26 9 -62 15t-78 11l-55 4l-53.5 -85.5l-58.5 -92l-55 -86l-43 -67.5q-7 -26 -10.5 -50.5t-3 -43t4.5 -30.5t12 -13q9 -2 26 11t35.5 32.5t35.5 41.5t27 39q3 5 6 3.5t4.5 -7t0.5 -14.5t-5 -20
q-4 -9 -14.5 -25.5t-25.5 -36t-33.5 -39.5t-37.5 -36.5t-38 -27t-35 -10.5q-23 0 -38 31.5t-4 100.5q-15 -20 -34.5 -43.5t-41 -43t-43 -32.5t-39.5 -13q-15 0 -27.5 13.5t-17 42.5t2 74t27.5 107q24 68 54.5 147t64.5 151q-42 -8 -79.5 -17t-69.5 -19zM207 237l28 78
t32 82.5l35 82.5t36 78l-28.5 -2t-28.5 -3l-53 -85l-57.5 -91l-54 -84.5l-43.5 -66.5q-7 -26 -10.5 -50.5t-3 -43t4.5 -30.5t12 -13q9 -2 26 10.5t35 31.5t35 40.5t27 39.5z" />
    <glyph glyph-name="T_h" unicode="Th" horiz-adv-x="798" 
d="M599 718q8 -62 -23.5 -96.5t-93.5 -39.5q-8 -1 -14.5 -1h-13.5q-20 -30 -46 -76t-54.5 -102l-58.5 -118.5l-57 -124t-49.5 -119t-37.5 -103.5q-24 8 -44 19.5t-33 27.5t-16.5 38t4.5 52q7 27 26.5 67.5t46 87.5t59 97l65.5 97t65 88t58 69q-20 0 -38.5 1t-39.5 1
t-45.5 -1.5t-54.5 -4.5q-59 -9 -85 -25t-28.5 -30t15 -21t47.5 2q9 3 14.5 1.5t0.5 -10.5q-7 -13 -24.5 -21.5t-38.5 -11t-42 2.5t-36 20q-17 16 -21.5 41.5t2 52.5t24 51t43.5 38q29 15 71 22.5t90.5 10t100.5 2t100.5 0t90.5 3.5t71 13zM766 445q11 2 22.5 -3.5t19 -14
t10.5 -18.5t-2 -16q-54 -71 -87 -137.5t-45.5 -121t-6.5 -93.5t30 -55q14 -10 36 -9.5t38 15.5q7 -18 2 -37.5t-18.5 -37t-33.5 -31t-42.5 -19t-45.5 -1t-43 23.5q-20 18 -29 47.5t-8 66.5t11.5 78.5t28.5 84t43.5 82.5t56.5 74q-49 -18 -94 -55t-80.5 -79.5t-59 -85.5
t-29.5 -74q0 -1 1 -1q6 -8 -4.5 -16.5t-27 -13.5t-34 -5.5t-24.5 7.5q-4 4 -3 19.5t8.5 44.5t22.5 72.5l38 105.5q15 41 38.5 91.5t51.5 104t60 107t64.5 101.5t65.5 88t63 66q6 5 16.5 0t21 -15.5t18 -24.5t7.5 -27t-12.5 -39.5t-33.5 -61t-47.5 -74t-55 -78l-56.5 -73.5
t-51 -60q-14 -24 -27 -49l-25 -50q29 31 62 61.5t66 57t64.5 47.5t58.5 33v-2z" />
    <glyph glyph-name="r_r" unicode="rr" horiz-adv-x="599" 
d="M573 352q-38 -62 -62 -118t-33.5 -101.5t-5.5 -77.5t23 -46q13 -11 34.5 -11t39.5 14q9 -27 -9 -56t-48.5 -47t-67.5 -18.5t-65 28.5q-25 24 -30.5 66.5t9.5 99.5t51 125.5t94 143.5q-24 7 -41.5 8.5t-25.5 1.5l-37.5 -70.5t-44 -80t-49.5 -78.5t-54 -68t-58 -48.5
t-61 -18.5q-33 -1 -46.5 28.5t-3 84.5t46.5 132.5t101 171.5l-28 -4t-26 -8q-6 -13 -19 -35t-30 -47.5l-36 -52.5l-36.5 -51l-32 -43t-22.5 -28q-33 -41 -61.5 -55.5t-42.5 -6.5q21 24 53 68t65 95t62 101.5t44 86.5q-17 17 -18.5 46t6.5 55q6 22 26.5 30t41 5.5t33.5 -11.5
t6 -19q-8 -12 -14 -29.5t-10 -36.5q12 0 33.5 0.5t42.5 -5.5t37 -22t16 -49q-7 -13 -22.5 -36.5l-33.5 -52l-36 -59t-30 -57.5t-16.5 -47t5.5 -27q12 -9 29 3.5t36.5 38.5t40 60.5t38 69t31 64.5t20.5 47q-7 17 -13 44.5t2 52.5q7 22 25.5 32.5t39 11t39 -6.5t25.5 -20
l-10.5 -16t-13 -22l-12.5 -24t-8 -21q9 -2 31 -9t44 -18t35.5 -25.5t6.5 -31.5z" />
    <glyph glyph-name="e_e" unicode="ee" horiz-adv-x="687" 
d="M350 405q1 -27 -15.5 -61.5t-41.5 -66.5t-55 -57.5t-55 -35.5q-20 -8 -45 -7t-48 9q-6 -40 6.5 -66.5t46.5 -29.5q31 -4 75.5 14t93.5 44l6.5 31t9.5 32q16 51 43.5 100.5t60 88.5t66.5 63.5t63 26.5q20 1 36 -6.5t28 -18.5q10 -5 20 -13.5t17.5 -18t12 -19t4.5 -15.5
q1 -27 -21 -60t-58.5 -66t-84 -63t-98.5 -50q0 -29 14 -48t41 -22q24 -3 53.5 7.5t61 30t62.5 47t57 59.5q4 5 10.5 -2t0.5 -25q-5 -13 -20 -34t-37.5 -44t-51 -46.5t-60 -43t-65 -32t-65.5 -14.5q-50 -3 -76.5 22t-31.5 74q-24 -17 -51 -33.5t-55.5 -30t-57.5 -22.5
t-57 -10q-38 -2 -62.5 12.5t-36 43t-9.5 70t18 92.5q15 51 43 100.5t60.5 88.5t66.5 63.5t62 26.5q19 1 34.5 -5.5t26.5 -15.5q10 0 20.5 -7.5t19 -17.5t13.5 -21t5 -18zM125 277q-18 -31 -27 -58q32 16 61 40.5t53 52.5t40.5 56.5t23.5 51.5q-38 -8 -74.5 -42.5
t-76.5 -100.5zM454 277q-21 -35 -29 -66q27 17 53.5 42.5t49 54t39.5 57t25 52.5q-35 -11 -68.5 -45.5t-69.5 -94.5z" />
    <glyph glyph-name="o_s" unicode="os" horiz-adv-x="710" 
d="M655 296q-16 3 -25.5 13.5t-13.5 25.5t-3 33.5t6 37.5q-25 -14 -39.5 -39.5t-3.5 -55.5q4 -13 12.5 -29t17 -35t14.5 -41.5t4 -49.5q-3 -39 -25.5 -71t-55 -54.5t-70.5 -34.5t-72 -12q-14 0 -31 3.5t-32.5 10t-27.5 15t-18 18.5q-14 23 -11.5 51.5t16.5 52.5t38.5 38.5
t55.5 10.5q-12 -25 -8.5 -50.5t17 -42.5t34 -22.5t42.5 8.5q13 9 22.5 43.5t14 77t4 84t-8.5 63.5q-36 -23 -76.5 -38.5t-76.5 -22.5q-17 -49 -50 -100.5t-74 -92.5t-86 -67t-86 -24q-20 1 -37 13t-27.5 33t-14 51t4.5 68q7 32 22.5 71t39.5 77.5t56 73t70 57.5
q22 12 41.5 5t32.5 -21q16 5 35 6t36 -3.5t30.5 -15t17.5 -29.5l2 -21q35 0 69 8t60 22q-1 26 7 48t20.5 38t27.5 25.5t27 9.5q25 1 40.5 -18.5t23.5 -40.5q13 23 30.5 37.5t37.5 19.5q16 3 29 -3t23 -16t15.5 -21.5t6.5 -19.5q-54 -35 -84.5 -73t-45.5 -85zM220 359
l-56.5 -49.5t-58.5 -55.5q-19 -29 -26.5 -55t-6 -47t9.5 -35t20 -18q25 -8 50 5.5t47 40.5t39 63.5t25 74.5q-16 5 -24 13q-12 11 -16 28.5t-3 34.5z" />
    <glyph glyph-name=".notdef" horiz-adv-x="269" 
 />
    <glyph glyph-name="NULL" horiz-adv-x="0" 
 />
    <glyph glyph-name="NULL" horiz-adv-x="0" 
 />
    <glyph glyph-name="nonmarkingreturn" unicode="&#xd;" horiz-adv-x="269" 
 />
    <glyph glyph-name="space" unicode=" " horiz-adv-x="269" 
 />
    <glyph glyph-name="r" unicode="r" horiz-adv-x="307" 
d="M121 0q-24 0 -32.5 30t2 84t42 128.5t88.5 164.5q-14 -1 -26.5 -1.5t-18.5 -0.5q-6 -13 -19 -35t-30 -47.5l-36 -52.5l-36.5 -51l-32 -43t-22.5 -28q-33 -41 -61.5 -55.5t-42.5 -6.5q14 16 34 42.5t42 60l45 70.5l43.5 72.5t37 68t26.5 56.5q-6 17 -7 39t7 48q6 22 24 29
t35.5 4t28 -13t3.5 -20q-8 -12 -14 -29.5t-10 -36.5q29 -7 48.5 -13.5t32.5 -13.5q10 -2 19.5 -8.5t16.5 -14.5t10.5 -15.5t1.5 -10.5q-7 -13 -22.5 -36.5l-33.5 -52l-36 -59t-30 -57.5t-16.5 -47t5.5 -27q10 -8 29.5 3t38.5 28t34 35t18 25q2 0 6.5 -0.5t7.5 -4t3.5 -11
t-3.5 -19.5q-9 -24 -32 -55t-52 -58.5t-60 -46t-56 -18.5z" />
    <glyph glyph-name="dollar" unicode="$" horiz-adv-x="572" 
d="M183 -93q-13 0 -19 10t-7.5 26.5t1.5 38t8 45.5q-8 1 -16.5 2.5t-16.5 2.5q-43 10 -69.5 31.5t-39 48t-13.5 55t6 53t20 42t29 21.5q48 11 82.5 4t45.5 -21q-33 -26 -51 -54t-21 -52.5t8 -42t37 -21.5q4 -2 8 -2h9q12 45 24.5 80.5t16.5 45.5l25 81q-41 12 -74.5 29.5
t-42.5 49.5q-8 28 12 61.5t56 65t83 57.5t93 40q7 14 16 29.5t20.5 29t24.5 23t30 12.5q16 3 38.5 -5.5t30.5 -25.5q4 -9 0 -12t-10 -12q-6 -6 -11.5 -13.5t-9.5 -15.5l-4 -6l8 -3q16 -8 25 -18.5t10 -24.5q19 8 37 11q24 5 43 4t29 -5.5t9 -11.5t-16 -16t-32 -24t-31 -33
t-24.5 -37.5t-13.5 -37.5q-1 -6 -10.5 -8.5t-23 -1.5t-28.5 6t-27 12.5t-18.5 18.5t-2.5 25q5 23 26 47q0 13 -10 20q-23 -37 -43 -75.5t-38 -77.5q65 -20 102.5 -51.5t37.5 -69.5q0 -30 -25 -67t-65.5 -70t-92 -58.5t-105.5 -32.5l-21.5 -60t-18.5 -62zM393 221
q-2 21 -20.5 34t-45.5 23l-7 -13l-35 -81l-34 -82q25 6 51 16t47 24.5t33 34t11 44.5zM337 524q-30 -11 -51 -28t-29.5 -35.5t-2.5 -35.5t31 -27l25 63.5z" />
    <glyph glyph-name="fina" horiz-adv-x="221" 
d="M141 562q32 -11 50.5 -30.5t16.5 -55.5q-2 -35 -23.5 -87.5t-56 -109t-80 -110.5t-94.5 -91q-13 -10 -24.5 -10t-20 6t-14 16t-5.5 20q46 24 88.5 76.5t76 117t56 133t30.5 125.5z" />
    <glyph glyph-name="a_alt" horiz-adv-x="436" 
d="M354 467q7 12 21.5 7.5t28 -16t22 -24t4.5 -16.5q-4 -5 -17 -26.5l-29.5 -51t-33.5 -64t-29 -65t-16.5 -53.5t4.5 -30q9 -8 21 -6t25.5 10t26.5 19.5t24.5 23.5t19 22.5t10.5 15.5q3 7 8 8t8 -4.5t3 -17t-6 -27.5q-6 -17 -29.5 -47.5t-53 -60t-59.5 -49.5t-49 -15
q-35 9 -43.5 52t4.5 105q-48 -68 -92.5 -113t-77.5 -51q-17 -3 -32.5 2t-26.5 21.5t-15 45t2 71.5q7 53 35.5 106t69 97t88 74.5t93.5 39.5q20 4 36.5 -4t27.5 -20q6 11 12.5 20.5zM96 129q12 -5 29.5 4t37.5 27.5t42 44t43 52.5q22 60 53 121q-39 -7 -73 -27t-60.5 -46
t-45.5 -55.5t-28.5 -54.5t-9.5 -43.5t12 -22.5z" />
    <glyph glyph-name="b_alt" horiz-adv-x="390" 
d="M442 741q-2 -17 -13 -46t-31 -67t-47.5 -82.5t-61.5 -91.5q10 0 23.5 -6t26 -17t21 -27.5t8.5 -36.5q0 -38 -15.5 -80.5t-41 -83t-58 -77.5t-66 -65t-66.5 -44.5t-58 -16.5q-20 0 -37 11.5t-28 33t-14.5 52t4.5 68.5q15 76 49 165t81.5 175t106.5 161t125 125q11 8 27 8
t31 -7.5t25 -20.5t9 -30zM273 432q-43 -57 -91.5 -112.5t-102.5 -106.5q-14 -47 -12 -80t26 -39q19 -5 41 12t43.5 46.5t41 67.5t33.5 77t20 75t1 60zM319 619q-5 3 -26.5 -22t-52 -69t-64.5 -102.5t-62 -121.5q48 60 87.5 116t66.5 99.5t40.5 70.5t10.5 29z" />
    <glyph glyph-name="c_alt" horiz-adv-x="378" 
d="M352 428q18 4 32.5 3.5t22 -5t7 -12t-12.5 -15.5t-24.5 -22.5t-23 -31.5t-18.5 -36t-10 -36q-2 -9 -17 -10t-31.5 5.5t-29 19.5t-8.5 33q6 29 27 54t53 42q-54 -3 -103.5 -43.5t-87.5 -104.5q-23 -36 -33 -68t-8 -56t16 -37.5t38 -13.5q25 0 54.5 8t60.5 23.5t62.5 37.5
t59.5 50q5 5 11 -1.5t0 -25.5q-7 -20 -35 -51.5t-69.5 -61.5t-90.5 -51.5t-98 -21.5q-32 0 -57 14t-39 41t-15 67t15 91t46 100t67 88t76 63t73 26q18 1 33.5 -6.5t26.5 -18t16.5 -21.5t4.5 -18l9 2v0z" />
    <glyph glyph-name="d_alt" horiz-adv-x="441" 
d="M674 736q-2 -23 -30 -68t-73 -103.5t-103 -126l-118 -134.5l-6 -8l-14 -35q-26 -64 -31.5 -108.5t17.5 -49.5q10 -2 26 9.5t35 29.5t39 41l38 45q12 15 21 18t13.5 -2.5t1.5 -19t-15 -31.5q-21 -30 -48 -64.5t-56.5 -64t-59 -49.5t-53.5 -20q-14 0 -24 10.5t-16.5 29
t-9 42.5t-0.5 51q0 6 1 12.5l2 12.5l-60.5 -65t-56 -55t-48.5 -39t-38 -17q-15 -1 -29 6.5t-22.5 25t-9 46t12.5 70.5q16 52 51.5 106t79 98t90 73t84.5 32q10 2 18.5 -3.5t14.5 -13.5q27 55 60 108.5t69.5 101.5t75.5 89t78 71q11 8 27.5 7.5t31 -8t25 -20.5t9.5 -30z
M74 106q10 -5 26.5 2.5t36 22.5t41.5 36l44 44q8 32 18.5 66t24.5 68q-27 -11 -55 -31.5t-52.5 -46t-45 -52t-32.5 -49.5t-14.5 -39.5t8.5 -20.5zM551 614q-4 3 -18 -11t-34.5 -41.5t-45.5 -65.5t-50 -82l62.5 78l48 62.5t29.5 42t8 17.5z" />
    <glyph glyph-name="e_alt" horiz-adv-x="360" 
d="M347 405q1 -27 -9.5 -60t-33 -64t-57 -56.5t-80.5 -37.5q-23 -6 -41.5 0.5t-32.5 15.5q-14 -48 -5 -82.5t46 -37.5q24 -3 55.5 8.5t64.5 32.5t65.5 49.5t58.5 60.5q3 5 10 -2t1 -25q-5 -13 -18.5 -33t-33.5 -42t-46 -44t-55.5 -40t-61 -30t-63.5 -14q-37 -3 -65 10
t-44 40t-17.5 66.5t14.5 90.5q15 51 45 100t65 88t71.5 63t65.5 26q29 1 50.5 -14.5t28.5 -31.5q10 -9 16 -19t6 -18zM125 277q-8 -13 -14.5 -25.5t-11.5 -25.5q30 12 59.5 34.5t53.5 49.5t41 54.5t23 50.5q-38 -11 -76.5 -44.5t-74.5 -93.5z" />
    <glyph glyph-name="f_alt" horiz-adv-x="327" 
d="M469 740q-1 -20 -18 -60.5t-48 -93t-73 -112.5t-92 -120q27 -8 57 -11.5t57.5 -3t50 4.5t33.5 11q15 9 23.5 9.5t11 -4.5t-2 -13t-15.5 -15q-42 -30 -101.5 -45.5t-116.5 -12.5v-4q0 -38 -11 -85.5t-29.5 -96t-42.5 -94.5t-50.5 -82t-54.5 -57.5t-53 -21.5q-20 0 -35 18
t-20 54.5t1.5 93t29.5 133.5q13 44 36.5 100.5t54 118.5t67.5 126t77.5 122.5t84 107.5t87.5 82q11 9 27.5 9t31 -7t24.5 -20t9 -31zM102 207l-31 -82.5t-25.5 -84t-9.5 -67.5t18 -34q9 -3 24 30t30 83t28.5 106.5t19.5 101.5zM346 617q-4 4 -20.5 -13.5t-40 -49.5
t-51 -76.5t-54.5 -95.5q3 -2 6 -5t8 -5q37 49 66.5 93t49.5 77t29.5 53t6.5 22z" />
    <glyph glyph-name="g_alt" horiz-adv-x="399" 
d="M265 464q12 3 23 -2.5t19.5 -14.5t14 -20t6.5 -20q28 45 38 52q5 2 14.5 -2.5t19 -12t15.5 -17t5 -18.5t-15.5 -36.5t-33.5 -59.5t-38.5 -60.5t-31.5 -38.5q-7 -45 -18 -103.5t-28 -119t-41 -118.5t-57 -103.5t-75.5 -73t-97.5 -27.5t-87.5 16.5t-47 43t-12.5 59.5
t15.5 65t36 59.5t50.5 43.5q21 12 35 12.5t20 -5t3.5 -14t-15.5 -15.5q-28 -14 -43 -39.5t-13.5 -48t21 -34t60.5 2.5q46 15 77.5 44t55 71.5t42.5 97.5t39 123q-52 -62 -98.5 -103.5t-76.5 -47.5q-17 -3 -34.5 0t-30.5 16t-17.5 38.5t4.5 67.5q7 36 24 74t41 74t53 69.5
t59.5 59.5t61 43t58.5 22zM101 134q12 -3 28.5 4.5t36 23t41 36.5t42.5 45q12 37 30.5 75.5t37.5 70.5q-31 -6 -63.5 -26t-61 -47.5t-51.5 -57.5t-36.5 -56.5t-15.5 -45t12 -22.5z" />
    <glyph glyph-name="h_alt" horiz-adv-x="391" 
d="M360 445q11 2 22.5 -3.5t19 -14t10.5 -18.5t-2 -16q-37 -51 -66.5 -97.5t-48.5 -83.5t-25 -61.5t4 -32.5t26.5 -1t34 22.5t33 35.5t23.5 38q5 10 9.5 9t6.5 -7.5t2 -17.5t-4 -22q-3 -9 -13 -25t-24 -35t-31 -39t-34.5 -36.5t-34.5 -27.5t-30 -12q-28 -3 -43.5 12.5
t-20 42.5t2 62t22.5 71q13 32 34 63t44 57q-47 -20 -88.5 -55t-73.5 -74.5t-53.5 -79.5t-27.5 -70q0 -1 1 -1q6 -8 -4.5 -16.5t-27 -13.5t-34 -5.5t-24.5 7.5q-4 4 -3 19.5t9 44.5t22.5 72.5t37.5 105.5q15 41 38.5 91.5t51.5 104t60 107t64.5 101.5t65.5 88t63 66
q5 5 20 -3t30.5 -22t28 -31t12.5 -30q-2 -14 -16.5 -47.5t-47.5 -82.5t-86.5 -109.5t-133.5 -127.5q-14 -24 -27 -49l-25 -50q29 31 62 61.5t66 57t64.5 47.5t58.5 33v-2zM363 667q-4 3 -23.5 -17.5t-46 -55t-56 -79t-54.5 -88.5l67 84l59 76t41 56t13 24z" />
    <glyph glyph-name="i_alt" horiz-adv-x="204" 
d="M112 427q9 11 25 10t31.5 -7.5t26.5 -15.5t11 -15q-1 -5 -7 -18.5t-16.5 -30.5t-24.5 -35.5t-30 -34.5l-25.5 -48.5t-20.5 -45.5t-10 -36.5t6 -21.5q13 -12 33 -3t39.5 26t35 35.5t18.5 26.5q4 7 9 8t8.5 -4.5t3.5 -17t-6 -27.5q-4 -11 -16.5 -29t-29.5 -38.5t-37 -40.5
t-39.5 -35.5t-37.5 -24t-30 -4.5q-19 5 -28.5 30t-12 57.5t0.5 67t11 58.5q9 28 21.5 57.5t27.5 57.5t31.5 53.5t31.5 45.5zM71 589q9 22 32.5 42t55 36t68 25t71.5 9q37 -2 49 -30t3 -66q9 0 16 -3.5t12.5 -9.5t8 -12.5t2.5 -10.5q-2 -14 -9.5 -25.5t-18 -21t-22.5 -17.5
l-22 -15q-7 -5 -19.5 -10t-27 -9t-30 -6t-29.5 -2q-26 1 -56.5 7.5t-53.5 21.5t-33.5 38.5t3.5 58.5zM138 546q14 -17 39.5 -16.5t52.5 11t50 27t31 32.5q-12 12 -38.5 10t-54 -12.5t-51 -25t-29.5 -26.5z" />
    <glyph glyph-name="j_alt" horiz-adv-x="214" 
d="M94 414q10 13 26 11.5t30.5 -10.5t24 -21t8.5 -19q-4 -11 -14.5 -28.5l-23.5 -37.5l-27 -40l-24 -34l-25.5 -108l-29.5 -128q54 53 102 108t73 106q4 8 9.5 8t8 -7.5t1 -22t-10.5 -34.5q-8 -17 -29 -46.5t-50.5 -65l-63 -73.5l-64.5 -72q-11 -42 -20.5 -74.5t-17.5 -47.5
q-14 -27 -31.5 -41t-36 -18t-36 0.5t-30.5 13.5t-20.5 21t-5.5 24q3 14 36.5 47t83.5 78q10 65 24.5 147t38.5 163q18 60 45.5 112zM48 574q7 22 32 45t59 42.5t73 32.5t73 16q19 1 32 -5.5t20.5 -19t9.5 -29.5t-1 -36q18 3 30.5 -10t12.5 -22q-1 -14 -7 -26t-15.5 -22.5
t-20.5 -20l-21 -17.5q-6 -5 -21.5 -11.5t-34 -12.5t-37.5 -10.5t-33 -5.5q-26 -1 -56.5 2.5t-55 16t-37.5 35t-2 58.5zM118 538q16 -15 45.5 -12t59.5 16.5t55 32.5t31 36q-9 7 -25.5 7t-36.5 -5.5t-41.5 -14.5t-39.5 -19.5t-31.5 -21.5t-16.5 -19z" />
    <glyph glyph-name="k_alt" horiz-adv-x="409" 
d="M364 484q12 1 23.5 -5.5t20 -18.5t12.5 -27.5t2 -31.5q-5 -32 -28.5 -61.5t-55.5 -55t-68.5 -45t-66.5 -29.5q3 -16 8.5 -34.5t12.5 -35t15 -27.5t16 -12q11 -2 36 14t51 36.5t46 39t21 22.5q6 -2 10.5 -12t-2.5 -26q-4 -8 -16.5 -24t-30 -35t-38.5 -39t-41.5 -37
t-39.5 -28t-33 -12q-26 -2 -44 20t-28.5 54t-13.5 67t0 61q-23 4 -35 12t-16 16q-12 -32 -21 -63t-15 -57t-7 -44.5t4 -25.5q6 -8 -5.5 -18t-29.5 -17.5t-36.5 -10t-25.5 5.5q-4 4 -3 19.5t9 44.5t22.5 72.5t37.5 105.5q15 41 38 91.5t51 104t60 107t65 101.5t66 88t63 66
q5 5 15.5 0t21 -15.5t18.5 -24.5t8 -27q0 -19 -19.5 -62t-58 -100t-94.5 -122.5t-128 -129.5l-14 -31q28 21 52 22t36 -24q42 26 86.5 75.5t86.5 122.5z" />
    <glyph glyph-name="l_alt" horiz-adv-x="245" 
d="M433 740q-2 -8 -21.5 -39l-49 -76l-66.5 -98.5l-73.5 -106.5l-69 -100.5l-54.5 -78.5q-8 -29 -12 -55.5t-4 -47t4.5 -33.5t15.5 -14q11 -2 31.5 11.5t43 34.5t43 45.5t32.5 43.5q7 10 12.5 -4t-4.5 -38q-5 -10 -17.5 -27.5t-31 -38.5t-40.5 -42.5t-45.5 -39t-46.5 -28.5
t-42 -11t-34 15t-20 45.5t2.5 78.5t33.5 114q18 46 45 100.5t58 110.5t64 109.5t65 99t60.5 79t50.5 49.5q7 4 20 1t25 -11.5t20 -21t5 -26.5z" />
    <glyph glyph-name="m_alt" horiz-adv-x="586" 
d="M545 445q10 1 21 -4.5t19 -14t11.5 -18t-0.5 -15.5q-37 -51 -65.5 -97.5t-46 -83.5t-22 -61.5t5.5 -32.5t26.5 -1t34 22.5t33.5 35.5t24 38q5 10 9 9t6 -7.5t2 -17.5t-4 -22q-3 -9 -13 -25t-24 -35t-31 -39t-34.5 -36.5t-34 -27.5t-29.5 -12q-29 -3 -45 12.5t-20.5 42.5
t2 62t21.5 71q14 32 33.5 63.5t40.5 57.5q-45 -18 -82.5 -51t-66 -71.5t-46 -77.5t-23.5 -69q0 -8 -13.5 -12t-30 -2t-31 12t-16.5 31q-2 13 2 36t14.5 52.5t28.5 62.5t45 66q-45 -18 -81 -51t-62 -71t-42 -76t-22 -68q1 -14 -12 -19t-30.5 -1.5t-32.5 16t-17 33.5
q-2 15 10 50.5t31.5 81.5t43 95.5t46.5 92.5t41 72.5t27 35.5q12 8 30.5 7t34.5 -7t25.5 -14t5.5 -13q-42 -51 -75.5 -105.5t-57.5 -106.5q24 30 50.5 59t55 53.5t57 44t55.5 31.5q10 4 23.5 2.5t25 -6t17.5 -11t2 -12.5q-35 -51 -60 -94.5t-42 -81.5q25 34 54.5 67t61.5 62
t64 52t62 38q3 3 6 3l4 2v-2z" />
    <glyph glyph-name="n_alt" horiz-adv-x="395" 
d="M364 469q11 1 22 -4.5t19 -14t11 -18t-2 -15.5q-37 -51 -70 -105t-55.5 -99.5t-32 -78t0.5 -40.5t30 3t41 31t40 43.5t27 41.5q5 10 9 9t6.5 -7.5t2 -17.5t-3.5 -22q-4 -9 -15.5 -26.5t-28 -39.5t-36 -45t-39 -42t-37.5 -31.5t-31 -13.5q-29 -3 -46 12t-23 42t-1 62
t21 72q8 17 20 38.5t27 44t31.5 44.5t32.5 40q-47 -21 -88.5 -59.5t-73.5 -82.5t-53 -87.5t-27 -73.5q2 -14 -11 -19t-30 -1.5t-32.5 16t-18.5 33.5q-1 15 8 46.5t24 71.5t34 82.5l37 79.5t33.5 62.5t23.5 31.5q13 8 31.5 7t34.5 -7t25.5 -14t5.5 -13q-45 -53 -74 -103.5
t-48 -95.5q27 39 60.5 79t70.5 75t75 63.5t73 45.5z" />
    <glyph glyph-name="o_alt" horiz-adv-x="450" 
d="M247 479q3 0 10.5 -2.5t16.5 -7.5t18 -11.5t16 -12.5q9 7 17 5t13 -14q3 -6 4 -12t2 -14q8 -15 1.5 -55t-24.5 -90q2 -6 3 -10.5t3 -7.5q9 -24 24.5 -37.5t33 -17t34.5 1.5t31 19q12 12 20.5 14.5t12 -1.5t1 -13t-11.5 -19q-20 -24 -45 -36.5t-51 -15t-50.5 4t-43.5 20.5
q-22 -44 -50 -83.5t-59.5 -66.5t-66.5 -37t-71 5t-48.5 54.5t-7 91.5t28.5 109t58.5 107t81.5 86t99 46zM237 245q-6 44 5.5 86t29.5 72l-3 6q-24 -11 -51 -34t-51.5 -53t-44.5 -63.5t-31 -65.5t-10 -59.5t18 -44.5q14 -15 32.5 -9.5t38 24.5t39 48.5t34.5 62.5q-3 8 -4 15
t-2 15z" />
    <glyph glyph-name="p_alt" horiz-adv-x="410" 
d="M410 213q2 3 6 1t7.5 -7.5t4 -13.5t-5.5 -18q-53 -96 -118 -142t-129 -56q-8 0 -21 0.5t-27 3t-28 6t-25 8.5q-47 2 -66 33q-4 4 -4 11q-35 -88 -51 -169.5t-6 -142.5q1 -6 -11.5 -9t-29 -1.5t-33 8t-22.5 18.5q-9 17 -4 56t21 92t40 116t52.5 128t59.5 128l60 116.5
t55 93t44 56.5q10 9 23.5 6t25 -11.5t17.5 -19t0 -15.5q-9 -8 -23 -25t-29 -39t-29.5 -46t-26.5 -46q22 30 45 57.5t44 48t39.5 33t30.5 12.5q24 1 38.5 -7.5t22.5 -21.5t11.5 -26.5t3.5 -21.5q0 -28 -14 -74.5t-38 -98.5t-55.5 -102.5t-66.5 -84.5q23 6 49 17t53 30t55 48
t55 71zM276 383q-5 9 -25.5 -3t-49 -38.5t-61 -65t-62.5 -83.5q-2 -20 -2.5 -39.5t0.5 -37t4.5 -30.5t9.5 -19q16 3 37 26t43 56t42.5 71.5t35.5 73t23 59t5 30.5z" />
    <glyph glyph-name="q_alt" horiz-adv-x="420" 
d="M-113 -203q-8 14 -4.5 28t15.5 22q25 17 81 36t125 35q33 76 72 156l74 151l-51 -73.5l-47.5 -69.5l-36.5 -53.5t-18 -25.5q-5 -6 -27 -5.5t-46.5 10t-44 28t-20.5 47.5q-1 35 14.5 78.5t42 89t60 89t69 77.5t70 55.5t62.5 22.5q14 0 29 -7t28 -17.5t23 -22t15 -18.5
q7 3 17 0q9 -1 18 -7.5t15.5 -14.5t10.5 -16t4 -12q-17 -17 -45.5 -61.5t-60 -105.5t-63.5 -132.5t-57 -141.5q72 11 137 11t106 -17q15 -7 23 -20t11 -28.5t1 -32t-7 -30.5q-66 22 -142.5 28.5t-156.5 0.5q-25 -83 -23 -143q0 -6 -14.5 -17.5t-33.5 -19.5t-37.5 -9.5
t-26.5 11.5q-13 20 -5 64t30 103q-50 -8 -96.5 -18.5t-89.5 -24.5zM330 397q6 8 12 15t13 12q-32 0 -62.5 -14.5t-58.5 -37.5t-52.5 -51.5t-43 -57.5t-30 -54.5t-14.5 -42.5q-1 -4 -2 -11.5t-1 -15.5t3 -14.5t9 -8.5q8 6 26.5 28l42 51.5l49.5 63l48.5 62.5l39 50t21.5 26z
" />
    <glyph glyph-name="r_alt" horiz-adv-x="307" 
d="M121 0q-24 0 -37 24.5t-8.5 71.5t31.5 115.5t83 156.5q-14 -1 -26.5 -1.5t-18.5 -0.5q-9 -20 -28.5 -51.5l-41.5 -64l-42.5 -61t-32.5 -41.5q-33 -41 -61.5 -55.5t-42.5 -6.5q20 22 47 61.5t54 84.5t50.5 90t38.5 80q-10 17 -13.5 41t4.5 56q6 22 26.5 29.5t40.5 5.5
t33.5 -11t6.5 -19q-8 -11 -14 -29t-11 -37q29 -7 48.5 -13.5t31.5 -12.5q10 -2 19.5 -8.5t17 -14.5t11 -15.5t2.5 -10.5l-21 -34l-27.5 -45.5l-28.5 -50t-22.5 -48t-10.5 -39.5t8 -24q10 -8 29.5 3t38.5 28t34 35t18 25q2 0 6.5 -0.5t7.5 -4t3.5 -11t-3.5 -19.5
q-9 -24 -32 -55t-52 -58.5t-60 -46t-56 -18.5z" />
    <glyph glyph-name="s_alt" horiz-adv-x="308" 
d="M234 483q32 -8 52.5 -35t23 -58.5t-16 -59.5t-64.5 -38q2 13 -4.5 34.5t-19.5 39.5t-30 28.5t-36 3.5q-14 -6 -25 -17.5t-18.5 -24t-10.5 -25t0 -21.5q6 -20 27 -38.5l44 -37t42 -37.5t22 -41q2 -20 -7 -46.5t-27.5 -52t-45 -45.5t-58.5 -27q-25 -6 -53.5 -1t-54.5 18.5
t-45.5 34.5t-26.5 48q-6 21 3.5 41t26 36t36.5 25.5t37 8.5q-6 -13 -6 -34t8.5 -44t26.5 -45t47 -38q16 13 29 27t11 28q-3 23 -24.5 45.5t-45.5 44t-42 43t-15 43.5q7 44 31.5 87t58 75t73 48t77.5 7z" />
    <glyph glyph-name="t_alt" horiz-adv-x="200" 
d="M-199 511q-3 6 -5 13.5t1 16.5q2 4 6 9t10 11q6 4 15 9t20 10q13 7 39 15l60 18q34 9 73.5 17.5t81.5 16.5q24 4 48 6.5t48 4.5q15 20 29 34.5t28 20.5q10 4 25.5 1t29.5 -10.5t23.5 -18.5t6.5 -24l-2 -6l30 -8q15 -7 23.5 -20.5t11.5 -29t1 -32t-7 -30.5q-22 7 -51 13
t-63 9l-53 -85.5l-58 -92l-55 -86l-44 -67.5q-7 -26 -10.5 -50.5t-3 -43t4.5 -30.5t12 -13q10 -2 27 11t35.5 32.5t35.5 41.5t26 39q3 5 6 3.5t4.5 -7t0.5 -14.5t-5 -20q-4 -9 -14.5 -25.5t-25.5 -36t-33.5 -39.5t-37.5 -36.5t-38 -27t-35 -10.5q-15 0 -27.5 13.5t-17 42.5
t2 74t27.5 107q12 37 27.5 78.5l32.5 84t36 84t38 78.5h-25q-43 -2 -85.5 -6.5t-83.5 -11.5q-42 -7 -78.5 -14.5t-67.5 -18.5z" />
    <glyph glyph-name="u_alt" horiz-adv-x="407" 
d="M114 427q26 15 54.5 6.5t41.5 -34.5q-4 -5 -19 -26.5l-35 -50.5l-41 -62t-36.5 -63t-22.5 -52.5t2 -30.5q7 -7 25 7t41 40t49.5 60l51 68.5l45 64t31.5 47.5l14.5 26t15.5 25q8 11 21 6.5t25 -15.5t19 -24t4 -17q-4 -5 -17 -25t-29 -48.5l-33 -60.5t-28.5 -60.5
t-16 -50.5t4.5 -29q13 -12 33 -3t39.5 26t35 35.5t18.5 26.5q4 7 9 8t8 -4.5t3 -17t-6 -27.5q-6 -17 -29.5 -47.5t-53 -60t-59 -49.5t-48.5 -15q-18 5 -27 22t-11 42.5t3 59t15 71.5q-27 -47 -54 -88.5t-53 -71.5t-51.5 -43.5t-49.5 -2.5q-20 9 -28.5 31t-8 52t8.5 66
t20.5 73t28 73t31.5 65.5t31.5 50t27.5 27.5z" />
    <glyph glyph-name="v_alt" horiz-adv-x="355" 
d="M214 444q0 -10 -13 -36t-35 -60l-49.5 -73l-55.5 -75q-5 -18 -7 -35t-1 -31t6 -23.5t16 -11.5t34.5 21.5t52 63t58.5 90t55 103t41 101t17 83.5q1 10 11.5 8.5t23.5 -13.5t24.5 -33.5t13.5 -50.5q1 -19 -15.5 -61.5t-45.5 -95t-67.5 -108.5t-80.5 -102t-85 -75.5
t-81 -29.5q-25 0 -38.5 21.5t-16 57t6 82.5t27.5 98t48.5 103.5t69.5 98.5q7 9 21.5 11.5t29 -0.5t25 -10.5t10.5 -17.5z" />
    <glyph glyph-name="w_alt" horiz-adv-x="538" 
d="M117 422q14 16 33 17t34.5 -5.5t23.5 -17t2 -17.5q-6 -6 -23 -26.5t-37 -49l-41 -60.5t-35.5 -61.5t-20 -53t5.5 -34.5q7 -8 18.5 -6t25.5 10t29.5 22t31.5 32q15 59 48 125.5t86 129.5q8 9 21.5 11.5t27 -0.5t23 -11t9.5 -18t-11.5 -31.5t-31 -49.5l-44.5 -61.5
t-53 -67.5q-4 -18 -6 -35t-0.5 -30.5t6.5 -23t16 -11.5t34 21.5t50 62.5t56 89.5t52.5 102.5t39 100.5t16.5 83.5q0 11 11 10t24 -13t25 -33.5t14 -50.5q1 -19 -15 -62t-44.5 -95t-65.5 -108t-78 -102t-83 -75.5t-80 -29.5q-29 0 -42.5 22.5t-15.5 62.5q-38 -48 -76 -76.5
t-73 -19.5q-28 8 -36 36t-2.5 68t21.5 87t38 92t46 85t46 65z" />
    <glyph glyph-name="x_alt" horiz-adv-x="366" 
d="M456 512q12 2 19 -6.5t9.5 -20t0.5 -21.5t-6 -12q-38 -17 -77.5 -45t-79 -62.5t-79 -74.5l-75.5 -80q14 -34 31.5 -56.5t34.5 -23.5q22 -2 44.5 12.5t41.5 33t31.5 36t14.5 21.5t7 4.5t9.5 -4t6 -13t-2.5 -20.5q-5 -12 -24.5 -41.5t-46.5 -60.5t-58 -54.5t-57 -23.5
q-31 0 -63 21.5t-54 64.5l-55 -70.5l-43 -59.5t-28.5 -43t-10.5 -21q-1 -9 -12.5 -5t-24 15.5t-21 27.5t-2.5 31q5 16 20 39.5t37.5 52t51 61t61.5 66.5q-1 11 -1.5 20.5t0.5 19.5q-22 -27 -39 -45.5t-23 -21.5q-13 -7 -23 -6t-17 14l54 63.5l57 71.5q14 57 39.5 97t49.5 51
q13 6 26 -0.5t22 -17t12.5 -21t-2.5 -14.5q-14 -10 -33.5 -29.5t-40.5 -44.5q1 -12 2.5 -24.5t4.5 -24.5l96 90t90 77t75 54.5t51 22.5z" />
    <glyph glyph-name="y_alt" horiz-adv-x="412" 
d="M148 438q7 6 20.5 0.5t24.5 -15.5t15.5 -21t-5.5 -17q-9 -5 -25.5 -24t-36 -45t-38.5 -56.5t-32.5 -57.5t-19 -48t3.5 -29q8 -7 25 2.5t38.5 29t46 45.5t46.5 53q17 45 39 88.5t51 88.5q10 13 26 11.5t30.5 -10t24.5 -20.5t8 -19q-3 -11 -17 -34t-31.5 -49l-35.5 -50.5
l-29 -38.5l-38 -156q60 33 106.5 69t66.5 78q4 9 9 9t7.5 -7.5t1 -22.5t-11.5 -35q-10 -22 -30 -44t-46 -43t-57.5 -42t-65.5 -40q-12 -42 -27 -82t-32 -73t-36 -56.5t-41 -33.5q-20 -8 -46 -8t-52.5 6.5t-51 18.5t-42.5 27.5t-27 34.5t-4 40q3 13 26.5 29t60.5 34.5
t83 38.5l94 43q16 38 29.5 77t26.5 81q-23 -37 -45 -69t-43 -54.5t-41.5 -33.5t-42.5 -5q-28 7 -36.5 35t-2.5 69t23.5 89.5t42.5 94.5t54.5 85t58.5 62zM-23 -192q29 23 52.5 47.5t41.5 53.5l-64 -36.5t-42.5 -29t-13 -22t25.5 -13.5z" />
    <glyph glyph-name="z_alt" horiz-adv-x="321" 
d="M12 255q11 8 25 6t37 -13l52.5 50l55.5 50t55 44t52 33q-32 -6 -67.5 -15.5t-69 -21t-62 -23.5t-44.5 -22q-7 -4 -12 8.5t-6 30.5t3 35.5t15 23.5q14 8 49 15.5t75.5 13.5t77 10t53.5 4q16 0 26 -8t14.5 -18t3.5 -18.5t-8 -9.5q4 -9 6.5 -22t2.5 -26.5t-3.5 -23.5
t-10.5 -13q-10 -4 -32 -16.5t-50.5 -31l-61 -41l-63.5 -45.5q27 -23 46.5 -50.5t18.5 -50.5l-3 -25q47 29 83.5 61t53.5 67q4 9 9 9t7.5 -7.5t1 -22.5t-10.5 -35t-25 -39.5t-38 -38.5t-47.5 -38t-53.5 -37q-12 -38 -30 -79t-40 -77.5t-48 -64.5t-54 -40q-20 -8 -46 -8
t-52.5 6.5t-51 18.5t-42.5 27.5t-26.5 34.5t-3.5 40q3 15 31.5 33t72 39t97 44.5l107.5 49.5q6 28 6 48q-1 30 -10.5 46.5t-32.5 30.5q-39 -16 -54.5 -21t-24.5 5q-9 9 -8.5 24.5t8 33t20 34t27.5 26.5zM-83 -194q36 27 63.5 57t48.5 60l-72.5 -42t-50.5 -34.5t-17 -26
t28 -14.5z" />
    <glyph glyph-name="question" unicode="?" horiz-adv-x="418" 
d="M-13 -18l15.5 42.5t14.5 37.5t14 28.5t16 14.5q8 3 27 2t37.5 -7.5t31.5 -20.5t10 -36t-20 -40.5t-41 -28.5t-52 -9.5t-53 17.5zM188 469q-11 1 -27.5 5t-30.5 13.5t-21.5 25.5t0.5 40q10 32 37 58.5t63 45t76.5 27t76.5 5.5q24 -3 47 -20.5t40.5 -41.5t27 -50t7.5 -45
q-5 -38 -34.5 -74.5t-71.5 -69.5t-89.5 -62.5l-88 -54t-67 -43t-25.5 -30.5q-11 4 -18 11q-6 6 -10.5 16t-0.5 24q7 25 36.5 55t67.5 62l78.5 65t69.5 64.5t40.5 60.5t-7.5 53q-17 22 -43.5 17t-53 -27t-48.5 -56.5t-31 -73.5z" />
    <glyph glyph-name="A_alt" horiz-adv-x="671" 
d="M202 -62q-51 3 -76 22t-33 47t-2.5 61t17.5 65q10 32 29 62q-35 -4 -63 -9t-42 -11q-5 4 -11 15t-9 24.5t-1 27.5t13 24q14 13 61.5 18t112.5 2q41 52 94 106.5t114.5 107t129.5 102t140 93.5q13 17 34.5 18t40 -6t29.5 -18t3 -18q-29 -26 -61 -71t-61 -101t-52.5 -120
t-36 -129.5t-10.5 -128.5t24 -117q-2 -5 -18.5 -18.5t-38.5 -23t-44.5 -8.5t-35.5 26q-18 37 -16.5 94t17.5 126q-26 6 -71.5 7.5t-97.5 -0.5q-42 -77 -63.5 -146t-15.5 -123zM607 590q-85 -70 -157.5 -151t-126.5 -165q36 -6 71 -13t67 -18q12 44 28 89.5t35 90t40 87
t43 80.5z" />
    <glyph glyph-name="B_alt" horiz-adv-x="679" 
d="M157 390q-31 -17 -56.5 -12t-41 24t-18 47t12.5 57q25 47 74.5 85.5t111.5 65.5t130 41.5t129.5 13t110.5 -20.5t72 -57q18 -30 15 -63.5t-21.5 -66.5t-49 -65.5t-67.5 -61.5q26 -14 42.5 -37t21.5 -55q6 -45 -19 -93t-68 -92.5t-98.5 -82.5t-110.5 -62t-103.5 -32
t-78.5 8q-18 10 -27.5 32t-13.5 46q-8 -19 -14.5 -36.5t-11.5 -34.5q-23 8 -38 22t-21.5 31.5t-6.5 38t7 40.5q5 17 21.5 52.5t40.5 81l53.5 98t60.5 102.5l61 94t55 74q-32 -11 -62 -24.5t-54 -30t-41.5 -35t-24.5 -38.5q-6 -17 4 -35t24 -19zM228 277l-51 -103t-46 -101
q25 -24 64 -28.5t82.5 6t87 32.5t77.5 50t54.5 60t18.5 63q-2 20 -22 30.5t-49 14.5q-48 -26 -91 -40.5t-69 -14.5q-21 0 -35 9.5t-21 21.5zM415 592q-11 -11 -27 -35l-36 -56.5l-43 -73l-47 -84.5q46 35 107 50t118 7q25 15 46.5 31.5t37 33.5t23 34.5t5.5 34.5
q-4 22 -20 36t-41.5 21.5t-57.5 8t-68 -3.5z" />
    <glyph glyph-name="C_alt" horiz-adv-x="503" 
d="M503 213q1 3 5.5 3t8 -4t4.5 -11.5t-3 -20.5q-7 -22 -28.5 -49.5t-52 -54.5t-69 -50.5t-79 -38.5t-82 -18t-78.5 11q-62 24 -90.5 71t-29 107t22 128t62.5 133t93 122.5t112.5 97t122.5 56.5t122 0q23 -6 31 -21.5t2 -33.5q19 9 42 14q24 6 43.5 5.5t30 -6.5t10 -16
t-16.5 -21q-16 -12 -33.5 -31.5t-32.5 -43t-25.5 -49.5t-13.5 -50q-2 -12 -22 -13.5t-43 7.5t-40 28t-11 47q11 47 47 85q-38 20 -78.5 13.5t-78.5 -31t-72.5 -64t-62 -85t-46.5 -94.5t-25 -93t1.5 -79t32.5 -53q23 -17 53 -20.5t63 1.5t65.5 18t60.5 30t48.5 36t29.5 38z
" />
    <glyph glyph-name="D_alt" 
d="M714 562q9 -50 -2.5 -107t-38.5 -116t-67 -116t-86 -107.5t-96.5 -91.5t-98.5 -67t-91.5 -34t-76.5 7q-19 8 -28 30t-13 48q-8 -18 -14.5 -35.5t-11.5 -34.5q-47 15 -66.5 52t-6.5 77q5 17 24 55.5t46.5 87.5l60.5 104l67 107l65.5 96t56.5 71q-42 -14 -79 -34.5
t-63.5 -45t-38.5 -52t-3 -55.5q-32 -16 -58.5 -12t-43.5 19.5t-22 38t7 44.5q18 36 55 69t85 61t104 49t112.5 31.5t110 9.5t97.5 -16.5t74 -48t40 -84.5zM445 589q-13 -13 -33.5 -42t-46 -69.5l-54.5 -89.5l-58.5 -102l-57.5 -107.5t-51 -105.5q32 -26 81.5 -17.5t104.5 42
t109 85.5t95 112t63.5 122.5t13.5 116.5q-5 28 -24 45.5t-47.5 25.5t-64 7.5t-73.5 -7.5q17 -3 29.5 -8t13.5 -8z" />
    <glyph glyph-name="E_alt" horiz-adv-x="623" 
d="M118 296q16 10 44 19t61 17l90.5 137t81.5 107q-14 0 -28 -1l-28 -2q-8 0 -30 -1t-44.5 -5t-38 -12t-10.5 -23q3 -9 10 -14.5t15 -9l16.5 -7t15.5 -9.5t6.5 -9.5t-5.5 -4.5t-12.5 -1h-12.5q-20 1 -39 8.5t-32.5 21t-19 31.5t1.5 41q11 33 39.5 55t68 35.5t86 20.5
t92.5 10t88.5 3h73.5q47 2 92.5 0t91.5 6q5 -46 -12.5 -83.5t-66.5 -48.5q-43 -10 -88.5 -8.5t-89.5 3.5q-19 1 -37.5 1.5t-36.5 0.5q-23 -29 -58.5 -88t-74.5 -132l53 7.5t47.5 5.5t38 3t25.5 0q28 -3 42 -25.5t10 -83.5q-27 2 -60 2t-68.5 -2t-71.5 -5t-70 -7
q-34 -65 -62.5 -129l-51.5 -120l81.5 28.5t77.5 23.5t69.5 15t56.5 3q24 -3 44.5 -14t36 -28.5t24.5 -39.5t9 -47q-91 7 -174 2t-153 -16t-124.5 -25t-88.5 -26q-4 2 -6 13t0 24t9 25t21 18l46 17q-14 20 -16.5 45.5t5.5 51.5q5 20 29 63.5l57 100.5l-35.5 -7t-23.5 -6
q-15 15 -13.5 37.5t26.5 37.5z" />
    <glyph glyph-name="F_alt" horiz-adv-x="461" 
d="M476 359q-3 -24 -20.5 -46.5t-46.5 -29.5q-29 -8 -71 -13t-88 -9l-42.5 -87.5l-39 -85t-34 -80t-25.5 -70.5q-49 16 -72.5 46.5t-7.5 89.5q8 29 29.5 72.5t52.5 94.5q-58 -13 -99 -33q-2 16 -2.5 36.5t4 40t15.5 36.5t33 25q16 6 49 7.5t75 1.5q44 64 89 122.5t80 96.5
q-26 2 -52.5 1.5t-52.5 -2.5q-9 0 -31 -1t-44.5 -5t-38 -12.5t-10.5 -23.5q-24 12 -37.5 31.5t-17.5 41t2 41.5t20 31q22 18 65 23.5t98 4t117 -6t122.5 -7t114.5 0.5t92 18q5 -47 -12 -84.5t-66 -48.5q-44 -11 -89.5 -8.5t-89.5 4.5h-19q-25 -37 -58.5 -93.5t-69.5 -124.5
q55 -2 102 -1t76 6z" />
    <glyph glyph-name="G_alt" horiz-adv-x="717" 
d="M379 295q27 16 70.5 30.5t88 25t83.5 15.5t58 4q14 -2 24.5 -7.5t17 -18t9.5 -33t1 -50.5q-21 2 -42 2h-43q-33 -53 -65 -132t-70 -193q-24 8 -41.5 18.5t-27 26t-10 36.5t11.5 50v1q-29 -25 -59.5 -45.5t-61.5 -33.5t-60.5 -16.5t-55.5 5.5q-50 18 -73 57t-24 90.5
t17.5 112t51.5 121.5t77 118.5t95 104.5q10 9 19.5 16.5l20.5 15.5q-116 -26 -200.5 -76t-150.5 -125q-18 7 -27 27t-8.5 44.5t11.5 50.5t34 44q34 27 87.5 49.5t118 37.5t135 20.5t138.5 -1.5q40 12 79.5 14.5t74.5 -6.5q23 -6 29 -21t0.5 -31.5t-19.5 -32t-30 -24.5
q-14 9 -41 14.5t-64 7.5q-38 -5 -75 -25t-66 -49q-31 -31 -59 -70t-50 -81t-36 -83.5t-18.5 -78.5t3 -66t29.5 -45q29 -21 66.5 -12t75 34t72 59.5t57.5 64.5q-64 -7 -115.5 -17.5t-74.5 -17.5q-15 14 -14 36t26 38z" />
    <glyph glyph-name="H_alt" horiz-adv-x="671" 
d="M531 -73q-25 -5 -47 -2t-39 13.5t-28 29.5t-12 47q-4 47 6.5 94.5t22.5 92.5q5 18 10.5 35.5t10.5 36.5l-87 -8t-87 -9q-41 -96 -73 -189.5t-43 -170.5q-23 7 -40.5 16.5t-29.5 23.5t-17 34.5t-2 50.5q4 39 24 96.5t49 122.5q-48 -6 -81.5 -11t-44.5 -9q-14 14 -13 36
t25 38q17 11 60 21t100 21l57 107.5l54.5 95.5t45.5 72.5t31 39.5q17 16 33.5 23t30.5 7t24.5 -5t16.5 -14q-10 -13 -27.5 -41t-39.5 -68t-46.5 -90l-49.5 -105q44 6 88 11t82 10q17 41 36.5 81t41.5 78q20 34 42.5 68.5t51.5 60.5q13 11 29.5 19.5t34.5 2.5q16 -2 21 -15
q5 -11 1 -14.5t-11 -12.5q-46 -56 -78.5 -122.5t-56.5 -135.5q9 1 15.5 1h10.5q28 -4 42 -26t11 -83q-20 1 -49.5 1t-64.5 -2q-25 -80 -37 -167q-7 -45 -11 -93.5t7 -93.5z" />
    <glyph glyph-name="I_alt" horiz-adv-x="429" 
d="M440 659q41 30 73 27.5t44 -19.5q-16 -17 -47 -62t-70 -108l-82 -139t-81 -154.5t-68 -154.5t-44 -138q-24 8 -43.5 18t-32.5 24.5t-18 35.5t0 51q6 40 32 98t62 123.5t78 131.5t81 121.5t70 94.5t46 50z" />
    <glyph glyph-name="J_alt" horiz-adv-x="628" 
d="M833 709q5 -47 -12 -84.5t-67 -48.5q-36 -9 -61 -9q-34 -29 -63 -81.5t-57 -116.5l-56 -133.5t-61 -131.5t-71.5 -111t-87.5 -72q-33 -17 -70 -14t-70.5 19.5t-61.5 45t-43 63.5q-14 32 -15 74.5t9 85t29 80.5t46 62q14 13 34.5 19t42 5.5t42.5 -8.5t36 -23
q-23 -17 -46 -50t-41 -72.5t-29.5 -81t-11 -75.5t14.5 -55.5t47 -21.5q26 0 51.5 35t52.5 90t56 122.5t63.5 133.5t75 124t89.5 93q-46 1 -91 2.5t-90 -1.5q-9 0 -31.5 -1t-44.5 -5t-38 -12.5t-11 -23.5q-24 12 -38 31.5t-17.5 41t2 41.5t19.5 31q22 18 62.5 23.5t92 4
t109 -6t114 -7t108 0.5t89.5 18z" />
    <glyph glyph-name="K_alt" horiz-adv-x="616" 
d="M379 659q41 30 73 27.5t44 -19.5q-11 -11 -28 -35l-38.5 -57l-46.5 -74.5l-51 -88.5q15 3 23 3q27 0 46 -14q44 26 82.5 58.5t73.5 66.5q29 27 55.5 57t47.5 65q12 17 23.5 38.5t11.5 43.5q20 -6 39.5 -15.5t32.5 -23t17 -32.5t-5 -43q-11 -33 -35 -61t-49 -52
q-53 -53 -115.5 -98t-131.5 -77q9 -25 14.5 -51t10.5 -46l17.5 -62.5t24 -62.5t36 -54t53.5 -37q-9 -21 -21 -40t-28.5 -31.5t-36 -14.5t-43.5 12q-35 20 -56.5 56t-32.5 72q-14 45 -19 89.5t-9 90.5l-7 43q-9 -2 -17.5 -2.5t-17.5 0.5q-11 2 -21.5 6.5t-17.5 14.5l-52 -105
t-46 -104.5t-37.5 -100t-25.5 -90.5q-24 8 -44 18t-32.5 24.5t-17.5 35.5t0 51q6 40 31 98t60 123.5t75.5 131.5l78 121.5t67.5 94.5t45 50z" />
    <glyph glyph-name="L_alt" horiz-adv-x="588" 
d="M535 73q2 -65 -26 -94.5t-102 -16.5q-27 4 -52 17t-49.5 28l-49.5 30t-52 25q-9 -22 -27.5 -39t-40.5 -26t-44 -9t-40 12q-17 12 -23 30t-4.5 37t10.5 37t23 30q20 17 46.5 26t56.5 12q16 42 38.5 90l48 98t53 98.5t54 90.5t49.5 75t41 52q21 22 41 31.5t40 8t40 -12.5
t40 -29q-40 -48 -88.5 -113.5l-97 -135.5l-92.5 -138.5t-75 -123.5q38 -9 70 -23.5l64 -29t67.5 -25t80.5 -12.5z" />
    <glyph glyph-name="M_alt" horiz-adv-x="850" 
d="M139 -131q-50 4 -84.5 32t-34.5 81q0 50 17.5 98t38.5 93q33 68 77.5 132t98 123t113 112t122.5 100q10 26 26 47.5t45 28.5q17 5 36.5 1.5t36.5 -12.5q11 -7 11.5 -9.5t-2.5 -12.5q-2 -7 -7 -14.5t-8 -13.5q-67 -125 -111 -265q79 95 174 174q30 25 61.5 48t66.5 40
q11 5 24.5 7.5t25.5 0.5l9 8q13 11 29.5 19.5t34.5 2.5q16 -2 21 -15q5 -11 1 -14.5t-11 -12.5q-30 -35 -53.5 -76t-43 -84.5t-35 -88l-29.5 -87.5q-15 -49 -27 -98t-20 -100q-7 -45 -10.5 -93.5t8.5 -93.5q-51 -9 -87.5 11.5t-40.5 76.5q-4 47 6.5 94.5t24.5 92.5
q21 82 54 162.5t75 157.5q-43 -38 -82 -80.5t-74 -87.5q-28 -37 -55 -77t-49.5 -83t-39 -87.5t-23.5 -90.5q-41 10 -68.5 36.5t-22.5 71.5l2 14t4 15q0 42 7.5 83t11.5 65q11 56 25.5 113t32.5 113l-59 -81l-58 -84t-51 -81t-39 -70q-41 -82 -61.5 -167t-33.5 -175z" />
    <glyph glyph-name="N_alt" horiz-adv-x="643" 
d="M136 -83q-23 -4 -44.5 -2t-38.5 11.5t-28 27t-13 43.5q-4 47 9 96.5t28 93.5q31 91 73 177t97 166l21 32t23.5 33.5t27 31t30.5 24.5q2 2 3 5.5t3 6.5q10 29 33 37.5t50 9.5q4 0 11 1.5t9 -2.5q3 -3 0 -17t-7.5 -31t-9 -31.5t-4.5 -18.5q-11 -52 -16.5 -104t-7.5 -106
q-2 -60 1 -119t11 -119q3 -24 7.5 -48.5t9.5 -47.5q2 28 7.5 57.5t11.5 55t11.5 45.5t8.5 30q26 91 63 180.5t92 168.5l24.5 33t30 32.5t35.5 22.5t40 4q8 -2 18 -6.5t19 -11t15.5 -14t8.5 -16.5q4 -10 -1 -12.5t-13 -10.5l-15 -13.5t-14 -14.5q-64 -70 -110.5 -154.5
t-83.5 -172.5l-30 -77.5t-26.5 -82.5t-18 -84.5t-3.5 -83.5q-33 -6 -51 12q-29 8 -50.5 32t-32.5 50q-17 43 -29 88.5t-20 90.5q-13 64 -17.5 128t1.5 129q-28 -52 -50 -105.5l-42 -106.5q-17 -49 -30.5 -97t-23.5 -99q-6 -36 -10 -74t7 -73z" />
    <glyph glyph-name="O_alt" horiz-adv-x="714" 
d="M116 -66q-47 38 -56.5 94.5t8 121.5t58 134.5t93.5 132.5t113 114.5t117 82.5q4 19 8 31t12 18q15 12 38.5 20.5t50.5 10.5t53.5 -5t47.5 -27q45 -44 56 -106t-5 -132.5t-53.5 -144t-88.5 -140t-111.5 -120.5t-121 -84.5t-117.5 -33.5t-102 33zM570 580q-3 2 -6 4.5
t-6 4.5q-38 -5 -77.5 -29.5t-77 -62t-71 -84.5t-59.5 -97t-42.5 -98.5t-19.5 -89.5t9 -70.5t43 -40.5q27 -10 59.5 4.5t66.5 46t67.5 76t61.5 94.5t49 102t29.5 98.5t3 84t-29.5 57.5z" />
    <glyph glyph-name="P_alt" horiz-adv-x="598" 
d="M332 596q10 9 24 11t26.5 -0.5t22 -7t10.5 -7.5q-15 -16 -41 -57t-58 -97l-67 -122t-67.5 -133.5t-60 -131t-43.5 -113.5q-23 8 -38 22t-21.5 31.5t-6.5 38t7 40.5q5 18 23.5 57.5t45.5 90l59 106.5l65 108.5t64.5 96t55.5 67.5zM157 473q-31 -17 -57 -11t-41.5 25
t-18 46.5t13.5 55.5q24 41 74 70t112.5 45.5t131.5 20.5t131 -5t110 -30.5t69 -55.5q24 -40 16.5 -86t-35 -92t-69.5 -89t-87.5 -75.5t-89 -51.5t-73.5 -18q-46 2 -63.5 19t-18.5 37.5t9.5 40t20.5 27.5q73 -11 136 3.5t106 43t61.5 66.5t3.5 75q-13 32 -50 51t-85.5 26.5
t-103 5t-102 -14t-83 -31t-46.5 -44.5q-3 -8 -2 -17t5.5 -17t11 -13.5t13.5 -6.5z" />
    <glyph glyph-name="Q_alt" horiz-adv-x="697" 
d="M116 -66q-47 38 -56.5 94.5t8 121.5t58 134.5t93.5 132.5t113 114.5t117 82.5q4 19 8 31t12 18q15 12 38.5 20.5t50.5 10.5t53.5 -5t47.5 -27q40 -38 52.5 -92t3.5 -115t-36.5 -126.5t-67.5 -127.5t-90 -117t-103 -96q23 -33 53.5 -53t73.5 -12q-2 -18 -5.5 -38
t-12 -37.5t-23.5 -28.5t-39 -9q-20 2 -38 11t-34 22t-30 29t-24 32q-5 6 -8.5 12.5t-7.5 12.5q-57 -26 -111 -28t-96 33zM570 580q-3 2 -6 4.5t-6 4.5q-34 -4 -68.5 -24t-68 -50.5t-65 -69.5t-57.5 -82t-45.5 -87t-30.5 -85q24 -1 46 -11.5t42 -27.5q18 -17 33.5 -42
t30.5 -54q35 29 70 73t65 95.5t52.5 105.5t32.5 102.5t5 87.5t-30 60zM230 104q-10 6 -19 7q0 -34 12 -58.5t40 -35.5q5 -2 10 -3t11 -1q-5 8 -8 18t-7 18q-7 14 -16 29.5t-23 25.5z" />
    <glyph glyph-name="R_alt" horiz-adv-x="590" 
d="M550 15q-7 -17 -17 -35t-23.5 -31t-31 -19.5t-40.5 -0.5q-18 4 -33.5 16t-28 28t-22.5 33.5t-16 33.5q-17 43 -23.5 87.5t-11.5 90.5q-3 15 -3 29q-5 -1 -8.5 -1h-7.5q-24 0 -37 10l-41.5 -86l-38.5 -84t-33 -78.5t-25 -69.5q-24 8 -42.5 19.5t-29.5 27.5t-13.5 38
t5.5 52q7 28 28 69.5t50 89.5t64 99.5l70 99.5t68 88.5t59 67.5q-40 -9 -79 -23.5t-71.5 -33t-56 -41t-32.5 -47.5q-6 -17 4 -35t24 -19q-31 -17 -56.5 -12t-41 24t-18 47t12.5 57q25 47 74.5 85.5t111.5 65.5t130 41.5t129.5 13t110.5 -20.5t72 -57q18 -32 14.5 -66
t-23 -68t-51.5 -67t-70 -62t-79.5 -53.5t-79.5 -41.5q7 -17 12 -34.5l10 -33.5q9 -30 20 -59t26 -54.5t36.5 -46t52.5 -33.5zM444 598q-26 -33 -65 -99.5l-84 -150.5h6q14 2 24 -1.5t20 -8.5q45 15 90.5 37t81 48t56.5 54t17 55q-6 39 -47.5 54t-98.5 12z" />
    <glyph glyph-name="S_alt" horiz-adv-x="599" 
d="M538 445q-19 -8 -32.5 -9t-23 1.5t-16.5 7.5t-13 8l19 28q6 17 9 38t1.5 39.5t-10.5 32.5t-27 16q-37 4 -70 -6.5t-58 -29.5t-40 -42.5t-16 -46t14 -40.5t50 -25q47 -10 85 -27.5t65 -41t41.5 -51t14.5 -56.5q0 -32 -18 -69.5t-49 -73.5t-71.5 -67.5t-85.5 -52.5t-92 -28
t-90 6q-45 13 -71 40t-38 60.5t-11.5 69.5t9 67.5t23 53.5t30.5 27q50 16 86 6.5t47 -27.5q-34 -35 -52.5 -72.5t-21.5 -69.5t8.5 -55t38.5 -28q22 -4 62 3t79.5 26.5t68 53t26.5 82.5q-2 27 -20.5 44t-46.5 29.5t-60.5 23.5t-62 25t-52 34.5t-29.5 52.5q-7 35 11 76.5
t52.5 80.5t79.5 73t91 54.5t88 25t70 -15.5q18 -13 28.5 -29.5t6.5 -41.5l12 21q6 11 18.5 11.5t25 -8t22.5 -23t11 -33.5q1 -18 -11.5 -41t-31 -45t-39 -39t-34.5 -23z" />
    <glyph glyph-name="T_alt" horiz-adv-x="359" 
d="M690 709q5 -47 -11.5 -84.5t-66.5 -48.5q-44 -11 -89.5 -8.5t-88.5 4.5h-33q-21 -31 -47 -77.5t-54 -102l-57 -116t-55 -121l-48 -116.5t-36 -101q-24 8 -44 19.5t-32.5 27.5t-16.5 38t4 52q7 27 26 66.5t45 85.5t57.5 95t64.5 95.5l64.5 87t57.5 69.5q-23 2 -46 1.5
t-46 -2.5q-9 0 -31 -1t-44 -5t-38 -12.5t-11 -23.5q-24 12 -37.5 31.5t-17.5 41t2 41.5t20 31q22 18 65 23.5t98 4t117 -6t122.5 -7t114.5 0.5t92 18z" />
    <glyph glyph-name="U_alt" horiz-adv-x="698" 
d="M753 705q10 11 27.5 14t35.5 1t31 -6.5t14 -8.5q-11 -14 -32.5 -48t-48 -81l-56.5 -104t-58.5 -118t-54 -122.5t-43 -117.5t-25.5 -103t-1 -79q-51 15 -78.5 39t-34.5 72q-3 18 3.5 44.5t19.5 59t32 70l40 78.5q-65 -95 -130.5 -170.5t-122.5 -125t-101.5 -70t-68.5 -4.5
q-33 5 -53 22t-29.5 42t-9 54.5t9.5 59.5q21 75 61.5 142t86.5 128l78.5 104.5t66 89.5t45.5 74t17 57q20 5 38.5 2.5t33 -9.5t24.5 -18.5t13 -24.5q6 -27 -16 -70t-59.5 -95.5l-84 -112.5l-90 -121t-77.5 -120.5t-45 -111.5q18 -2 50 14.5t72 47.5t86 74t94 93.5t94 107
t87 114.5l37.5 61.5t38.5 56.5q0 3 1 4l1 2l45.5 64z" />
    <glyph glyph-name="V_alt" horiz-adv-x="690" 
d="M689 711q46 -8 67 -30t24.5 -53t-6.5 -67.5t-26.5 -72.5t-35 -67.5l-31.5 -53.5q-60 -95 -132.5 -182.5t-157.5 -162.5l-37 -31.5t-40 -31.5t-43 -26.5t-46 -17.5q-8 -2 -18.5 -1.5t-20 3t-17 8t-8.5 14.5q-25 2 -46.5 12t-32.5 36q-12 26 -11.5 54.5t6.5 55.5
q14 70 45.5 134.5t65.5 126.5q7 13 20.5 36l29 51.5l31 59.5t27.5 60.5t18 54.5t2 42q25 16 48 21.5t41 2.5t30 -12.5t15 -22.5q7 -32 -10 -76.5t-48 -102.5l-69.5 -130.5t-74.5 -160.5q-20 -45 -37.5 -99.5t-18.5 -107.5q8 4 14 6.5t12 7.5q44 30 83.5 67.5t75.5 79
t68.5 85.5l62.5 88l59.5 93t54 99t42.5 104t25 107z" />
    <glyph glyph-name="W_alt" horiz-adv-x="881" 
d="M882 742q44 -5 66.5 -25t28.5 -49.5t-0.5 -64.5t-19 -70t-28 -67t-27.5 -54q-51 -98 -113 -188.5t-137 -171.5l-35.5 -36t-38.5 -36.5t-42.5 -31.5t-46.5 -21q-13 -3 -26 -2.5t-23 6.5q-15 -3 -31.5 0.5t-35.5 14.5q-20 11 -21.5 48.5t8.5 91.5q-44 -48 -85 -83.5
t-75 -56.5t-60.5 -26t-41.5 7l-7 14q-22 1 -39.5 12t-28.5 34q-12 26 -11 54.5t7 55.5q14 70 45.5 134.5t65.5 126.5q7 13 21 36l30.5 51.5l34 59.5t30.5 60.5t20 54.5t3 42q25 16 48 21.5t41 2.5t30 -12.5t15 -22.5q7 -32 -12 -76.5t-52 -102.5l-73 -130.5t-76 -160.5
q-16 -36 -30 -76.5t-22 -82.5q21 7 50.5 26t63.5 46.5t71.5 62.5t76.5 76q21 61 47.5 122.5t54 113.5t54 89t48.5 49q29 17 52.5 12.5t36.5 -21.5l-9 -9q-2 -11 -9 -29.5t-15 -36.5l-21 -44q-26 -48 -54.5 -92.5l-57.5 -86.5q-11 -35 -19 -70t-10 -69t1.5 -67t14.5 -63
q68 64 122.5 146t100.5 162l49 94.5t43.5 99.5t33.5 103.5t19 105.5z" />
    <glyph glyph-name="X_alt" horiz-adv-x="599" 
d="M582 4q-7 -30 -23 -56t-51 -30q-35 -3 -65.5 16t-49.5 45q-21 28 -33.5 60t-18 66t-5.5 69t2 69l-40 -40q-45 -45 -89 -94t-77 -105q-4 -7 -9.5 -15.5t-10 -18t-7 -19t0.5 -18.5q-3 0 -6 0.5t-6 -0.5q-19 -1 -37 0.5t-31 16.5q-10 12 -13.5 26.5t-2 29.5t6 30t10.5 27
q14 29 33.5 56.5t42.5 52.5t47.5 48.5l48.5 44.5l75.5 68.5l77.5 66.5q3 48 5 90.5t-1 64.5q-4 38 -26 55.5t-57 5.5q2 20 17.5 43.5t40 40t55.5 21t64 -14.5q15 -8 24.5 -27t14.5 -45t6 -57.5t0 -65.5l121 88l49.5 35.5t51.5 33.5q19 12 42 24.5t46 9.5q8 -2 17 -6t10 -15
q0 -6 -4 -11.5t-9.5 -11t-12 -10.5l-10.5 -8l-46 -39l-45 -39l-111.5 -92l-109.5 -93q-6 -57 -11.5 -103.5t-3.5 -71.5q1 -31 6.5 -62t18 -58t33.5 -47.5t55 -30.5z" />
    <glyph glyph-name="Y_alt" horiz-adv-x="635" 
d="M691 719q19 -5 38 -14.5t33.5 -23.5t22 -32.5t4.5 -40.5q-5 -43 -36 -88.5t-77.5 -93.5t-104 -98l-115 -100l-111 -100.5t-92.5 -100.5t-59 -99t-10 -95q-42 3 -72 29t-35 76q-3 37 16 74t52.5 74.5t78 74.5t92.5 73q-32 6 -53.5 28.5t-23.5 64.5q-2 51 13.5 99.5
t35.5 93.5l16 41.5t12 43.5q0 2 1.5 9t-0.5 9q-4 5 -13.5 4t-22.5 -4q-31 -23 -65.5 -57.5t-66 -72t-55 -74.5t-31.5 -64q-25 18 -37 36.5t-15 36.5t0 34.5t8 29.5q6 18 29 43t54 51.5t66 51t66 41.5q12 8 25.5 15t26.5 12q22 9 45.5 12t45.5 -11q11 -7 19.5 -19t14 -25.5
t9 -28t4.5 -27.5q3 -48 -11 -95t-23 -94q-8 -35 -11.5 -69t-1.5 -69l94 75t75 73q64 74 97.5 145.5t47.5 145.5z" />
    <glyph glyph-name="Z_alt" horiz-adv-x="695" 
d="M652 85q1 -17 0.5 -35.5t-5 -35t-14 -29.5t-27.5 -20q-31 -11 -62.5 -6t-60.5 14q-69 20 -136 42t-137 40q-15 -19 -42.5 -33.5t-56 -19.5t-52 2t-31.5 32q-10 32 1.5 58t36.5 43.5t59 25.5t69 4q4 11 24 35.5t50 58l68.5 73l80 81l83.5 82l80 75.5q-45 1 -89 2.5
t-89 -1.5q-9 0 -31 -1t-44.5 -5t-38 -12.5t-10.5 -23.5q-24 12 -37.5 31.5t-17.5 41t2 41.5t20 31q24 20 71.5 20t106.5 -8.5t124.5 -20.5t126.5 -16q33 24 61.5 40t49.5 18q27 3 45.5 -7t30.5 -26t18.5 -35t8.5 -34q-70 -32 -148.5 -80.5t-157.5 -108.5t-154 -127.5
t-136 -137.5q35 -3 78 -15.5l90 -25.5t96 -22t96 -5z" />
    <glyph glyph-name="Q" unicode="Q" horiz-adv-x="697" 
d="M867 -156q-3 -20 -8 -42t-17 -41t-32 -31t-53 -11q-56 4 -104.5 28.5t-92 61t-83 80l-76.5 87.5q-38 -28 -76.5 -46t-75.5 -24.5t-71 0t-62 29.5q-47 37 -56.5 93.5t8.5 122t58.5 134.5t93 132t113 114.5t117.5 82.5q-40 -3 -82 -19t-81.5 -38.5t-75 -49.5t-62 -52.5
t-42 -46t-16.5 -31.5q-14 -2 -30.5 4.5t-29.5 20t-18.5 33.5t2.5 45q11 30 54 64t104 64t132.5 53t139.5 33t124.5 3t88.5 -37q36 -35 50 -82.5t9.5 -101.5t-25 -112t-52.5 -115.5t-73 -111t-87 -97.5q44 -38 94 -76t100.5 -67.5t99.5 -45t93 -7.5zM571 580q-3 2 -5.5 4.5
t-6.5 4.5q-32 -4 -66.5 -22.5t-67.5 -47.5t-64 -66.5t-58 -78.5t-48.5 -84.5t-34.5 -83.5q31 -3 60 -13.5t53 -28.5q16 -12 35.5 -29l43.5 -38q32 35 62.5 79.5t55.5 91.5t43 94.5t25 89.5t1 75.5t-28 52.5zM250 12q20 -8 45 -1t51 27q-29 31 -58 57.5t-58 42.5
q-7 2 -13 4.5t-13 3.5q-8 -51 1.5 -86.5t44.5 -47.5z" />
    <glyph glyph-name="R" unicode="R" horiz-adv-x="596" 
d="M683 -124q-7 -17 -16.5 -33.5t-23 -29t-31 -19.5t-40.5 -5q-33 3 -64.5 29t-60.5 67t-54 91t-43.5 101t-30.5 97.5t-15 80.5q-23 3 -39 15h-7l-44.5 -90t-40 -87.5l-34.5 -82t-26 -72.5q-24 8 -42.5 19.5t-29 27.5t-13 38t5.5 52q7 29 29 72t52 92.5t66 102.5l72 101
t69.5 88.5t59.5 65.5l1 2q-58 -7 -109.5 -30.5t-89 -56t-58 -69.5t-16.5 -71q-41 -2 -65.5 10.5t-34 34t-4.5 48t23 51.5q34 48 82.5 83.5t104 58.5t113.5 34t111 9t97 -15.5t71 -39.5q28 -26 41 -57.5t12.5 -65.5t-12.5 -67.5t-33 -62.5q-39 -53 -96.5 -87t-120.5 -48
l18 -50q28 -74 61 -130.5t68.5 -97t70.5 -66t66 -38.5zM449 600q-24 -32 -64 -99.5t-85 -152.5h1q23 2 39 -6.5t27 -22.5q30 8 60 21.5t56 32.5t46.5 43.5t32.5 54.5q14 34 9 57.5t-22.5 38.5t-44 23t-55.5 10z" />
    <glyph glyph-name="S" unicode="S" horiz-adv-x="579" 
d="M549 691q23 -16 16.5 -48t-30.5 -76q72 78 137.5 105.5t123.5 22.5q46 -5 67 -43t15 -86q-68 17 -126 10.5t-108.5 -27.5t-95 -51.5t-85.5 -61.5q-16 13 -17 31t14 35q4 15 6 30t-1.5 28t-13 21.5t-27.5 11.5q-29 4 -54.5 -2.5t-43.5 -20.5t-26.5 -33.5t-1.5 -40.5
q7 -20 26 -38t44 -37.5l52 -41.5t49.5 -48t37.5 -58t15 -71q0 -32 -17 -66.5t-46 -66t-67 -58t-81.5 -43t-89 -21t-88.5 8.5q-45 13 -72 40t-40 60.5t-14 69.5t6 67.5t21 53.5t30 27q50 16 86 6.5t46 -27.5q-34 -35 -50.5 -72.5t-17.5 -69.5t12.5 -55t40.5 -28
q15 -3 36 -3.5t44 2.5t47 11t43 23t32 38t16 56q2 26 -10.5 47t-33.5 40t-46.5 37.5t-49.5 39.5t-43 47t-26 60q-11 51 19 100.5t81 93.5q33 28 69.5 48t72 30t66 8.5t51.5 -15.5z" />
    <glyph glyph-name="T" unicode="T" horiz-adv-x="359" 
d="M688 706q8 -61 -24 -95.5t-93 -39.5q-42 -3 -85 -2.5t-86 2.5q-20 -32 -46 -78.5l-54 -101.5l-57 -116l-55 -121l-48 -115.5t-36 -100.5q-24 8 -44 19.5t-32.5 27.5t-16.5 38t4 52q7 27 25.5 66.5t44.5 85t57.5 94.5l64 95l64 87t57.5 70h-29t-37 -1t-41.5 -3t-41.5 -5
q-60 -8 -78 -28t-7 -37q8 -11 23 -12.5t26 0.5q4 0 12.5 2t16 2t11.5 -2.5t0 -9.5q-3 -6 -12 -11t-19.5 -9t-21.5 -6t-17 -3q-21 -2 -41 5t-32 26q-14 20 -17.5 44.5t2.5 48t21 45t39 35.5q39 24 87.5 34.5t102 14t107.5 2t103 -1.5q51 0 101.5 -2.5t101.5 5.5z" />
    <glyph glyph-name="U" unicode="U" horiz-adv-x="698" 
d="M753 705q10 11 27.5 14t35.5 1t31 -6.5t14 -8.5q-11 -14 -32.5 -48t-48 -81l-56.5 -104t-58.5 -118t-54 -122.5t-43 -117.5t-25.5 -103t-1 -79q-51 15 -78.5 39t-34.5 72q-3 18 3.5 44.5t19.5 59t32 70l40 78.5q-65 -95 -130.5 -170.5t-122.5 -125t-101.5 -70t-68.5 -4.5
q-33 5 -53 22t-29.5 42t-9 54.5t9.5 59.5q21 75 61.5 142t86.5 128q42 56 89.5 110t82.5 114q3 4 6 10t5.5 12t2 11t-5.5 7q-32 -14 -74.5 -44t-83 -66.5t-73 -74.5t-45.5 -67q-22 21 -31.5 41t-11 38t3.5 34t11 28q9 16 30 36t49.5 40.5t61.5 39.5t65.5 34.5t62 25.5
t51.5 12q41 3 61 -24t18 -65q-1 -26 -9.5 -51.5t-21.5 -49.5t-28.5 -47l-28.5 -44q-66 -99 -124 -199t-91 -212q36 13 91 55t117.5 103t127 135.5t119.5 152.5l37.5 61.5t38.5 56.5q0 3 1 4l1 2l45.5 64z" />
    <glyph glyph-name="V" unicode="V" horiz-adv-x="690" 
d="M689 711q46 -8 67 -30t24.5 -53t-6.5 -67.5t-26.5 -72.5t-35 -67.5l-31.5 -53.5q-60 -95 -132.5 -182.5t-157.5 -162.5l-37 -31.5t-40 -31.5t-43 -26.5t-46 -17.5q-8 -2 -18.5 -1.5t-20 3t-17 8t-8.5 14.5q-25 2 -46.5 12t-32.5 36q-12 26 -11.5 54.5t6.5 55.5
q14 70 45.5 134.5t65.5 126.5l64.5 113.5t57.5 117.5q3 6 4.5 14.5t1 16t-3.5 12.5t-9 4q-31 -19 -69 -54t-73 -75.5t-62 -81t-36 -70.5q-25 18 -37 36.5t-15 36.5t0 34.5t9 29.5q7 19 33 47t60.5 57t72.5 54.5t69 39.5q23 12 48.5 18t48 2t38.5 -21.5t19 -53.5
q2 -26 -3 -53t-13.5 -53.5t-19 -52l-19.5 -48.5q-26 -63 -54 -123.5t-52 -123.5l-18.5 -48.5t-17.5 -52t-13.5 -53.5t-6.5 -53q8 4 14 6.5t12 7.5q44 30 83.5 67.5t75.5 79t68.5 85.5l62.5 88l59.5 93t54 99t42.5 104t25 107z" />
    <glyph glyph-name="W" unicode="W" horiz-adv-x="881" 
d="M882 742q44 -5 66.5 -25t28.5 -49.5t-0.5 -64.5t-19 -70t-28 -67t-27.5 -54q-51 -98 -113 -188.5t-137 -171.5l-35.5 -36t-38.5 -36.5t-42.5 -31.5t-46.5 -21q-12 -3 -24 -2.5t-21 5.5q-31 -8 -71 16q-20 11 -21.5 48.5t8.5 91.5q-43 -47 -82.5 -82t-73.5 -56
t-60.5 -27.5t-42.5 4.5q-33 5 -53 22t-29.5 42t-9 54.5t9.5 59.5q21 75 61.5 142t86.5 128q23 31 58 69t65 75.5t48 69.5t8 50q-32 -14 -74.5 -44t-82.5 -66.5t-72.5 -74.5t-45.5 -67q-22 21 -31.5 41t-11 38t3.5 34t11 28q9 16 30 36t49.5 40.5t61.5 39.5t65.5 34.5
t62 25.5t51.5 12q41 3 61 -24t18 -65q-2 -26 -10.5 -51.5t-21.5 -49.5t-28 -47l-28 -44q-66 -99 -124 -199t-91 -212q21 7 50 26t63 46.5t71.5 62.5t76.5 76q21 61 47.5 122.5t54 113.5t54 89t48.5 49q29 17 52.5 12.5t36.5 -21.5l-9 -9q-2 -11 -9 -29.5t-15 -36.5l-21 -44
q-26 -48 -54 -92.5l-56 -85.5q-15 -39 -25.5 -78.5t-15.5 -76t-3.5 -70t12.5 -60.5q37 32 70.5 70.5t63 80.5t56 86l50.5 86l49 94.5t43.5 99.5t33.5 103.5t19 105.5z" />
    <glyph glyph-name="X" unicode="X" horiz-adv-x="599" 
d="M617 -148q-6 -28 -21.5 -47t-37 -29t-47 -10.5t-50.5 9.5q-52 21 -77.5 75.5t-33.5 125.5t-2.5 152t16.5 155q-41 -37 -80 -78t-73 -85.5t-61 -91t-44 -95.5q-8 -1 -18.5 -2t-21.5 0.5t-21.5 5.5t-18.5 13q-10 12 -13.5 26.5t-2 29.5t6 30t10.5 27q20 42 61.5 90t92.5 96
t105.5 93l102.5 83l13 69q6 32 5.5 60.5t-7.5 47t-21 24.5t-36 -7q-33 -20 -66 -57t-61.5 -79t-49 -83.5t-26.5 -69.5q-25 16 -38 33.5t-18 35t-4 34t5 29.5q9 30 37.5 64.5t64.5 66t74 57.5t66 40q28 15 57 17t54 -21q18 -18 27.5 -41t13.5 -48t4.5 -50.5t-0.5 -49.5
l75 56.5l78 55t70.5 44.5t53.5 26q13 4 27 5t26.5 -3t22 -13t14.5 -25q-32 -14 -76 -41.5t-94.5 -63.5l-104 -77.5l-103.5 -82.5l-10.5 -103t-6.5 -105.5t5 -102t24 -91t50 -74t83 -50.5z" />
    <glyph glyph-name="Y" unicode="Y" horiz-adv-x="635" 
d="M691 719q19 -5 37 -14.5t31.5 -23t20.5 -31t4 -39.5q-6 -36 -28.5 -76.5t-55 -81.5t-73.5 -80t-83.5 -71t-84.5 -55t-77 -32q-23 -39 -46 -91t-40 -105t-24.5 -102.5t0.5 -84.5q-51 15 -83 46.5t-41 79.5q-6 28 5.5 66t32.5 77.5t48 77t51 66.5q-20 11 -32 30.5t-14 51.5
q-2 51 13.5 99.5t35.5 93.5q1 4 6 15.5t10 26.5t8.5 30t2.5 25.5t-9 13t-25 -7.5q-34 -20 -69.5 -54.5t-65.5 -72.5t-52.5 -76t-30.5 -65q-25 18 -37 36.5t-15 36.5t0 34.5t8 29.5q6 18 29 43t54 51.5t66 51t66 41.5q31 20 63 30t59 4t45.5 -31t22.5 -75q3 -48 -11 -95
t-23 -94q-15 -60 -15 -121q112 70 196 177.5t120 244.5z" />
    <glyph glyph-name="Z" unicode="Z" horiz-adv-x="695" 
d="M278 539q-7 16 -13 35t-7.5 37.5t3.5 36t21 31.5q11 10 26 15.5t30.5 8.5t31.5 4.5t30 3.5q71 5 136.5 -6t131.5 -35l20 -7q29 20 53.5 32t43.5 14q27 3 45.5 -7t30.5 -26t18.5 -35t8.5 -34q-72 -33 -149 -83.5t-153 -112t-148 -132t-135 -142.5q39 -15 87.5 -41
l101 -55.5l107.5 -59t108.5 -51.5t103.5 -33t93 -3q0 -17 -8.5 -37.5t-23.5 -39t-36 -33.5t-45 -21q-33 -8 -77.5 8t-94 45t-102.5 66.5l-104 72t-96.5 61t-81.5 33.5l-12 2q-12 -21 -34 -41t-47.5 -33.5t-52 -17t-46.5 9.5q-36 23 -34 66q2 41 29 73t79 43q26 6 52.5 7
t53.5 -1q26 44 70 101.5t96.5 118.5t110 120t111.5 105q-11 -2 -23.5 -3l-25.5 -2q-34 -3 -71 -5.5t-74.5 -7.5t-73 -15.5t-65.5 -29.5zM97 31q0 -9 8.5 -9t21.5 5t28 13.5t28 17.5q-37 3 -61.5 -5t-24.5 -22z" />
    <glyph glyph-name="Thorn" unicode="&#xde;" horiz-adv-x="690" 
d="M128 313q-32 -17 -58.5 -11t-42 25t-18 47t13.5 56q16 29 47 54t70.5 45t86 34.5t94.5 22.5q23 34 45 61t39 44q10 11 27.5 13.5t34 0t29 -8t12.5 -9.5q-12 -13 -29 -36t-37 -57q39 -2 74.5 -9.5t65 -21.5t51 -35.5t33.5 -50.5q18 -47 13 -96t-27 -95t-59 -87t-82 -71.5
t-96 -48t-102 -17.5q-25 0 -40 16.5t-21 37.5t-3.5 41.5t12.5 28.5q49 -12 93 -5.5t82 25t67.5 45t49 56t27.5 57.5t2 50q-6 23 -24 39t-44.5 26t-59.5 14t-69 3l-75.5 -140l-76 -150.5t-67 -146.5t-48.5 -128q-27 9 -45 25t-28 36.5t-11 44.5t6 48q6 19 25.5 60t47.5 93.5
l62.5 112.5l70.5 118q-49 -17 -88.5 -42t-59.5 -60q-5 -8 -3.5 -17t6.5 -17t12.5 -13.5t14.5 -6.5z" />
    <glyph glyph-name="B" unicode="B" horiz-adv-x="597" 
d="M102 391q-65 5 -88.5 42t2.5 87q17 34 56.5 65.5t91.5 56t111 41t116 20t106 -7.5t82 -40q41 -38 45.5 -79.5t-13.5 -82t-52 -77t-70 -62.5q23 -17 36.5 -40.5t18 -51.5t0.5 -58t-17 -59q-20 -47 -56.5 -87.5t-83 -69.5t-99.5 -42.5t-104 -4.5q-26 4 -49.5 16.5
t-40.5 30.5q-6 -14 -10 -26l-8 -24q-23 7 -38 21t-22 32t-6.5 38.5t6.5 40.5q5 17 23.5 55.5t45 88.5l58.5 105.5l65 107.5t64 96t56 69q-44 -11 -85.5 -30t-73.5 -45t-50.5 -58t-16.5 -68zM216 257l-47.5 -96t-43.5 -94q14 -7 29.5 -9.5t29.5 -3.5q56 0 109.5 21t97.5 54
q17 13 34.5 31t29.5 39t17 44t-3 47q-9 22 -28 33q-81 -46 -176 -58q-11 -2 -23.5 -5t-25.5 -3zM413 590q-10 -10 -25 -30.5t-33 -49.5l-38.5 -64.5l-42.5 -75.5q35 9 71 13t69 -1q26 17 48.5 37.5t39.5 45.5q8 13 16 29t11.5 32t-0.5 30.5t-21 24.5q-21 14 -51 18.5
t-63 2.5q17 -5 19 -12z" />
    <glyph glyph-name="C" unicode="C" horiz-adv-x="616" 
d="M616 213q1 3 5 3t8 -4t5 -11.5t-3 -20.5q-8 -22 -29 -49.5t-52 -54.5t-69 -50.5t-79 -38.5t-82.5 -18t-78.5 11q-59 23 -87.5 66.5t-31.5 100t16 120.5t54 126.5t83 120t104 100.5q-113 -26 -195.5 -76.5t-145.5 -122.5q-18 7 -28 27t-9.5 44.5t12 50.5t34.5 44
q32 25 81.5 46t109.5 35t126.5 19.5t132.5 1.5q41 15 81 19t78 -7q19 -5 36.5 -13.5t26 -20.5t4 -27t-29.5 -33q-16 -15 -33 -23q-15 9 -46 18t-73 12q-46 -8 -90.5 -42t-81.5 -82.5t-64 -105t-39 -109t-6 -95.5t35 -64q23 -17 53 -20.5t63 1.5t65.5 18t61 30t49 36t29.5 38
z" />
    <glyph glyph-name="D" unicode="D" horiz-adv-x="656" 
d="M699 562q13 -67 -10 -147t-69 -159.5t-108.5 -150.5t-128.5 -120.5t-129 -69.5t-110 3q-20 10 -30 35.5t-12 54.5l-14 -35.5t-12 -34.5q-23 7 -38 21t-22 32t-6.5 38.5t6.5 40.5q5 17 22 53.5t42.5 84l56 101l62 104.5t62.5 95t56 72q-36 -14 -69 -32.5t-60.5 -41
t-47 -48t-27.5 -53.5q-29 4 -47.5 19.5t-26 37t-3 47t21.5 49.5q21 28 57 54t82 48t98.5 37.5t105 22t102 2t90 -22.5t68.5 -51.5t38 -85.5zM413 590q-12 -13 -31.5 -42t-43.5 -69l-51.5 -89.5l-55 -102.5l-54 -107.5t-48.5 -105.5q24 -20 58 -20t73.5 15.5t81.5 45
t81.5 67.5t74 82.5t59 91t36 92t4.5 86.5q-5 28 -23.5 45.5t-46.5 25.5t-63 7t-73 -10q20 -5 22 -12z" />
    <glyph glyph-name="E" unicode="E" horiz-adv-x="628" 
d="M751 682q2 -29 -2.5 -57t-27.5 -48q-20 -17 -45.5 -21.5t-50.5 -4.5q-54 2 -108 7.5t-108 13.5l-78.5 -112.5t-69.5 -108.5q29 5 57 9t52 6.5t42.5 3.5t27.5 0q13 -2 24 -7.5t17.5 -18t9.5 -33t1 -50.5q-30 3 -65.5 2.5t-74 -3t-77 -6t-73.5 -7.5q-29 -54 -48 -100
t-27 -82t-4 -59.5t23 -31.5q27 -12 75.5 -4t102.5 35t106.5 72t88.5 106l23 -24.5t23 -34t9.5 -43t-17.5 -50.5q-13 -20 -40 -45t-65.5 -47t-86 -37t-100.5 -15q-45 0 -90.5 13.5t-82.5 39t-60 63.5t-23 87q0 32 10 67.5t28 70.5q-10 15 -7 34t26 33q5 4 12.5 7t15.5 7
q26 38 55.5 75t60.5 71.5l61 66l57 58.5q-25 3 -50 4.5t-51 0.5q-5 0 -14.5 0.5t-19.5 0.5t-19 -1t-13 -4q-4 -6 -0.5 -13t8.5 -15q18 -24 44 -31q2 -1 7 -1.5t9.5 -1.5t7.5 -3t1 -6q-2 -5 -9.5 -7t-16 -3t-17 0t-11.5 2q-13 2 -24 7t-22 11q-6 5 -12.5 11l-11.5 11
q-11 11 -20 26.5t-11 32.5q-1 29 24 47t58.5 28.5t67 15t50.5 5.5q60 4 117 1.5t117 -7.5q57 -4 117 -10.5t117 1.5z" />
    <glyph glyph-name="F" unicode="F" horiz-adv-x="461" 
d="M476 359q-3 -24 -20.5 -46.5t-46.5 -29.5q-29 -8 -71 -13t-88 -9l-42.5 -87.5l-39 -85t-34 -80t-25.5 -70.5q-49 16 -72.5 46.5t-7.5 89.5q8 29 29.5 72.5t52.5 94.5q-58 -13 -99 -33q-2 16 -2 33t4.5 33t15.5 29.5t33 21.5q15 5 44.5 9t67.5 6q47 68 94.5 130t85.5 104
q-26 2 -52.5 1.5t-52.5 -2.5q-9 0 -31 -1t-44.5 -5t-38 -12.5t-10.5 -23.5q3 -9 10 -14t15 -9t17 -7.5t15 -9.5q7 -6 6.5 -9t-5 -4.5t-12 -1t-13.5 0.5q-20 1 -39.5 8.5t-33 21t-19 31.5t1.5 40q10 35 40 56.5t67.5 34t76.5 18t68 8.5q49 5 98.5 6l98.5 2q45 0 92 -1t92 7
q5 -47 -12 -84.5t-66 -48.5q-44 -11 -89.5 -8.5t-89.5 4.5h-19q-26 -38 -60.5 -97.5l-72.5 -129.5q56 2 105 5.5t78 8.5z" />
    <glyph glyph-name="G" unicode="G" horiz-adv-x="620" 
d="M282 295q27 16 70.5 30.5t88 25t83.5 15.5t57 4q28 -3 42.5 -25.5t10.5 -83.5q-21 2 -42 2h-43q-32 -53 -65 -132t-70 -193q-24 8 -41.5 18.5t-27.5 26t-10 36.5t11 50v1q-29 -25 -59.5 -45.5t-61 -33.5t-60 -16.5t-55.5 5.5q-55 20 -78.5 65t-21 104t27 127t65 134.5
t93.5 125.5t112 100t121.5 58.5t121.5 0.5q23 -6 31 -22t0 -34q11 4 21.5 8.5t21.5 6.5q24 6 43.5 5.5t30 -6.5t10 -16t-15.5 -21q-16 -12 -33 -31.5t-32 -43t-25.5 -49.5t-13.5 -50q-2 -12 -22.5 -13.5t-43.5 7.5t-40 28t-11 47q10 46 46 85q-38 20 -78 13.5t-78.5 -31.5
t-73 -64t-62 -85t-46 -94.5t-24.5 -92.5t1.5 -79t32.5 -53q28 -21 65 -12t75 34t72.5 59.5t57.5 64.5q-65 -7 -116 -17.5t-74 -17.5q-15 14 -14 36t26 38z" />
    <glyph glyph-name="H" unicode="H" horiz-adv-x="671" 
d="M179 -77q-40 1 -63.5 17t-34 40t-9.5 54.5t10 62.5q11 38 27 73.5t36 70.5q-47 -6 -79 -11t-43 -9q-14 14 -13 36t25 38q9 5 25.5 10.5t39.5 11.5t51 11.5l59 11.5l95.5 133t80.5 141q8 17 -1 20t-22 -5q-33 -18 -73.5 -48t-77.5 -65t-66 -70.5t-41 -62.5
q-22 21 -32 41.5t-11.5 39t3.5 34.5t12 28q13 24 48.5 54t80.5 57.5t93.5 47.5t88 23t65 -15.5t24.5 -67.5q-1 -23 -7.5 -45.5t-17 -45t-22.5 -44l-24 -41.5l-51 -86q38 5 73 9l67 8q17 41 36.5 81t41.5 78q20 34 42.5 68.5t51.5 60.5q13 11 29.5 19.5t34.5 2.5
q16 -2 21 -15q5 -11 1 -14.5t-11 -12.5q-46 -56 -78.5 -122.5t-56.5 -135.5q9 1 15.5 1h10.5q28 -4 42 -26t11 -83q-20 1 -49.5 1t-64.5 -2q-25 -80 -37 -167q-7 -45 -11 -93.5t7 -93.5q-25 -5 -47 -2t-39 13.5t-28 29.5t-12 47q-4 47 6.5 94.5t22.5 92.5q5 18 10.5 35.5
t10.5 36.5q-39 -4 -78.5 -7.5t-79.5 -8.5q-42 -79 -74 -161.5t-44 -173.5z" />
    <glyph glyph-name="I" unicode="I" horiz-adv-x="483" 
d="M249 -77q-40 1 -63 18t-32.5 43t-8 57.5t10.5 63.5q16 56 54 115t83 120l90 125t74 131q11 22 -3 31t-37 -3q-33 -18 -69 -47.5t-68 -63.5t-56.5 -68.5t-36.5 -61.5q-22 21 -32 41.5t-11.5 39t3.5 34.5t12 28q21 36 59 69.5t82 58.5t89.5 39.5t82.5 12t59.5 -24.5
t21.5 -68q-2 -47 -19.5 -85t-41.5 -79q-36 -63 -75 -125t-73 -126.5t-59.5 -132.5t-35.5 -142z" />
    <glyph glyph-name="J" unicode="J" 
d="M307 401q-12 9 -25.5 23t-24 31t-16.5 37t-4 42q2 20 33 48t77.5 54.5t102.5 47.5t109 27.5t96 -6.5t64 -53q13 -25 5 -70.5t-31 -104t-57.5 -126.5t-74.5 -138q-25 -43 -54 -87t-60 -83.5t-63 -72t-63 -53.5q-39 -27 -79.5 -31.5t-77 10t-68 45.5t-53.5 76
q-21 45 -29 98.5t-2.5 104.5t22.5 94.5t45 68.5q15 13 36.5 19.5t45 6t46 -8.5t38.5 -23q-26 -19 -52 -59.5t-45 -89.5t-27.5 -99.5t0.5 -88.5q6 -29 18 -42.5t28 -14t35 10t40 29.5q45 42 104 110t115 149l78 118t63.5 106t39.5 80t6 39q-9 9 -32 6t-54 -16t-67 -34.5
t-70.5 -49.5t-65.5 -61t-52 -69z" />
    <glyph glyph-name="K" unicode="K" horiz-adv-x="616" 
d="M126 -77q-40 1 -63.5 19t-34 44.5t-10 59t9.5 64.5q23 76 63 145t85 134q19 27 41 54l43.5 54.5t40 56.5t32.5 60q8 17 -0.5 20t-22.5 -5q-33 -18 -73 -48t-77.5 -65t-66.5 -70.5t-41 -62.5q-22 21 -32 41.5t-11.5 39t3.5 34.5t12 28q10 18 39 41t66.5 46t77 44.5
t71.5 35.5q23 9 49 14.5t48 0t36.5 -24.5t13.5 -58q-2 -46 -25 -90.5l-46 -85.5l-26 -42q5 0 9 1t9 1q27 0 47 -12q46 26 86.5 60t77.5 69q29 27 55.5 57t47.5 65q12 17 23.5 38.5t11.5 43.5q20 -6 39.5 -15.5t32.5 -23t17 -32.5t-5 -43q-11 -33 -35 -61t-49 -52
q-54 -55 -118.5 -101t-136.5 -78l15 -58q42 -177 99.5 -277.5t138.5 -123.5q-7 -17 -16.5 -33t-23 -28.5t-31.5 -19.5t-41 -5q-48 4 -89 50t-71.5 118.5t-49.5 162.5t-23 182q-13 -4 -32 -2q-12 2 -23.5 8t-18.5 17q-51 -92 -92 -188t-56 -204z" />
    <glyph glyph-name="L" unicode="L" horiz-adv-x="616" 
d="M651 599l-36 -30l-42 -34l-70.5 -98.5l-69 -102l-62.5 -97.5t-51 -86q32 -10 63.5 -23t63.5 -24.5t67 -20.5t74 -10q1 -65 -27.5 -94.5t-101.5 -16.5q-26 4 -53.5 16l-56 25.5l-57 27t-57 21.5t-56.5 8t-55 -13q-8 -4 -17.5 -11t-10.5 -17q-1 -13 6.5 -18t18.5 -5.5
t22.5 2.5t17.5 6q7 3 16 9.5l17 12.5l14.5 11t9.5 6q10 3 10 -3t-4.5 -15t-11 -18.5t-9.5 -13.5q-14 -18 -33.5 -31.5t-41 -20t-44 -3t-42.5 20.5t-27 40t-4 46.5t15.5 45.5t31.5 38q32 27 73 36t83 7l23 -3q17 49 43.5 105.5t56.5 114.5q-52 -31 -102.5 -50.5t-96.5 -21.5
q-23 -1 -44.5 3.5t-39.5 17t-31 35.5t-19 59q114 -2 210 10.5t177 44.5q37 63 71 113.5t57 75.5q40 43 76.5 40t74.5 -34q17 -12 13 -34.5t-32 -48.5z" />
    <glyph glyph-name="M" unicode="M" horiz-adv-x="906" 
d="M157 -145q-33 2 -60.5 10.5t-47 23t-30.5 35.5t-10 48q2 51 33 108.5t79 118t107.5 122l119 120l112.5 112.5t89 99q10 22 25.5 40t41.5 24q17 5 36.5 1.5t35.5 -12.5q11 -7 12 -9.5t-3 -12.5q-2 -7 -6.5 -14.5t-8.5 -13.5q-67 -125 -111 -265q80 95 174 174q30 25 62 48
t67 40q6 3 17 7.5l23.5 9.5t25.5 9.5t24 7.5q18 5 36 1.5t23 -25.5q-38 -43 -73 -103t-63.5 -128.5t-50.5 -141t-34.5 -140t-14.5 -125.5t9 -97q-36 -17 -72.5 -11t-56.5 30q-18 26 -19.5 66.5t9 91t31 107.5t47.5 116.5t58.5 117.5t63.5 110q2 5 6 11l8 12
q-60 -49 -120.5 -118t-110.5 -145t-85.5 -154t-47.5 -145q-20 5 -38 14t-30.5 22.5t-19 31t-4.5 40.5q2 7 3 14t3 15q0 42 8 83t12 65q11 56 24.5 112.5t33.5 112.5q-37 -55 -79.5 -109l-84 -108.5t-78.5 -109t-62.5 -110.5t-36.5 -114.5t-1 -119.5z" />
    <glyph glyph-name="N" unicode="N" horiz-adv-x="633" 
d="M128 -83q-23 -4 -45 -2t-39 11.5t-28 27t-12 43.5q-5 73 24.5 159t77.5 172.5t108 166t118 139.5q2 7 4.5 14.5t5.5 14.5q10 29 33.5 37.5t50.5 9.5q3 0 10.5 1.5t8.5 -2.5q3 -3 0.5 -17t-7 -31t-9 -31.5t-5.5 -18.5q-11 -52 -16.5 -104t-7.5 -106q-3 -120 12 -238l5 -33
q8 41 18 75.5t15 48.5q23 62 58 129t79 130t94.5 118t104 92.5t108 53.5t106.5 2q14 -4 27 -13t22.5 -21.5t13.5 -28.5t1 -34q-55 3 -123.5 -18.5t-138.5 -71.5t-136 -130t-115 -192q-32 -76 -53.5 -160.5t-20.5 -167.5q-24 -5 -39 3t-23 25q-18 13 -30.5 30.5t-19.5 35.5
q-17 43 -28.5 88.5t-20.5 90.5q-14 66 -18 133t3 134q-60 -97 -105 -205.5t-65 -212.5q-7 -36 -10.5 -74t7.5 -73z" />
    <glyph glyph-name="O" unicode="O" horiz-adv-x="699" 
d="M116 -66q-47 38 -56.5 94.5t8 121.5t58 134.5t93.5 132.5t113 114.5t117 82.5q-40 -4 -81.5 -20t-81 -39t-75 -50t-62 -52t-42 -46t-16.5 -32q-14 -2 -30.5 5t-29.5 21t-18.5 34t2.5 45q11 30 54 63.5t104 63.5t132.5 53t139.5 33t124.5 3t88.5 -37q45 -44 56 -106
t-5 -132.5t-53.5 -144t-88.5 -139.5t-111 -119t-120.5 -84t-117.5 -33.5t-102 33.5zM570 580q-3 2 -6 4.5t-6 4.5q-51 -7 -104.5 -48.5t-101 -101.5t-84 -129.5t-53.5 -132t-9.5 -110t48.5 -62.5q26 -10 59 5t68 47.5t69 78t63 96.5t50.5 104.5t31 100.5t4.5 85t-29 58z" />
    <glyph glyph-name="one" unicode="1" horiz-adv-x="1654" 
d="M254 191l-27 -144l-26 144h-37l-4 -229h36l1 93l17 -93h27l19 94l2 -94h33l-2 229h-39zM1009 191q-34 0 -44.5 -19t-10.5 -51v-89q0 -32 10.5 -50.5t42.5 -19.5q8 -15 16.5 -23t24.5 -8l12 25q-17 -2 -31 8q20 6 27.5 24t7.5 44v89q0 32 -10.5 51t-44.5 19zM890 638
q-47 0 -56 47q-1 9 -1 18.5v20.5q0 21 -1 45.5t4 45.5q5 18 19 26.5t31 9.5q17 0 33 -7t23 -25q7 -20 6.5 -44t-0.5 -46q0 -13 -0.5 -25t-3.5 -23q-9 -43 -54 -43zM835 401q-22 0 -36.5 11t-18.5 33q-2 11 -1.5 21t0.5 21q0 21 -1 45t4 44q5 19 18.5 27t31.5 8q19 1 34 -5.5
t21 -23.5q8 -21 6.5 -45.5t-1.5 -44.5v-25.5t-2 -23.5q-9 -42 -55 -42zM393 81l-39 110h-30v-229h36v112l40 -112h29v229h-36v-110zM682 47h23v-14.5t-1.5 -19t-6.5 -15.5t-15 -2q-6 1 -9 7.5t-3.5 14t0 15t0.5 12.5v54q0 11 -0.5 25t1.5 25q3 4 8 7.5t10 2.5q12 -4 13 -14
q1 -8 1 -17v-18h38q0 10 -0.5 21t-2.5 21.5t-7 19.5t-15 15q-11 7 -25 7.5t-27 -4.5q-15 -5 -22.5 -18.5t-10.5 -27.5q-2 -17 -1.5 -33.5t0.5 -33.5t-0.5 -32t1.5 -32q2 -13 7 -27t17 -20q11 -8 28 -8t28 11l1 -7h30v119h-60v-34zM1155 191v-158q0 -23 -3 -30t-14 -7t-14 7
t-3 30v158h-38v-159q0 -32 11 -51t44 -19q34 0 45 19t11 51v159h-39zM581 640v210h42.5t39.5 -9q11 -7 17 -21t6 -29t-6 -28t-19 -18l28 -105h-28l-27 99h-23v-99h-30zM586 81l-19 21l-12 11.5t-9 15.5q-2 7 0.5 19t13.5 11q6 -1 9 -6.5t4 -12t1.5 -14t0.5 -12.5l36 2
q0 22 -5 43.5t-25 29.5q-12 6 -24.5 5t-22.5 -6.5t-17 -16t-8 -23.5q-2 -14 0.5 -27.5t10.5 -24.5q2 -7 8 -12t11 -11l23.5 -26.5t12.5 -31.5q0 -7 -1.5 -12.5t-7.5 -6.5q-10 -4 -14 8q-5 9 -6 19.5l-2 21.5l-36 -3q0 -15 1.5 -28t7.5 -27q8 -17 23 -24t32 -3
q18 3 28.5 16.5t11.5 28.5q6 43 -26 76zM870 191l-42 -229h39l9 54h25l7 -54h38l-40 229h-36zM1245 191l-42 -229h38l9 54h25l7 -54h38l-40 229h-35zM353 640v210h44q17 0 30.5 -3.5t21.5 -20.5q9 -18 8 -41.5t-18 -36.5q-11 -10 -27 -10h-30v-98h-29zM921 403v208h20
l59 -140v140h25v-208h-19l-61 141v-141h-24zM976 640v210h20l58 -140v140h25v-210h-19l-60 142v-142h-24zM1460 158h46v33h-84v-229h84v34h-46v66h36v34h-36v62zM1100 640l44 210h29l43 -210h-26l-11 52h-42l-10 -52h-27zM433 403q-9 -3 -20 -3.5t-21 3t-18.5 10.5t-12.5 18
q-5 11 -5.5 23t-0.5 27v130h28v-140q0 -11 1.5 -26t15.5 -23q12 -3 19 0.5t11.5 10.5t6 16.5t1.5 18.5q1 17 0.5 33t-0.5 34v76h30v-96q0 -13 0.5 -30t-2 -33.5t-10 -29.5t-23.5 -19zM1339 -38h38v195h29v34h-95v-34h28v-195zM764 638q-26 0 -40.5 17.5t-15.5 42.5l26 7
l4 -20t8 -16q7 -7 17 -8t17 5q8 8 7.5 20t-6.5 22q-4 5 -9.5 10.5t-13.5 11.5q-10 9 -21.5 18t-18.5 20q-13 23 -7.5 48.5t30.5 32.5q11 2 25.5 1t24.5 -8q11 -8 14.5 -20.5t3.5 -24.5l-22 -7q-2 11 -5.5 23.5t-17.5 15.5q-10 1 -18 -4t-10 -14q-3 -18 9.5 -30.5t24.5 -20.5
q14 -13 26 -26t17 -31q5 -26 -8.5 -45.5t-40.5 -19.5zM546 401q-27 0 -40 17t-15 43l28 7q0 -10 1.5 -20t7.5 -17q7 -8 16.5 -8.5t17.5 5.5q9 8 8 20.5t-7 20.5q-4 6 -9.5 12t-13.5 11l-21.5 19t-18.5 21q-6 10 -8 22.5t1 23.5t10.5 20t19.5 13q11 2 25.5 1t25.5 -8
q10 -8 13.5 -20.5t4.5 -24.5l-23 -8q-1 12 -5 24t-18 15q-9 2 -17 -3t-10 -16q-5 -17 8 -28l25 -22q14 -12 26 -24.5t15 -32.5q7 -24 -7 -43.5t-40 -19.5zM750 -67h33l65 288h-37zM618 403v208h82v-23h-52v-68h42v-21h-42v-78h52v-18h-82zM477 640v210h81v-23h-52v-67h42
v-22h-42v-78h53v-20h-82zM821 425q6 -4 14 -4t13 4q8 5 11 12.5t5 15.5q1 5 0.5 10.5t-0.5 10.5v74q0 9 -0.5 18.5t-8.5 16.5q-12 12 -26 7q-15 -4 -20 -20q-3 -14 -2 -32t1 -34v-37q0 -11 1 -23.5t12 -18.5zM1191 403v42q0 8 0.5 16.5t-0.5 15.5q-2 11 -6 20.5t-9 19.5
l-29 94h27l31 -100l30 100h29l-14 -43.5t-15 -43.5l-14 -43q-3 -8 -2.5 -15t0.5 -12v-51h-28zM878 662q5 -2 12.5 -2t13.5 2q9 5 11 12t3 15v97q0 9 -0.5 18.5t-8.5 15.5q-5 7 -11.5 8t-13.5 -1q-16 -1 -19 -17q-5 -15 -3 -33.5t2 -33.5v-39q0 -11 0.5 -23.5t13.5 -18.5z
M1239 640v210h28v-190h54v-20h-82zM1058 403v208h28v-190h53v-18h-81zM381 -337q-13 0 -19.5 6t-8.5 14.5t-2 18.5v18q0 10 0.5 19.5t3.5 17t10 11.5t19 3q11 -1 16.5 -6.5t8 -13.5t2.5 -17v-18q0 -8 -0.5 -17.5t-3 -17.5t-8.5 -13t-18 -5zM471 -205q-12 0 -18.5 6
t-8.5 14.5t-2 19v19.5t0.5 18t3.5 16.5t9.5 12t18.5 3.5q21 -2 24 -20t3 -35q0 -8 -0.5 -17.5t-3 -17.5t-8.5 -13.5t-18 -5.5zM1279 -337q-12 0 -18.5 6t-9 14.5t-2.5 18.5v18q0 10 0.5 19.5t3.5 17t10 11.5t19 3t17 -6.5t7 -13.5t1.5 -17t-0.5 -18v-17.5t-2.5 -17.5
t-8.5 -13t-17 -5zM1216 -203v106q11 0 24 0.5t23 -7.5q9 -8 8.5 -22t-0.5 -25v-25.5t-12 -21.5q-8 -7 -20.5 -6t-22.5 1zM1009 158q10 0 13.5 -6.5t3.5 -28.5v-90q0 -23 -3 -30t-14 -7t-14 7t-3 30v90q0 22 3.5 28.5t13.5 6.5zM424 -336l2 106h16l19 -85l17 85h15l1 -106
h-11l-1 78l-18 -78h-10l-17 78l-1 -78h-12zM651 -336v106q11 0 21.5 1t19.5 -4q6 -4 9 -11t3 -15t-3 -14.5t-10 -9.5l15 -53h-14l-13 51h-11v-51h-17zM510 -336l2 106h15l19 -85l19 85h15l1 -106h-10l-2 78l-18 -78h-10l-16 78l-2 -78h-13zM515 -203v106q9 0 20 1t19 -4
q6 -3 10 -10.5t4.5 -15.5t-3 -15t-11.5 -10l16 -52h-15l-15 49h-11v-49h-14zM1088 -336v106q10 0 20.5 1t20.5 -4q6 -4 9 -11t3.5 -15t-2.5 -14.5t-10 -9.5l13 -53h-13l-13 51h-13v-51h-15zM526 244v108h26.5t23.5 -11q3 -9 2.5 -22t-8.5 -19q-7 -5 -14.5 -5.5t-15.5 -0.5
v-50h-14zM667 -203v106h13v-47h28v47h16v-106h-16v49h-28v-49h-13zM1147 -203v106h9l31 -71v71h12v-106h-9l-31 71v-71h-12zM689 244l23 108h14l24 -108h-16l-5 28h-22l-5 -28h-13zM1324 -336v106h9l32 -71v71h11v-106h-10l-31 73v-73h-11zM1077 -203l21 106h16l22 -106h-14
l-6 26h-21l-6 -26h-12zM815 -336l22 106h15l23 -106h-14l-4 27h-23l-5 -27h-14zM1288 447l-8 164h27l-9 -164h-10zM382 760q8 0 15 -0.5t15 0.5q11 3 14 11t3 19q1 11 -1.5 22t-15.5 14q-8 2 -15 1.5t-15 -0.5v-67zM916 -203q-16 -5 -27 2t-14 22q-2 7 -1 13.5t1 11.5v57h13
v-47q0 -5 -0.5 -13.5t0.5 -16.5t4 -14t10 -6t10.5 6t5 14t1 16.5t-0.5 13.5v47h13v-48q0 -7 0.5 -15.5t-0.5 -17t-4.5 -15.5t-10.5 -10zM311 -337q-13 0 -19 8t-8 19.5t-1.5 24t0.5 22.5q0 14 7.5 25t25.5 9q16 -2 19.5 -13.5t3.5 -23.5h-14q0 5 0.5 10t-2.5 9q-2 8 -10 8.5
t-11 -6.5q-5 -5 -4 -18t1 -21q0 -6 -1 -17.5t5 -18.5q2 -6 10 -5.5t10 8.5q3 5 2.5 10t-0.5 10h14q0 -14 -4.5 -27t-23.5 -13zM746 -337q-14 0 -20 8t-7.5 19.5t-0.5 24t1 22.5q0 14 7 25t25 9q17 -2 20.5 -13.5t3.5 -23.5h-16q0 5 0.5 10t-1.5 9q-2 8 -9.5 8.5t-12.5 -6.5
q-5 -5 -4 -18t1 -21q0 -6 -1 -17.5t5 -18.5q4 -6 11.5 -5.5t9.5 8.5q2 5 1.5 10t-0.5 10h16q0 -14 -4.5 -27t-24.5 -13zM1029 243q-14 0 -20.5 8.5t-7.5 22.5l15 5q0 -6 2 -13t7 -11q7 -2 11.5 2.5t4.5 10.5q0 11 -9 19t-16 16q-11 8 -14.5 21t7.5 24q7 4 15.5 4.5
t14.5 -1.5q8 -4 10.5 -11.5t3.5 -14.5l-12 -3l-2 10.5t-6 9.5q-5 2 -10 0t-6 -9q-5 -8 2.5 -15l12.5 -12q6 -5 12.5 -11.5t8.5 -16.5q4 -13 -2.5 -24t-21.5 -11zM1182 -337q-14 0 -20.5 9.5t-8.5 21.5l14 4q0 -6 2 -12.5t7 -8.5q8 -4 12.5 0t4.5 10q0 11 -9.5 19.5
t-16.5 13.5q-9 9 -12.5 23.5t8.5 22.5q6 5 14.5 5.5t13.5 -2.5q8 -2 11 -9.5t4 -14.5l-13 -5l-2 11.5t-5 9.5q-14 3 -18 -8q-3 -8 3.5 -14.5t12.5 -11.5q6 -8 13 -14t9 -16q4 -13 -3 -23.5t-21 -10.5zM784 243q-13 0 -20 8.5t-8 22.5l14 5q0 -6 2 -13t7 -11q8 -2 12.5 2.5
t4.5 10.5q0 11 -9.5 19t-16.5 16q-10 8 -13 21t8 24q6 4 14 4.5t14 -1.5q8 -4 11.5 -11.5t4.5 -14.5l-13 -3q-1 5 -2.5 10.5t-5.5 9.5q-5 2 -10 0t-7 -9q-3 -8 3 -15t11 -12q8 -5 15 -11.5t9 -16.5q4 -13 -3.5 -24t-21.5 -11zM611 760h14t16 1q19 10 14 35q0 10 -2.5 17
t-11.5 12q-8 3 -16 2.5t-14 -0.5v-67zM924 244l-24 108h16l15 -79l17 79h11l-22 -108h-13zM987 -336l-24 106h13l18 -78l14 78h16l-25 -106h-12zM821 244v108h43v-10h-28v-37h23v-10h-23v-41h29v-10h-44zM1034 -336v106h43v-9h-27v-35h22v-11h-22v-41h27v-10h-43zM598 -336
v106h42v-9h-27v-35h22v-11h-22v-41h27v-10h-42zM740 -203v106h41v-11h-26v-36h22v-10h-22v-40h26v-9h-41zM464 -193q9 -4 13 -0.5t6 10.5t2 15v13q0 4 0.5 11t0 14t-2 13t-5.5 8q-10 5 -16 -2t-6 -16v-17q0 -3 -0.5 -10.5t-0.5 -15t2 -14.5t7 -9zM641 244v108h41v-10h-28
v-37h23v-10h-23v-41h28v-10h-41zM1272 -322q9 -5 13.5 -2t6.5 9t2 14v14q0 4 0.5 10.5t0 13.5t-2.5 12.5t-6 7.5q-11 7 -15.5 0t-4.5 -15v-16q0 -4 -1 -11.5t-1 -15t1.5 -14t6.5 -7.5zM373 -322q9 -5 13 -2t6 9t2 14v14q0 4 0.5 10.5t0.5 13.5t-1.5 12.5t-5.5 7.5
q-11 7 -16 0t-5 -15q-1 -4 -0.5 -8t0.5 -8t-1 -11.5t-1 -15t1.5 -14t6.5 -7.5zM392 -203v106h41v-11h-25v-36h19v-10h-19v-49h-16zM1231 -194q9 0 16 2t9 13v56q-1 11 -8 13t-17 2v-86zM625 -203v95h-20v11h55v-11h-20v-95h-15zM999 -203v106h15v-97h27v-9h-42zM1112 244v98
h-21v10h52v-10h-18v-98h-13zM826 -203v106h40v-11h-29v-36h22v-10h-22v-49h-11zM948 -203v106h14v-97h27v-9h-41zM589 244v108h13v-98h28v-10h-41zM1066 244v108h17v-108h-17zM886 -336v106h14v-96h28v-10h-42zM1141 713h35l-18 96zM454 -38h38v43h-38v-43zM789 -336v106h15
v-106h-15zM973 244v108h14v-108h-14zM1220 -336v106h13v-106h-13zM540 304h8t9 2q5 3 6 8.5t1 11.5q-1 13 -7.5 14.5t-16.5 1.5v-38zM1280 403v29h27v-29h-27zM529 -144q10 0 17 3t7 16q0 12 -6.5 14.5t-17.5 2.5v-36zM1103 -274q10 0 17 2.5t7 14.5q0 11 -7 14.5t-17 3.5
v-35zM668 -274q9 0 15.5 2.5t6.5 14.5q0 11 -6.5 14.5t-15.5 3.5v-35zM708 282h19l-8 49zM835 -299h19l-9 49zM1097 -166h19l-10 48zM1255 50l7 46l7 -46h-14zM881 50l7 46l6 -46h-13z" />
    <glyph glyph-name="two" unicode="2" horiz-adv-x="1654" 
d="M254 191l-27 -144l-26 144h-37l-4 -229h36l1 93l17 -93h27l19 94l2 -94h33l-2 229h-39zM1009 191q-34 0 -44.5 -19t-10.5 -51v-89q0 -32 10.5 -50.5t42.5 -19.5q8 -15 16.5 -23t24.5 -8l12 25q-17 -2 -31 8q20 6 27.5 24t7.5 44v89q0 32 -10.5 51t-44.5 19zM890 638
q-47 0 -56 47q-1 9 -1 18.5v20.5q0 21 -1 45.5t4 45.5q5 18 19 26.5t31 9.5q17 0 33 -7t23 -25q7 -20 6.5 -44t-0.5 -46q0 -13 -0.5 -25t-3.5 -23q-9 -43 -54 -43zM835 401q-22 0 -36.5 11t-18.5 33q-2 11 -1.5 21t0.5 21q0 21 -1 45t4 44q5 19 18.5 27t31.5 8q19 1 34 -5.5
t21 -23.5q8 -21 6.5 -45.5t-1.5 -44.5v-25.5t-2 -23.5q-9 -42 -55 -42zM393 81l-39 110h-30v-229h36v112l40 -112h29v229h-36v-110zM682 47h23v-14.5t-1.5 -19t-6.5 -15.5t-15 -2q-6 1 -9 7.5t-3.5 14t0 15t0.5 12.5v54q0 11 -0.5 25t1.5 25q3 4 8 7.5t10 2.5q12 -4 13 -14
q1 -8 1 -17v-18h38q0 10 -0.5 21t-2.5 21.5t-7 19.5t-15 15q-11 7 -25 7.5t-27 -4.5q-15 -5 -22.5 -18.5t-10.5 -27.5q-2 -17 -1.5 -33.5t0.5 -33.5t-0.5 -32t1.5 -32q2 -13 7 -27t17 -20q11 -8 28 -8t28 11l1 -7h30v119h-60v-34zM1155 191v-158q0 -23 -3 -30t-14 -7t-14 7
t-3 30v158h-38v-159q0 -32 11 -51t44 -19q34 0 45 19t11 51v159h-39zM581 640v210h42.5t39.5 -9q11 -7 17 -21t6 -29t-6 -28t-19 -18l28 -105h-28l-27 99h-23v-99h-30zM586 81l-19 21l-12 11.5t-9 15.5q-2 7 0.5 19t13.5 11q6 -1 9 -6.5t4 -12t1.5 -14t0.5 -12.5l36 2
q0 22 -5 43.5t-25 29.5q-12 6 -24.5 5t-22.5 -6.5t-17 -16t-8 -23.5q-2 -14 0.5 -27.5t10.5 -24.5q2 -7 8 -12t11 -11l23.5 -26.5t12.5 -31.5q0 -7 -1.5 -12.5t-7.5 -6.5q-10 -4 -14 8q-5 9 -6 19.5l-2 21.5l-36 -3q0 -15 1.5 -28t7.5 -27q8 -17 23 -24t32 -3
q18 3 28.5 16.5t11.5 28.5q6 43 -26 76zM870 191l-42 -229h39l9 54h25l7 -54h38l-40 229h-36zM1245 191l-42 -229h38l9 54h25l7 -54h38l-40 229h-35zM353 640v210h44q17 0 30.5 -3.5t21.5 -20.5q9 -18 8 -41.5t-18 -36.5q-11 -10 -27 -10h-30v-98h-29zM921 403v208h20
l59 -140v140h25v-208h-19l-61 141v-141h-24zM976 640v210h20l58 -140v140h25v-210h-19l-60 142v-142h-24zM1460 158h46v33h-84v-229h84v34h-46v66h36v34h-36v62zM1100 640l44 210h29l43 -210h-26l-11 52h-42l-10 -52h-27zM433 403q-9 -3 -20 -3.5t-21 3t-18.5 10.5t-12.5 18
q-5 11 -5.5 23t-0.5 27v130h28v-140q0 -11 1.5 -26t15.5 -23q12 -3 19 0.5t11.5 10.5t6 16.5t1.5 18.5q1 17 0.5 33t-0.5 34v76h30v-96q0 -13 0.5 -30t-2 -33.5t-10 -29.5t-23.5 -19zM1339 -38h38v195h29v34h-95v-34h28v-195zM764 638q-26 0 -40.5 17.5t-15.5 42.5l26 7
l4 -20t8 -16q7 -7 17 -8t17 5q8 8 7.5 20t-6.5 22q-4 5 -9.5 10.5t-13.5 11.5q-10 9 -21.5 18t-18.5 20q-13 23 -7.5 48.5t30.5 32.5q11 2 25.5 1t24.5 -8q11 -8 14.5 -20.5t3.5 -24.5l-22 -7q-2 11 -5.5 23.5t-17.5 15.5q-10 1 -18 -4t-10 -14q-3 -18 9.5 -30.5t24.5 -20.5
q14 -13 26 -26t17 -31q5 -26 -8.5 -45.5t-40.5 -19.5zM546 401q-27 0 -40 17t-15 43l28 7q0 -10 1.5 -20t7.5 -17q7 -8 16.5 -8.5t17.5 5.5q9 8 8 20.5t-7 20.5q-4 6 -9.5 12t-13.5 11l-21.5 19t-18.5 21q-6 10 -8 22.5t1 23.5t10.5 20t19.5 13q11 2 25.5 1t25.5 -8
q10 -8 13.5 -20.5t4.5 -24.5l-23 -8q-1 12 -5 24t-18 15q-9 2 -17 -3t-10 -16q-5 -17 8 -28l25 -22q14 -12 26 -24.5t15 -32.5q7 -24 -7 -43.5t-40 -19.5zM750 -67h33l65 288h-37zM618 403v208h82v-23h-52v-68h42v-21h-42v-78h52v-18h-82zM477 640v210h81v-23h-52v-67h42
v-22h-42v-78h53v-20h-82zM821 425q6 -4 14 -4t13 4q8 5 11 12.5t5 15.5q1 5 0.5 10.5t-0.5 10.5v74q0 9 -0.5 18.5t-8.5 16.5q-12 12 -26 7q-15 -4 -20 -20q-3 -14 -2 -32t1 -34v-37q0 -11 1 -23.5t12 -18.5zM1191 403v42q0 8 0.5 16.5t-0.5 15.5q-2 11 -6 20.5t-9 19.5
l-29 94h27l31 -100l30 100h29l-14 -43.5t-15 -43.5l-14 -43q-3 -8 -2.5 -15t0.5 -12v-51h-28zM878 662q5 -2 12.5 -2t13.5 2q9 5 11 12t3 15v97q0 9 -0.5 18.5t-8.5 15.5q-5 7 -11.5 8t-13.5 -1q-16 -1 -19 -17q-5 -15 -3 -33.5t2 -33.5v-39q0 -11 0.5 -23.5t13.5 -18.5z
M1239 640v210h28v-190h54v-20h-82zM1058 403v208h28v-190h53v-18h-81zM381 -337q-13 0 -19.5 6t-8.5 14.5t-2 18.5v18q0 10 0.5 19.5t3.5 17t10 11.5t19 3q11 -1 16.5 -6.5t8 -13.5t2.5 -17v-18q0 -8 -0.5 -17.5t-3 -17.5t-8.5 -13t-18 -5zM471 -205q-12 0 -18.5 6
t-8.5 14.5t-2 19v19.5t0.5 18t3.5 16.5t9.5 12t18.5 3.5q21 -2 24 -20t3 -35q0 -8 -0.5 -17.5t-3 -17.5t-8.5 -13.5t-18 -5.5zM1279 -337q-12 0 -18.5 6t-9 14.5t-2.5 18.5v18q0 10 0.5 19.5t3.5 17t10 11.5t19 3t17 -6.5t7 -13.5t1.5 -17t-0.5 -18v-17.5t-2.5 -17.5
t-8.5 -13t-17 -5zM1216 -203v106q11 0 24 0.5t23 -7.5q9 -8 8.5 -22t-0.5 -25v-25.5t-12 -21.5q-8 -7 -20.5 -6t-22.5 1zM1009 158q10 0 13.5 -6.5t3.5 -28.5v-90q0 -23 -3 -30t-14 -7t-14 7t-3 30v90q0 22 3.5 28.5t13.5 6.5zM424 -336l2 106h16l19 -85l17 85h15l1 -106
h-11l-1 78l-18 -78h-10l-17 78l-1 -78h-12zM651 -336v106q11 0 21.5 1t19.5 -4q6 -4 9 -11t3 -15t-3 -14.5t-10 -9.5l15 -53h-14l-13 51h-11v-51h-17zM510 -336l2 106h15l19 -85l19 85h15l1 -106h-10l-2 78l-18 -78h-10l-16 78l-2 -78h-13zM515 -203v106q9 0 20 1t19 -4
q6 -3 10 -10.5t4.5 -15.5t-3 -15t-11.5 -10l16 -52h-15l-15 49h-11v-49h-14zM1088 -336v106q10 0 20.5 1t20.5 -4q6 -4 9 -11t3.5 -15t-2.5 -14.5t-10 -9.5l13 -53h-13l-13 51h-13v-51h-15zM526 244v108h26.5t23.5 -11q3 -9 2.5 -22t-8.5 -19q-7 -5 -14.5 -5.5t-15.5 -0.5
v-50h-14zM667 -203v106h13v-47h28v47h16v-106h-16v49h-28v-49h-13zM1147 -203v106h9l31 -71v71h12v-106h-9l-31 71v-71h-12zM689 244l23 108h14l24 -108h-16l-5 28h-22l-5 -28h-13zM1324 -336v106h9l32 -71v71h11v-106h-10l-31 73v-73h-11zM1077 -203l21 106h16l22 -106h-14
l-6 26h-21l-6 -26h-12zM815 -336l22 106h15l23 -106h-14l-4 27h-23l-5 -27h-14zM1288 447l-8 164h27l-9 -164h-10zM382 760q8 0 15 -0.5t15 0.5q11 3 14 11t3 19q1 11 -1.5 22t-15.5 14q-8 2 -15 1.5t-15 -0.5v-67zM916 -203q-16 -5 -27 2t-14 22q-2 7 -1 13.5t1 11.5v57h13
v-47q0 -5 -0.5 -13.5t0.5 -16.5t4 -14t10 -6t10.5 6t5 14t1 16.5t-0.5 13.5v47h13v-48q0 -7 0.5 -15.5t-0.5 -17t-4.5 -15.5t-10.5 -10zM311 -337q-13 0 -19 8t-8 19.5t-1.5 24t0.5 22.5q0 14 7.5 25t25.5 9q16 -2 19.5 -13.5t3.5 -23.5h-14q0 5 0.5 10t-2.5 9q-2 8 -10 8.5
t-11 -6.5q-5 -5 -4 -18t1 -21q0 -6 -1 -17.5t5 -18.5q2 -6 10 -5.5t10 8.5q3 5 2.5 10t-0.5 10h14q0 -14 -4.5 -27t-23.5 -13zM746 -337q-14 0 -20 8t-7.5 19.5t-0.5 24t1 22.5q0 14 7 25t25 9q17 -2 20.5 -13.5t3.5 -23.5h-16q0 5 0.5 10t-1.5 9q-2 8 -9.5 8.5t-12.5 -6.5
q-5 -5 -4 -18t1 -21q0 -6 -1 -17.5t5 -18.5q4 -6 11.5 -5.5t9.5 8.5q2 5 1.5 10t-0.5 10h16q0 -14 -4.5 -27t-24.5 -13zM1029 243q-14 0 -20.5 8.5t-7.5 22.5l15 5q0 -6 2 -13t7 -11q7 -2 11.5 2.5t4.5 10.5q0 11 -9 19t-16 16q-11 8 -14.5 21t7.5 24q7 4 15.5 4.5
t14.5 -1.5q8 -4 10.5 -11.5t3.5 -14.5l-12 -3l-2 10.5t-6 9.5q-5 2 -10 0t-6 -9q-5 -8 2.5 -15l12.5 -12q6 -5 12.5 -11.5t8.5 -16.5q4 -13 -2.5 -24t-21.5 -11zM1182 -337q-14 0 -20.5 9.5t-8.5 21.5l14 4q0 -6 2 -12.5t7 -8.5q8 -4 12.5 0t4.5 10q0 11 -9.5 19.5
t-16.5 13.5q-9 9 -12.5 23.5t8.5 22.5q6 5 14.5 5.5t13.5 -2.5q8 -2 11 -9.5t4 -14.5l-13 -5l-2 11.5t-5 9.5q-14 3 -18 -8q-3 -8 3.5 -14.5t12.5 -11.5q6 -8 13 -14t9 -16q4 -13 -3 -23.5t-21 -10.5zM784 243q-13 0 -20 8.5t-8 22.5l14 5q0 -6 2 -13t7 -11q8 -2 12.5 2.5
t4.5 10.5q0 11 -9.5 19t-16.5 16q-10 8 -13 21t8 24q6 4 14 4.5t14 -1.5q8 -4 11.5 -11.5t4.5 -14.5l-13 -3q-1 5 -2.5 10.5t-5.5 9.5q-5 2 -10 0t-7 -9q-3 -8 3 -15t11 -12q8 -5 15 -11.5t9 -16.5q4 -13 -3.5 -24t-21.5 -11zM611 760h14t16 1q19 10 14 35q0 10 -2.5 17
t-11.5 12q-8 3 -16 2.5t-14 -0.5v-67zM924 244l-24 108h16l15 -79l17 79h11l-22 -108h-13zM987 -336l-24 106h13l18 -78l14 78h16l-25 -106h-12zM821 244v108h43v-10h-28v-37h23v-10h-23v-41h29v-10h-44zM1034 -336v106h43v-9h-27v-35h22v-11h-22v-41h27v-10h-43zM598 -336
v106h42v-9h-27v-35h22v-11h-22v-41h27v-10h-42zM740 -203v106h41v-11h-26v-36h22v-10h-22v-40h26v-9h-41zM464 -193q9 -4 13 -0.5t6 10.5t2 15v13q0 4 0.5 11t0 14t-2 13t-5.5 8q-10 5 -16 -2t-6 -16v-17q0 -3 -0.5 -10.5t-0.5 -15t2 -14.5t7 -9zM641 244v108h41v-10h-28
v-37h23v-10h-23v-41h28v-10h-41zM1272 -322q9 -5 13.5 -2t6.5 9t2 14v14q0 4 0.5 10.5t0 13.5t-2.5 12.5t-6 7.5q-11 7 -15.5 0t-4.5 -15v-16q0 -4 -1 -11.5t-1 -15t1.5 -14t6.5 -7.5zM373 -322q9 -5 13 -2t6 9t2 14v14q0 4 0.5 10.5t0.5 13.5t-1.5 12.5t-5.5 7.5
q-11 7 -16 0t-5 -15q-1 -4 -0.5 -8t0.5 -8t-1 -11.5t-1 -15t1.5 -14t6.5 -7.5zM392 -203v106h41v-11h-25v-36h19v-10h-19v-49h-16zM1231 -194q9 0 16 2t9 13v56q-1 11 -8 13t-17 2v-86zM625 -203v95h-20v11h55v-11h-20v-95h-15zM999 -203v106h15v-97h27v-9h-42zM1112 244v98
h-21v10h52v-10h-18v-98h-13zM826 -203v106h40v-11h-29v-36h22v-10h-22v-49h-11zM948 -203v106h14v-97h27v-9h-41zM589 244v108h13v-98h28v-10h-41zM1066 244v108h17v-108h-17zM886 -336v106h14v-96h28v-10h-42zM1141 713h35l-18 96zM454 -38h38v43h-38v-43zM789 -336v106h15
v-106h-15zM973 244v108h14v-108h-14zM1220 -336v106h13v-106h-13zM540 304h8t9 2q5 3 6 8.5t1 11.5q-1 13 -7.5 14.5t-16.5 1.5v-38zM1280 403v29h27v-29h-27zM529 -144q10 0 17 3t7 16q0 12 -6.5 14.5t-17.5 2.5v-36zM1103 -274q10 0 17 2.5t7 14.5q0 11 -7 14.5t-17 3.5
v-35zM668 -274q9 0 15.5 2.5t6.5 14.5q0 11 -6.5 14.5t-15.5 3.5v-35zM708 282h19l-8 49zM835 -299h19l-9 49zM1097 -166h19l-10 48zM1255 50l7 46l7 -46h-14zM881 50l7 46l6 -46h-13z" />
    <glyph glyph-name="three" unicode="3" horiz-adv-x="1654" 
d="M254 191l-27 -144l-26 144h-37l-4 -229h36l1 93l17 -93h27l19 94l2 -94h33l-2 229h-39zM1009 191q-34 0 -44.5 -19t-10.5 -51v-89q0 -32 10.5 -50.5t42.5 -19.5q8 -15 16.5 -23t24.5 -8l12 25q-17 -2 -31 8q20 6 27.5 24t7.5 44v89q0 32 -10.5 51t-44.5 19zM890 638
q-47 0 -56 47q-1 9 -1 18.5v20.5q0 21 -1 45.5t4 45.5q5 18 19 26.5t31 9.5q17 0 33 -7t23 -25q7 -20 6.5 -44t-0.5 -46q0 -13 -0.5 -25t-3.5 -23q-9 -43 -54 -43zM835 401q-22 0 -36.5 11t-18.5 33q-2 11 -1.5 21t0.5 21q0 21 -1 45t4 44q5 19 18.5 27t31.5 8q19 1 34 -5.5
t21 -23.5q8 -21 6.5 -45.5t-1.5 -44.5v-25.5t-2 -23.5q-9 -42 -55 -42zM393 81l-39 110h-30v-229h36v112l40 -112h29v229h-36v-110zM682 47h23v-14.5t-1.5 -19t-6.5 -15.5t-15 -2q-6 1 -9 7.5t-3.5 14t0 15t0.5 12.5v54q0 11 -0.5 25t1.5 25q3 4 8 7.5t10 2.5q12 -4 13 -14
q1 -8 1 -17v-18h38q0 10 -0.5 21t-2.5 21.5t-7 19.5t-15 15q-11 7 -25 7.5t-27 -4.5q-15 -5 -22.5 -18.5t-10.5 -27.5q-2 -17 -1.5 -33.5t0.5 -33.5t-0.5 -32t1.5 -32q2 -13 7 -27t17 -20q11 -8 28 -8t28 11l1 -7h30v119h-60v-34zM1155 191v-158q0 -23 -3 -30t-14 -7t-14 7
t-3 30v158h-38v-159q0 -32 11 -51t44 -19q34 0 45 19t11 51v159h-39zM581 640v210h42.5t39.5 -9q11 -7 17 -21t6 -29t-6 -28t-19 -18l28 -105h-28l-27 99h-23v-99h-30zM586 81l-19 21l-12 11.5t-9 15.5q-2 7 0.5 19t13.5 11q6 -1 9 -6.5t4 -12t1.5 -14t0.5 -12.5l36 2
q0 22 -5 43.5t-25 29.5q-12 6 -24.5 5t-22.5 -6.5t-17 -16t-8 -23.5q-2 -14 0.5 -27.5t10.5 -24.5q2 -7 8 -12t11 -11l23.5 -26.5t12.5 -31.5q0 -7 -1.5 -12.5t-7.5 -6.5q-10 -4 -14 8q-5 9 -6 19.5l-2 21.5l-36 -3q0 -15 1.5 -28t7.5 -27q8 -17 23 -24t32 -3
q18 3 28.5 16.5t11.5 28.5q6 43 -26 76zM870 191l-42 -229h39l9 54h25l7 -54h38l-40 229h-36zM1245 191l-42 -229h38l9 54h25l7 -54h38l-40 229h-35zM353 640v210h44q17 0 30.5 -3.5t21.5 -20.5q9 -18 8 -41.5t-18 -36.5q-11 -10 -27 -10h-30v-98h-29zM921 403v208h20
l59 -140v140h25v-208h-19l-61 141v-141h-24zM976 640v210h20l58 -140v140h25v-210h-19l-60 142v-142h-24zM1460 158h46v33h-84v-229h84v34h-46v66h36v34h-36v62zM1100 640l44 210h29l43 -210h-26l-11 52h-42l-10 -52h-27zM433 403q-9 -3 -20 -3.5t-21 3t-18.5 10.5t-12.5 18
q-5 11 -5.5 23t-0.5 27v130h28v-140q0 -11 1.5 -26t15.5 -23q12 -3 19 0.5t11.5 10.5t6 16.5t1.5 18.5q1 17 0.5 33t-0.5 34v76h30v-96q0 -13 0.5 -30t-2 -33.5t-10 -29.5t-23.5 -19zM1339 -38h38v195h29v34h-95v-34h28v-195zM764 638q-26 0 -40.5 17.5t-15.5 42.5l26 7
l4 -20t8 -16q7 -7 17 -8t17 5q8 8 7.5 20t-6.5 22q-4 5 -9.5 10.5t-13.5 11.5q-10 9 -21.5 18t-18.5 20q-13 23 -7.5 48.5t30.5 32.5q11 2 25.5 1t24.5 -8q11 -8 14.5 -20.5t3.5 -24.5l-22 -7q-2 11 -5.5 23.5t-17.5 15.5q-10 1 -18 -4t-10 -14q-3 -18 9.5 -30.5t24.5 -20.5
q14 -13 26 -26t17 -31q5 -26 -8.5 -45.5t-40.5 -19.5zM546 401q-27 0 -40 17t-15 43l28 7q0 -10 1.5 -20t7.5 -17q7 -8 16.5 -8.5t17.5 5.5q9 8 8 20.5t-7 20.5q-4 6 -9.5 12t-13.5 11l-21.5 19t-18.5 21q-6 10 -8 22.5t1 23.5t10.5 20t19.5 13q11 2 25.5 1t25.5 -8
q10 -8 13.5 -20.5t4.5 -24.5l-23 -8q-1 12 -5 24t-18 15q-9 2 -17 -3t-10 -16q-5 -17 8 -28l25 -22q14 -12 26 -24.5t15 -32.5q7 -24 -7 -43.5t-40 -19.5zM750 -67h33l65 288h-37zM618 403v208h82v-23h-52v-68h42v-21h-42v-78h52v-18h-82zM477 640v210h81v-23h-52v-67h42
v-22h-42v-78h53v-20h-82zM821 425q6 -4 14 -4t13 4q8 5 11 12.5t5 15.5q1 5 0.5 10.5t-0.5 10.5v74q0 9 -0.5 18.5t-8.5 16.5q-12 12 -26 7q-15 -4 -20 -20q-3 -14 -2 -32t1 -34v-37q0 -11 1 -23.5t12 -18.5zM1191 403v42q0 8 0.5 16.5t-0.5 15.5q-2 11 -6 20.5t-9 19.5
l-29 94h27l31 -100l30 100h29l-14 -43.5t-15 -43.5l-14 -43q-3 -8 -2.5 -15t0.5 -12v-51h-28zM878 662q5 -2 12.5 -2t13.5 2q9 5 11 12t3 15v97q0 9 -0.5 18.5t-8.5 15.5q-5 7 -11.5 8t-13.5 -1q-16 -1 -19 -17q-5 -15 -3 -33.5t2 -33.5v-39q0 -11 0.5 -23.5t13.5 -18.5z
M1239 640v210h28v-190h54v-20h-82zM1058 403v208h28v-190h53v-18h-81zM381 -337q-13 0 -19.5 6t-8.5 14.5t-2 18.5v18q0 10 0.5 19.5t3.5 17t10 11.5t19 3q11 -1 16.5 -6.5t8 -13.5t2.5 -17v-18q0 -8 -0.5 -17.5t-3 -17.5t-8.5 -13t-18 -5zM471 -205q-12 0 -18.5 6
t-8.5 14.5t-2 19v19.5t0.5 18t3.5 16.5t9.5 12t18.5 3.5q21 -2 24 -20t3 -35q0 -8 -0.5 -17.5t-3 -17.5t-8.5 -13.5t-18 -5.5zM1279 -337q-12 0 -18.5 6t-9 14.5t-2.5 18.5v18q0 10 0.5 19.5t3.5 17t10 11.5t19 3t17 -6.5t7 -13.5t1.5 -17t-0.5 -18v-17.5t-2.5 -17.5
t-8.5 -13t-17 -5zM1216 -203v106q11 0 24 0.5t23 -7.5q9 -8 8.5 -22t-0.5 -25v-25.5t-12 -21.5q-8 -7 -20.5 -6t-22.5 1zM1009 158q10 0 13.5 -6.5t3.5 -28.5v-90q0 -23 -3 -30t-14 -7t-14 7t-3 30v90q0 22 3.5 28.5t13.5 6.5zM424 -336l2 106h16l19 -85l17 85h15l1 -106
h-11l-1 78l-18 -78h-10l-17 78l-1 -78h-12zM651 -336v106q11 0 21.5 1t19.5 -4q6 -4 9 -11t3 -15t-3 -14.5t-10 -9.5l15 -53h-14l-13 51h-11v-51h-17zM510 -336l2 106h15l19 -85l19 85h15l1 -106h-10l-2 78l-18 -78h-10l-16 78l-2 -78h-13zM515 -203v106q9 0 20 1t19 -4
q6 -3 10 -10.5t4.5 -15.5t-3 -15t-11.5 -10l16 -52h-15l-15 49h-11v-49h-14zM1088 -336v106q10 0 20.5 1t20.5 -4q6 -4 9 -11t3.5 -15t-2.5 -14.5t-10 -9.5l13 -53h-13l-13 51h-13v-51h-15zM526 244v108h26.5t23.5 -11q3 -9 2.5 -22t-8.5 -19q-7 -5 -14.5 -5.5t-15.5 -0.5
v-50h-14zM667 -203v106h13v-47h28v47h16v-106h-16v49h-28v-49h-13zM1147 -203v106h9l31 -71v71h12v-106h-9l-31 71v-71h-12zM689 244l23 108h14l24 -108h-16l-5 28h-22l-5 -28h-13zM1324 -336v106h9l32 -71v71h11v-106h-10l-31 73v-73h-11zM1077 -203l21 106h16l22 -106h-14
l-6 26h-21l-6 -26h-12zM815 -336l22 106h15l23 -106h-14l-4 27h-23l-5 -27h-14zM1288 447l-8 164h27l-9 -164h-10zM382 760q8 0 15 -0.5t15 0.5q11 3 14 11t3 19q1 11 -1.5 22t-15.5 14q-8 2 -15 1.5t-15 -0.5v-67zM916 -203q-16 -5 -27 2t-14 22q-2 7 -1 13.5t1 11.5v57h13
v-47q0 -5 -0.5 -13.5t0.5 -16.5t4 -14t10 -6t10.5 6t5 14t1 16.5t-0.5 13.5v47h13v-48q0 -7 0.5 -15.5t-0.5 -17t-4.5 -15.5t-10.5 -10zM311 -337q-13 0 -19 8t-8 19.5t-1.5 24t0.5 22.5q0 14 7.5 25t25.5 9q16 -2 19.5 -13.5t3.5 -23.5h-14q0 5 0.5 10t-2.5 9q-2 8 -10 8.5
t-11 -6.5q-5 -5 -4 -18t1 -21q0 -6 -1 -17.5t5 -18.5q2 -6 10 -5.5t10 8.5q3 5 2.5 10t-0.5 10h14q0 -14 -4.5 -27t-23.5 -13zM746 -337q-14 0 -20 8t-7.5 19.5t-0.5 24t1 22.5q0 14 7 25t25 9q17 -2 20.5 -13.5t3.5 -23.5h-16q0 5 0.5 10t-1.5 9q-2 8 -9.5 8.5t-12.5 -6.5
q-5 -5 -4 -18t1 -21q0 -6 -1 -17.5t5 -18.5q4 -6 11.5 -5.5t9.5 8.5q2 5 1.5 10t-0.5 10h16q0 -14 -4.5 -27t-24.5 -13zM1029 243q-14 0 -20.5 8.5t-7.5 22.5l15 5q0 -6 2 -13t7 -11q7 -2 11.5 2.5t4.5 10.5q0 11 -9 19t-16 16q-11 8 -14.5 21t7.5 24q7 4 15.5 4.5
t14.5 -1.5q8 -4 10.5 -11.5t3.5 -14.5l-12 -3l-2 10.5t-6 9.5q-5 2 -10 0t-6 -9q-5 -8 2.5 -15l12.5 -12q6 -5 12.5 -11.5t8.5 -16.5q4 -13 -2.5 -24t-21.5 -11zM1182 -337q-14 0 -20.5 9.5t-8.5 21.5l14 4q0 -6 2 -12.5t7 -8.5q8 -4 12.5 0t4.5 10q0 11 -9.5 19.5
t-16.5 13.5q-9 9 -12.5 23.5t8.5 22.5q6 5 14.5 5.5t13.5 -2.5q8 -2 11 -9.5t4 -14.5l-13 -5l-2 11.5t-5 9.5q-14 3 -18 -8q-3 -8 3.5 -14.5t12.5 -11.5q6 -8 13 -14t9 -16q4 -13 -3 -23.5t-21 -10.5zM784 243q-13 0 -20 8.5t-8 22.5l14 5q0 -6 2 -13t7 -11q8 -2 12.5 2.5
t4.5 10.5q0 11 -9.5 19t-16.5 16q-10 8 -13 21t8 24q6 4 14 4.5t14 -1.5q8 -4 11.5 -11.5t4.5 -14.5l-13 -3q-1 5 -2.5 10.5t-5.5 9.5q-5 2 -10 0t-7 -9q-3 -8 3 -15t11 -12q8 -5 15 -11.5t9 -16.5q4 -13 -3.5 -24t-21.5 -11zM611 760h14t16 1q19 10 14 35q0 10 -2.5 17
t-11.5 12q-8 3 -16 2.5t-14 -0.5v-67zM924 244l-24 108h16l15 -79l17 79h11l-22 -108h-13zM987 -336l-24 106h13l18 -78l14 78h16l-25 -106h-12zM821 244v108h43v-10h-28v-37h23v-10h-23v-41h29v-10h-44zM1034 -336v106h43v-9h-27v-35h22v-11h-22v-41h27v-10h-43zM598 -336
v106h42v-9h-27v-35h22v-11h-22v-41h27v-10h-42zM740 -203v106h41v-11h-26v-36h22v-10h-22v-40h26v-9h-41zM464 -193q9 -4 13 -0.5t6 10.5t2 15v13q0 4 0.5 11t0 14t-2 13t-5.5 8q-10 5 -16 -2t-6 -16v-17q0 -3 -0.5 -10.5t-0.5 -15t2 -14.5t7 -9zM641 244v108h41v-10h-28
v-37h23v-10h-23v-41h28v-10h-41zM1272 -322q9 -5 13.5 -2t6.5 9t2 14v14q0 4 0.5 10.5t0 13.5t-2.5 12.5t-6 7.5q-11 7 -15.5 0t-4.5 -15v-16q0 -4 -1 -11.5t-1 -15t1.5 -14t6.5 -7.5zM373 -322q9 -5 13 -2t6 9t2 14v14q0 4 0.5 10.5t0.5 13.5t-1.5 12.5t-5.5 7.5
q-11 7 -16 0t-5 -15q-1 -4 -0.5 -8t0.5 -8t-1 -11.5t-1 -15t1.5 -14t6.5 -7.5zM392 -203v106h41v-11h-25v-36h19v-10h-19v-49h-16zM1231 -194q9 0 16 2t9 13v56q-1 11 -8 13t-17 2v-86zM625 -203v95h-20v11h55v-11h-20v-95h-15zM999 -203v106h15v-97h27v-9h-42zM1112 244v98
h-21v10h52v-10h-18v-98h-13zM826 -203v106h40v-11h-29v-36h22v-10h-22v-49h-11zM948 -203v106h14v-97h27v-9h-41zM589 244v108h13v-98h28v-10h-41zM1066 244v108h17v-108h-17zM886 -336v106h14v-96h28v-10h-42zM1141 713h35l-18 96zM454 -38h38v43h-38v-43zM789 -336v106h15
v-106h-15zM973 244v108h14v-108h-14zM1220 -336v106h13v-106h-13zM540 304h8t9 2q5 3 6 8.5t1 11.5q-1 13 -7.5 14.5t-16.5 1.5v-38zM1280 403v29h27v-29h-27zM529 -144q10 0 17 3t7 16q0 12 -6.5 14.5t-17.5 2.5v-36zM1103 -274q10 0 17 2.5t7 14.5q0 11 -7 14.5t-17 3.5
v-35zM668 -274q9 0 15.5 2.5t6.5 14.5q0 11 -6.5 14.5t-15.5 3.5v-35zM708 282h19l-8 49zM835 -299h19l-9 49zM1097 -166h19l-10 48zM1255 50l7 46l7 -46h-14zM881 50l7 46l6 -46h-13z" />
    <glyph glyph-name="four" unicode="4" horiz-adv-x="1654" 
d="M254 191l-27 -144l-26 144h-37l-4 -229h36l1 93l17 -93h27l19 94l2 -94h33l-2 229h-39zM1009 191q-34 0 -44.5 -19t-10.5 -51v-89q0 -32 10.5 -50.5t42.5 -19.5q8 -15 16.5 -23t24.5 -8l12 25q-17 -2 -31 8q20 6 27.5 24t7.5 44v89q0 32 -10.5 51t-44.5 19zM890 638
q-47 0 -56 47q-1 9 -1 18.5v20.5q0 21 -1 45.5t4 45.5q5 18 19 26.5t31 9.5q17 0 33 -7t23 -25q7 -20 6.5 -44t-0.5 -46q0 -13 -0.5 -25t-3.5 -23q-9 -43 -54 -43zM835 401q-22 0 -36.5 11t-18.5 33q-2 11 -1.5 21t0.5 21q0 21 -1 45t4 44q5 19 18.5 27t31.5 8q19 1 34 -5.5
t21 -23.5q8 -21 6.5 -45.5t-1.5 -44.5v-25.5t-2 -23.5q-9 -42 -55 -42zM393 81l-39 110h-30v-229h36v112l40 -112h29v229h-36v-110zM682 47h23v-14.5t-1.5 -19t-6.5 -15.5t-15 -2q-6 1 -9 7.5t-3.5 14t0 15t0.5 12.5v54q0 11 -0.5 25t1.5 25q3 4 8 7.5t10 2.5q12 -4 13 -14
q1 -8 1 -17v-18h38q0 10 -0.5 21t-2.5 21.5t-7 19.5t-15 15q-11 7 -25 7.5t-27 -4.5q-15 -5 -22.5 -18.5t-10.5 -27.5q-2 -17 -1.5 -33.5t0.5 -33.5t-0.5 -32t1.5 -32q2 -13 7 -27t17 -20q11 -8 28 -8t28 11l1 -7h30v119h-60v-34zM1155 191v-158q0 -23 -3 -30t-14 -7t-14 7
t-3 30v158h-38v-159q0 -32 11 -51t44 -19q34 0 45 19t11 51v159h-39zM581 640v210h42.5t39.5 -9q11 -7 17 -21t6 -29t-6 -28t-19 -18l28 -105h-28l-27 99h-23v-99h-30zM586 81l-19 21l-12 11.5t-9 15.5q-2 7 0.5 19t13.5 11q6 -1 9 -6.5t4 -12t1.5 -14t0.5 -12.5l36 2
q0 22 -5 43.5t-25 29.5q-12 6 -24.5 5t-22.5 -6.5t-17 -16t-8 -23.5q-2 -14 0.5 -27.5t10.5 -24.5q2 -7 8 -12t11 -11l23.5 -26.5t12.5 -31.5q0 -7 -1.5 -12.5t-7.5 -6.5q-10 -4 -14 8q-5 9 -6 19.5l-2 21.5l-36 -3q0 -15 1.5 -28t7.5 -27q8 -17 23 -24t32 -3
q18 3 28.5 16.5t11.5 28.5q6 43 -26 76zM870 191l-42 -229h39l9 54h25l7 -54h38l-40 229h-36zM1245 191l-42 -229h38l9 54h25l7 -54h38l-40 229h-35zM353 640v210h44q17 0 30.5 -3.5t21.5 -20.5q9 -18 8 -41.5t-18 -36.5q-11 -10 -27 -10h-30v-98h-29zM921 403v208h20
l59 -140v140h25v-208h-19l-61 141v-141h-24zM976 640v210h20l58 -140v140h25v-210h-19l-60 142v-142h-24zM1460 158h46v33h-84v-229h84v34h-46v66h36v34h-36v62zM1100 640l44 210h29l43 -210h-26l-11 52h-42l-10 -52h-27zM433 403q-9 -3 -20 -3.5t-21 3t-18.5 10.5t-12.5 18
q-5 11 -5.5 23t-0.5 27v130h28v-140q0 -11 1.5 -26t15.5 -23q12 -3 19 0.5t11.5 10.5t6 16.5t1.5 18.5q1 17 0.5 33t-0.5 34v76h30v-96q0 -13 0.5 -30t-2 -33.5t-10 -29.5t-23.5 -19zM1339 -38h38v195h29v34h-95v-34h28v-195zM764 638q-26 0 -40.5 17.5t-15.5 42.5l26 7
l4 -20t8 -16q7 -7 17 -8t17 5q8 8 7.5 20t-6.5 22q-4 5 -9.5 10.5t-13.5 11.5q-10 9 -21.5 18t-18.5 20q-13 23 -7.5 48.5t30.5 32.5q11 2 25.5 1t24.5 -8q11 -8 14.5 -20.5t3.5 -24.5l-22 -7q-2 11 -5.5 23.5t-17.5 15.5q-10 1 -18 -4t-10 -14q-3 -18 9.5 -30.5t24.5 -20.5
q14 -13 26 -26t17 -31q5 -26 -8.5 -45.5t-40.5 -19.5zM546 401q-27 0 -40 17t-15 43l28 7q0 -10 1.5 -20t7.5 -17q7 -8 16.5 -8.5t17.5 5.5q9 8 8 20.5t-7 20.5q-4 6 -9.5 12t-13.5 11l-21.5 19t-18.5 21q-6 10 -8 22.5t1 23.5t10.5 20t19.5 13q11 2 25.5 1t25.5 -8
q10 -8 13.5 -20.5t4.5 -24.5l-23 -8q-1 12 -5 24t-18 15q-9 2 -17 -3t-10 -16q-5 -17 8 -28l25 -22q14 -12 26 -24.5t15 -32.5q7 -24 -7 -43.5t-40 -19.5zM750 -67h33l65 288h-37zM618 403v208h82v-23h-52v-68h42v-21h-42v-78h52v-18h-82zM477 640v210h81v-23h-52v-67h42
v-22h-42v-78h53v-20h-82zM821 425q6 -4 14 -4t13 4q8 5 11 12.5t5 15.5q1 5 0.5 10.5t-0.5 10.5v74q0 9 -0.5 18.5t-8.5 16.5q-12 12 -26 7q-15 -4 -20 -20q-3 -14 -2 -32t1 -34v-37q0 -11 1 -23.5t12 -18.5zM1191 403v42q0 8 0.5 16.5t-0.5 15.5q-2 11 -6 20.5t-9 19.5
l-29 94h27l31 -100l30 100h29l-14 -43.5t-15 -43.5l-14 -43q-3 -8 -2.5 -15t0.5 -12v-51h-28zM878 662q5 -2 12.5 -2t13.5 2q9 5 11 12t3 15v97q0 9 -0.5 18.5t-8.5 15.5q-5 7 -11.5 8t-13.5 -1q-16 -1 -19 -17q-5 -15 -3 -33.5t2 -33.5v-39q0 -11 0.5 -23.5t13.5 -18.5z
M1239 640v210h28v-190h54v-20h-82zM1058 403v208h28v-190h53v-18h-81zM381 -337q-13 0 -19.5 6t-8.5 14.5t-2 18.5v18q0 10 0.5 19.5t3.5 17t10 11.5t19 3q11 -1 16.5 -6.5t8 -13.5t2.5 -17v-18q0 -8 -0.5 -17.5t-3 -17.5t-8.5 -13t-18 -5zM471 -205q-12 0 -18.5 6
t-8.5 14.5t-2 19v19.5t0.5 18t3.5 16.5t9.5 12t18.5 3.5q21 -2 24 -20t3 -35q0 -8 -0.5 -17.5t-3 -17.5t-8.5 -13.5t-18 -5.5zM1279 -337q-12 0 -18.5 6t-9 14.5t-2.5 18.5v18q0 10 0.5 19.5t3.5 17t10 11.5t19 3t17 -6.5t7 -13.5t1.5 -17t-0.5 -18v-17.5t-2.5 -17.5
t-8.5 -13t-17 -5zM1216 -203v106q11 0 24 0.5t23 -7.5q9 -8 8.5 -22t-0.5 -25v-25.5t-12 -21.5q-8 -7 -20.5 -6t-22.5 1zM1009 158q10 0 13.5 -6.5t3.5 -28.5v-90q0 -23 -3 -30t-14 -7t-14 7t-3 30v90q0 22 3.5 28.5t13.5 6.5zM424 -336l2 106h16l19 -85l17 85h15l1 -106
h-11l-1 78l-18 -78h-10l-17 78l-1 -78h-12zM651 -336v106q11 0 21.5 1t19.5 -4q6 -4 9 -11t3 -15t-3 -14.5t-10 -9.5l15 -53h-14l-13 51h-11v-51h-17zM510 -336l2 106h15l19 -85l19 85h15l1 -106h-10l-2 78l-18 -78h-10l-16 78l-2 -78h-13zM515 -203v106q9 0 20 1t19 -4
q6 -3 10 -10.5t4.5 -15.5t-3 -15t-11.5 -10l16 -52h-15l-15 49h-11v-49h-14zM1088 -336v106q10 0 20.5 1t20.5 -4q6 -4 9 -11t3.5 -15t-2.5 -14.5t-10 -9.5l13 -53h-13l-13 51h-13v-51h-15zM526 244v108h26.5t23.5 -11q3 -9 2.5 -22t-8.5 -19q-7 -5 -14.5 -5.5t-15.5 -0.5
v-50h-14zM667 -203v106h13v-47h28v47h16v-106h-16v49h-28v-49h-13zM1147 -203v106h9l31 -71v71h12v-106h-9l-31 71v-71h-12zM689 244l23 108h14l24 -108h-16l-5 28h-22l-5 -28h-13zM1324 -336v106h9l32 -71v71h11v-106h-10l-31 73v-73h-11zM1077 -203l21 106h16l22 -106h-14
l-6 26h-21l-6 -26h-12zM815 -336l22 106h15l23 -106h-14l-4 27h-23l-5 -27h-14zM1288 447l-8 164h27l-9 -164h-10zM382 760q8 0 15 -0.5t15 0.5q11 3 14 11t3 19q1 11 -1.5 22t-15.5 14q-8 2 -15 1.5t-15 -0.5v-67zM916 -203q-16 -5 -27 2t-14 22q-2 7 -1 13.5t1 11.5v57h13
v-47q0 -5 -0.5 -13.5t0.5 -16.5t4 -14t10 -6t10.5 6t5 14t1 16.5t-0.5 13.5v47h13v-48q0 -7 0.5 -15.5t-0.5 -17t-4.5 -15.5t-10.5 -10zM311 -337q-13 0 -19 8t-8 19.5t-1.5 24t0.5 22.5q0 14 7.5 25t25.5 9q16 -2 19.5 -13.5t3.5 -23.5h-14q0 5 0.5 10t-2.5 9q-2 8 -10 8.5
t-11 -6.5q-5 -5 -4 -18t1 -21q0 -6 -1 -17.5t5 -18.5q2 -6 10 -5.5t10 8.5q3 5 2.5 10t-0.5 10h14q0 -14 -4.5 -27t-23.5 -13zM746 -337q-14 0 -20 8t-7.5 19.5t-0.5 24t1 22.5q0 14 7 25t25 9q17 -2 20.5 -13.5t3.5 -23.5h-16q0 5 0.5 10t-1.5 9q-2 8 -9.5 8.5t-12.5 -6.5
q-5 -5 -4 -18t1 -21q0 -6 -1 -17.5t5 -18.5q4 -6 11.5 -5.5t9.5 8.5q2 5 1.5 10t-0.5 10h16q0 -14 -4.5 -27t-24.5 -13zM1029 243q-14 0 -20.5 8.5t-7.5 22.5l15 5q0 -6 2 -13t7 -11q7 -2 11.5 2.5t4.5 10.5q0 11 -9 19t-16 16q-11 8 -14.5 21t7.5 24q7 4 15.5 4.5
t14.5 -1.5q8 -4 10.5 -11.5t3.5 -14.5l-12 -3l-2 10.5t-6 9.5q-5 2 -10 0t-6 -9q-5 -8 2.5 -15l12.5 -12q6 -5 12.5 -11.5t8.5 -16.5q4 -13 -2.5 -24t-21.5 -11zM1182 -337q-14 0 -20.5 9.5t-8.5 21.5l14 4q0 -6 2 -12.5t7 -8.5q8 -4 12.5 0t4.5 10q0 11 -9.5 19.5
t-16.5 13.5q-9 9 -12.5 23.5t8.5 22.5q6 5 14.5 5.5t13.5 -2.5q8 -2 11 -9.5t4 -14.5l-13 -5l-2 11.5t-5 9.5q-14 3 -18 -8q-3 -8 3.5 -14.5t12.5 -11.5q6 -8 13 -14t9 -16q4 -13 -3 -23.5t-21 -10.5zM784 243q-13 0 -20 8.5t-8 22.5l14 5q0 -6 2 -13t7 -11q8 -2 12.5 2.5
t4.5 10.5q0 11 -9.5 19t-16.5 16q-10 8 -13 21t8 24q6 4 14 4.5t14 -1.5q8 -4 11.5 -11.5t4.5 -14.5l-13 -3q-1 5 -2.5 10.5t-5.5 9.5q-5 2 -10 0t-7 -9q-3 -8 3 -15t11 -12q8 -5 15 -11.5t9 -16.5q4 -13 -3.5 -24t-21.5 -11zM611 760h14t16 1q19 10 14 35q0 10 -2.5 17
t-11.5 12q-8 3 -16 2.5t-14 -0.5v-67zM924 244l-24 108h16l15 -79l17 79h11l-22 -108h-13zM987 -336l-24 106h13l18 -78l14 78h16l-25 -106h-12zM821 244v108h43v-10h-28v-37h23v-10h-23v-41h29v-10h-44zM1034 -336v106h43v-9h-27v-35h22v-11h-22v-41h27v-10h-43zM598 -336
v106h42v-9h-27v-35h22v-11h-22v-41h27v-10h-42zM740 -203v106h41v-11h-26v-36h22v-10h-22v-40h26v-9h-41zM464 -193q9 -4 13 -0.5t6 10.5t2 15v13q0 4 0.5 11t0 14t-2 13t-5.5 8q-10 5 -16 -2t-6 -16v-17q0 -3 -0.5 -10.5t-0.5 -15t2 -14.5t7 -9zM641 244v108h41v-10h-28
v-37h23v-10h-23v-41h28v-10h-41zM1272 -322q9 -5 13.5 -2t6.5 9t2 14v14q0 4 0.5 10.5t0 13.5t-2.5 12.5t-6 7.5q-11 7 -15.5 0t-4.5 -15v-16q0 -4 -1 -11.5t-1 -15t1.5 -14t6.5 -7.5zM373 -322q9 -5 13 -2t6 9t2 14v14q0 4 0.5 10.5t0.5 13.5t-1.5 12.5t-5.5 7.5
q-11 7 -16 0t-5 -15q-1 -4 -0.5 -8t0.5 -8t-1 -11.5t-1 -15t1.5 -14t6.5 -7.5zM392 -203v106h41v-11h-25v-36h19v-10h-19v-49h-16zM1231 -194q9 0 16 2t9 13v56q-1 11 -8 13t-17 2v-86zM625 -203v95h-20v11h55v-11h-20v-95h-15zM999 -203v106h15v-97h27v-9h-42zM1112 244v98
h-21v10h52v-10h-18v-98h-13zM826 -203v106h40v-11h-29v-36h22v-10h-22v-49h-11zM948 -203v106h14v-97h27v-9h-41zM589 244v108h13v-98h28v-10h-41zM1066 244v108h17v-108h-17zM886 -336v106h14v-96h28v-10h-42zM1141 713h35l-18 96zM454 -38h38v43h-38v-43zM789 -336v106h15
v-106h-15zM973 244v108h14v-108h-14zM1220 -336v106h13v-106h-13zM540 304h8t9 2q5 3 6 8.5t1 11.5q-1 13 -7.5 14.5t-16.5 1.5v-38zM1280 403v29h27v-29h-27zM529 -144q10 0 17 3t7 16q0 12 -6.5 14.5t-17.5 2.5v-36zM1103 -274q10 0 17 2.5t7 14.5q0 11 -7 14.5t-17 3.5
v-35zM668 -274q9 0 15.5 2.5t6.5 14.5q0 11 -6.5 14.5t-15.5 3.5v-35zM708 282h19l-8 49zM835 -299h19l-9 49zM1097 -166h19l-10 48zM1255 50l7 46l7 -46h-14zM881 50l7 46l6 -46h-13z" />
    <glyph glyph-name="five" unicode="5" horiz-adv-x="1654" 
d="M254 191l-27 -144l-26 144h-37l-4 -229h36l1 93l17 -93h27l19 94l2 -94h33l-2 229h-39zM1009 191q-34 0 -44.5 -19t-10.5 -51v-89q0 -32 10.5 -50.5t42.5 -19.5q8 -15 16.5 -23t24.5 -8l12 25q-17 -2 -31 8q20 6 27.5 24t7.5 44v89q0 32 -10.5 51t-44.5 19zM890 638
q-47 0 -56 47q-1 9 -1 18.5v20.5q0 21 -1 45.5t4 45.5q5 18 19 26.5t31 9.5q17 0 33 -7t23 -25q7 -20 6.5 -44t-0.5 -46q0 -13 -0.5 -25t-3.5 -23q-9 -43 -54 -43zM835 401q-22 0 -36.5 11t-18.5 33q-2 11 -1.5 21t0.5 21q0 21 -1 45t4 44q5 19 18.5 27t31.5 8q19 1 34 -5.5
t21 -23.5q8 -21 6.5 -45.5t-1.5 -44.5v-25.5t-2 -23.5q-9 -42 -55 -42zM393 81l-39 110h-30v-229h36v112l40 -112h29v229h-36v-110zM682 47h23v-14.5t-1.5 -19t-6.5 -15.5t-15 -2q-6 1 -9 7.5t-3.5 14t0 15t0.5 12.5v54q0 11 -0.5 25t1.5 25q3 4 8 7.5t10 2.5q12 -4 13 -14
q1 -8 1 -17v-18h38q0 10 -0.5 21t-2.5 21.5t-7 19.5t-15 15q-11 7 -25 7.5t-27 -4.5q-15 -5 -22.5 -18.5t-10.5 -27.5q-2 -17 -1.5 -33.5t0.5 -33.5t-0.5 -32t1.5 -32q2 -13 7 -27t17 -20q11 -8 28 -8t28 11l1 -7h30v119h-60v-34zM1155 191v-158q0 -23 -3 -30t-14 -7t-14 7
t-3 30v158h-38v-159q0 -32 11 -51t44 -19q34 0 45 19t11 51v159h-39zM581 640v210h42.5t39.5 -9q11 -7 17 -21t6 -29t-6 -28t-19 -18l28 -105h-28l-27 99h-23v-99h-30zM586 81l-19 21l-12 11.5t-9 15.5q-2 7 0.5 19t13.5 11q6 -1 9 -6.5t4 -12t1.5 -14t0.5 -12.5l36 2
q0 22 -5 43.5t-25 29.5q-12 6 -24.5 5t-22.5 -6.5t-17 -16t-8 -23.5q-2 -14 0.5 -27.5t10.5 -24.5q2 -7 8 -12t11 -11l23.5 -26.5t12.5 -31.5q0 -7 -1.5 -12.5t-7.5 -6.5q-10 -4 -14 8q-5 9 -6 19.5l-2 21.5l-36 -3q0 -15 1.5 -28t7.5 -27q8 -17 23 -24t32 -3
q18 3 28.5 16.5t11.5 28.5q6 43 -26 76zM870 191l-42 -229h39l9 54h25l7 -54h38l-40 229h-36zM1245 191l-42 -229h38l9 54h25l7 -54h38l-40 229h-35zM353 640v210h44q17 0 30.5 -3.5t21.5 -20.5q9 -18 8 -41.5t-18 -36.5q-11 -10 -27 -10h-30v-98h-29zM921 403v208h20
l59 -140v140h25v-208h-19l-61 141v-141h-24zM976 640v210h20l58 -140v140h25v-210h-19l-60 142v-142h-24zM1460 158h46v33h-84v-229h84v34h-46v66h36v34h-36v62zM1100 640l44 210h29l43 -210h-26l-11 52h-42l-10 -52h-27zM433 403q-9 -3 -20 -3.5t-21 3t-18.5 10.5t-12.5 18
q-5 11 -5.5 23t-0.5 27v130h28v-140q0 -11 1.5 -26t15.5 -23q12 -3 19 0.5t11.5 10.5t6 16.5t1.5 18.5q1 17 0.5 33t-0.5 34v76h30v-96q0 -13 0.5 -30t-2 -33.5t-10 -29.5t-23.5 -19zM1339 -38h38v195h29v34h-95v-34h28v-195zM764 638q-26 0 -40.5 17.5t-15.5 42.5l26 7
l4 -20t8 -16q7 -7 17 -8t17 5q8 8 7.5 20t-6.5 22q-4 5 -9.5 10.5t-13.5 11.5q-10 9 -21.5 18t-18.5 20q-13 23 -7.5 48.5t30.5 32.5q11 2 25.5 1t24.5 -8q11 -8 14.5 -20.5t3.5 -24.5l-22 -7q-2 11 -5.5 23.5t-17.5 15.5q-10 1 -18 -4t-10 -14q-3 -18 9.5 -30.5t24.5 -20.5
q14 -13 26 -26t17 -31q5 -26 -8.5 -45.5t-40.5 -19.5zM546 401q-27 0 -40 17t-15 43l28 7q0 -10 1.5 -20t7.5 -17q7 -8 16.5 -8.5t17.5 5.5q9 8 8 20.5t-7 20.5q-4 6 -9.5 12t-13.5 11l-21.5 19t-18.5 21q-6 10 -8 22.5t1 23.5t10.5 20t19.5 13q11 2 25.5 1t25.5 -8
q10 -8 13.5 -20.5t4.5 -24.5l-23 -8q-1 12 -5 24t-18 15q-9 2 -17 -3t-10 -16q-5 -17 8 -28l25 -22q14 -12 26 -24.5t15 -32.5q7 -24 -7 -43.5t-40 -19.5zM750 -67h33l65 288h-37zM618 403v208h82v-23h-52v-68h42v-21h-42v-78h52v-18h-82zM477 640v210h81v-23h-52v-67h42
v-22h-42v-78h53v-20h-82zM821 425q6 -4 14 -4t13 4q8 5 11 12.5t5 15.5q1 5 0.5 10.5t-0.5 10.5v74q0 9 -0.5 18.5t-8.5 16.5q-12 12 -26 7q-15 -4 -20 -20q-3 -14 -2 -32t1 -34v-37q0 -11 1 -23.5t12 -18.5zM1191 403v42q0 8 0.5 16.5t-0.5 15.5q-2 11 -6 20.5t-9 19.5
l-29 94h27l31 -100l30 100h29l-14 -43.5t-15 -43.5l-14 -43q-3 -8 -2.5 -15t0.5 -12v-51h-28zM878 662q5 -2 12.5 -2t13.5 2q9 5 11 12t3 15v97q0 9 -0.5 18.5t-8.5 15.5q-5 7 -11.5 8t-13.5 -1q-16 -1 -19 -17q-5 -15 -3 -33.5t2 -33.5v-39q0 -11 0.5 -23.5t13.5 -18.5z
M1239 640v210h28v-190h54v-20h-82zM1058 403v208h28v-190h53v-18h-81zM381 -337q-13 0 -19.5 6t-8.5 14.5t-2 18.5v18q0 10 0.5 19.5t3.5 17t10 11.5t19 3q11 -1 16.5 -6.5t8 -13.5t2.5 -17v-18q0 -8 -0.5 -17.5t-3 -17.5t-8.5 -13t-18 -5zM471 -205q-12 0 -18.5 6
t-8.5 14.5t-2 19v19.5t0.5 18t3.5 16.5t9.5 12t18.5 3.5q21 -2 24 -20t3 -35q0 -8 -0.5 -17.5t-3 -17.5t-8.5 -13.5t-18 -5.5zM1279 -337q-12 0 -18.5 6t-9 14.5t-2.5 18.5v18q0 10 0.5 19.5t3.5 17t10 11.5t19 3t17 -6.5t7 -13.5t1.5 -17t-0.5 -18v-17.5t-2.5 -17.5
t-8.5 -13t-17 -5zM1216 -203v106q11 0 24 0.5t23 -7.5q9 -8 8.5 -22t-0.5 -25v-25.5t-12 -21.5q-8 -7 -20.5 -6t-22.5 1zM1009 158q10 0 13.5 -6.5t3.5 -28.5v-90q0 -23 -3 -30t-14 -7t-14 7t-3 30v90q0 22 3.5 28.5t13.5 6.5zM424 -336l2 106h16l19 -85l17 85h15l1 -106
h-11l-1 78l-18 -78h-10l-17 78l-1 -78h-12zM651 -336v106q11 0 21.5 1t19.5 -4q6 -4 9 -11t3 -15t-3 -14.5t-10 -9.5l15 -53h-14l-13 51h-11v-51h-17zM510 -336l2 106h15l19 -85l19 85h15l1 -106h-10l-2 78l-18 -78h-10l-16 78l-2 -78h-13zM515 -203v106q9 0 20 1t19 -4
q6 -3 10 -10.5t4.5 -15.5t-3 -15t-11.5 -10l16 -52h-15l-15 49h-11v-49h-14zM1088 -336v106q10 0 20.5 1t20.5 -4q6 -4 9 -11t3.5 -15t-2.5 -14.5t-10 -9.5l13 -53h-13l-13 51h-13v-51h-15zM526 244v108h26.5t23.5 -11q3 -9 2.5 -22t-8.5 -19q-7 -5 -14.5 -5.5t-15.5 -0.5
v-50h-14zM667 -203v106h13v-47h28v47h16v-106h-16v49h-28v-49h-13zM1147 -203v106h9l31 -71v71h12v-106h-9l-31 71v-71h-12zM689 244l23 108h14l24 -108h-16l-5 28h-22l-5 -28h-13zM1324 -336v106h9l32 -71v71h11v-106h-10l-31 73v-73h-11zM1077 -203l21 106h16l22 -106h-14
l-6 26h-21l-6 -26h-12zM815 -336l22 106h15l23 -106h-14l-4 27h-23l-5 -27h-14zM1288 447l-8 164h27l-9 -164h-10zM382 760q8 0 15 -0.5t15 0.5q11 3 14 11t3 19q1 11 -1.5 22t-15.5 14q-8 2 -15 1.5t-15 -0.5v-67zM916 -203q-16 -5 -27 2t-14 22q-2 7 -1 13.5t1 11.5v57h13
v-47q0 -5 -0.5 -13.5t0.5 -16.5t4 -14t10 -6t10.5 6t5 14t1 16.5t-0.5 13.5v47h13v-48q0 -7 0.5 -15.5t-0.5 -17t-4.5 -15.5t-10.5 -10zM311 -337q-13 0 -19 8t-8 19.5t-1.5 24t0.5 22.5q0 14 7.5 25t25.5 9q16 -2 19.5 -13.5t3.5 -23.5h-14q0 5 0.5 10t-2.5 9q-2 8 -10 8.5
t-11 -6.5q-5 -5 -4 -18t1 -21q0 -6 -1 -17.5t5 -18.5q2 -6 10 -5.5t10 8.5q3 5 2.5 10t-0.5 10h14q0 -14 -4.5 -27t-23.5 -13zM746 -337q-14 0 -20 8t-7.5 19.5t-0.5 24t1 22.5q0 14 7 25t25 9q17 -2 20.5 -13.5t3.5 -23.5h-16q0 5 0.5 10t-1.5 9q-2 8 -9.5 8.5t-12.5 -6.5
q-5 -5 -4 -18t1 -21q0 -6 -1 -17.5t5 -18.5q4 -6 11.5 -5.5t9.5 8.5q2 5 1.5 10t-0.5 10h16q0 -14 -4.5 -27t-24.5 -13zM1029 243q-14 0 -20.5 8.5t-7.5 22.5l15 5q0 -6 2 -13t7 -11q7 -2 11.5 2.5t4.5 10.5q0 11 -9 19t-16 16q-11 8 -14.5 21t7.5 24q7 4 15.5 4.5
t14.5 -1.5q8 -4 10.5 -11.5t3.5 -14.5l-12 -3l-2 10.5t-6 9.5q-5 2 -10 0t-6 -9q-5 -8 2.5 -15l12.5 -12q6 -5 12.5 -11.5t8.5 -16.5q4 -13 -2.5 -24t-21.5 -11zM1182 -337q-14 0 -20.5 9.5t-8.5 21.5l14 4q0 -6 2 -12.5t7 -8.5q8 -4 12.5 0t4.5 10q0 11 -9.5 19.5
t-16.5 13.5q-9 9 -12.5 23.5t8.5 22.5q6 5 14.5 5.5t13.5 -2.5q8 -2 11 -9.5t4 -14.5l-13 -5l-2 11.5t-5 9.5q-14 3 -18 -8q-3 -8 3.5 -14.5t12.5 -11.5q6 -8 13 -14t9 -16q4 -13 -3 -23.5t-21 -10.5zM784 243q-13 0 -20 8.5t-8 22.5l14 5q0 -6 2 -13t7 -11q8 -2 12.5 2.5
t4.5 10.5q0 11 -9.5 19t-16.5 16q-10 8 -13 21t8 24q6 4 14 4.5t14 -1.5q8 -4 11.5 -11.5t4.5 -14.5l-13 -3q-1 5 -2.5 10.5t-5.5 9.5q-5 2 -10 0t-7 -9q-3 -8 3 -15t11 -12q8 -5 15 -11.5t9 -16.5q4 -13 -3.5 -24t-21.5 -11zM611 760h14t16 1q19 10 14 35q0 10 -2.5 17
t-11.5 12q-8 3 -16 2.5t-14 -0.5v-67zM924 244l-24 108h16l15 -79l17 79h11l-22 -108h-13zM987 -336l-24 106h13l18 -78l14 78h16l-25 -106h-12zM821 244v108h43v-10h-28v-37h23v-10h-23v-41h29v-10h-44zM1034 -336v106h43v-9h-27v-35h22v-11h-22v-41h27v-10h-43zM598 -336
v106h42v-9h-27v-35h22v-11h-22v-41h27v-10h-42zM740 -203v106h41v-11h-26v-36h22v-10h-22v-40h26v-9h-41zM464 -193q9 -4 13 -0.5t6 10.5t2 15v13q0 4 0.5 11t0 14t-2 13t-5.5 8q-10 5 -16 -2t-6 -16v-17q0 -3 -0.5 -10.5t-0.5 -15t2 -14.5t7 -9zM641 244v108h41v-10h-28
v-37h23v-10h-23v-41h28v-10h-41zM1272 -322q9 -5 13.5 -2t6.5 9t2 14v14q0 4 0.5 10.5t0 13.5t-2.5 12.5t-6 7.5q-11 7 -15.5 0t-4.5 -15v-16q0 -4 -1 -11.5t-1 -15t1.5 -14t6.5 -7.5zM373 -322q9 -5 13 -2t6 9t2 14v14q0 4 0.5 10.5t0.5 13.5t-1.5 12.5t-5.5 7.5
q-11 7 -16 0t-5 -15q-1 -4 -0.5 -8t0.5 -8t-1 -11.5t-1 -15t1.5 -14t6.5 -7.5zM392 -203v106h41v-11h-25v-36h19v-10h-19v-49h-16zM1231 -194q9 0 16 2t9 13v56q-1 11 -8 13t-17 2v-86zM625 -203v95h-20v11h55v-11h-20v-95h-15zM999 -203v106h15v-97h27v-9h-42zM1112 244v98
h-21v10h52v-10h-18v-98h-13zM826 -203v106h40v-11h-29v-36h22v-10h-22v-49h-11zM948 -203v106h14v-97h27v-9h-41zM589 244v108h13v-98h28v-10h-41zM1066 244v108h17v-108h-17zM886 -336v106h14v-96h28v-10h-42zM1141 713h35l-18 96zM454 -38h38v43h-38v-43zM789 -336v106h15
v-106h-15zM973 244v108h14v-108h-14zM1220 -336v106h13v-106h-13zM540 304h8t9 2q5 3 6 8.5t1 11.5q-1 13 -7.5 14.5t-16.5 1.5v-38zM1280 403v29h27v-29h-27zM529 -144q10 0 17 3t7 16q0 12 -6.5 14.5t-17.5 2.5v-36zM1103 -274q10 0 17 2.5t7 14.5q0 11 -7 14.5t-17 3.5
v-35zM668 -274q9 0 15.5 2.5t6.5 14.5q0 11 -6.5 14.5t-15.5 3.5v-35zM708 282h19l-8 49zM835 -299h19l-9 49zM1097 -166h19l-10 48zM1255 50l7 46l7 -46h-14zM881 50l7 46l6 -46h-13z" />
    <glyph glyph-name="six" unicode="6" horiz-adv-x="1654" 
d="M254 191l-27 -144l-26 144h-37l-4 -229h36l1 93l17 -93h27l19 94l2 -94h33l-2 229h-39zM1009 191q-34 0 -44.5 -19t-10.5 -51v-89q0 -32 10.5 -50.5t42.5 -19.5q8 -15 16.5 -23t24.5 -8l12 25q-17 -2 -31 8q20 6 27.5 24t7.5 44v89q0 32 -10.5 51t-44.5 19zM890 638
q-47 0 -56 47q-1 9 -1 18.5v20.5q0 21 -1 45.5t4 45.5q5 18 19 26.5t31 9.5q17 0 33 -7t23 -25q7 -20 6.5 -44t-0.5 -46q0 -13 -0.5 -25t-3.5 -23q-9 -43 -54 -43zM835 401q-22 0 -36.5 11t-18.5 33q-2 11 -1.5 21t0.5 21q0 21 -1 45t4 44q5 19 18.5 27t31.5 8q19 1 34 -5.5
t21 -23.5q8 -21 6.5 -45.5t-1.5 -44.5v-25.5t-2 -23.5q-9 -42 -55 -42zM393 81l-39 110h-30v-229h36v112l40 -112h29v229h-36v-110zM682 47h23v-14.5t-1.5 -19t-6.5 -15.5t-15 -2q-6 1 -9 7.5t-3.5 14t0 15t0.5 12.5v54q0 11 -0.5 25t1.5 25q3 4 8 7.5t10 2.5q12 -4 13 -14
q1 -8 1 -17v-18h38q0 10 -0.5 21t-2.5 21.5t-7 19.5t-15 15q-11 7 -25 7.5t-27 -4.5q-15 -5 -22.5 -18.5t-10.5 -27.5q-2 -17 -1.5 -33.5t0.5 -33.5t-0.5 -32t1.5 -32q2 -13 7 -27t17 -20q11 -8 28 -8t28 11l1 -7h30v119h-60v-34zM1155 191v-158q0 -23 -3 -30t-14 -7t-14 7
t-3 30v158h-38v-159q0 -32 11 -51t44 -19q34 0 45 19t11 51v159h-39zM581 640v210h42.5t39.5 -9q11 -7 17 -21t6 -29t-6 -28t-19 -18l28 -105h-28l-27 99h-23v-99h-30zM586 81l-19 21l-12 11.5t-9 15.5q-2 7 0.5 19t13.5 11q6 -1 9 -6.5t4 -12t1.5 -14t0.5 -12.5l36 2
q0 22 -5 43.5t-25 29.5q-12 6 -24.5 5t-22.5 -6.5t-17 -16t-8 -23.5q-2 -14 0.5 -27.5t10.5 -24.5q2 -7 8 -12t11 -11l23.5 -26.5t12.5 -31.5q0 -7 -1.5 -12.5t-7.5 -6.5q-10 -4 -14 8q-5 9 -6 19.5l-2 21.5l-36 -3q0 -15 1.5 -28t7.5 -27q8 -17 23 -24t32 -3
q18 3 28.5 16.5t11.5 28.5q6 43 -26 76zM870 191l-42 -229h39l9 54h25l7 -54h38l-40 229h-36zM1245 191l-42 -229h38l9 54h25l7 -54h38l-40 229h-35zM353 640v210h44q17 0 30.5 -3.5t21.5 -20.5q9 -18 8 -41.5t-18 -36.5q-11 -10 -27 -10h-30v-98h-29zM921 403v208h20
l59 -140v140h25v-208h-19l-61 141v-141h-24zM976 640v210h20l58 -140v140h25v-210h-19l-60 142v-142h-24zM1460 158h46v33h-84v-229h84v34h-46v66h36v34h-36v62zM1100 640l44 210h29l43 -210h-26l-11 52h-42l-10 -52h-27zM433 403q-9 -3 -20 -3.5t-21 3t-18.5 10.5t-12.5 18
q-5 11 -5.5 23t-0.5 27v130h28v-140q0 -11 1.5 -26t15.5 -23q12 -3 19 0.5t11.5 10.5t6 16.5t1.5 18.5q1 17 0.5 33t-0.5 34v76h30v-96q0 -13 0.5 -30t-2 -33.5t-10 -29.5t-23.5 -19zM1339 -38h38v195h29v34h-95v-34h28v-195zM764 638q-26 0 -40.5 17.5t-15.5 42.5l26 7
l4 -20t8 -16q7 -7 17 -8t17 5q8 8 7.5 20t-6.5 22q-4 5 -9.5 10.5t-13.5 11.5q-10 9 -21.5 18t-18.5 20q-13 23 -7.5 48.5t30.5 32.5q11 2 25.5 1t24.5 -8q11 -8 14.5 -20.5t3.5 -24.5l-22 -7q-2 11 -5.5 23.5t-17.5 15.5q-10 1 -18 -4t-10 -14q-3 -18 9.5 -30.5t24.5 -20.5
q14 -13 26 -26t17 -31q5 -26 -8.5 -45.5t-40.5 -19.5zM546 401q-27 0 -40 17t-15 43l28 7q0 -10 1.5 -20t7.5 -17q7 -8 16.5 -8.5t17.5 5.5q9 8 8 20.5t-7 20.5q-4 6 -9.5 12t-13.5 11l-21.5 19t-18.5 21q-6 10 -8 22.5t1 23.5t10.5 20t19.5 13q11 2 25.5 1t25.5 -8
q10 -8 13.5 -20.5t4.5 -24.5l-23 -8q-1 12 -5 24t-18 15q-9 2 -17 -3t-10 -16q-5 -17 8 -28l25 -22q14 -12 26 -24.5t15 -32.5q7 -24 -7 -43.5t-40 -19.5zM750 -67h33l65 288h-37zM618 403v208h82v-23h-52v-68h42v-21h-42v-78h52v-18h-82zM477 640v210h81v-23h-52v-67h42
v-22h-42v-78h53v-20h-82zM821 425q6 -4 14 -4t13 4q8 5 11 12.5t5 15.5q1 5 0.5 10.5t-0.5 10.5v74q0 9 -0.5 18.5t-8.5 16.5q-12 12 -26 7q-15 -4 -20 -20q-3 -14 -2 -32t1 -34v-37q0 -11 1 -23.5t12 -18.5zM1191 403v42q0 8 0.5 16.5t-0.5 15.5q-2 11 -6 20.5t-9 19.5
l-29 94h27l31 -100l30 100h29l-14 -43.5t-15 -43.5l-14 -43q-3 -8 -2.5 -15t0.5 -12v-51h-28zM878 662q5 -2 12.5 -2t13.5 2q9 5 11 12t3 15v97q0 9 -0.5 18.5t-8.5 15.5q-5 7 -11.5 8t-13.5 -1q-16 -1 -19 -17q-5 -15 -3 -33.5t2 -33.5v-39q0 -11 0.5 -23.5t13.5 -18.5z
M1239 640v210h28v-190h54v-20h-82zM1058 403v208h28v-190h53v-18h-81zM381 -337q-13 0 -19.5 6t-8.5 14.5t-2 18.5v18q0 10 0.5 19.5t3.5 17t10 11.5t19 3q11 -1 16.5 -6.5t8 -13.5t2.5 -17v-18q0 -8 -0.5 -17.5t-3 -17.5t-8.5 -13t-18 -5zM471 -205q-12 0 -18.5 6
t-8.5 14.5t-2 19v19.5t0.5 18t3.5 16.5t9.5 12t18.5 3.5q21 -2 24 -20t3 -35q0 -8 -0.5 -17.5t-3 -17.5t-8.5 -13.5t-18 -5.5zM1279 -337q-12 0 -18.5 6t-9 14.5t-2.5 18.5v18q0 10 0.5 19.5t3.5 17t10 11.5t19 3t17 -6.5t7 -13.5t1.5 -17t-0.5 -18v-17.5t-2.5 -17.5
t-8.5 -13t-17 -5zM1216 -203v106q11 0 24 0.5t23 -7.5q9 -8 8.5 -22t-0.5 -25v-25.5t-12 -21.5q-8 -7 -20.5 -6t-22.5 1zM1009 158q10 0 13.5 -6.5t3.5 -28.5v-90q0 -23 -3 -30t-14 -7t-14 7t-3 30v90q0 22 3.5 28.5t13.5 6.5zM424 -336l2 106h16l19 -85l17 85h15l1 -106
h-11l-1 78l-18 -78h-10l-17 78l-1 -78h-12zM651 -336v106q11 0 21.5 1t19.5 -4q6 -4 9 -11t3 -15t-3 -14.5t-10 -9.5l15 -53h-14l-13 51h-11v-51h-17zM510 -336l2 106h15l19 -85l19 85h15l1 -106h-10l-2 78l-18 -78h-10l-16 78l-2 -78h-13zM515 -203v106q9 0 20 1t19 -4
q6 -3 10 -10.5t4.5 -15.5t-3 -15t-11.5 -10l16 -52h-15l-15 49h-11v-49h-14zM1088 -336v106q10 0 20.5 1t20.5 -4q6 -4 9 -11t3.5 -15t-2.5 -14.5t-10 -9.5l13 -53h-13l-13 51h-13v-51h-15zM526 244v108h26.5t23.5 -11q3 -9 2.5 -22t-8.5 -19q-7 -5 -14.5 -5.5t-15.5 -0.5
v-50h-14zM667 -203v106h13v-47h28v47h16v-106h-16v49h-28v-49h-13zM1147 -203v106h9l31 -71v71h12v-106h-9l-31 71v-71h-12zM689 244l23 108h14l24 -108h-16l-5 28h-22l-5 -28h-13zM1324 -336v106h9l32 -71v71h11v-106h-10l-31 73v-73h-11zM1077 -203l21 106h16l22 -106h-14
l-6 26h-21l-6 -26h-12zM815 -336l22 106h15l23 -106h-14l-4 27h-23l-5 -27h-14zM1288 447l-8 164h27l-9 -164h-10zM382 760q8 0 15 -0.5t15 0.5q11 3 14 11t3 19q1 11 -1.5 22t-15.5 14q-8 2 -15 1.5t-15 -0.5v-67zM916 -203q-16 -5 -27 2t-14 22q-2 7 -1 13.5t1 11.5v57h13
v-47q0 -5 -0.5 -13.5t0.5 -16.5t4 -14t10 -6t10.5 6t5 14t1 16.5t-0.5 13.5v47h13v-48q0 -7 0.5 -15.5t-0.5 -17t-4.5 -15.5t-10.5 -10zM311 -337q-13 0 -19 8t-8 19.5t-1.5 24t0.5 22.5q0 14 7.5 25t25.5 9q16 -2 19.5 -13.5t3.5 -23.5h-14q0 5 0.5 10t-2.5 9q-2 8 -10 8.5
t-11 -6.5q-5 -5 -4 -18t1 -21q0 -6 -1 -17.5t5 -18.5q2 -6 10 -5.5t10 8.5q3 5 2.5 10t-0.5 10h14q0 -14 -4.5 -27t-23.5 -13zM746 -337q-14 0 -20 8t-7.5 19.5t-0.5 24t1 22.5q0 14 7 25t25 9q17 -2 20.5 -13.5t3.5 -23.5h-16q0 5 0.5 10t-1.5 9q-2 8 -9.5 8.5t-12.5 -6.5
q-5 -5 -4 -18t1 -21q0 -6 -1 -17.5t5 -18.5q4 -6 11.5 -5.5t9.5 8.5q2 5 1.5 10t-0.5 10h16q0 -14 -4.5 -27t-24.5 -13zM1029 243q-14 0 -20.5 8.5t-7.5 22.5l15 5q0 -6 2 -13t7 -11q7 -2 11.5 2.5t4.5 10.5q0 11 -9 19t-16 16q-11 8 -14.5 21t7.5 24q7 4 15.5 4.5
t14.5 -1.5q8 -4 10.5 -11.5t3.5 -14.5l-12 -3l-2 10.5t-6 9.5q-5 2 -10 0t-6 -9q-5 -8 2.5 -15l12.5 -12q6 -5 12.5 -11.5t8.5 -16.5q4 -13 -2.5 -24t-21.5 -11zM1182 -337q-14 0 -20.5 9.5t-8.5 21.5l14 4q0 -6 2 -12.5t7 -8.5q8 -4 12.5 0t4.5 10q0 11 -9.5 19.5
t-16.5 13.5q-9 9 -12.5 23.5t8.5 22.5q6 5 14.5 5.5t13.5 -2.5q8 -2 11 -9.5t4 -14.5l-13 -5l-2 11.5t-5 9.5q-14 3 -18 -8q-3 -8 3.5 -14.5t12.5 -11.5q6 -8 13 -14t9 -16q4 -13 -3 -23.5t-21 -10.5zM784 243q-13 0 -20 8.5t-8 22.5l14 5q0 -6 2 -13t7 -11q8 -2 12.5 2.5
t4.5 10.5q0 11 -9.5 19t-16.5 16q-10 8 -13 21t8 24q6 4 14 4.5t14 -1.5q8 -4 11.5 -11.5t4.5 -14.5l-13 -3q-1 5 -2.5 10.5t-5.5 9.5q-5 2 -10 0t-7 -9q-3 -8 3 -15t11 -12q8 -5 15 -11.5t9 -16.5q4 -13 -3.5 -24t-21.5 -11zM611 760h14t16 1q19 10 14 35q0 10 -2.5 17
t-11.5 12q-8 3 -16 2.5t-14 -0.5v-67zM924 244l-24 108h16l15 -79l17 79h11l-22 -108h-13zM987 -336l-24 106h13l18 -78l14 78h16l-25 -106h-12zM821 244v108h43v-10h-28v-37h23v-10h-23v-41h29v-10h-44zM1034 -336v106h43v-9h-27v-35h22v-11h-22v-41h27v-10h-43zM598 -336
v106h42v-9h-27v-35h22v-11h-22v-41h27v-10h-42zM740 -203v106h41v-11h-26v-36h22v-10h-22v-40h26v-9h-41zM464 -193q9 -4 13 -0.5t6 10.5t2 15v13q0 4 0.5 11t0 14t-2 13t-5.5 8q-10 5 -16 -2t-6 -16v-17q0 -3 -0.5 -10.5t-0.5 -15t2 -14.5t7 -9zM641 244v108h41v-10h-28
v-37h23v-10h-23v-41h28v-10h-41zM1272 -322q9 -5 13.5 -2t6.5 9t2 14v14q0 4 0.5 10.5t0 13.5t-2.5 12.5t-6 7.5q-11 7 -15.5 0t-4.5 -15v-16q0 -4 -1 -11.5t-1 -15t1.5 -14t6.5 -7.5zM373 -322q9 -5 13 -2t6 9t2 14v14q0 4 0.5 10.5t0.5 13.5t-1.5 12.5t-5.5 7.5
q-11 7 -16 0t-5 -15q-1 -4 -0.5 -8t0.5 -8t-1 -11.5t-1 -15t1.5 -14t6.5 -7.5zM392 -203v106h41v-11h-25v-36h19v-10h-19v-49h-16zM1231 -194q9 0 16 2t9 13v56q-1 11 -8 13t-17 2v-86zM625 -203v95h-20v11h55v-11h-20v-95h-15zM999 -203v106h15v-97h27v-9h-42zM1112 244v98
h-21v10h52v-10h-18v-98h-13zM826 -203v106h40v-11h-29v-36h22v-10h-22v-49h-11zM948 -203v106h14v-97h27v-9h-41zM589 244v108h13v-98h28v-10h-41zM1066 244v108h17v-108h-17zM886 -336v106h14v-96h28v-10h-42zM1141 713h35l-18 96zM454 -38h38v43h-38v-43zM789 -336v106h15
v-106h-15zM973 244v108h14v-108h-14zM1220 -336v106h13v-106h-13zM540 304h8t9 2q5 3 6 8.5t1 11.5q-1 13 -7.5 14.5t-16.5 1.5v-38zM1280 403v29h27v-29h-27zM529 -144q10 0 17 3t7 16q0 12 -6.5 14.5t-17.5 2.5v-36zM1103 -274q10 0 17 2.5t7 14.5q0 11 -7 14.5t-17 3.5
v-35zM668 -274q9 0 15.5 2.5t6.5 14.5q0 11 -6.5 14.5t-15.5 3.5v-35zM708 282h19l-8 49zM835 -299h19l-9 49zM1097 -166h19l-10 48zM1255 50l7 46l7 -46h-14zM881 50l7 46l6 -46h-13z" />
    <glyph glyph-name="seven" unicode="7" horiz-adv-x="1654" 
d="M254 191l-27 -144l-26 144h-37l-4 -229h36l1 93l17 -93h27l19 94l2 -94h33l-2 229h-39zM1009 191q-34 0 -44.5 -19t-10.5 -51v-89q0 -32 10.5 -50.5t42.5 -19.5q8 -15 16.5 -23t24.5 -8l12 25q-17 -2 -31 8q20 6 27.5 24t7.5 44v89q0 32 -10.5 51t-44.5 19zM890 638
q-47 0 -56 47q-1 9 -1 18.5v20.5q0 21 -1 45.5t4 45.5q5 18 19 26.5t31 9.5q17 0 33 -7t23 -25q7 -20 6.5 -44t-0.5 -46q0 -13 -0.5 -25t-3.5 -23q-9 -43 -54 -43zM835 401q-22 0 -36.5 11t-18.5 33q-2 11 -1.5 21t0.5 21q0 21 -1 45t4 44q5 19 18.5 27t31.5 8q19 1 34 -5.5
t21 -23.5q8 -21 6.5 -45.5t-1.5 -44.5v-25.5t-2 -23.5q-9 -42 -55 -42zM393 81l-39 110h-30v-229h36v112l40 -112h29v229h-36v-110zM682 47h23v-14.5t-1.5 -19t-6.5 -15.5t-15 -2q-6 1 -9 7.5t-3.5 14t0 15t0.5 12.5v54q0 11 -0.5 25t1.5 25q3 4 8 7.5t10 2.5q12 -4 13 -14
q1 -8 1 -17v-18h38q0 10 -0.5 21t-2.5 21.5t-7 19.5t-15 15q-11 7 -25 7.5t-27 -4.5q-15 -5 -22.5 -18.5t-10.5 -27.5q-2 -17 -1.5 -33.5t0.5 -33.5t-0.5 -32t1.5 -32q2 -13 7 -27t17 -20q11 -8 28 -8t28 11l1 -7h30v119h-60v-34zM1155 191v-158q0 -23 -3 -30t-14 -7t-14 7
t-3 30v158h-38v-159q0 -32 11 -51t44 -19q34 0 45 19t11 51v159h-39zM581 640v210h42.5t39.5 -9q11 -7 17 -21t6 -29t-6 -28t-19 -18l28 -105h-28l-27 99h-23v-99h-30zM586 81l-19 21l-12 11.5t-9 15.5q-2 7 0.5 19t13.5 11q6 -1 9 -6.5t4 -12t1.5 -14t0.5 -12.5l36 2
q0 22 -5 43.5t-25 29.5q-12 6 -24.5 5t-22.5 -6.5t-17 -16t-8 -23.5q-2 -14 0.5 -27.5t10.5 -24.5q2 -7 8 -12t11 -11l23.5 -26.5t12.5 -31.5q0 -7 -1.5 -12.5t-7.5 -6.5q-10 -4 -14 8q-5 9 -6 19.5l-2 21.5l-36 -3q0 -15 1.5 -28t7.5 -27q8 -17 23 -24t32 -3
q18 3 28.5 16.5t11.5 28.5q6 43 -26 76zM870 191l-42 -229h39l9 54h25l7 -54h38l-40 229h-36zM1245 191l-42 -229h38l9 54h25l7 -54h38l-40 229h-35zM353 640v210h44q17 0 30.5 -3.5t21.5 -20.5q9 -18 8 -41.5t-18 -36.5q-11 -10 -27 -10h-30v-98h-29zM921 403v208h20
l59 -140v140h25v-208h-19l-61 141v-141h-24zM976 640v210h20l58 -140v140h25v-210h-19l-60 142v-142h-24zM1460 158h46v33h-84v-229h84v34h-46v66h36v34h-36v62zM1100 640l44 210h29l43 -210h-26l-11 52h-42l-10 -52h-27zM433 403q-9 -3 -20 -3.5t-21 3t-18.5 10.5t-12.5 18
q-5 11 -5.5 23t-0.5 27v130h28v-140q0 -11 1.5 -26t15.5 -23q12 -3 19 0.5t11.5 10.5t6 16.5t1.5 18.5q1 17 0.5 33t-0.5 34v76h30v-96q0 -13 0.5 -30t-2 -33.5t-10 -29.5t-23.5 -19zM1339 -38h38v195h29v34h-95v-34h28v-195zM764 638q-26 0 -40.5 17.5t-15.5 42.5l26 7
l4 -20t8 -16q7 -7 17 -8t17 5q8 8 7.5 20t-6.5 22q-4 5 -9.5 10.5t-13.5 11.5q-10 9 -21.5 18t-18.5 20q-13 23 -7.5 48.5t30.5 32.5q11 2 25.5 1t24.5 -8q11 -8 14.5 -20.5t3.5 -24.5l-22 -7q-2 11 -5.5 23.5t-17.5 15.5q-10 1 -18 -4t-10 -14q-3 -18 9.5 -30.5t24.5 -20.5
q14 -13 26 -26t17 -31q5 -26 -8.5 -45.5t-40.5 -19.5zM546 401q-27 0 -40 17t-15 43l28 7q0 -10 1.5 -20t7.5 -17q7 -8 16.5 -8.5t17.5 5.5q9 8 8 20.5t-7 20.5q-4 6 -9.5 12t-13.5 11l-21.5 19t-18.5 21q-6 10 -8 22.5t1 23.5t10.5 20t19.5 13q11 2 25.5 1t25.5 -8
q10 -8 13.5 -20.5t4.5 -24.5l-23 -8q-1 12 -5 24t-18 15q-9 2 -17 -3t-10 -16q-5 -17 8 -28l25 -22q14 -12 26 -24.5t15 -32.5q7 -24 -7 -43.5t-40 -19.5zM750 -67h33l65 288h-37zM618 403v208h82v-23h-52v-68h42v-21h-42v-78h52v-18h-82zM477 640v210h81v-23h-52v-67h42
v-22h-42v-78h53v-20h-82zM821 425q6 -4 14 -4t13 4q8 5 11 12.5t5 15.5q1 5 0.5 10.5t-0.5 10.5v74q0 9 -0.5 18.5t-8.5 16.5q-12 12 -26 7q-15 -4 -20 -20q-3 -14 -2 -32t1 -34v-37q0 -11 1 -23.5t12 -18.5zM1191 403v42q0 8 0.5 16.5t-0.5 15.5q-2 11 -6 20.5t-9 19.5
l-29 94h27l31 -100l30 100h29l-14 -43.5t-15 -43.5l-14 -43q-3 -8 -2.5 -15t0.5 -12v-51h-28zM878 662q5 -2 12.5 -2t13.5 2q9 5 11 12t3 15v97q0 9 -0.5 18.5t-8.5 15.5q-5 7 -11.5 8t-13.5 -1q-16 -1 -19 -17q-5 -15 -3 -33.5t2 -33.5v-39q0 -11 0.5 -23.5t13.5 -18.5z
M1239 640v210h28v-190h54v-20h-82zM1058 403v208h28v-190h53v-18h-81zM381 -337q-13 0 -19.5 6t-8.5 14.5t-2 18.5v18q0 10 0.5 19.5t3.5 17t10 11.5t19 3q11 -1 16.5 -6.5t8 -13.5t2.5 -17v-18q0 -8 -0.5 -17.5t-3 -17.5t-8.5 -13t-18 -5zM471 -205q-12 0 -18.5 6
t-8.5 14.5t-2 19v19.5t0.5 18t3.5 16.5t9.5 12t18.5 3.5q21 -2 24 -20t3 -35q0 -8 -0.5 -17.5t-3 -17.5t-8.5 -13.5t-18 -5.5zM1279 -337q-12 0 -18.5 6t-9 14.5t-2.5 18.5v18q0 10 0.5 19.5t3.5 17t10 11.5t19 3t17 -6.5t7 -13.5t1.5 -17t-0.5 -18v-17.5t-2.5 -17.5
t-8.5 -13t-17 -5zM1216 -203v106q11 0 24 0.5t23 -7.5q9 -8 8.5 -22t-0.5 -25v-25.5t-12 -21.5q-8 -7 -20.5 -6t-22.5 1zM1009 158q10 0 13.5 -6.5t3.5 -28.5v-90q0 -23 -3 -30t-14 -7t-14 7t-3 30v90q0 22 3.5 28.5t13.5 6.5zM424 -336l2 106h16l19 -85l17 85h15l1 -106
h-11l-1 78l-18 -78h-10l-17 78l-1 -78h-12zM651 -336v106q11 0 21.5 1t19.5 -4q6 -4 9 -11t3 -15t-3 -14.5t-10 -9.5l15 -53h-14l-13 51h-11v-51h-17zM510 -336l2 106h15l19 -85l19 85h15l1 -106h-10l-2 78l-18 -78h-10l-16 78l-2 -78h-13zM515 -203v106q9 0 20 1t19 -4
q6 -3 10 -10.5t4.5 -15.5t-3 -15t-11.5 -10l16 -52h-15l-15 49h-11v-49h-14zM1088 -336v106q10 0 20.5 1t20.5 -4q6 -4 9 -11t3.5 -15t-2.5 -14.5t-10 -9.5l13 -53h-13l-13 51h-13v-51h-15zM526 244v108h26.5t23.5 -11q3 -9 2.5 -22t-8.5 -19q-7 -5 -14.5 -5.5t-15.5 -0.5
v-50h-14zM667 -203v106h13v-47h28v47h16v-106h-16v49h-28v-49h-13zM1147 -203v106h9l31 -71v71h12v-106h-9l-31 71v-71h-12zM689 244l23 108h14l24 -108h-16l-5 28h-22l-5 -28h-13zM1324 -336v106h9l32 -71v71h11v-106h-10l-31 73v-73h-11zM1077 -203l21 106h16l22 -106h-14
l-6 26h-21l-6 -26h-12zM815 -336l22 106h15l23 -106h-14l-4 27h-23l-5 -27h-14zM1288 447l-8 164h27l-9 -164h-10zM382 760q8 0 15 -0.5t15 0.5q11 3 14 11t3 19q1 11 -1.5 22t-15.5 14q-8 2 -15 1.5t-15 -0.5v-67zM916 -203q-16 -5 -27 2t-14 22q-2 7 -1 13.5t1 11.5v57h13
v-47q0 -5 -0.5 -13.5t0.5 -16.5t4 -14t10 -6t10.5 6t5 14t1 16.5t-0.5 13.5v47h13v-48q0 -7 0.5 -15.5t-0.5 -17t-4.5 -15.5t-10.5 -10zM311 -337q-13 0 -19 8t-8 19.5t-1.5 24t0.5 22.5q0 14 7.5 25t25.5 9q16 -2 19.5 -13.5t3.5 -23.5h-14q0 5 0.5 10t-2.5 9q-2 8 -10 8.5
t-11 -6.5q-5 -5 -4 -18t1 -21q0 -6 -1 -17.5t5 -18.5q2 -6 10 -5.5t10 8.5q3 5 2.5 10t-0.5 10h14q0 -14 -4.5 -27t-23.5 -13zM746 -337q-14 0 -20 8t-7.5 19.5t-0.5 24t1 22.5q0 14 7 25t25 9q17 -2 20.5 -13.5t3.5 -23.5h-16q0 5 0.5 10t-1.5 9q-2 8 -9.5 8.5t-12.5 -6.5
q-5 -5 -4 -18t1 -21q0 -6 -1 -17.5t5 -18.5q4 -6 11.5 -5.5t9.5 8.5q2 5 1.5 10t-0.5 10h16q0 -14 -4.5 -27t-24.5 -13zM1029 243q-14 0 -20.5 8.5t-7.5 22.5l15 5q0 -6 2 -13t7 -11q7 -2 11.5 2.5t4.5 10.5q0 11 -9 19t-16 16q-11 8 -14.5 21t7.5 24q7 4 15.5 4.5
t14.5 -1.5q8 -4 10.5 -11.5t3.5 -14.5l-12 -3l-2 10.5t-6 9.5q-5 2 -10 0t-6 -9q-5 -8 2.5 -15l12.5 -12q6 -5 12.5 -11.5t8.5 -16.5q4 -13 -2.5 -24t-21.5 -11zM1182 -337q-14 0 -20.5 9.5t-8.5 21.5l14 4q0 -6 2 -12.5t7 -8.5q8 -4 12.5 0t4.5 10q0 11 -9.5 19.5
t-16.5 13.5q-9 9 -12.5 23.5t8.5 22.5q6 5 14.5 5.5t13.5 -2.5q8 -2 11 -9.5t4 -14.5l-13 -5l-2 11.5t-5 9.5q-14 3 -18 -8q-3 -8 3.5 -14.5t12.5 -11.5q6 -8 13 -14t9 -16q4 -13 -3 -23.5t-21 -10.5zM784 243q-13 0 -20 8.5t-8 22.5l14 5q0 -6 2 -13t7 -11q8 -2 12.5 2.5
t4.5 10.5q0 11 -9.5 19t-16.5 16q-10 8 -13 21t8 24q6 4 14 4.5t14 -1.5q8 -4 11.5 -11.5t4.5 -14.5l-13 -3q-1 5 -2.5 10.5t-5.5 9.5q-5 2 -10 0t-7 -9q-3 -8 3 -15t11 -12q8 -5 15 -11.5t9 -16.5q4 -13 -3.5 -24t-21.5 -11zM611 760h14t16 1q19 10 14 35q0 10 -2.5 17
t-11.5 12q-8 3 -16 2.5t-14 -0.5v-67zM924 244l-24 108h16l15 -79l17 79h11l-22 -108h-13zM987 -336l-24 106h13l18 -78l14 78h16l-25 -106h-12zM821 244v108h43v-10h-28v-37h23v-10h-23v-41h29v-10h-44zM1034 -336v106h43v-9h-27v-35h22v-11h-22v-41h27v-10h-43zM598 -336
v106h42v-9h-27v-35h22v-11h-22v-41h27v-10h-42zM740 -203v106h41v-11h-26v-36h22v-10h-22v-40h26v-9h-41zM464 -193q9 -4 13 -0.5t6 10.5t2 15v13q0 4 0.5 11t0 14t-2 13t-5.5 8q-10 5 -16 -2t-6 -16v-17q0 -3 -0.5 -10.5t-0.5 -15t2 -14.5t7 -9zM641 244v108h41v-10h-28
v-37h23v-10h-23v-41h28v-10h-41zM1272 -322q9 -5 13.5 -2t6.5 9t2 14v14q0 4 0.5 10.5t0 13.5t-2.5 12.5t-6 7.5q-11 7 -15.5 0t-4.5 -15v-16q0 -4 -1 -11.5t-1 -15t1.5 -14t6.5 -7.5zM373 -322q9 -5 13 -2t6 9t2 14v14q0 4 0.5 10.5t0.5 13.5t-1.5 12.5t-5.5 7.5
q-11 7 -16 0t-5 -15q-1 -4 -0.5 -8t0.5 -8t-1 -11.5t-1 -15t1.5 -14t6.5 -7.5zM392 -203v106h41v-11h-25v-36h19v-10h-19v-49h-16zM1231 -194q9 0 16 2t9 13v56q-1 11 -8 13t-17 2v-86zM625 -203v95h-20v11h55v-11h-20v-95h-15zM999 -203v106h15v-97h27v-9h-42zM1112 244v98
h-21v10h52v-10h-18v-98h-13zM826 -203v106h40v-11h-29v-36h22v-10h-22v-49h-11zM948 -203v106h14v-97h27v-9h-41zM589 244v108h13v-98h28v-10h-41zM1066 244v108h17v-108h-17zM886 -336v106h14v-96h28v-10h-42zM1141 713h35l-18 96zM454 -38h38v43h-38v-43zM789 -336v106h15
v-106h-15zM973 244v108h14v-108h-14zM1220 -336v106h13v-106h-13zM540 304h8t9 2q5 3 6 8.5t1 11.5q-1 13 -7.5 14.5t-16.5 1.5v-38zM1280 403v29h27v-29h-27zM529 -144q10 0 17 3t7 16q0 12 -6.5 14.5t-17.5 2.5v-36zM1103 -274q10 0 17 2.5t7 14.5q0 11 -7 14.5t-17 3.5
v-35zM668 -274q9 0 15.5 2.5t6.5 14.5q0 11 -6.5 14.5t-15.5 3.5v-35zM708 282h19l-8 49zM835 -299h19l-9 49zM1097 -166h19l-10 48zM1255 50l7 46l7 -46h-14zM881 50l7 46l6 -46h-13z" />
    <glyph glyph-name="eight" unicode="8" horiz-adv-x="1654" 
d="M254 191l-27 -144l-26 144h-37l-4 -229h36l1 93l17 -93h27l19 94l2 -94h33l-2 229h-39zM1009 191q-34 0 -44.5 -19t-10.5 -51v-89q0 -32 10.5 -50.5t42.5 -19.5q8 -15 16.5 -23t24.5 -8l12 25q-17 -2 -31 8q20 6 27.5 24t7.5 44v89q0 32 -10.5 51t-44.5 19zM890 638
q-47 0 -56 47q-1 9 -1 18.5v20.5q0 21 -1 45.5t4 45.5q5 18 19 26.5t31 9.5q17 0 33 -7t23 -25q7 -20 6.5 -44t-0.5 -46q0 -13 -0.5 -25t-3.5 -23q-9 -43 -54 -43zM835 401q-22 0 -36.5 11t-18.5 33q-2 11 -1.5 21t0.5 21q0 21 -1 45t4 44q5 19 18.5 27t31.5 8q19 1 34 -5.5
t21 -23.5q8 -21 6.5 -45.5t-1.5 -44.5v-25.5t-2 -23.5q-9 -42 -55 -42zM393 81l-39 110h-30v-229h36v112l40 -112h29v229h-36v-110zM682 47h23v-14.5t-1.5 -19t-6.5 -15.5t-15 -2q-6 1 -9 7.5t-3.5 14t0 15t0.5 12.5v54q0 11 -0.5 25t1.5 25q3 4 8 7.5t10 2.5q12 -4 13 -14
q1 -8 1 -17v-18h38q0 10 -0.5 21t-2.5 21.5t-7 19.5t-15 15q-11 7 -25 7.5t-27 -4.5q-15 -5 -22.5 -18.5t-10.5 -27.5q-2 -17 -1.5 -33.5t0.5 -33.5t-0.5 -32t1.5 -32q2 -13 7 -27t17 -20q11 -8 28 -8t28 11l1 -7h30v119h-60v-34zM1155 191v-158q0 -23 -3 -30t-14 -7t-14 7
t-3 30v158h-38v-159q0 -32 11 -51t44 -19q34 0 45 19t11 51v159h-39zM581 640v210h42.5t39.5 -9q11 -7 17 -21t6 -29t-6 -28t-19 -18l28 -105h-28l-27 99h-23v-99h-30zM586 81l-19 21l-12 11.5t-9 15.5q-2 7 0.5 19t13.5 11q6 -1 9 -6.5t4 -12t1.5 -14t0.5 -12.5l36 2
q0 22 -5 43.5t-25 29.5q-12 6 -24.5 5t-22.5 -6.5t-17 -16t-8 -23.5q-2 -14 0.5 -27.5t10.5 -24.5q2 -7 8 -12t11 -11l23.5 -26.5t12.5 -31.5q0 -7 -1.5 -12.5t-7.5 -6.5q-10 -4 -14 8q-5 9 -6 19.5l-2 21.5l-36 -3q0 -15 1.5 -28t7.5 -27q8 -17 23 -24t32 -3
q18 3 28.5 16.5t11.5 28.5q6 43 -26 76zM870 191l-42 -229h39l9 54h25l7 -54h38l-40 229h-36zM1245 191l-42 -229h38l9 54h25l7 -54h38l-40 229h-35zM353 640v210h44q17 0 30.5 -3.5t21.5 -20.5q9 -18 8 -41.5t-18 -36.5q-11 -10 -27 -10h-30v-98h-29zM921 403v208h20
l59 -140v140h25v-208h-19l-61 141v-141h-24zM976 640v210h20l58 -140v140h25v-210h-19l-60 142v-142h-24zM1460 158h46v33h-84v-229h84v34h-46v66h36v34h-36v62zM1100 640l44 210h29l43 -210h-26l-11 52h-42l-10 -52h-27zM433 403q-9 -3 -20 -3.5t-21 3t-18.5 10.5t-12.5 18
q-5 11 -5.5 23t-0.5 27v130h28v-140q0 -11 1.5 -26t15.5 -23q12 -3 19 0.5t11.5 10.5t6 16.5t1.5 18.5q1 17 0.5 33t-0.5 34v76h30v-96q0 -13 0.5 -30t-2 -33.5t-10 -29.5t-23.5 -19zM1339 -38h38v195h29v34h-95v-34h28v-195zM764 638q-26 0 -40.5 17.5t-15.5 42.5l26 7
l4 -20t8 -16q7 -7 17 -8t17 5q8 8 7.5 20t-6.5 22q-4 5 -9.5 10.5t-13.5 11.5q-10 9 -21.5 18t-18.5 20q-13 23 -7.5 48.5t30.5 32.5q11 2 25.5 1t24.5 -8q11 -8 14.5 -20.5t3.5 -24.5l-22 -7q-2 11 -5.5 23.5t-17.5 15.5q-10 1 -18 -4t-10 -14q-3 -18 9.5 -30.5t24.5 -20.5
q14 -13 26 -26t17 -31q5 -26 -8.5 -45.5t-40.5 -19.5zM546 401q-27 0 -40 17t-15 43l28 7q0 -10 1.5 -20t7.5 -17q7 -8 16.5 -8.5t17.5 5.5q9 8 8 20.5t-7 20.5q-4 6 -9.5 12t-13.5 11l-21.5 19t-18.5 21q-6 10 -8 22.5t1 23.5t10.5 20t19.5 13q11 2 25.5 1t25.5 -8
q10 -8 13.5 -20.5t4.5 -24.5l-23 -8q-1 12 -5 24t-18 15q-9 2 -17 -3t-10 -16q-5 -17 8 -28l25 -22q14 -12 26 -24.5t15 -32.5q7 -24 -7 -43.5t-40 -19.5zM750 -67h33l65 288h-37zM618 403v208h82v-23h-52v-68h42v-21h-42v-78h52v-18h-82zM477 640v210h81v-23h-52v-67h42
v-22h-42v-78h53v-20h-82zM821 425q6 -4 14 -4t13 4q8 5 11 12.5t5 15.5q1 5 0.5 10.5t-0.5 10.5v74q0 9 -0.5 18.5t-8.5 16.5q-12 12 -26 7q-15 -4 -20 -20q-3 -14 -2 -32t1 -34v-37q0 -11 1 -23.5t12 -18.5zM1191 403v42q0 8 0.5 16.5t-0.5 15.5q-2 11 -6 20.5t-9 19.5
l-29 94h27l31 -100l30 100h29l-14 -43.5t-15 -43.5l-14 -43q-3 -8 -2.5 -15t0.5 -12v-51h-28zM878 662q5 -2 12.5 -2t13.5 2q9 5 11 12t3 15v97q0 9 -0.5 18.5t-8.5 15.5q-5 7 -11.5 8t-13.5 -1q-16 -1 -19 -17q-5 -15 -3 -33.5t2 -33.5v-39q0 -11 0.5 -23.5t13.5 -18.5z
M1239 640v210h28v-190h54v-20h-82zM1058 403v208h28v-190h53v-18h-81zM381 -337q-13 0 -19.5 6t-8.5 14.5t-2 18.5v18q0 10 0.5 19.5t3.5 17t10 11.5t19 3q11 -1 16.5 -6.5t8 -13.5t2.5 -17v-18q0 -8 -0.5 -17.5t-3 -17.5t-8.5 -13t-18 -5zM471 -205q-12 0 -18.5 6
t-8.5 14.5t-2 19v19.5t0.5 18t3.5 16.5t9.5 12t18.5 3.5q21 -2 24 -20t3 -35q0 -8 -0.5 -17.5t-3 -17.5t-8.5 -13.5t-18 -5.5zM1279 -337q-12 0 -18.5 6t-9 14.5t-2.5 18.5v18q0 10 0.5 19.5t3.5 17t10 11.5t19 3t17 -6.5t7 -13.5t1.5 -17t-0.5 -18v-17.5t-2.5 -17.5
t-8.5 -13t-17 -5zM1216 -203v106q11 0 24 0.5t23 -7.5q9 -8 8.5 -22t-0.5 -25v-25.5t-12 -21.5q-8 -7 -20.5 -6t-22.5 1zM1009 158q10 0 13.5 -6.5t3.5 -28.5v-90q0 -23 -3 -30t-14 -7t-14 7t-3 30v90q0 22 3.5 28.5t13.5 6.5zM424 -336l2 106h16l19 -85l17 85h15l1 -106
h-11l-1 78l-18 -78h-10l-17 78l-1 -78h-12zM651 -336v106q11 0 21.5 1t19.5 -4q6 -4 9 -11t3 -15t-3 -14.5t-10 -9.5l15 -53h-14l-13 51h-11v-51h-17zM510 -336l2 106h15l19 -85l19 85h15l1 -106h-10l-2 78l-18 -78h-10l-16 78l-2 -78h-13zM515 -203v106q9 0 20 1t19 -4
q6 -3 10 -10.5t4.5 -15.5t-3 -15t-11.5 -10l16 -52h-15l-15 49h-11v-49h-14zM1088 -336v106q10 0 20.5 1t20.5 -4q6 -4 9 -11t3.5 -15t-2.5 -14.5t-10 -9.5l13 -53h-13l-13 51h-13v-51h-15zM526 244v108h26.5t23.5 -11q3 -9 2.5 -22t-8.5 -19q-7 -5 -14.5 -5.5t-15.5 -0.5
v-50h-14zM667 -203v106h13v-47h28v47h16v-106h-16v49h-28v-49h-13zM1147 -203v106h9l31 -71v71h12v-106h-9l-31 71v-71h-12zM689 244l23 108h14l24 -108h-16l-5 28h-22l-5 -28h-13zM1324 -336v106h9l32 -71v71h11v-106h-10l-31 73v-73h-11zM1077 -203l21 106h16l22 -106h-14
l-6 26h-21l-6 -26h-12zM815 -336l22 106h15l23 -106h-14l-4 27h-23l-5 -27h-14zM1288 447l-8 164h27l-9 -164h-10zM382 760q8 0 15 -0.5t15 0.5q11 3 14 11t3 19q1 11 -1.5 22t-15.5 14q-8 2 -15 1.5t-15 -0.5v-67zM916 -203q-16 -5 -27 2t-14 22q-2 7 -1 13.5t1 11.5v57h13
v-47q0 -5 -0.5 -13.5t0.5 -16.5t4 -14t10 -6t10.5 6t5 14t1 16.5t-0.5 13.5v47h13v-48q0 -7 0.5 -15.5t-0.5 -17t-4.5 -15.5t-10.5 -10zM311 -337q-13 0 -19 8t-8 19.5t-1.5 24t0.5 22.5q0 14 7.5 25t25.5 9q16 -2 19.5 -13.5t3.5 -23.5h-14q0 5 0.5 10t-2.5 9q-2 8 -10 8.5
t-11 -6.5q-5 -5 -4 -18t1 -21q0 -6 -1 -17.5t5 -18.5q2 -6 10 -5.5t10 8.5q3 5 2.5 10t-0.5 10h14q0 -14 -4.5 -27t-23.5 -13zM746 -337q-14 0 -20 8t-7.5 19.5t-0.5 24t1 22.5q0 14 7 25t25 9q17 -2 20.5 -13.5t3.5 -23.5h-16q0 5 0.5 10t-1.5 9q-2 8 -9.5 8.5t-12.5 -6.5
q-5 -5 -4 -18t1 -21q0 -6 -1 -17.5t5 -18.5q4 -6 11.5 -5.5t9.5 8.5q2 5 1.5 10t-0.5 10h16q0 -14 -4.5 -27t-24.5 -13zM1029 243q-14 0 -20.5 8.5t-7.5 22.5l15 5q0 -6 2 -13t7 -11q7 -2 11.5 2.5t4.5 10.5q0 11 -9 19t-16 16q-11 8 -14.5 21t7.5 24q7 4 15.5 4.5
t14.5 -1.5q8 -4 10.5 -11.5t3.5 -14.5l-12 -3l-2 10.5t-6 9.5q-5 2 -10 0t-6 -9q-5 -8 2.5 -15l12.5 -12q6 -5 12.5 -11.5t8.5 -16.5q4 -13 -2.5 -24t-21.5 -11zM1182 -337q-14 0 -20.5 9.5t-8.5 21.5l14 4q0 -6 2 -12.5t7 -8.5q8 -4 12.5 0t4.5 10q0 11 -9.5 19.5
t-16.5 13.5q-9 9 -12.5 23.5t8.5 22.5q6 5 14.5 5.5t13.5 -2.5q8 -2 11 -9.5t4 -14.5l-13 -5l-2 11.5t-5 9.5q-14 3 -18 -8q-3 -8 3.5 -14.5t12.5 -11.5q6 -8 13 -14t9 -16q4 -13 -3 -23.5t-21 -10.5zM784 243q-13 0 -20 8.5t-8 22.5l14 5q0 -6 2 -13t7 -11q8 -2 12.5 2.5
t4.5 10.5q0 11 -9.5 19t-16.5 16q-10 8 -13 21t8 24q6 4 14 4.5t14 -1.5q8 -4 11.5 -11.5t4.5 -14.5l-13 -3q-1 5 -2.5 10.5t-5.5 9.5q-5 2 -10 0t-7 -9q-3 -8 3 -15t11 -12q8 -5 15 -11.5t9 -16.5q4 -13 -3.5 -24t-21.5 -11zM611 760h14t16 1q19 10 14 35q0 10 -2.5 17
t-11.5 12q-8 3 -16 2.5t-14 -0.5v-67zM924 244l-24 108h16l15 -79l17 79h11l-22 -108h-13zM987 -336l-24 106h13l18 -78l14 78h16l-25 -106h-12zM821 244v108h43v-10h-28v-37h23v-10h-23v-41h29v-10h-44zM1034 -336v106h43v-9h-27v-35h22v-11h-22v-41h27v-10h-43zM598 -336
v106h42v-9h-27v-35h22v-11h-22v-41h27v-10h-42zM740 -203v106h41v-11h-26v-36h22v-10h-22v-40h26v-9h-41zM464 -193q9 -4 13 -0.5t6 10.5t2 15v13q0 4 0.5 11t0 14t-2 13t-5.5 8q-10 5 -16 -2t-6 -16v-17q0 -3 -0.5 -10.5t-0.5 -15t2 -14.5t7 -9zM641 244v108h41v-10h-28
v-37h23v-10h-23v-41h28v-10h-41zM1272 -322q9 -5 13.5 -2t6.5 9t2 14v14q0 4 0.5 10.5t0 13.5t-2.5 12.5t-6 7.5q-11 7 -15.5 0t-4.5 -15v-16q0 -4 -1 -11.5t-1 -15t1.5 -14t6.5 -7.5zM373 -322q9 -5 13 -2t6 9t2 14v14q0 4 0.5 10.5t0.5 13.5t-1.5 12.5t-5.5 7.5
q-11 7 -16 0t-5 -15q-1 -4 -0.5 -8t0.5 -8t-1 -11.5t-1 -15t1.5 -14t6.5 -7.5zM392 -203v106h41v-11h-25v-36h19v-10h-19v-49h-16zM1231 -194q9 0 16 2t9 13v56q-1 11 -8 13t-17 2v-86zM625 -203v95h-20v11h55v-11h-20v-95h-15zM999 -203v106h15v-97h27v-9h-42zM1112 244v98
h-21v10h52v-10h-18v-98h-13zM826 -203v106h40v-11h-29v-36h22v-10h-22v-49h-11zM948 -203v106h14v-97h27v-9h-41zM589 244v108h13v-98h28v-10h-41zM1066 244v108h17v-108h-17zM886 -336v106h14v-96h28v-10h-42zM1141 713h35l-18 96zM454 -38h38v43h-38v-43zM789 -336v106h15
v-106h-15zM973 244v108h14v-108h-14zM1220 -336v106h13v-106h-13zM540 304h8t9 2q5 3 6 8.5t1 11.5q-1 13 -7.5 14.5t-16.5 1.5v-38zM1280 403v29h27v-29h-27zM529 -144q10 0 17 3t7 16q0 12 -6.5 14.5t-17.5 2.5v-36zM1103 -274q10 0 17 2.5t7 14.5q0 11 -7 14.5t-17 3.5
v-35zM668 -274q9 0 15.5 2.5t6.5 14.5q0 11 -6.5 14.5t-15.5 3.5v-35zM708 282h19l-8 49zM835 -299h19l-9 49zM1097 -166h19l-10 48zM1255 50l7 46l7 -46h-14zM881 50l7 46l6 -46h-13z" />
    <glyph glyph-name="nine" unicode="9" horiz-adv-x="1654" 
d="M254 191l-27 -144l-26 144h-37l-4 -229h36l1 93l17 -93h27l19 94l2 -94h33l-2 229h-39zM1009 191q-34 0 -44.5 -19t-10.5 -51v-89q0 -32 10.5 -50.5t42.5 -19.5q8 -15 16.5 -23t24.5 -8l12 25q-17 -2 -31 8q20 6 27.5 24t7.5 44v89q0 32 -10.5 51t-44.5 19zM890 638
q-47 0 -56 47q-1 9 -1 18.5v20.5q0 21 -1 45.5t4 45.5q5 18 19 26.5t31 9.5q17 0 33 -7t23 -25q7 -20 6.5 -44t-0.5 -46q0 -13 -0.5 -25t-3.5 -23q-9 -43 -54 -43zM835 401q-22 0 -36.5 11t-18.5 33q-2 11 -1.5 21t0.5 21q0 21 -1 45t4 44q5 19 18.5 27t31.5 8q19 1 34 -5.5
t21 -23.5q8 -21 6.5 -45.5t-1.5 -44.5v-25.5t-2 -23.5q-9 -42 -55 -42zM393 81l-39 110h-30v-229h36v112l40 -112h29v229h-36v-110zM682 47h23v-14.5t-1.5 -19t-6.5 -15.5t-15 -2q-6 1 -9 7.5t-3.5 14t0 15t0.5 12.5v54q0 11 -0.5 25t1.5 25q3 4 8 7.5t10 2.5q12 -4 13 -14
q1 -8 1 -17v-18h38q0 10 -0.5 21t-2.5 21.5t-7 19.5t-15 15q-11 7 -25 7.5t-27 -4.5q-15 -5 -22.5 -18.5t-10.5 -27.5q-2 -17 -1.5 -33.5t0.5 -33.5t-0.5 -32t1.5 -32q2 -13 7 -27t17 -20q11 -8 28 -8t28 11l1 -7h30v119h-60v-34zM1155 191v-158q0 -23 -3 -30t-14 -7t-14 7
t-3 30v158h-38v-159q0 -32 11 -51t44 -19q34 0 45 19t11 51v159h-39zM581 640v210h42.5t39.5 -9q11 -7 17 -21t6 -29t-6 -28t-19 -18l28 -105h-28l-27 99h-23v-99h-30zM586 81l-19 21l-12 11.5t-9 15.5q-2 7 0.5 19t13.5 11q6 -1 9 -6.5t4 -12t1.5 -14t0.5 -12.5l36 2
q0 22 -5 43.5t-25 29.5q-12 6 -24.5 5t-22.5 -6.5t-17 -16t-8 -23.5q-2 -14 0.5 -27.5t10.5 -24.5q2 -7 8 -12t11 -11l23.5 -26.5t12.5 -31.5q0 -7 -1.5 -12.5t-7.5 -6.5q-10 -4 -14 8q-5 9 -6 19.5l-2 21.5l-36 -3q0 -15 1.5 -28t7.5 -27q8 -17 23 -24t32 -3
q18 3 28.5 16.5t11.5 28.5q6 43 -26 76zM870 191l-42 -229h39l9 54h25l7 -54h38l-40 229h-36zM1245 191l-42 -229h38l9 54h25l7 -54h38l-40 229h-35zM353 640v210h44q17 0 30.5 -3.5t21.5 -20.5q9 -18 8 -41.5t-18 -36.5q-11 -10 -27 -10h-30v-98h-29zM921 403v208h20
l59 -140v140h25v-208h-19l-61 141v-141h-24zM976 640v210h20l58 -140v140h25v-210h-19l-60 142v-142h-24zM1460 158h46v33h-84v-229h84v34h-46v66h36v34h-36v62zM1100 640l44 210h29l43 -210h-26l-11 52h-42l-10 -52h-27zM433 403q-9 -3 -20 -3.5t-21 3t-18.5 10.5t-12.5 18
q-5 11 -5.5 23t-0.5 27v130h28v-140q0 -11 1.5 -26t15.5 -23q12 -3 19 0.5t11.5 10.5t6 16.5t1.5 18.5q1 17 0.5 33t-0.5 34v76h30v-96q0 -13 0.5 -30t-2 -33.5t-10 -29.5t-23.5 -19zM1339 -38h38v195h29v34h-95v-34h28v-195zM764 638q-26 0 -40.5 17.5t-15.5 42.5l26 7
l4 -20t8 -16q7 -7 17 -8t17 5q8 8 7.5 20t-6.5 22q-4 5 -9.5 10.5t-13.5 11.5q-10 9 -21.5 18t-18.5 20q-13 23 -7.5 48.5t30.5 32.5q11 2 25.5 1t24.5 -8q11 -8 14.5 -20.5t3.5 -24.5l-22 -7q-2 11 -5.5 23.5t-17.5 15.5q-10 1 -18 -4t-10 -14q-3 -18 9.5 -30.5t24.5 -20.5
q14 -13 26 -26t17 -31q5 -26 -8.5 -45.5t-40.5 -19.5zM546 401q-27 0 -40 17t-15 43l28 7q0 -10 1.5 -20t7.5 -17q7 -8 16.5 -8.5t17.5 5.5q9 8 8 20.5t-7 20.5q-4 6 -9.5 12t-13.5 11l-21.5 19t-18.5 21q-6 10 -8 22.5t1 23.5t10.5 20t19.5 13q11 2 25.5 1t25.5 -8
q10 -8 13.5 -20.5t4.5 -24.5l-23 -8q-1 12 -5 24t-18 15q-9 2 -17 -3t-10 -16q-5 -17 8 -28l25 -22q14 -12 26 -24.5t15 -32.5q7 -24 -7 -43.5t-40 -19.5zM750 -67h33l65 288h-37zM618 403v208h82v-23h-52v-68h42v-21h-42v-78h52v-18h-82zM477 640v210h81v-23h-52v-67h42
v-22h-42v-78h53v-20h-82zM821 425q6 -4 14 -4t13 4q8 5 11 12.5t5 15.5q1 5 0.5 10.5t-0.5 10.5v74q0 9 -0.5 18.5t-8.5 16.5q-12 12 -26 7q-15 -4 -20 -20q-3 -14 -2 -32t1 -34v-37q0 -11 1 -23.5t12 -18.5zM1191 403v42q0 8 0.5 16.5t-0.5 15.5q-2 11 -6 20.5t-9 19.5
l-29 94h27l31 -100l30 100h29l-14 -43.5t-15 -43.5l-14 -43q-3 -8 -2.5 -15t0.5 -12v-51h-28zM878 662q5 -2 12.5 -2t13.5 2q9 5 11 12t3 15v97q0 9 -0.5 18.5t-8.5 15.5q-5 7 -11.5 8t-13.5 -1q-16 -1 -19 -17q-5 -15 -3 -33.5t2 -33.5v-39q0 -11 0.5 -23.5t13.5 -18.5z
M1239 640v210h28v-190h54v-20h-82zM1058 403v208h28v-190h53v-18h-81zM381 -337q-13 0 -19.5 6t-8.5 14.5t-2 18.5v18q0 10 0.5 19.5t3.5 17t10 11.5t19 3q11 -1 16.5 -6.5t8 -13.5t2.5 -17v-18q0 -8 -0.5 -17.5t-3 -17.5t-8.5 -13t-18 -5zM471 -205q-12 0 -18.5 6
t-8.5 14.5t-2 19v19.5t0.5 18t3.5 16.5t9.5 12t18.5 3.5q21 -2 24 -20t3 -35q0 -8 -0.5 -17.5t-3 -17.5t-8.5 -13.5t-18 -5.5zM1279 -337q-12 0 -18.5 6t-9 14.5t-2.5 18.5v18q0 10 0.5 19.5t3.5 17t10 11.5t19 3t17 -6.5t7 -13.5t1.5 -17t-0.5 -18v-17.5t-2.5 -17.5
t-8.5 -13t-17 -5zM1216 -203v106q11 0 24 0.5t23 -7.5q9 -8 8.5 -22t-0.5 -25v-25.5t-12 -21.5q-8 -7 -20.5 -6t-22.5 1zM1009 158q10 0 13.5 -6.5t3.5 -28.5v-90q0 -23 -3 -30t-14 -7t-14 7t-3 30v90q0 22 3.5 28.5t13.5 6.5zM424 -336l2 106h16l19 -85l17 85h15l1 -106
h-11l-1 78l-18 -78h-10l-17 78l-1 -78h-12zM651 -336v106q11 0 21.5 1t19.5 -4q6 -4 9 -11t3 -15t-3 -14.5t-10 -9.5l15 -53h-14l-13 51h-11v-51h-17zM510 -336l2 106h15l19 -85l19 85h15l1 -106h-10l-2 78l-18 -78h-10l-16 78l-2 -78h-13zM515 -203v106q9 0 20 1t19 -4
q6 -3 10 -10.5t4.5 -15.5t-3 -15t-11.5 -10l16 -52h-15l-15 49h-11v-49h-14zM1088 -336v106q10 0 20.5 1t20.5 -4q6 -4 9 -11t3.5 -15t-2.5 -14.5t-10 -9.5l13 -53h-13l-13 51h-13v-51h-15zM526 244v108h26.5t23.5 -11q3 -9 2.5 -22t-8.5 -19q-7 -5 -14.5 -5.5t-15.5 -0.5
v-50h-14zM667 -203v106h13v-47h28v47h16v-106h-16v49h-28v-49h-13zM1147 -203v106h9l31 -71v71h12v-106h-9l-31 71v-71h-12zM689 244l23 108h14l24 -108h-16l-5 28h-22l-5 -28h-13zM1324 -336v106h9l32 -71v71h11v-106h-10l-31 73v-73h-11zM1077 -203l21 106h16l22 -106h-14
l-6 26h-21l-6 -26h-12zM815 -336l22 106h15l23 -106h-14l-4 27h-23l-5 -27h-14zM1288 447l-8 164h27l-9 -164h-10zM382 760q8 0 15 -0.5t15 0.5q11 3 14 11t3 19q1 11 -1.5 22t-15.5 14q-8 2 -15 1.5t-15 -0.5v-67zM916 -203q-16 -5 -27 2t-14 22q-2 7 -1 13.5t1 11.5v57h13
v-47q0 -5 -0.5 -13.5t0.5 -16.5t4 -14t10 -6t10.5 6t5 14t1 16.5t-0.5 13.5v47h13v-48q0 -7 0.5 -15.5t-0.5 -17t-4.5 -15.5t-10.5 -10zM311 -337q-13 0 -19 8t-8 19.5t-1.5 24t0.5 22.5q0 14 7.5 25t25.5 9q16 -2 19.5 -13.5t3.5 -23.5h-14q0 5 0.5 10t-2.5 9q-2 8 -10 8.5
t-11 -6.5q-5 -5 -4 -18t1 -21q0 -6 -1 -17.5t5 -18.5q2 -6 10 -5.5t10 8.5q3 5 2.5 10t-0.5 10h14q0 -14 -4.5 -27t-23.5 -13zM746 -337q-14 0 -20 8t-7.5 19.5t-0.5 24t1 22.5q0 14 7 25t25 9q17 -2 20.5 -13.5t3.5 -23.5h-16q0 5 0.5 10t-1.5 9q-2 8 -9.5 8.5t-12.5 -6.5
q-5 -5 -4 -18t1 -21q0 -6 -1 -17.5t5 -18.5q4 -6 11.5 -5.5t9.5 8.5q2 5 1.5 10t-0.5 10h16q0 -14 -4.5 -27t-24.5 -13zM1029 243q-14 0 -20.5 8.5t-7.5 22.5l15 5q0 -6 2 -13t7 -11q7 -2 11.5 2.5t4.5 10.5q0 11 -9 19t-16 16q-11 8 -14.5 21t7.5 24q7 4 15.5 4.5
t14.5 -1.5q8 -4 10.5 -11.5t3.5 -14.5l-12 -3l-2 10.5t-6 9.5q-5 2 -10 0t-6 -9q-5 -8 2.5 -15l12.5 -12q6 -5 12.5 -11.5t8.5 -16.5q4 -13 -2.5 -24t-21.5 -11zM1182 -337q-14 0 -20.5 9.5t-8.5 21.5l14 4q0 -6 2 -12.5t7 -8.5q8 -4 12.5 0t4.5 10q0 11 -9.5 19.5
t-16.5 13.5q-9 9 -12.5 23.5t8.5 22.5q6 5 14.5 5.5t13.5 -2.5q8 -2 11 -9.5t4 -14.5l-13 -5l-2 11.5t-5 9.5q-14 3 -18 -8q-3 -8 3.5 -14.5t12.5 -11.5q6 -8 13 -14t9 -16q4 -13 -3 -23.5t-21 -10.5zM784 243q-13 0 -20 8.5t-8 22.5l14 5q0 -6 2 -13t7 -11q8 -2 12.5 2.5
t4.5 10.5q0 11 -9.5 19t-16.5 16q-10 8 -13 21t8 24q6 4 14 4.5t14 -1.5q8 -4 11.5 -11.5t4.5 -14.5l-13 -3q-1 5 -2.5 10.5t-5.5 9.5q-5 2 -10 0t-7 -9q-3 -8 3 -15t11 -12q8 -5 15 -11.5t9 -16.5q4 -13 -3.5 -24t-21.5 -11zM611 760h14t16 1q19 10 14 35q0 10 -2.5 17
t-11.5 12q-8 3 -16 2.5t-14 -0.5v-67zM924 244l-24 108h16l15 -79l17 79h11l-22 -108h-13zM987 -336l-24 106h13l18 -78l14 78h16l-25 -106h-12zM821 244v108h43v-10h-28v-37h23v-10h-23v-41h29v-10h-44zM1034 -336v106h43v-9h-27v-35h22v-11h-22v-41h27v-10h-43zM598 -336
v106h42v-9h-27v-35h22v-11h-22v-41h27v-10h-42zM740 -203v106h41v-11h-26v-36h22v-10h-22v-40h26v-9h-41zM464 -193q9 -4 13 -0.5t6 10.5t2 15v13q0 4 0.5 11t0 14t-2 13t-5.5 8q-10 5 -16 -2t-6 -16v-17q0 -3 -0.5 -10.5t-0.5 -15t2 -14.5t7 -9zM641 244v108h41v-10h-28
v-37h23v-10h-23v-41h28v-10h-41zM1272 -322q9 -5 13.5 -2t6.5 9t2 14v14q0 4 0.5 10.5t0 13.5t-2.5 12.5t-6 7.5q-11 7 -15.5 0t-4.5 -15v-16q0 -4 -1 -11.5t-1 -15t1.5 -14t6.5 -7.5zM373 -322q9 -5 13 -2t6 9t2 14v14q0 4 0.5 10.5t0.5 13.5t-1.5 12.5t-5.5 7.5
q-11 7 -16 0t-5 -15q-1 -4 -0.5 -8t0.5 -8t-1 -11.5t-1 -15t1.5 -14t6.5 -7.5zM392 -203v106h41v-11h-25v-36h19v-10h-19v-49h-16zM1231 -194q9 0 16 2t9 13v56q-1 11 -8 13t-17 2v-86zM625 -203v95h-20v11h55v-11h-20v-95h-15zM999 -203v106h15v-97h27v-9h-42zM1112 244v98
h-21v10h52v-10h-18v-98h-13zM826 -203v106h40v-11h-29v-36h22v-10h-22v-49h-11zM948 -203v106h14v-97h27v-9h-41zM589 244v108h13v-98h28v-10h-41zM1066 244v108h17v-108h-17zM886 -336v106h14v-96h28v-10h-42zM1141 713h35l-18 96zM454 -38h38v43h-38v-43zM789 -336v106h15
v-106h-15zM973 244v108h14v-108h-14zM1220 -336v106h13v-106h-13zM540 304h8t9 2q5 3 6 8.5t1 11.5q-1 13 -7.5 14.5t-16.5 1.5v-38zM1280 403v29h27v-29h-27zM529 -144q10 0 17 3t7 16q0 12 -6.5 14.5t-17.5 2.5v-36zM1103 -274q10 0 17 2.5t7 14.5q0 11 -7 14.5t-17 3.5
v-35zM668 -274q9 0 15.5 2.5t6.5 14.5q0 11 -6.5 14.5t-15.5 3.5v-35zM708 282h19l-8 49zM835 -299h19l-9 49zM1097 -166h19l-10 48zM1255 50l7 46l7 -46h-14zM881 50l7 46l6 -46h-13z" />
    <glyph glyph-name="thorn" unicode="&#xfe;" horiz-adv-x="467" 
d="M469 216q1 3 5.5 1t7.5 -7.5t4 -13.5t-5 -17q-27 -48 -61 -84t-70 -60.5t-72.5 -38.5t-69.5 -19q-8 0 -20.5 0.5t-27 3t-29 6t-25.5 8.5q-21 2 -38.5 10t-25.5 23q-4 6 -9 32q-21 -55 -38.5 -106t-29.5 -94t-17 -77t-2 -56q1 -6 -11.5 -9t-29 -1.5t-32.5 8t-22 18.5
q-9 17 1.5 67.5t35.5 123t61 159.5t78 177.5t86.5 177.5t86 158t77 120.5t59.5 64.5q11 7 26 1.5t27.5 -17.5t21 -26t7.5 -24q-1 -8 -10.5 -25t-25 -40l-34.5 -49.5l-39 -52.5l-105 -136l-54 -93q-22 -38 -42.5 -77.5t-29.5 -65.5v-6q11 26 29.5 58.5t41.5 66.5t48.5 66
t50 57t46 40.5t36.5 16.5q24 1 38.5 -8t22.5 -21.5t11 -26t3 -20.5q0 -29 -14 -76t-38 -99.5t-55.5 -102.5t-67.5 -84q27 5 57 16.5t61 31t61.5 49.5t59.5 72zM124 67q16 3 37 26.5t42.5 56.5t42 71.5t36 72.5t23.5 58.5t5 30.5q-6 11 -31.5 -4t-59 -48.5t-70 -82
t-64.5 -103.5q7 -26 18.5 -48t20.5 -30z" />
    <glyph glyph-name="germandbls" unicode="&#xdf;" horiz-adv-x="496" 
d="M499 216q1 3 5.5 1t7.5 -7.5t3.5 -13.5t-5.5 -17q-27 -48 -61 -84t-70 -60.5t-72.5 -38.5t-68.5 -19q-9 -1 -23.5 0t-30.5 4t-30.5 7.5t-24.5 11.5q-1 0 -3 1q-23 5 -39 16t-16 22q0 9 6.5 19.5t15.5 20t18 16.5t14 7q9 2 24 -7t23 -18q16 7 35.5 29t39 51t37 61.5t30 61
t19 49.5t3.5 27q-4 8 -15.5 5.5t-26 -12t-29.5 -23.5t-26 -29q-11 -8 -19.5 0.5t-13.5 22.5q-6 16 -11 38q13 11 29 22q14 9 31.5 18t37.5 14q20 26 45.5 66t47 80t34.5 73.5t7 47.5q-35 -12 -78 -61.5t-88 -120t-87.5 -154.5t-75.5 -165t-53.5 -151t-20.5 -113
q0 -6 -12.5 -9t-29 -1.5t-32 8t-21.5 18.5q-9 17 -3 57.5t24 95.5t46 121t62.5 134t74 134t80 121.5t80 96.5t74.5 58q11 5 35 3t49.5 -11t46.5 -24.5t26 -36.5t-9 -55.5t-39.5 -73t-59 -76t-68.5 -64.5q19 -4 34.5 -12.5t27.5 -18.5t18.5 -20t7.5 -16q0 -27 -13 -65
t-35 -79t-52 -80.5t-63 -69.5q25 7 53.5 19t58 31.5t58.5 48t56 68.5z" />
    <glyph glyph-name="eth" unicode="&#xf0;" horiz-adv-x="429" 
d="M324 744q3 -11 6.5 -26.5t6.5 -35.5q20 6 36 9.5t27 2.5q20 -2 32 -16.5t12 -31.5q-23 -5 -48.5 -14t-51.5 -21q2 -31 3.5 -62.5t2 -60t0.5 -52v-37.5q0 -8 -2 -10q2 -23 -6.5 -59.5t-22.5 -80.5v-2q9 -24 23 -37.5t29.5 -17t30.5 1.5t27 19q10 12 17.5 14.5t10.5 -1.5
t1 -13t-9 -19q-18 -24 -40 -36t-44.5 -15t-44 3t-38.5 19q-22 -44 -49.5 -83t-59 -65.5t-66.5 -36.5t-71 5q-35 15 -48 54.5t-7 91.5t29 109t58.5 107t81 86t98.5 46q2 0 9 -2.5l15 -5.5q-5 21 -8.5 44t-8.5 46q-19 -13 -34 -25t-26 -20q-29 25 -31.5 53.5t15.5 43.5
q8 6 23 14.5t35 16.5q-9 37 -19 67t-18 50q10 14 28.5 19t37.5 2.5t35.5 -12.5t22.5 -26zM101 89q18 -19 39.5 -12.5t42.5 29.5t40.5 59.5t33.5 78.5t20.5 86t2.5 82q-24 -8 -51.5 -30t-53.5 -52t-47 -65t-33 -68t-12 -62t18 -46z" />
    <glyph glyph-name="s" unicode="s" horiz-adv-x="320" 
d="M320 213q2 3 7 0.5t9 -8.5t5.5 -14.5t-4.5 -18.5q-21 -38 -46.5 -65t-53.5 -46t-57.5 -31t-58.5 -19q-26 -13 -52.5 -20t-52.5 -7q-15 0 -32.5 5.5t-33.5 14.5t-27.5 20t-13.5 22q-3 16 -2.5 36.5t3.5 39t9 31.5t16 15q10 1 25 -9q33 47 68.5 104.5t64.5 109.5
q-6 30 0 56t18.5 45.5t29 30.5t30.5 11t25 -6t19 -16t13.5 -22t8.5 -24q14 26 32.5 43.5t41.5 22.5q16 3 29 -3t23 -16t15.5 -21.5t6.5 -19.5q-55 -35 -85.5 -73t-44.5 -85q-17 3 -26.5 14t-13.5 27t-2 35t8 38q-28 -13 -44 -39.5t-10 -59.5q3 -16 12 -35.5l18.5 -40
t17 -40.5t7.5 -38q0 -34 -12 -61q29 18 56.5 46t53.5 71zM76 71q13 17 22.5 41.5t15 53.5t6 61.5t-5.5 64.5l-31 -45.5l-30 -42l-25.5 -34.5t-18.5 -22l-16 -19q18 -20 39.5 -38t43.5 -20z" />
    <glyph glyph-name="t" unicode="t" horiz-adv-x="200" 
d="M-398 511q-7 13 -5.5 23t8.5 18.5t18 15.5t23 13q31 14 92.5 28t138.5 26t163.5 21.5t167.5 14.5q24 32 47 42q8 3 20.5 1.5t25 -7t23 -13.5t14.5 -18q63 2 111 -3t70 -14q15 -8 23.5 -22.5t11.5 -32t1.5 -35t-5.5 -30.5q-38 13 -107 20.5t-153 10.5l-54 -88l-60 -95.5
l-57.5 -90l-45.5 -70.5q-7 -26 -10.5 -50.5t-3 -43t4.5 -30.5t12 -13q10 -2 27 11t35.5 32.5t35.5 41.5t26 39q3 5 6 3.5t4.5 -7t0.5 -14.5t-5 -20q-4 -9 -14.5 -25.5t-25.5 -36t-33.5 -39.5t-37.5 -36.5t-38 -27t-35 -10.5q-15 0 -27.5 13.5t-17 42.5t2 74t27.5 107
q13 38 29 80.5l33.5 86t36.5 86t39 80.5q-81 -2 -163 -7t-154.5 -12.5t-131.5 -17.5t-94 -22z" />
    <glyph glyph-name="u" unicode="u" horiz-adv-x="407" 
d="M132 453q14 16 32 17.5t33 -5.5t24 -17.5t4 -18.5q-3 -5 -19.5 -28.5l-38 -56l-44.5 -69.5t-40.5 -70.5t-25.5 -58t1 -32.5q9 -7 30 9.5t47.5 46.5t55.5 67l53.5 71l41.5 59t19 30l20 31q8 12 21 7.5t25 -15.5t19 -24t4 -17q-4 -5 -16.5 -23.5t-28 -44l-31.5 -54.5
t-27 -55.5t-15 -46.5t5 -27q13 -12 33 -3t39.5 26t35 35.5t18.5 26.5q4 7 9 8t8 -4.5t3 -17t-6 -27.5q-6 -17 -29.5 -47.5t-53 -60t-59 -49.5t-48.5 -15q-35 10 -39.5 58.5t15.5 116.5q-26 -44 -52.5 -82t-52.5 -64.5t-51 -38t-48 -1.5q-26 12 -33 44t0 75t25.5 93
t41.5 97.5t48 88.5t47 66z" />
    <glyph glyph-name="v" unicode="v" horiz-adv-x="355" 
d="M214 444q0 -10 -13 -36t-35 -60l-49.5 -73l-55.5 -75q-5 -18 -7 -35t-1 -31t6 -23.5t16 -11.5t31 16t43.5 50t47.5 73.5t43.5 86t32 87.5t13.5 78q16 3 32.5 -0.5t30 -14.5t21.5 -29.5t8 -45.5q0 -29 -15 -70t-41 -85.5t-60.5 -88t-73 -78.5t-79 -56.5t-78.5 -21.5
q-25 0 -38 21.5t-14.5 57t8 82.5t29 98t49.5 103.5t69 98.5q8 9 21.5 11.5t26.5 -0.5t22.5 -10.5t9.5 -17.5z" />
    <glyph glyph-name="w" unicode="w" horiz-adv-x="546" 
d="M128 436q14 16 32.5 16.5t34 -6t24 -17.5t1.5 -17q-6 -6 -23.5 -27.5t-39 -51t-43.5 -63.5t-37.5 -65t-22 -55.5t4.5 -35.5q17 -15 46.5 5.5t63.5 58.5q17 66 52.5 141.5t91.5 141.5q8 9 22 11.5t27 -0.5t22.5 -10.5t9.5 -17.5t-13 -35t-34 -58.5t-47.5 -72l-53.5 -74.5
q-5 -18 -7 -36.5t-0.5 -34t7.5 -26t17 -13.5q12 -2 34.5 22.5t49 65.5t55 93.5t51.5 106.5t38 103.5t16 84.5q7 -2 24.5 -2t35 -5.5t30 -20t10.5 -43.5q-2 -28 -21.5 -76.5t-51 -103.5t-72 -112t-83.5 -103t-86.5 -75t-81.5 -29q-27 0 -40.5 24t-13.5 66q-39 -50 -78.5 -80
t-74.5 -21q-28 8 -35.5 37t-1 70.5t24 90t40.5 95.5t48.5 88t47.5 66z" />
    <glyph glyph-name="x" unicode="x" horiz-adv-x="307" 
d="M350 461q12 1 19 -7.5t9 -19.5t0.5 -21.5t-6.5 -12.5q-68 -31 -136 -89t-130 -124q14 -32 31.5 -54t37.5 -23q21 -2 43.5 12.5t41.5 33t32 36t15 21.5q1 4 6 4.5t9.5 -4t6.5 -13t-2 -20.5q-5 -12 -24.5 -41.5t-47 -60.5t-58 -54.5t-57.5 -23.5q-31 0 -63.5 22.5
t-54.5 66.5l-55 -70.5t-43 -60t-27.5 -44.5t-9.5 -22q-1 -9 -12.5 -5t-24.5 15.5t-21.5 27.5t-3.5 31q6 16 21.5 40t38 52.5t51.5 60.5l61 65q-5 46 3 91t23 81t34 61t37 32q13 6 25.5 1.5t21 -13.5t12 -19t-0.5 -16q-6 -8 -25 -29.5t-42 -52.5q-2 -11 -1 -23.5l2 -25.5
l81 72.5t75 61t63 43t45 18.5z" />
    <glyph glyph-name="y" unicode="y" horiz-adv-x="372" 
d="M152 456q7 6 21 0.5t25 -15.5t16 -21.5t-4 -17.5q-9 -5 -26 -26t-36.5 -50.5t-39 -63t-33.5 -64t-19.5 -53.5t3.5 -31q8 -7 25 3t39 30.5t46 47.5l47 55q11 34 29 70t35.5 66t31.5 50t19 23q5 2 14.5 -2.5t19 -12t15.5 -17t5 -18.5t-15.5 -36.5t-33.5 -59.5t-38.5 -60.5
t-31.5 -38.5q-8 -47 -19.5 -105.5t-28.5 -119.5q44 -9 80 -25t62 -41q14 -12 21 -29.5t6.5 -36.5t-8 -38t-23.5 -34q-22 29 -66.5 60.5t-101.5 52.5q-18 -47 -41 -88.5t-52.5 -73t-65.5 -49.5t-80 -18q-46 0 -78.5 16.5t-50.5 43.5t-20.5 60t11 65.5t44 61.5t79.5 48
q8 4 13 5q49 15 96.5 22.5t92.5 5.5q12 32 23.5 68l24.5 78q-22 -33 -44 -59.5t-43.5 -45t-42 -26.5t-40.5 -3q-28 7 -36.5 36.5t-3 71.5t23 92t42 97.5t54 87t58.5 62.5zM99 -78q-42 6 -83.5 2t-81.5 -22q-1 0 -1 -1t-1 -1q-26 -16 -36.5 -36t-5.5 -35t25.5 -20.5t56.5 6.5
q43 15 73 41.5t54 65.5z" />
    <glyph glyph-name="z" unicode="z" horiz-adv-x="350" 
d="M250 15q-46 34 -94.5 37t-93 -11t-81.5 -40t-58 -51q-9 11 -12 31t3 39q-3 6 0 15q3 19 11.5 44t20.5 51t27 50t32 42q25 27 62 54.5t78.5 53t83 47.5t74.5 37q-31 -6 -65.5 -15.5t-66.5 -21t-59 -23t-43 -21.5q-7 -4 -12 9t-6 31t3 35.5t15 23.5q14 8 49.5 15.5
t75.5 13.5t76.5 10t53.5 4q16 0 26.5 -8t15 -18t3 -18.5t-8.5 -9.5q4 -9 7 -22t2.5 -26.5t-4 -23.5t-10.5 -13q-15 -6 -58 -30t-95.5 -58.5t-105.5 -75t-89 -79.5q35 19 74.5 36t75.5 25.5t65.5 6t46.5 -22.5q10 -12 11 -29t-3.5 -35t-12 -34t-14.5 -25z" />
    <glyph glyph-name="b" unicode="b" horiz-adv-x="409" 
d="M442 740q-2 -17 -13 -46t-31 -66.5t-47.5 -82t-61.5 -91.5q10 0 24 -6t26 -17t20.5 -27.5t8.5 -36.5q0 -38 -15 -79t-40 -81q23 -17 49.5 -15.5t46.5 21.5q12 12 20.5 14.5t12 -1.5t1.5 -13t-11 -19q-35 -40 -78 -48.5t-80 5.5q-25 -32 -53 -59.5t-56 -48t-54.5 -32
t-47.5 -11.5q-20 0 -37 11.5t-28 33t-14.5 52t4.5 68.5q15 76 49 165t81.5 174.5t106.5 160.5t125 124q11 9 27 9t31 -7t25 -20t9 -31zM241 390q-37 -47 -77 -92t-85 -87q-14 -45 -12 -78t26 -39q13 -3 28.5 4.5t31 23t31 38t29.5 48.5q-10 18 -10 38q-2 35 9.5 73.5
t28.5 70.5zM319 617q-5 4 -26.5 -20.5t-52 -68.5t-64.5 -102t-62 -121q48 60 87.5 115.5t66.5 98.5t40.5 69.5t10.5 28.5z" />
    <glyph glyph-name="c" unicode="c" horiz-adv-x="356" 
d="M242 257q-12 7 -16 24.5t0 39.5t15.5 45.5t31.5 42.5q-44 -14 -83.5 -47.5t-67.5 -84.5q-19 -35 -26 -68t-2.5 -58.5t20 -41.5t41.5 -19q24 -3 51 7.5t55.5 30t57.5 47t55 59.5q5 5 11 -2t0 -25q-7 -20 -34.5 -55t-67 -69.5t-87.5 -60.5t-97 -29q-37 -2 -63 12.5
t-39.5 43.5t-13 71t16.5 93t46 100t67 88t76 63t73 26q17 1 31.5 -5t25 -15t17 -19.5t7.5 -18.5q17 -9 25 -28t6 -30q-19 -8 -38.5 -23.5t-37.5 -33t-32.5 -34z" />
    <glyph glyph-name="d" unicode="d" horiz-adv-x="445" 
d="M263 464q11 3 21 -1t18 -11t13.5 -16t8.5 -18q29 57 63 114t70 108.5t73.5 94t73.5 68.5q6 4 16.5 -4.5t20 -23t15.5 -31.5t3 -30q-2 -7 -20.5 -35l-47 -68l-64.5 -88.5l-72 -96.5l-69.5 -91.5l-57.5 -73.5q-9 -31 -15 -61t-7.5 -54t2.5 -39.5t15 -17.5q9 -2 25.5 11
t35 32.5t35.5 41.5t26 39q11 -2 16.5 -16t-6.5 -38q-6 -13 -25.5 -39.5t-46 -53t-57 -46.5t-58.5 -20q-12 0 -23.5 9t-19 27t-9 46t5.5 67l-54.5 -62t-50 -51t-43.5 -36.5t-35 -17.5q-17 -3 -34 2.5t-28.5 22t-15.5 45t5 70.5q11 54 43.5 111t75.5 106t90 83t88 42zM94 117
q12 -3 28.5 5.5t37 25.5t42.5 40.5t44 49.5q12 33 28 70.5t36 78.5q-31 -7 -63.5 -29t-60.5 -51t-51.5 -61t-36.5 -59.5t-15.5 -47t11.5 -22.5z" />
    <glyph glyph-name="e" unicode="e" horiz-adv-x="360" 
d="M332 409q1 -27 -10.5 -63.5t-31.5 -71.5t-45 -63t-51 -38q-13 -6 -26.5 -3.5t-26.5 9t-25 15t-22 14.5q-14 -48 -1.5 -81.5t50.5 -36.5q24 -3 53.5 7.5t61 30t63 47t57.5 59.5q3 5 10 -2t1 -25q-5 -13 -20 -34t-37.5 -44t-51 -46.5t-60.5 -43t-65.5 -32t-65.5 -14.5
q-38 -2 -62.5 12.5t-36 43t-9.5 70t18 92.5q15 51 43 100.5t60.5 88.5t66.5 63.5t62 26.5q19 1 34.5 -5.5t26.5 -15.5q9 -1 16.5 -8t12.5 -16t8 -19t3 -17zM125 277q-10 -15 -16.5 -30t-11.5 -29q31 9 61 32t54.5 52t42 60.5t23.5 57.5q-39 -8 -76 -42.5t-77 -100.5z" />
    <glyph glyph-name="f" unicode="f" horiz-adv-x="333" 
d="M-23 243q-7 13 -4.5 23.5t10.5 19.5t20 15.5t25 11.5l15 6q30 67 66.5 137t77 134t83 116t84.5 83q11 9 27 9t31 -7t24.5 -20t8.5 -31q0 -20 -14.5 -58t-40 -87.5t-61.5 -106.5t-80 -115q51 3 79 -8q16 -7 24 -19t10.5 -27t0 -30.5t-7.5 -28.5q-52 17 -89.5 25t-69.5 10
q14 -14 24 -34.5t10 -47.5q0 -40 -14 -90.5t-37 -102t-52 -100t-60 -84.5q-29 -33 -62 -51.5t-56 -14.5q-22 3 -30 31t-4.5 75t17.5 112.5t38 143.5q8 26 19.5 57.5t25.5 66.5q-8 -4 -17.5 -6.5t-20.5 -6.5zM140 246q-11 -13 -23 -24.5l-24 -22.5q-20 -53 -38 -111
t-30 -107.5t-15.5 -83t7.5 -37.5q7 -2 19 15.5t25.5 48.5t27 72t24.5 84.5t18.5 86.5t8.5 79zM323 617q-5 4 -21.5 -16t-39.5 -56t-50.5 -85.5t-54.5 -104.5l26 7q36 51 63 96.5t45 80t26.5 55.5t5.5 23z" />
    <glyph glyph-name="h" unicode="h" horiz-adv-x="391" 
d="M360 445q11 2 22.5 -3.5t19 -14t10.5 -18.5t-2 -16q-54 -71 -86.5 -137.5t-45.5 -121t-7 -93.5t30 -55q14 -10 36 -9.5t38 15.5q10 -27 -5.5 -56.5t-44.5 -49t-65 -22t-66 25.5q-20 18 -29 47.5t-8 66.5t11.5 78.5t28.5 84t43.5 82.5t56.5 74q-49 -18 -94 -55
t-80.5 -79.5t-59 -85.5t-29.5 -74q0 -1 1 -1q6 -8 -4.5 -16.5t-27 -13.5t-34 -5.5t-24.5 7.5q-4 4 -3 19.5t9 44.5t22.5 72.5t37.5 105.5q15 41 38.5 91.5t51.5 104t60 107t64.5 101.5t65.5 88t63 66q5 5 15.5 0t21 -15.5t19 -24.5t8.5 -27t-12.5 -39.5t-33.5 -61t-48 -74
l-55.5 -78l-56.5 -73.5t-51 -60q-14 -24 -27 -49l-25 -50q29 31 62 61.5t66 57t64.5 47.5t58.5 33v-2z" />
    <glyph glyph-name="g" unicode="g" horiz-adv-x="412" 
d="M310 222l-28.5 -132.5t-27.5 -108.5q43 -17 63 -48q10 -15 11 -33t-3.5 -36t-14 -35t-20.5 -29q-37 43 -74 71q-18 -42 -43.5 -79t-57.5 -64t-69 -43t-78 -16q-40 0 -69.5 12.5t-48.5 33.5t-27 48t-3 55q8 54 43.5 89.5t84.5 55.5t104.5 27.5t103.5 6.5l21 61t22 70
q-44 -47 -81 -77.5t-63 -35.5q-17 -4 -32.5 2.5t-26.5 24.5t-14.5 48t4.5 73q11 53 41.5 106t70.5 97t85.5 74.5t86.5 38.5q12 2 22 -2.5t17.5 -12t13 -17t8.5 -18.5q9 12 25 10t30.5 -10.5t24 -20t7.5 -18.5q-3 -11 -16.5 -33.5l-30 -48l-33.5 -49.5t-28 -37zM91 129
q11 -3 26.5 3.5t33.5 20t38 32.5t41 41q15 41 35.5 87.5t46.5 87.5q-31 -8 -63 -30.5t-61 -51.5t-53 -61t-38 -59.5t-16.5 -47t10.5 -22.5zM113 -86q-21 12 -47 14t-51 -3.5t-47 -16.5t-37 -25t-20.5 -30.5t3.5 -31.5q7 -12 26.5 -14.5t51.5 8.5q41 14 70.5 39t50.5 60z" />
    <glyph glyph-name="i" unicode="i" horiz-adv-x="204" 
d="M157 504q8 22 17.5 42.5t18.5 37.5t18.5 28.5t17.5 14.5t25 2t33.5 -7.5t27.5 -20.5t8 -36q-4 -22 -21 -40.5t-41 -28.5t-51.5 -9.5t-52.5 17.5zM112 427q9 11 25 10t31.5 -7.5t26.5 -15.5t11 -15q-1 -5 -7 -18.5t-16.5 -30.5t-24.5 -35.5t-30 -34.5l-25.5 -48.5
t-20.5 -45.5t-10 -36.5t6 -21.5q13 -12 33 -3t39.5 26t35 35.5t18.5 26.5q4 7 9 8t8.5 -4.5t3.5 -17t-6 -27.5q-4 -11 -16.5 -29t-29.5 -38.5t-37 -40.5t-39.5 -35.5t-37.5 -24t-30 -4.5q-19 5 -28.5 30t-12 57.5t0.5 67t11 58.5q9 28 21.5 57.5t27.5 57.5t31.5 53.5
t31.5 45.5z" />
    <glyph glyph-name="j" unicode="j" horiz-adv-x="194" 
d="M143 490l15.5 43t14 37.5t14 28t15.5 14.5q9 3 27.5 2t37.5 -7.5t31.5 -20.5t9.5 -36t-20 -40.5t-41 -29t-52 -9.5t-52 18zM81 223l-30.5 -138.5t-28.5 -114.5q42 -16 63 -47q10 -15 11 -33t-4 -36.5t-14.5 -35.5t-19.5 -29q-35 43 -73 71q-15 -49 -41.5 -84t-58.5 -56.5
t-66.5 -29t-65.5 -3t-55.5 21t-35.5 44.5q-18 44 -1 86t56 74.5t94 53t112 20.5q11 28 23 66l23 76q9 23 19.5 59.5t25.5 77t35 80.5t47 71q10 11 25.5 9t29.5 -10.5t24 -20t8 -18.5q-3 -11 -15 -31t-28 -43l-32 -44.5zM-118 -97q-29 8 -56.5 0t-47 -23.5t-28 -34t1.5 -31.5
q12 -15 32.5 -9.5t41.5 21t37 37.5t19 40z" />
    <glyph glyph-name="k" unicode="k" horiz-adv-x="409" 
d="M417 733q0 -19 -19.5 -62t-58 -100t-94.5 -122.5t-128 -129.5q-10 -20 -19.5 -43.5l-18.5 -47.5q34 46 74.5 92t78 83t68.5 60.5t46 24.5q21 1 37.5 -7t27.5 -19.5t17 -23.5t6 -18q0 -23 -11 -48t-29 -48.5t-41 -45.5t-47 -40t-47 -31t-41 -19q0 -52 13 -91.5t35.5 -65
t52.5 -37.5t66 -8q-7 -24 -19 -44.5t-28.5 -34.5t-36.5 -21t-43 -2q-38 7 -60.5 39.5t-33 77.5t-10 96t9.5 96q-12 8 -17.5 19.5t-5.5 20.5q-41 -50 -70 -100.5t-29 -92.5q6 -8 -5.5 -18t-29.5 -17.5t-36.5 -10t-25.5 5.5q-4 4 -3 19.5t9 44.5t22.5 72.5t37.5 105.5
q15 41 38 91.5t51 104t60 107t65 101.5t66 88t63 66q5 5 15.5 0t21 -15.5t18.5 -24.5t8 -27zM345 418q-9 -3 -29.5 -18t-47 -37.5t-56 -51.5t-57.5 -62q22 1 45.5 13t46 29.5t42.5 38t33.5 39t20 32t2.5 17.5z" />
    <glyph glyph-name="l" unicode="l" horiz-adv-x="250" 
d="M452 740q-1 -18 -14.5 -50.5t-37 -75.5t-56.5 -93t-72.5 -103t-85.5 -105t-95 -99q-9 -47 0.5 -79.5t29.5 -35.5q9 -2 26 10.5t37.5 32t42 43.5t38.5 46q12 16 22 19.5t14 -2.5t1 -20t-16 -32q-20 -29 -49 -62t-60.5 -62.5t-62.5 -49.5t-55 -22q-19 -2 -33.5 8.5t-24 29
t-13.5 43t-2 51.5q4 52 21.5 111.5t44 122t61.5 124t75 117.5t83 102.5t87 79.5q12 9 28 9t31 -7t25.5 -20t9.5 -31zM328 617q-5 4 -26.5 -20.5t-51.5 -68.5t-64 -102t-62 -121q48 60 87 115.5t66 98.5t40.5 69.5t10.5 28.5z" />
    <glyph glyph-name="m" unicode="m" horiz-adv-x="586" 
d="M342 447q11 5 24.5 3.5t24.5 -6t17 -11.5t2 -13q-32 -46 -56.5 -89t-43.5 -83q27 31 58 61.5t62.5 57t62 47.5t56.5 33v-2q11 2 22 -3.5t19 -14t11 -18.5t-2 -16q-54 -71 -87 -137.5t-45.5 -121t-6.5 -93.5t30 -55q14 -10 35.5 -9.5t38.5 15.5q10 -27 -5.5 -56.5t-45 -49
t-65.5 -22t-66 25.5q-30 27 -35.5 78.5t9.5 113t48 125.5t80 114q-46 -18 -86.5 -53t-73 -76t-54.5 -83.5t-31 -74.5v-14q1 -8 -12.5 -12t-30 -2t-31 12t-17.5 31q-1 13 5.5 41.5t21 64.5t36.5 76.5t51 77.5q-46 -20 -84.5 -56.5t-67.5 -78t-47 -83t-24 -71.5q1 -14 -12 -19
t-30.5 -1.5t-32.5 16t-17 33.5q-2 15 8.5 48.5t27 76t37.5 88l41 85t36.5 67t24.5 33.5q13 8 31 7t34 -7t26 -14t6 -13q-44 -52 -74.5 -104t-51.5 -100q25 36 56 72t64 67t66 55t63 37z" />
    <glyph glyph-name="n" unicode="n" horiz-adv-x="383" 
d="M352 445q11 1 22 -4.5t19 -14t11 -18t-2 -15.5q-37 -51 -66.5 -97.5t-48.5 -83.5t-25.5 -61.5t3.5 -32.5t27 -1t34.5 22.5t33 35.5t23.5 38q5 10 9.5 9t6.5 -7.5t2 -17.5t-4 -22q-5 -13 -24.5 -41.5t-44.5 -57.5t-51.5 -52t-46.5 -24q-29 -3 -44.5 12.5t-20 42.5t2 62
t22.5 71q14 32 34.5 63t43.5 57q-46 -21 -85.5 -57.5t-70 -77.5t-50 -82t-24.5 -71q2 -14 -11.5 -19t-30.5 -1.5t-32.5 16t-17.5 33.5q-1 15 9 48.5t27 76t37.5 88t40.5 85t36.5 67t24.5 33.5q13 8 31.5 7t34.5 -7t26 -14t6 -13q-45 -55 -77 -109t-55 -104q26 35 58 70.5
t65.5 67t67.5 56.5t64 40q2 1 3 2.5t3 1.5l4 2v-2z" />
    <glyph glyph-name="o" unicode="o" horiz-adv-x="406" 
d="M173 444q23 13 45 4t32 -26q9 19 22 26q6 9 21.5 6.5t31 -13.5t28 -30t12.5 -44q0 -38 -13 -80.5t-35 -84.5q21 -14 46 -11t43 22q12 12 20.5 14.5t12 -1.5t1 -13t-11.5 -19q-34 -38 -72 -47t-70 5q-23 -33 -50 -61.5t-56 -49t-60 -32t-61 -9.5q-20 1 -37 13t-27.5 33
t-14 51t4.5 68q7 32 22.5 71t39.5 77.5t56 73t70 57.5zM230 367l-61.5 -52.5t-63.5 -60.5q-19 -29 -26.5 -55t-6 -47t9.5 -35t20 -18q18 -6 36.5 -0.5t36 19.5t33 35.5t27.5 48.5q-13 20 -14 47q-4 31 -1 61.5t10 56.5z" />
    <glyph glyph-name="p" unicode="p" horiz-adv-x="430" 
d="M159 477q10 10 26 7.5t30 -10t22 -17t2 -13.5q-39 -38 -80.5 -101.5t-79.5 -140.5q0 -5 1 -10t2 -9q10 26 29 58.5t41.5 66t48 65t49.5 56.5t45 40t36 15q24 1 42 -7.5t30.5 -21.5t19.5 -26.5t7 -21.5q0 -26 -14.5 -68.5t-38.5 -91t-56 -96.5t-67 -84q38 9 83 41t93 105
q2 3 7 0.5t9 -8.5t5.5 -14.5t-4.5 -18.5q-27 -48 -55.5 -82.5t-58 -58t-60.5 -36.5t-63 -18q-8 0 -21 0.5t-27 3t-28 6t-25 8.5q-47 2 -66 33q-6 11 -7.5 32.5t0.5 47.5q-23 -55 -41.5 -110t-30.5 -104.5t-17 -92.5t0 -74q1 -6 -11.5 -9t-29 -1.5t-33 8t-22.5 18.5
q-9 17 -4.5 53.5t18.5 86t36.5 108t49 119t55.5 119t57 108t53 86.5t43 54zM311 383q-6 11 -30.5 -3.5t-57.5 -46.5t-69 -79t-64 -101q11 -25 26.5 -45.5t24.5 -28.5q16 3 36 25t40 54t38.5 69t32 69.5t20 56.5t3.5 30z" />
    <glyph glyph-name="q" unicode="q" horiz-adv-x="414" 
d="M310 417q-30 -9 -59.5 -31t-56 -50.5t-48 -61t-35.5 -61t-18 -51.5t5 -32q6 6 22.5 25.5l38.5 45l47 54l46.5 53.5l37.5 42.5t21 22.5q13 17 25 27.5t31 6.5q10 -2 19 -8t16 -14.5t11.5 -16.5t4.5 -12q-17 -17 -43.5 -63.5t-55 -109.5t-55.5 -135.5t-45 -141.5
q38 -8 68.5 -20t50.5 -26q15 -12 21 -25.5t5 -26.5t-8 -23.5t-18 -15.5q-23 17 -58.5 29t-79.5 20q-9 -55 -6 -98q0 -6 -14.5 -17.5t-33 -19.5t-37 -9.5t-26.5 11.5q-13 20 -9.5 57t17.5 87q-98 3 -208 -11t-213 -48q-5 42 6 74t55 51q26 11 69.5 19t96 11.5t110.5 3
t114 -6.5q15 40 32.5 82l36 83l36.5 81l34 75l-60 -78l-60 -79l-48 -64l-23 -31q-5 -6 -21.5 -5.5t-34.5 10t-32.5 28t-16.5 47.5q-2 35 11 78.5t36.5 88t54.5 87t64.5 76t66.5 54t61 21.5q18 0 30.5 -8.5t19.5 -19t7.5 -20.5t-5.5 -11z" />
    <glyph glyph-name="percent" unicode="%" horiz-adv-x="671" 
d="M452 584q29 -17 41 -38.5t10 -46.5q47 27 86 47t66 32q16 6 30 0.5t25 -15t17 -20.5t6 -16q-20 -8 -57 -29t-84.5 -51.5l-103.5 -69l-114 -80.5q50 23 100.5 27t94.5 -19q28 -16 37 -40.5t2.5 -53.5t-26.5 -59t-48.5 -57.5t-63.5 -49.5t-72.5 -33.5t-75.5 -10.5t-71 19
q-27 15 -39 35.5t-12 44t11.5 49t30.5 49.5q-76 -60 -141.5 -119.5t-109.5 -110.5q-15 7 -28.5 19t-22 26.5t-10 31.5t7.5 36q6 12 26.5 33t52 48t72 58l86.5 64q-11 3 -20.5 6.5t-18.5 9.5q-39 21 -42.5 56.5t16.5 75.5t59.5 77.5t87.5 62.5t99 30.5t96 -18.5zM504 249
q-4 19 -25.5 18t-51 -14.5t-61.5 -36.5t-57.5 -48t-39 -49.5t-4.5 -41.5q7 -12 28.5 -10t49.5 14t58.5 32t54.5 43t38 47.5t10 45.5zM184 355q4 -19 24 -18t47 15t56.5 37t52.5 49t34.5 50.5t2.5 41.5q-7 12 -26.5 10t-45 -14.5t-53.5 -33t-49.5 -44t-34.5 -48t-8 -45.5z
" />
    <glyph glyph-name="onequarter" unicode="&#xbc;" horiz-adv-x="886" 
d="M706 670q17 9 32 4t25.5 -16t16 -23.5t4.5 -18.5q-28 -16 -78.5 -58.5t-113.5 -103l-134.5 -133.5l-141.5 -149.5l-134 -152t-113 -140.5q-15 8 -28 21t-21 30t-8.5 38t10.5 45q9 20 35.5 55t66 79.5l88.5 96l102.5 103.5l108.5 102.5l106.5 93.5t97 76.5t79.5 50.5z
M413 96q-10 -7 -24.5 -6.5t-27.5 5t-22 10.5t-9 9l61 45t76.5 63.5t81.5 88t76 116.5q29 -18 40 -47.5t-6 -64.5q-18 -34 -58 -71.5t-91 -77.5q27 8 57.5 16l60.5 16l38 69.5t41 68t41.5 61t40.5 48.5q9 9 23.5 10.5t28.5 -0.5t24 -6.5t10 -7.5q-11 -12 -26 -34t-32.5 -52
t-36.5 -66l-38 -75q11 0 18.5 -2t12.5 -4q14 -8 10 -35.5t-29 -61.5q-9 7 -22 11t-30 6l-46 -111.5t-39 -104.5q-22 7 -36.5 20.5t-22.5 30t-9 35.5t5 38q5 14 14.5 37.5t23.5 54.5q-49 -5 -94 -12.5l-74 -12.5zM274 681q9 9 23.5 11t28 0t23.5 -6.5t10 -7.5
q-21 -23 -51.5 -76.5t-63.5 -123t-65 -147t-55 -148.5q-44 14 -60 50t-3 75q7 25 29 73.5t51.5 103.5t64 108t68.5 88z" />
    <glyph glyph-name="ampersand" unicode="&#x26;" horiz-adv-x="641" 
d="M485 679q23 -13 37.5 -42t20 -62.5t1.5 -66.5t-18 -55q-22 -29 -64 -54.5t-94 -43.5q-6 -4 -27 -12t-43 -18q11 -55 32 -110q12 12 26 24.5t21 21.5q18 44 52 71t71 39t69 10.5t47 -14.5q12 -12 12.5 -32t-4.5 -40q-5 -23 -16 -49q-11 6 -29.5 12.5t-42 10.5t-49 6
t-50.5 -1q10 -10 15 -22.5t5 -23.5q-5 -10 -14.5 -21t-21.5 -23l-25 -24t-23 -23q21 -38 45 -63.5t50 -29.5q-11 -44 -42.5 -64.5t-70.5 -13.5q-21 5 -40 29t-34 56q-30 -21 -59.5 -37.5t-57 -27.5t-51 -16t-39.5 -2q-41 7 -63 35.5t-30 65t-3.5 74.5t17.5 64q23 47 78 80.5
t131 62.5q-3 33 -3 69t3 69t9.5 61t17.5 45q19 28 50.5 50.5t67.5 35.5t72 14t64 -15zM242 139q-9 34 -16.5 72t-12.5 74q-45 -21 -74.5 -45t-46 -46.5t-21.5 -42.5t-1 -33q4 -11 21 -15t41 -1t52.5 12.5t57.5 24.5zM288 389q34 15 65.5 37t54 47t34 49t7.5 43
q-5 24 -25.5 25.5t-45 -10t-47 -31t-30.5 -38.5q-10 -20 -14 -51t1 -71z" />
    <glyph glyph-name="copyright" unicode="&#xa9;" horiz-adv-x="931" 
d="M643 766q21 -6 48 -21t56 -37t56.5 -48t50.5 -53t39 -53.5t20 -47.5q13 -69 1 -145.5t-44 -152.5t-80.5 -148t-108.5 -131.5t-129.5 -103.5t-142 -64t-146 -13t-142.5 49q-64 39 -89 104.5t-19.5 146t37 170t80.5 174.5t112 160t131.5 128t138 77.5t131.5 8.5zM114 -79
q25 -67 74 -89.5t111 -11t131.5 52.5t135 100t122 132t92 149.5t44.5 150.5t-19 136q-11 24 -32.5 50t-48 47t-55 33t-53.5 8q-58 -12 -124.5 -54.5t-130.5 -105.5t-119 -140t-91.5 -157.5t-48.5 -158.5t12 -142zM589 155q1 2 4.5 2t6.5 -3t4 -9.5t-3 -16.5
q-6 -19 -22.5 -43.5t-40.5 -49t-53.5 -47t-62 -37t-66 -18.5t-64.5 8q-52 20 -75.5 59t-24.5 88.5t18 106t52.5 110.5t78 101.5t94.5 80.5t102.5 47t102.5 1q20 -7 26.5 -19.5t0.5 -27.5q9 5 17.5 7.5t18.5 4.5q21 5 37 4t25 -6t8.5 -13t-13.5 -17q-14 -10 -28.5 -26
t-27 -35.5t-21.5 -41t-12 -41.5q-1 -10 -18 -11t-36 6.5t-33.5 23.5t-9.5 39q5 19 14.5 37t25.5 33q-43 22 -88 6t-85 -54t-72 -90.5t-48.5 -104.5t-14 -96t30.5 -64q19 -14 43 -16t50 5t51 20.5t47 29.5t38 34t23 33z" />
    <glyph glyph-name="registered" unicode="&#xae;" horiz-adv-x="931" 
d="M643 766q21 -6 48 -21t56 -37t56.5 -48t50.5 -53t39 -53.5t20 -47.5q13 -69 1 -145.5t-44 -152.5t-80.5 -148t-108.5 -131.5t-129.5 -103.5t-142 -64t-146 -13t-142.5 49q-64 39 -89 104.5t-19.5 146t37 170t80.5 174.5t112 160t131.5 128t138 77.5t131.5 8.5zM114 -79
q23 -63 68.5 -86.5t103 -15.5t123 42.5t128.5 87.5q-23 14 -39 38.5t-25 47.5q-14 35 -19.5 73t-8.5 76l-5 37q-8 2 -19 6.5t-19 10.5l-39.5 -78.5t-36 -77.5l-30.5 -73t-23 -64q-43 14 -63.5 40.5t-6.5 78.5q6 25 24.5 61.5t44 79t56 87.5l61 87t59.5 77.5t52 59.5
q-42 -7 -80.5 -24.5t-69.5 -43.5q-10 -8 -24 -22.5t-26.5 -32t-19.5 -35.5t-2 -33q0 1 -3.5 0l-7 -2t-6 -1.5t-1.5 -0.5q-33 -14 -56 0q-32 -51 -55.5 -104.5t-36.5 -105.5t-13 -100t15 -90zM527 222q7 -13 8 -23q14 -49 32 -94t57 -74q54 58 98.5 124.5t71 133.5t31.5 132
t-20 120q-11 24 -32.5 50t-48 47t-55 33t-53.5 8q-30 -7 -63 -21.5t-68 -37.5q51 6 104 0.5t98 -34.5q28 -18 45 -43.5t23 -54.5t1.5 -59.5t-19.5 -58.5q-29 -52 -76.5 -88t-103.5 -52zM421 277q20 -3 47 4t55.5 21t55 34t46 43.5t28 48.5t0.5 49q-8 23 -31.5 31.5
t-57.5 10.5q-22 -29 -56.5 -86.5t-71.5 -129.5zM658 12l1 -1v1h-1z" />
    <glyph glyph-name="onehalf" unicode="&#xbd;" horiz-adv-x="921" 
d="M706 670q18 9 33 4t25.5 -16t16 -23.5t4.5 -18.5q-29 -16 -79.5 -58.5t-113.5 -103l-134.5 -133.5l-141.5 -149.5l-134 -152t-113 -140.5q-14 8 -27 21t-21 30t-9 38t10 45q12 27 54.5 79.5t104 117.5l134 136.5t145 135.5t137 114.5t109.5 73.5zM800 32q1 -14 0.5 -30
t-4.5 -30.5t-12.5 -27.5t-23.5 -21q-14 -7 -30 -8t-32.5 1.5t-33 7t-29.5 8.5q-27 10 -53 22t-55 19q-4 -6 -8.5 -11t-7.5 -8q-21 -20 -44.5 -20.5t-39 12t-19.5 34t13 47.5q15 23 38 34t49 15l49 35l69.5 51.5l76 60.5t67 62t42.5 55t3 40q-6 8 -24 9.5t-41 -5t-47.5 -20
t-44.5 -34t-31.5 -48t-7.5 -61.5q-17 3 -34 9.5t-30 17.5t-20.5 26t-5.5 35q3 28 31.5 55.5t69.5 48t88.5 31t88.5 4.5q24 -4 45 -20.5t35.5 -40t19.5 -50.5t-3 -51q-12 -33 -46 -65t-77.5 -60.5t-92 -52.5t-89.5 -41q25 -6 49.5 -14t49.5 -14t50 -8.5t52 1.5zM274 681
q10 9 24.5 11t28 0t23.5 -6.5t10 -7.5q-21 -23 -52 -76.5t-64 -123t-65 -147t-55 -148.5q-44 14 -59 50t-4 75q8 25 29.5 73.5t51 103.5t64 108t68.5 88z" />
    <glyph glyph-name="threequarters" unicode="&#xbe;" horiz-adv-x="1068" 
d="M888 670q18 9 33 4t25.5 -16t16 -23.5t4.5 -18.5q-28 -16 -79 -58.5t-114 -103l-134.5 -133.5l-141.5 -149.5l-134.5 -152t-113.5 -140.5q-15 8 -28 21t-20.5 30t-8.5 38t10 45q9 20 35.5 55t66 79.5l88.5 96l103 103.5l109 102.5t107 93.5t97 76.5t79 50.5zM165 395
q-32 29 -35 46.5t12.5 27t44 12t58.5 1.5q22 15 48 35t46.5 40.5t30.5 40.5t0 35q-9 13 -37.5 10.5t-60.5 -17.5t-58 -41t-30 -59q-33 6 -55 29.5t-17 50.5q4 22 28 42t59.5 33.5t78 19.5t84.5 0q24 -4 44.5 -18.5t34 -35.5t17 -45.5t-5.5 -48.5q-11 -26 -43.5 -47
t-70.5 -35q1 -2 5 -2q18 -6 32.5 -20t22.5 -33.5t8.5 -43t-9.5 -47.5q-12 -28 -37 -52t-58 -43.5t-69.5 -33.5t-71 -20.5t-64 -5t-46.5 12.5q-25 16 -32.5 35.5t-4.5 38.5t12.5 34.5t19.5 24.5q15 -19 41.5 -27.5t57.5 -7.5t63 10t58 24t42 35t15 43q-2 32 -38.5 30
t-119.5 -28zM596 96q-11 -7 -25.5 -6.5t-27.5 5t-22 10.5t-9 9l61 45t76.5 63.5t81.5 88t76 116.5q29 -18 40.5 -47.5t-7.5 -64.5q-17 -34 -56.5 -71.5t-90.5 -77.5q26 8 56 16l61 16l38 69.5t41 68t42 61t41 48.5q9 9 23 10.5t27.5 -0.5t24 -6.5t10.5 -7.5q-12 -12 -27 -34
t-32 -52l-36 -66l-38 -75q10 0 18.5 -2t13.5 -4q14 -8 9 -35.5t-29 -61.5q-9 7 -22.5 11t-30.5 6q-25 -56 -45.5 -111.5l-37.5 -104.5q-22 7 -36.5 20.5t-22.5 30t-9.5 35.5t4.5 38l14 37.5t23 54.5q-48 -5 -93 -12t-73 -12z" />
    <glyph glyph-name="onesuperior" unicode="&#xb9;" horiz-adv-x="328" 
d="M290 623q9 9 23.5 10.5t27.5 -0.5t23 -6.5t10 -7.5q-14 -15 -32.5 -44.5t-39 -68.5l-43 -86t-44 -97t-41 -101t-35.5 -98q-44 15 -60 51t-3 74q5 17 16.5 45t27.5 61.5t36 71t42.5 73.5t45.5 68t46 55z" />
    <glyph glyph-name="threesuperior" unicode="&#xb3;" horiz-adv-x="471" 
d="M165 337q-33 28 -36 46t13 27.5t44.5 12t58.5 1.5q22 15 48 34.5t46.5 40.5t30.5 40.5t0 34.5q-9 13 -38 10.5t-60.5 -17.5t-58 -41t-29.5 -59q-17 3 -31 11t-24.5 18.5t-15.5 23.5t-2 27q4 22 28 42t59.5 34t78 20t83.5 0q24 -4 45 -19t34.5 -36t17 -45.5t-6.5 -48.5
q-11 -26 -42.5 -46.5t-70.5 -35.5q2 -2 6 -2q18 -6 32 -20t22 -33.5t8.5 -43t-8.5 -47.5q-12 -27 -37.5 -51t-58.5 -43.5t-70 -33.5t-71.5 -20.5t-63.5 -5.5t-46 12q-26 16 -33.5 36t-4.5 38.5t13 34.5t19 24q15 -19 42 -27t58.5 -7t63.5 10t58 24t42 35t15 43q-2 32 -39 30
t-119 -28z" />
    <glyph glyph-name="twosuperior" unicode="&#xb2;" horiz-adv-x="526" 
d="M405 230q1 -15 0.5 -31t-4.5 -31t-12.5 -27.5t-23.5 -19.5q-14 -8 -30 -9t-32.5 1t-33 7t-30.5 10q-27 8 -53 20t-53 18l-16 -17q-22 -20 -45.5 -20t-39.5 12t-19.5 34t13.5 48q15 23 38.5 34t49.5 14l49 35l70 51.5t76 60.5t66.5 62t42.5 55t3 41q-6 9 -24 9.5t-41 -6
t-48 -20t-45 -34t-31.5 -48t-8.5 -61.5q-17 3 -33.5 10t-29.5 18t-21 25.5t-6 34.5q3 28 31.5 55.5t69.5 48t88.5 30.5t89.5 4q24 -3 45 -20t35.5 -40t19.5 -50t-4 -51q-12 -32 -45 -64t-77 -60.5t-92 -53t-90 -42.5q25 -6 49.5 -14t49.5 -13.5t50.5 -8t51.5 2.5z" />
    <glyph glyph-name="ordmasculine" unicode="&#xba;" horiz-adv-x="462" 
d="M429 607q35 -29 47 -71t6 -89.5t-27.5 -96.5t-53.5 -92.5t-71 -77.5t-80 -52t-81.5 -15.5t-75.5 31.5q-30 26 -39.5 66t-2.5 86.5t27.5 96t51 94t68 80t77 54.5t79.5 17.5t75 -31.5zM117 235q4 -31 29.5 -29.5t60 23.5t73.5 59.5t70.5 79.5t50 82.5t12.5 69.5
q-7 33 -33 34t-60.5 -19t-72 -56.5t-68 -79.5t-49 -86.5t-13.5 -77.5z" />
    <glyph glyph-name="slash" unicode="/" horiz-adv-x="555" 
d="M689 695q18 10 33 8.5t25.5 -8.5t16 -17t4.5 -16q-29 -16 -82 -64t-120 -115.5l-142.5 -149.5l-149.5 -167.5l-141.5 -167.5t-117.5 -150q-22 12 -33.5 26t-11.5 41q0 14 25 51.5t67 90l97 116.5l115.5 129.5l122.5 129.5l117.5 117.5t101 92t73.5 53.5z" />
    <glyph glyph-name="less" unicode="&#x3c;" horiz-adv-x="440" 
d="M292 424q42 16 68.5 8t38.5 -23q-56 -24 -112.5 -66.5t-113.5 -92.5q5 -32 18 -56.5t29.5 -43.5t33 -31t28.5 -18q-17 -17 -34 -29q-15 -11 -32 -18t-33 -2q-18 6 -35 24t-31 44.5t-24 59.5t-14 70q22 22 53 50l62 53.5t57.5 45t40.5 25.5z" />
    <glyph glyph-name="greater" unicode="&#x3e;" horiz-adv-x="442" 
d="M136 59q-21 -8 -41.5 -4t-38 13t-29 21.5t-12.5 22.5l60 26t65.5 30.5t66 36.5t61.5 45q-5 32 -22.5 60.5t-39 51t-42 38t-32.5 21.5q21 6 41 10q17 3 36.5 3.5t36.5 -4.5q35 -12 64.5 -59.5t37.5 -120.5l-52.5 -52.5l-61.5 -59.5t-57.5 -51t-40.5 -28z" />
    <glyph glyph-name="plusminus" unicode="&#xb1;" horiz-adv-x="532" 
d="M313 503q11 10 28.5 12.5t34 0t28.5 -7.5t13 -9q-18 -20 -35.5 -46t-34.5 -58q35 -2 61 -7t37 -13q13 -11 15 -26t0 -29q-3 -17 -11 -34q-14 5 -54.5 10.5t-91.5 7.5q-20 -49 -35.5 -95t-22.5 -83q-53 17 -72.5 60t-4.5 91l11 28q-40 -1 -72 -3.5t-49 -8.5q10 23 27.5 45
t45.5 34q16 6 41 11t54 8q24 38 48.5 68t38.5 44zM342 70q12 -11 14 -26t0 -29q-3 -17 -11 -34q-11 5 -39.5 8.5t-66 6t-80.5 4t-83 0.5t-73 -4t-50 -8q11 22 29 44.5t44 34.5q17 7 44.5 12t59 8t65 3.5t63 -1.5t52 -6.5t32.5 -12.5z" />
    <glyph glyph-name="asterisk" unicode="*" horiz-adv-x="476" 
d="M409 633q18 12 37 14.5t34 -1t25 -12t10 -17.5l-72.5 -51t-79.5 -64q39 4 68.5 5.5t43.5 -7.5q14 -11 16.5 -27t-0.5 -31q-4 -18 -12 -37q-14 5 -52.5 14.5t-90.5 14.5q10 -27 22 -52t23.5 -45.5t21 -35t15.5 -19.5q-20 -13 -40 -21q-17 -7 -36.5 -10t-33.5 5
q-9 4 -15.5 18t-11 33.5t-8.5 43.5l-8 50q-41 -48 -72.5 -93.5l-54.5 -79.5q-25 6 -36.5 21t-11 35.5t11.5 44.5t32 50q11 14 27.5 27l33.5 27q-37 -4 -65 -10t-47 -11q-1 11 2.5 24t10.5 25.5t18 22.5t26 16q17 6 43 5t56 -3q-8 24 -13 43.5t-1 32.5q3 13 13 23.5t23 18.5
t27 13.5l25 9.5q-2 -17 -5 -47t2 -66q33 33 57 61.5t42 41.5z" />
    <glyph glyph-name="equal" unicode="=" horiz-adv-x="551" 
d="M467 379q13 -11 15.5 -26t0.5 -29q-3 -17 -11 -34q-11 5 -39.5 9t-66.5 6.5t-81 3.5t-83 0t-73 -4t-50 -8q11 23 29 45t44 33q17 7 44.5 12t59 8t65 3.5t63 -1t51.5 -6.5t32 -12zM400 241q13 -11 14.5 -26t-0.5 -29q-4 -17 -11 -34q-11 5 -39 9t-66 6.5t-80.5 3.5
t-82.5 0t-73 -4t-50 -8q11 22 29 44.5t44 34.5q17 7 44.5 12t59 8t65 3.5t63 -1.5t51.5 -6.5t32 -12.5z" />
    <glyph glyph-name="multiply" unicode="&#xd7;" horiz-adv-x="502" 
d="M377 441q19 11 39.5 13.5t37.5 0t27 -8.5t8 -10q-45 -26 -99.5 -67.5t-112.5 -90.5q12 -29 24.5 -56t24.5 -49.5t22.5 -38t17.5 -21.5q-16 -14 -34 -24q-15 -8 -32.5 -13t-33.5 1q-9 3 -18.5 14t-19 28t-19 38.5t-17.5 44.5l-76 -73.5t-61 -64.5q-24 9 -34 25t-8 36
t16 43.5t37 46.5q19 20 44 41t54 42q-5 23 -6.5 41.5t-0.5 31.5q2 13 10 24t18.5 19.5t22 15t21.5 11.5q-1 -13 4.5 -34.5t13.5 -47.5l75.5 49t54.5 33z" />
    <glyph glyph-name="minus" unicode="&#x2212;" horiz-adv-x="475" 
d="M400 315q14 -11 16 -26.5t0 -29.5q-3 -17 -11 -34q-11 5 -40 9t-66.5 6.5t-80.5 3.5t-83 0t-73 -4t-50 -9q11 23 29 45.5t44 33.5q17 7 44.5 12.5t59 8.5t65 3.5t63 -1t51.5 -6.5t32 -12z" />
    <glyph glyph-name="plus" unicode="+" horiz-adv-x="487" 
d="M268 441q10 11 27 13.5t33.5 0t28.5 -8.5t13 -10q-18 -17 -35 -43t-34 -58q34 -2 60.5 -7t37.5 -13q13 -11 15 -26.5t0 -29.5q-3 -17 -11 -34q-14 6 -54.5 10.5t-91.5 6.5q-20 -48 -35.5 -95t-22.5 -83q-27 9 -45 25t-27.5 36t-11 43.5t5.5 46.5q2 8 5 15t6 15
q-40 -2 -71.5 -5.5t-48.5 -8.5q11 23 28.5 45.5t44.5 33.5q15 7 40.5 12.5t55.5 7.5q25 37 49 67.5t38 43.5z" />
    <glyph glyph-name="paragraph" unicode="&#xb6;" horiz-adv-x="695" 
d="M303 635q5 1 10 2.5t10 1.5l19 9q23 10 60 17t80.5 11t89 5t86 -2t71 -9.5t43.5 -17.5q17 -14 20.5 -34t0.5 -40q-4 -23 -15 -47q-14 5 -47 10t-79 9q-69 -81 -122 -176t-101 -190l-97.5 -202.5t-84.5 -210.5q-22 1 -26 27t2.5 64.5t21 85t30 88l28 72.5t16.5 40
l40 104.5t44.5 104.5t50 102.5t57.5 97.5q-17 1 -32.5 1h-31.5q-69 -82 -122.5 -177.5t-101.5 -190.5l-98.5 -204.5t-84.5 -208.5q-21 0 -25.5 25.5t2.5 64.5t21 85t29 87.5t27.5 73t16.5 40.5l53.5 136.5t61.5 135.5q-13 3 -27 9t-24.5 15t-15.5 21.5t-2 28.5q9 48 47.5 85
t98.5 51z" />
    <glyph glyph-name="cent" unicode="&#xa2;" horiz-adv-x="484" 
d="M87 -82q-9 0 -12.5 9.5t-3 25t5.5 36t12 43.5q-50 24 -67 69.5t-8.5 101t38 115t73 111t96 90t107.5 52.5l16 26.5t20 27t24.5 21t29.5 10.5q7 1 16 -0.5t17.5 -6t15 -11t6.5 -14.5q1 -4 -4 -10.5t-12 -13.5l-14 -13.5t-10 -9.5l-7 -8q14 -5 20 -16.5t1 -23.5l32 10
q19 5 34 4.5t23 -5t7.5 -12t-12.5 -16.5t-25 -24t-24.5 -33t-20 -37.5t-11.5 -37.5q-1 -9 -16.5 -9.5t-32.5 6t-30 20.5t-8 35q6 36 35 65q-5 3 -9.5 4.5t-9.5 3.5q-38 -59 -72 -121l-66 -125l-37 -71.5l-35 -72.5q27 -6 59.5 3t62 26.5t52 39.5t31.5 40q2 4 10 -0.5
t2 -23.5q-8 -24 -34 -57.5t-62 -62.5t-78.5 -46.5t-83.5 -11.5l-21.5 -51t-19.5 -51zM274 481q-40 -26 -74 -71.5t-56 -95.5t-28.5 -96.5t10.5 -74.5l19 47t11 25l55.5 134.5t62.5 131.5z" />
    <glyph glyph-name="Euro" unicode="&#x20ac;" horiz-adv-x="585" 
d="M67 354q-5 17 0.5 28.5t16.5 19t25.5 12.5t27.5 8l38 8q36 46 78.5 84.5t88.5 64t93.5 35t91.5 -2.5q20 -7 27.5 -20.5t0.5 -28.5q9 3 18 6.5t20 5.5q21 6 38 5t26.5 -6t9 -13.5t-14.5 -18.5t-29.5 -27t-28 -37.5t-22 -43t-11.5 -42.5q-2 -11 -20 -11.5t-37.5 7
t-34.5 23.5t-10 40q3 20 14 38.5t26 34.5q-26 13 -52.5 12.5t-53 -11.5t-52 -31t-48.5 -46q14 1 29.5 1.5t31 -1t30 -6t26.5 -13.5q14 -11 16 -24t-3 -26.5t-14 -27l-16 -23.5v-3h-1q-1 0 -1 1q-5 12 -22 18.5t-37.5 10t-40 5t-29.5 1.5q-7 0 -14 1l-14 2l-18 -35
q13 1 30 0.5t34 -3.5t32.5 -9t24.5 -16q10 -13 9.5 -25.5t-6.5 -24.5t-15.5 -23.5l-16.5 -20.5l-4 -4q-5 12 -19.5 19.5t-32 12t-34.5 7t-26 4.5h-5q-11 -47 -6.5 -85t30.5 -57q29 -21 69.5 -15.5t79.5 25.5t70.5 48t42.5 52q1 3 5 3t7.5 -3t4.5 -9.5t-2 -17.5
q-7 -19 -24.5 -45t-42.5 -51.5t-56 -49t-64.5 -38.5t-68.5 -19.5t-68 8.5q-41 15 -65 42t-33.5 61.5t-6 75.5t17.5 84q-17 0 -33.5 -1t-31.5 -4q-3 17 2 28.5t14.5 18.5t23 10.5t26.5 5.5l26 5q5 11 12 22.5t13 23.5q-16 -1 -31.5 -3.5t-30.5 -5.5z" />
    <glyph glyph-name="yen" unicode="&#xa5;" horiz-adv-x="507" 
d="M26 114q-4 17 1 28t15.5 18t24 11l27.5 8q27 6 54 9q12 24 25.5 45.5l26.5 40.5q-23 5 -38.5 21t-17.5 45q-2 23 1.5 45t10 43t14 41.5l14.5 41.5q1 2 4 8.5t5.5 13.5t3.5 13t-1 8q-3 6 -16 1q-19 -17 -40.5 -41.5t-41 -51.5t-34.5 -53.5t-20 -45.5q-15 13 -22.5 27
t-10 27t-1 25t4.5 21q4 11 15 26t26.5 31.5t33.5 32.5t36 29q14 15 32.5 27.5t35.5 18.5q36 11 56.5 -9.5t27.5 -51.5q8 -35 0.5 -70t-13.5 -68q-12 -51 -10 -105l11 7q17 12 31 25t26 27q22 25 44 54.5t39 62t28 66.5t11 69q14 -4 30 -10t31 -14.5t26.5 -20.5t16.5 -28
q4 -14 1.5 -28.5t-8.5 -29.5t-15 -28.5t-16 -25.5q-18 -29 -41.5 -58t-50.5 -55t-57.5 -46.5t-63.5 -32.5q-11 -4 -26 -4q-7 -13 -13 -28t-12 -32q13 0 28 -1t29.5 -4t27 -9t20.5 -16q10 -12 9 -24.5t-7.5 -25t-16.5 -24t-17 -21.5v-2q-3 10 -15 17t-27.5 12t-31.5 8t-28 5
q-14 -47 -20 -90t0 -73q-73 23 -88 102q-3 14 0 32.5t10 37.5q-51 5 -94 -4z" />
    <glyph glyph-name="sterling" unicode="&#xa3;" 
d="M151 257q-5 18 0 29.5t16 19.5t25 12.5t28 8.5l34 8q22 45 47.5 89t52 81.5t53.5 66.5t53 44q22 13 48 10.5t49 -14.5t41.5 -30t26.5 -36q14 9 30.5 16.5t34.5 11.5q22 6 39 5t26.5 -6t8.5 -13.5t-15 -18.5t-29 -27t-28 -37.5t-22 -43t-12 -42.5q-2 -11 -19.5 -11.5
t-38 7t-35.5 23.5t-10 40q7 28 22 49q-36 20 -80 -2q-38 -19 -73.5 -58.5t-67.5 -88.5h12q14 1 31 2.5t34 0t33 -6t28 -14.5q15 -12 14.5 -29t-7.5 -33.5t-16 -29t-9 -13.5q-5 12 -22 19.5t-38 11t-41 5t-30 2.5q-9 0 -18 0.5t-17 0.5q-14 -25 -25.5 -49t-19.5 -45
q29 -6 58.5 -14.5l59.5 -16.5l96 -24q3 -1 13.5 -4l22 -6t21.5 -3.5t13 2.5q1 -23 -1 -46t-24 -40q-19 -14 -42 -16t-46 3q-51 8 -100 24.5t-99 30.5l-37 9q-7 -11 -16.5 -22.5t-12.5 -16.5q-20 -24 -49.5 -40t-62.5 -4q-23 9 -35 26.5t-14.5 38t4.5 41.5t22 37
q29 33 69 42.5t81 7.5l16.5 41.5t19.5 43.5q-38 -2 -71 -9zM132 43q19 5 31 14.5t20 17.5q-24 5 -46.5 4t-39.5 -15q-14 -9 -13 -14.5t9.5 -7.5t19.5 -2t19 3z" />
    <glyph glyph-name="macron" unicode="&#xaf;" horiz-adv-x="321" 
d="M15 553q-10 32 8.5 53t48.5 33.5t64 19t57 9.5q12 1 27.5 2.5t30.5 0t27.5 -7.5t19.5 -19q7 -12 9.5 -27t2 -31t-2.5 -31.5t-4 -28.5q-28 19 -65 28t-76 11t-77.5 -2t-69.5 -10z" />
    <glyph glyph-name="asciitilde" unicode="~" horiz-adv-x="430" 
d="M66 239q7 13 20 25t28.5 20t33.5 11t36 -3q8 -3 16.5 -10l18 -14.5t20 -13.5t22.5 -6q23 0 42 18t35 41q10 -10 16.5 -23.5t9 -27.5t0 -27.5t-8.5 -22.5q-11 -17 -31.5 -30.5t-41.5 -21t-40 -9.5t-27 3q-3 1 -12.5 10t-21 18t-23.5 15.5t-20 3.5q-16 -3 -29.5 -19
t-22.5 -36q-20 20 -27 49.5t7 49.5z" />
    <glyph glyph-name="dieresis" unicode="&#xa8;" horiz-adv-x="330" 
d="M12 538q7 21 15.5 41t17.5 36t17 27t16 14t23.5 2t30.5 -7t25.5 -19t7.5 -34t-18.5 -39t-38 -28t-48 -9.5t-48.5 16.5zM165 538q8 21 16.5 41t17 36t16.5 27t16 14q7 3 22.5 2t30.5 -7t25.5 -19t7.5 -34t-18.5 -39t-37.5 -28t-47.5 -9.5t-48.5 16.5z" />
    <glyph glyph-name="tilde" unicode="&#x2dc;" horiz-adv-x="332" 
d="M21 614q8 12 20.5 24t28.5 20t33.5 11t35.5 -3q8 -2 16.5 -9.5l18 -15.5t20 -14t22.5 -6q24 0 43 18.5t34 41.5q10 -10 16.5 -23.5t9 -27.5t0.5 -27.5t-9 -23.5q-11 -17 -31 -29.5t-41.5 -20.5t-40.5 -10t-26 3q-4 1 -13.5 10t-20.5 18t-23 15.5t-20 4.5q-17 -5 -30 -20
t-22 -35q-20 20 -27 49.5t6 49.5z" />
    <glyph glyph-name="acute" unicode="&#xb4;" horiz-adv-x="263" 
d="M200 754l24.5 -34t21.5 -39.5t7 -40t-19 -35.5q-15 -13 -35.5 -27.5t-43 -27.5t-45.5 -22.5t-43 -12.5q-6 -1 -14 0t-16 4.5t-14 10.5t-8 17q24 13 50.5 38t52 54t47.5 59.5t35 55.5z" />
    <glyph glyph-name="ogonek" unicode="&#x2db;" horiz-adv-x="278" 
d="M139 -242h-28.5t-31 2.5t-29.5 7.5t-24 15q-17 17 -13.5 39.5t11.5 42.5q23 54 67 96.5t95 69.5q5 3 16 8.5t23 10t23 6t17 -4.5q3 -4 0.5 -8.5t-7.5 -9t-11 -9t-9 -7.5q-12 -10 -21.5 -19.5l-20.5 -20.5q-16 -20 -33.5 -47t-28.5 -57t-11.5 -60t16.5 -55z" />
    <glyph glyph-name="cedilla" unicode="&#xb8;" horiz-adv-x="251" 
d="M198 14q13 7 21 -2t12.5 -24t5.5 -30.5t1 -22.5q-2 -26 -12.5 -50t-25.5 -46l-17.5 -24t-20.5 -24.5t-23.5 -20.5t-25.5 -12q-17 -5 -32.5 3t-28.5 22t-23.5 30.5t-16.5 29.5q31 3 66.5 16t64 34.5t45 52t10.5 68.5z" />
    <glyph glyph-name="ring" unicode="&#x2da;" horiz-adv-x="332" 
d="M281 561q-21 -20 -53.5 -31.5t-60.5 -15.5q-26 -5 -58.5 -1t-57.5 17t-35.5 36.5t7.5 58.5q2 5 11 16q-5 23 17 45q23 20 54.5 31t60.5 16q25 4 57.5 0.5t57.5 -17t35.5 -37t-7.5 -59.5l-11 -15q5 -24 -17 -44zM66 585q7 -12 22 -14t32.5 0.5t33 8t24.5 9.5
q25 12 49 29.5t41 40.5q-2 0 -2 2q-6 12 -21 14.5t-32 -0.5t-32.5 -9t-24.5 -10q-27 -11 -51 -29t-41 -41v-1h2z" />
    <glyph glyph-name="caron" unicode="&#x2c7;" horiz-adv-x="286" 
d="M178 551l-32.5 -15t-40 -14.5t-39 -5t-30.5 13.5q-11 12 -17.5 32t-9.5 42.5t-3 44.5t1 38q2 15 14 30t41 20q12 -26 23 -54.5t25 -54.5q2 5 5 9l7 9q20 19 48.5 38.5t54.5 29.5q4 1 11 1.5t14.5 -1.5t14.5 -8t12 -16q-14 -8 -30 -22t-32 -31.5t-31 -36.5t-25 -36
l9.5 -7.5t9.5 -5.5z" />
    <glyph glyph-name="circumflex" unicode="&#x2c6;" horiz-adv-x="286" 
d="M103 693q13 5 32 14t39.5 15t39.5 5.5t31 -13.5q11 -12 17 -32.5t9 -43t3.5 -44t-0.5 -37.5q-2 -17 -14.5 -31t-40.5 -19q-13 26 -24.5 53.5t-25.5 55.5q-3 -10 -12 -18q-20 -20 -47.5 -39t-53.5 -29q-4 -2 -11 -2t-14.5 2t-15 7.5t-11.5 15.5q13 7 29 21.5t32 32
t30.5 36.5t25.5 36l-18 14v0z" />
    <glyph glyph-name="grave" unicode="`" horiz-adv-x="214" 
d="M12 693l32 18t39.5 18t40 6.5t32.5 -16.5q11 -14 19.5 -34.5t14 -43t8.5 -44.5t4 -40q0 -19 -12.5 -34t-32.5 -20q-6 23 -21.5 51t-35.5 55t-43.5 49.5t-44.5 34.5z" />
    <glyph glyph-name="breve" unicode="&#x2d8;" horiz-adv-x="308" 
d="M210 740l26 -18t27 -21.5t22 -25.5t10 -29t-6.5 -28t-18.5 -24.5t-24 -21t-24 -15.5q-23 -15 -55.5 -25t-63.5 -9t-56 16.5t-33 52.5q-3 12 -2 27t5.5 29.5t12.5 26.5t19 20q4 3 12 5t16 2.5t15 -2.5t9 -11q1 -3 -1.5 -9.5l-5.5 -14l-6 -15t-3 -11.5q-2 -17 3 -23
t14.5 -5t20.5 7t21 13q26 19 43.5 48t22.5 61z" />
    <glyph glyph-name="parenleft" unicode="(" horiz-adv-x="391" 
d="M167 -129q-16 -24 -34.5 -16.5t-34 29t-26.5 47.5t-13 37q-11 59 -1 119.5t28 116.5q17 52 40.5 106t52.5 105.5t62.5 99t70.5 86.5l28.5 29t32.5 30.5t35.5 25.5t38.5 15q23 4 45.5 -4.5t38.5 -25.5l6.5 -6.5t8.5 -10.5t6 -11.5t1 -8.5q0 -2 -4.5 -5.5t-10.5 -6.5
l-12 -6t-8 -5q-44 -31 -85.5 -70t-79 -83t-70.5 -91t-61 -93q-24 -38 -49.5 -90.5t-39 -108.5t-9 -109.5t42.5 -94.5z" />
    <glyph glyph-name="parenright" unicode=")" horiz-adv-x="399" 
d="M219 658q19 19 40.5 31.5t43 13.5t41 -10.5t34.5 -40.5q13 -25 17.5 -53t3.5 -56.5t-7 -57t-13 -53.5q-16 -54 -42.5 -111t-60 -111.5t-71 -104.5t-75.5 -90q-32 -34 -67 -65.5t-71 -58.5l-35.5 -23t-38.5 -13q-7 0 -14.5 1.5t-11.5 8.5q-5 11 2.5 17.5t15.5 14.5
q79 72 148 156t120 180q13 25 27.5 56.5t26.5 64.5t21.5 66t14.5 61q3 21 4 47t-3.5 50.5t-16 46t-33.5 33.5z" />
    <glyph glyph-name="quotesingle" unicode="'" horiz-adv-x="14" 
d="M35 487l22.5 57.5l27.5 70.5t27.5 61.5t21.5 29.5q9 3 25 2t31 -8t25 -21t7 -36t-23 -55t-48 -61t-59.5 -42t-56.5 2z" />
    <glyph glyph-name="bracketleft" unicode="[" horiz-adv-x="445" 
d="M274 -41q14 -11 17 -29.5t0 -36.5q-4 -21 -13 -45q-16 9 -50 15t-73 8t-78 -1t-65 -13q10 29 34 50q-10 20 -8 54.5t10.5 75.5t21 84.5t25.5 81.5l23 66.5l14 39.5l26 71.5t33 83t37 82t38 67.5q14 20 31 37.5t43 19.5h12t13 -2q26 20 58 32t62.5 16.5t55.5 2t38 -11.5
q15 -11 17 -29.5t-1 -36.5q-4 -21 -13 -44q-19 9 -61 16t-88 8q0 -1 1 -1q-31 -23 -53.5 -59l-42.5 -67q-13 -22 -29 -53.5l-32 -65l-31 -66l-26 -55.5q-37 -77 -70 -155.5t-60 -159.5q25 13 53 20.5t53.5 10t46 -0.5t31.5 -10z" />
    <glyph glyph-name="bracketright" unicode="]" horiz-adv-x="460" 
d="M370 698q9 -2 18.5 -5l18.5 -6h2q31 -14 51.5 -39.5t16.5 -66.5q-5 -42 -23.5 -83l-35.5 -78l-48 -98.5l-57 -108.5l-60 -106.5t-57 -93.5l-39.5 -61t-50.5 -53l-21 -8q-26 -21 -58.5 -33.5t-63.5 -17.5t-56.5 -2.5t-37.5 11.5q-15 11 -18 29.5t0 36.5q4 21 13 45
q12 -7 35 -12t51 -8t58.5 -3.5t58.5 2.5l26 33l47.5 92.5l50 105.5l47 107t39.5 97l35.5 99.5t31.5 100.5l14 49q-26 -20 -57.5 -31.5t-62 -16t-55.5 -2t-37 11.5q-15 11 -18 29.5t0 36.5q4 21 13 45q14 -8 40.5 -13.5t58.5 -8.5t65.5 -3t62.5 5q0 6 1 11.5t1 10.5z" />
    <glyph glyph-name="braceleft" unicode="{" horiz-adv-x="397" 
d="M69 261q-5 19 -7.5 41.5t0.5 44t12.5 40.5t29.5 31q19 13 37 23.5t34 22.5t30.5 26t27.5 34q12 21 25.5 49.5l28.5 58t31.5 56t36.5 41.5q11 9 26.5 17.5t32.5 14t34.5 6.5t32.5 -6q7 -3 13.5 -8t9.5 -13q4 -17 -2.5 -19t-16.5 -6q-11 -5 -22 -9t-21.5 -8.5t-20 -10.5
t-18.5 -16q-16 -18 -28.5 -47.5t-23.5 -62l-21.5 -64t-21.5 -52.5q-26 -47 -62.5 -78t-78.5 -56q35 -40 29 -93q-2 -18 -8.5 -43.5l-13.5 -51.5t-12.5 -51.5t-4.5 -43.5q5 -36 27 -63t54 -39q-10 -11 -23.5 -23t-28.5 -22t-31.5 -15.5t-33.5 -2.5q-16 3 -27.5 13.5t-20 25
t-14 30.5t-8.5 30q-3 18 -2 43t5.5 51t11 50.5t12.5 41.5q5 12 13.5 27l16.5 30.5t12 31t0 29.5l-8 15l-43 -20v0z" />
    <glyph glyph-name="braceright" unicode="}" horiz-adv-x="448" 
d="M375 362q6 -20 8 -42t-1 -43.5t-12.5 -40.5t-27.5 -32l-37.5 -22.5t-34 -22.5t-31.5 -26.5t-28 -34.5q-12 -20 -25 -49l-27.5 -58.5t-31.5 -55.5t-36 -41q-12 -9 -27.5 -18t-32.5 -14.5t-34 -6.5t-32 5q-8 4 -15 9.5t-9 14.5q-5 16 1.5 17.5t16.5 5.5q24 11 44 17t39 26
q16 19 28.5 49t23.5 62.5l21.5 63t22.5 51.5q26 47 61.5 78.5t77.5 56.5q-34 40 -28 94q2 18 9 43l14 51t11.5 51.5t2.5 43.5q-2 37 -25 63t-55 39l24 22.5t28 23t31.5 16t33.5 2.5q16 -3 27.5 -14t20 -25.5t14 -31t8.5 -29.5q4 -18 3 -43t-5.5 -51t-10.5 -50.5t-13 -40.5
q-5 -13 -14 -28t-16.5 -30.5t-12 -31.5t0.5 -30q2 -4 3 -7.5t4 -7.5l43 22v0z" />
    <glyph glyph-name="bar" unicode="|" horiz-adv-x="397" 
d="M43 -266q-22 0 -28 26t-1 65.5t17 87t25 90t24 75t14 42.5q38 116 80.5 231.5t99.5 224.5l22 40t26.5 41.5t32.5 34.5t40 18q11 2 24.5 0.5t26 -6.5t22.5 -13.5t14 -19.5q5 -10 0.5 -13t-13.5 -14l-28 -37q-71 -100 -124 -209.5l-103 -221.5l-91.5 -219t-79.5 -223z" />
    <glyph glyph-name="exclam" unicode="!" horiz-adv-x="260" 
d="M-14 -18l15.5 42.5t14.5 37.5t14 28.5t16 14.5q8 3 26.5 2t37.5 -7.5t32 -20.5t10 -36t-20.5 -40.5t-41.5 -28.5t-51.5 -9.5t-52.5 17.5zM136 216q-26 3 -35 25t-6 53t14 67.5t24 70.5t25 61l17 39q17 40 38.5 79t49.5 72q16 18 33 31t43 8t49 -21.5t39 -36.5
q-57 -38 -99.5 -93.5t-77.5 -113.5q-35 -57 -64.5 -117t-49.5 -124z" />
    <glyph glyph-name="hyphen" unicode="-" horiz-adv-x="410" 
d="M311 289q15 -11 17.5 -29.5t-0.5 -36.5q-4 -21 -13 -44q-16 9 -50 15t-73.5 8t-78.5 -1.5t-65 -13.5q10 27 30.5 47t46 34t54 22t54.5 10.5t46.5 -0.5t31.5 -11z" />
    <glyph glyph-name="quotedbl" unicode="&#x22;" horiz-adv-x="301" 
d="M58 403l21 58l26.5 70.5t26.5 60.5t21 29t23.5 2t30 -7.5t24 -19.5t6.5 -35q-3 -23 -22.5 -56.5t-46.5 -61.5t-56.5 -42.5t-53.5 2.5zM199 403l23.5 53l30 65.5t30.5 57t24 27.5t25.5 0t31.5 -11t25 -22t6 -35q-3 -21 -24 -50t-50 -53t-62 -35.5t-60 3.5z" />
    <glyph glyph-name="period" unicode="." horiz-adv-x="241" 
d="M-12 11q9 22 16 42.5t14 37t14.5 28t15.5 14.5t27 2t37.5 -7.5t31.5 -20.5t9 -36q-3 -22 -20 -40.5t-41 -28.5t-51.5 -9t-52.5 18z" />
    <glyph glyph-name="comma" unicode="," horiz-adv-x="261" 
d="M-47 -85q9 22 22 57.5t27.5 70t27.5 61t21 29.5q9 3 26 2t33.5 -7.5t27.5 -20.5t8 -36q-2 -14 -12.5 -34.5t-26.5 -41.5t-36 -40.5t-40.5 -32t-41 -15.5t-36.5 8z" />
    <glyph glyph-name="zero" unicode="0" horiz-adv-x="1654" 
d="M254 191l-27 -144l-26 144h-37l-4 -229h36l1 93l17 -93h27l19 94l2 -94h33l-2 229h-39zM1009 191q-34 0 -44.5 -19t-10.5 -51v-89q0 -32 10.5 -50.5t42.5 -19.5q8 -15 16.5 -23t24.5 -8l12 25q-17 -2 -31 8q20 6 27.5 24t7.5 44v89q0 32 -10.5 51t-44.5 19zM890 638
q-47 0 -56 47q-1 9 -1 18.5v20.5q0 21 -1 45.5t4 45.5q5 18 19 26.5t31 9.5q17 0 33 -7t23 -25q7 -20 6.5 -44t-0.5 -46q0 -13 -0.5 -25t-3.5 -23q-9 -43 -54 -43zM835 401q-22 0 -36.5 11t-18.5 33q-2 11 -1.5 21t0.5 21q0 21 -1 45t4 44q5 19 18.5 27t31.5 8q19 1 34 -5.5
t21 -23.5q8 -21 6.5 -45.5t-1.5 -44.5v-25.5t-2 -23.5q-9 -42 -55 -42zM393 81l-39 110h-30v-229h36v112l40 -112h29v229h-36v-110zM682 47h23v-14.5t-1.5 -19t-6.5 -15.5t-15 -2q-6 1 -9 7.5t-3.5 14t0 15t0.5 12.5v54q0 11 -0.5 25t1.5 25q3 4 8 7.5t10 2.5q12 -4 13 -14
q1 -8 1 -17v-18h38q0 10 -0.5 21t-2.5 21.5t-7 19.5t-15 15q-11 7 -25 7.5t-27 -4.5q-15 -5 -22.5 -18.5t-10.5 -27.5q-2 -17 -1.5 -33.5t0.5 -33.5t-0.5 -32t1.5 -32q2 -13 7 -27t17 -20q11 -8 28 -8t28 11l1 -7h30v119h-60v-34zM1155 191v-158q0 -23 -3 -30t-14 -7t-14 7
t-3 30v158h-38v-159q0 -32 11 -51t44 -19q34 0 45 19t11 51v159h-39zM581 640v210h42.5t39.5 -9q11 -7 17 -21t6 -29t-6 -28t-19 -18l28 -105h-28l-27 99h-23v-99h-30zM586 81l-19 21l-12 11.5t-9 15.5q-2 7 0.5 19t13.5 11q6 -1 9 -6.5t4 -12t1.5 -14t0.5 -12.5l36 2
q0 22 -5 43.5t-25 29.5q-12 6 -24.5 5t-22.5 -6.5t-17 -16t-8 -23.5q-2 -14 0.5 -27.5t10.5 -24.5q2 -7 8 -12t11 -11l23.5 -26.5t12.5 -31.5q0 -7 -1.5 -12.5t-7.5 -6.5q-10 -4 -14 8q-5 9 -6 19.5l-2 21.5l-36 -3q0 -15 1.5 -28t7.5 -27q8 -17 23 -24t32 -3
q18 3 28.5 16.5t11.5 28.5q6 43 -26 76zM870 191l-42 -229h39l9 54h25l7 -54h38l-40 229h-36zM1245 191l-42 -229h38l9 54h25l7 -54h38l-40 229h-35zM353 640v210h44q17 0 30.5 -3.5t21.5 -20.5q9 -18 8 -41.5t-18 -36.5q-11 -10 -27 -10h-30v-98h-29zM921 403v208h20
l59 -140v140h25v-208h-19l-61 141v-141h-24zM976 640v210h20l58 -140v140h25v-210h-19l-60 142v-142h-24zM1460 158h46v33h-84v-229h84v34h-46v66h36v34h-36v62zM1100 640l44 210h29l43 -210h-26l-11 52h-42l-10 -52h-27zM433 403q-9 -3 -20 -3.5t-21 3t-18.5 10.5t-12.5 18
q-5 11 -5.5 23t-0.5 27v130h28v-140q0 -11 1.5 -26t15.5 -23q12 -3 19 0.5t11.5 10.5t6 16.5t1.5 18.5q1 17 0.5 33t-0.5 34v76h30v-96q0 -13 0.5 -30t-2 -33.5t-10 -29.5t-23.5 -19zM1339 -38h38v195h29v34h-95v-34h28v-195zM764 638q-26 0 -40.5 17.5t-15.5 42.5l26 7
l4 -20t8 -16q7 -7 17 -8t17 5q8 8 7.5 20t-6.5 22q-4 5 -9.5 10.5t-13.5 11.5q-10 9 -21.5 18t-18.5 20q-13 23 -7.5 48.5t30.5 32.5q11 2 25.5 1t24.5 -8q11 -8 14.5 -20.5t3.5 -24.5l-22 -7q-2 11 -5.5 23.5t-17.5 15.5q-10 1 -18 -4t-10 -14q-3 -18 9.5 -30.5t24.5 -20.5
q14 -13 26 -26t17 -31q5 -26 -8.5 -45.5t-40.5 -19.5zM546 401q-27 0 -40 17t-15 43l28 7q0 -10 1.5 -20t7.5 -17q7 -8 16.5 -8.5t17.5 5.5q9 8 8 20.5t-7 20.5q-4 6 -9.5 12t-13.5 11l-21.5 19t-18.5 21q-6 10 -8 22.5t1 23.5t10.5 20t19.5 13q11 2 25.5 1t25.5 -8
q10 -8 13.5 -20.5t4.5 -24.5l-23 -8q-1 12 -5 24t-18 15q-9 2 -17 -3t-10 -16q-5 -17 8 -28l25 -22q14 -12 26 -24.5t15 -32.5q7 -24 -7 -43.5t-40 -19.5zM750 -67h33l65 288h-37zM618 403v208h82v-23h-52v-68h42v-21h-42v-78h52v-18h-82zM477 640v210h81v-23h-52v-67h42
v-22h-42v-78h53v-20h-82zM821 425q6 -4 14 -4t13 4q8 5 11 12.5t5 15.5q1 5 0.5 10.5t-0.5 10.5v74q0 9 -0.5 18.5t-8.5 16.5q-12 12 -26 7q-15 -4 -20 -20q-3 -14 -2 -32t1 -34v-37q0 -11 1 -23.5t12 -18.5zM1191 403v42q0 8 0.5 16.5t-0.5 15.5q-2 11 -6 20.5t-9 19.5
l-29 94h27l31 -100l30 100h29l-14 -43.5t-15 -43.5l-14 -43q-3 -8 -2.5 -15t0.5 -12v-51h-28zM878 662q5 -2 12.5 -2t13.5 2q9 5 11 12t3 15v97q0 9 -0.5 18.5t-8.5 15.5q-5 7 -11.5 8t-13.5 -1q-16 -1 -19 -17q-5 -15 -3 -33.5t2 -33.5v-39q0 -11 0.5 -23.5t13.5 -18.5z
M1239 640v210h28v-190h54v-20h-82zM1058 403v208h28v-190h53v-18h-81zM381 -337q-13 0 -19.5 6t-8.5 14.5t-2 18.5v18q0 10 0.5 19.5t3.5 17t10 11.5t19 3q11 -1 16.5 -6.5t8 -13.5t2.5 -17v-18q0 -8 -0.5 -17.5t-3 -17.5t-8.5 -13t-18 -5zM471 -205q-12 0 -18.5 6
t-8.5 14.5t-2 19v19.5t0.5 18t3.5 16.5t9.5 12t18.5 3.5q21 -2 24 -20t3 -35q0 -8 -0.5 -17.5t-3 -17.5t-8.5 -13.5t-18 -5.5zM1279 -337q-12 0 -18.5 6t-9 14.5t-2.5 18.5v18q0 10 0.5 19.5t3.5 17t10 11.5t19 3t17 -6.5t7 -13.5t1.5 -17t-0.5 -18v-17.5t-2.5 -17.5
t-8.5 -13t-17 -5zM1216 -203v106q11 0 24 0.5t23 -7.5q9 -8 8.5 -22t-0.5 -25v-25.5t-12 -21.5q-8 -7 -20.5 -6t-22.5 1zM1009 158q10 0 13.5 -6.5t3.5 -28.5v-90q0 -23 -3 -30t-14 -7t-14 7t-3 30v90q0 22 3.5 28.5t13.5 6.5zM424 -336l2 106h16l19 -85l17 85h15l1 -106
h-11l-1 78l-18 -78h-10l-17 78l-1 -78h-12zM651 -336v106q11 0 21.5 1t19.5 -4q6 -4 9 -11t3 -15t-3 -14.5t-10 -9.5l15 -53h-14l-13 51h-11v-51h-17zM510 -336l2 106h15l19 -85l19 85h15l1 -106h-10l-2 78l-18 -78h-10l-16 78l-2 -78h-13zM515 -203v106q9 0 20 1t19 -4
q6 -3 10 -10.5t4.5 -15.5t-3 -15t-11.5 -10l16 -52h-15l-15 49h-11v-49h-14zM1088 -336v106q10 0 20.5 1t20.5 -4q6 -4 9 -11t3.5 -15t-2.5 -14.5t-10 -9.5l13 -53h-13l-13 51h-13v-51h-15zM526 244v108h26.5t23.5 -11q3 -9 2.5 -22t-8.5 -19q-7 -5 -14.5 -5.5t-15.5 -0.5
v-50h-14zM667 -203v106h13v-47h28v47h16v-106h-16v49h-28v-49h-13zM1147 -203v106h9l31 -71v71h12v-106h-9l-31 71v-71h-12zM689 244l23 108h14l24 -108h-16l-5 28h-22l-5 -28h-13zM1324 -336v106h9l32 -71v71h11v-106h-10l-31 73v-73h-11zM1077 -203l21 106h16l22 -106h-14
l-6 26h-21l-6 -26h-12zM815 -336l22 106h15l23 -106h-14l-4 27h-23l-5 -27h-14zM1288 447l-8 164h27l-9 -164h-10zM382 760q8 0 15 -0.5t15 0.5q11 3 14 11t3 19q1 11 -1.5 22t-15.5 14q-8 2 -15 1.5t-15 -0.5v-67zM916 -203q-16 -5 -27 2t-14 22q-2 7 -1 13.5t1 11.5v57h13
v-47q0 -5 -0.5 -13.5t0.5 -16.5t4 -14t10 -6t10.5 6t5 14t1 16.5t-0.5 13.5v47h13v-48q0 -7 0.5 -15.5t-0.5 -17t-4.5 -15.5t-10.5 -10zM311 -337q-13 0 -19 8t-8 19.5t-1.5 24t0.5 22.5q0 14 7.5 25t25.5 9q16 -2 19.5 -13.5t3.5 -23.5h-14q0 5 0.5 10t-2.5 9q-2 8 -10 8.5
t-11 -6.5q-5 -5 -4 -18t1 -21q0 -6 -1 -17.5t5 -18.5q2 -6 10 -5.5t10 8.5q3 5 2.5 10t-0.5 10h14q0 -14 -4.5 -27t-23.5 -13zM746 -337q-14 0 -20 8t-7.5 19.5t-0.5 24t1 22.5q0 14 7 25t25 9q17 -2 20.5 -13.5t3.5 -23.5h-16q0 5 0.5 10t-1.5 9q-2 8 -9.5 8.5t-12.5 -6.5
q-5 -5 -4 -18t1 -21q0 -6 -1 -17.5t5 -18.5q4 -6 11.5 -5.5t9.5 8.5q2 5 1.5 10t-0.5 10h16q0 -14 -4.5 -27t-24.5 -13zM1029 243q-14 0 -20.5 8.5t-7.5 22.5l15 5q0 -6 2 -13t7 -11q7 -2 11.5 2.5t4.5 10.5q0 11 -9 19t-16 16q-11 8 -14.5 21t7.5 24q7 4 15.5 4.5
t14.5 -1.5q8 -4 10.5 -11.5t3.5 -14.5l-12 -3l-2 10.5t-6 9.5q-5 2 -10 0t-6 -9q-5 -8 2.5 -15l12.5 -12q6 -5 12.5 -11.5t8.5 -16.5q4 -13 -2.5 -24t-21.5 -11zM1182 -337q-14 0 -20.5 9.5t-8.5 21.5l14 4q0 -6 2 -12.5t7 -8.5q8 -4 12.5 0t4.5 10q0 11 -9.5 19.5
t-16.5 13.5q-9 9 -12.5 23.5t8.5 22.5q6 5 14.5 5.5t13.5 -2.5q8 -2 11 -9.5t4 -14.5l-13 -5l-2 11.5t-5 9.5q-14 3 -18 -8q-3 -8 3.5 -14.5t12.5 -11.5q6 -8 13 -14t9 -16q4 -13 -3 -23.5t-21 -10.5zM784 243q-13 0 -20 8.5t-8 22.5l14 5q0 -6 2 -13t7 -11q8 -2 12.5 2.5
t4.5 10.5q0 11 -9.5 19t-16.5 16q-10 8 -13 21t8 24q6 4 14 4.5t14 -1.5q8 -4 11.5 -11.5t4.5 -14.5l-13 -3q-1 5 -2.5 10.5t-5.5 9.5q-5 2 -10 0t-7 -9q-3 -8 3 -15t11 -12q8 -5 15 -11.5t9 -16.5q4 -13 -3.5 -24t-21.5 -11zM611 760h14t16 1q19 10 14 35q0 10 -2.5 17
t-11.5 12q-8 3 -16 2.5t-14 -0.5v-67zM924 244l-24 108h16l15 -79l17 79h11l-22 -108h-13zM987 -336l-24 106h13l18 -78l14 78h16l-25 -106h-12zM821 244v108h43v-10h-28v-37h23v-10h-23v-41h29v-10h-44zM1034 -336v106h43v-9h-27v-35h22v-11h-22v-41h27v-10h-43zM598 -336
v106h42v-9h-27v-35h22v-11h-22v-41h27v-10h-42zM740 -203v106h41v-11h-26v-36h22v-10h-22v-40h26v-9h-41zM464 -193q9 -4 13 -0.5t6 10.5t2 15v13q0 4 0.5 11t0 14t-2 13t-5.5 8q-10 5 -16 -2t-6 -16v-17q0 -3 -0.5 -10.5t-0.5 -15t2 -14.5t7 -9zM641 244v108h41v-10h-28
v-37h23v-10h-23v-41h28v-10h-41zM1272 -322q9 -5 13.5 -2t6.5 9t2 14v14q0 4 0.5 10.5t0 13.5t-2.5 12.5t-6 7.5q-11 7 -15.5 0t-4.5 -15v-16q0 -4 -1 -11.5t-1 -15t1.5 -14t6.5 -7.5zM373 -322q9 -5 13 -2t6 9t2 14v14q0 4 0.5 10.5t0.5 13.5t-1.5 12.5t-5.5 7.5
q-11 7 -16 0t-5 -15q-1 -4 -0.5 -8t0.5 -8t-1 -11.5t-1 -15t1.5 -14t6.5 -7.5zM392 -203v106h41v-11h-25v-36h19v-10h-19v-49h-16zM1231 -194q9 0 16 2t9 13v56q-1 11 -8 13t-17 2v-86zM625 -203v95h-20v11h55v-11h-20v-95h-15zM999 -203v106h15v-97h27v-9h-42zM1112 244v98
h-21v10h52v-10h-18v-98h-13zM826 -203v106h40v-11h-29v-36h22v-10h-22v-49h-11zM948 -203v106h14v-97h27v-9h-41zM589 244v108h13v-98h28v-10h-41zM1066 244v108h17v-108h-17zM886 -336v106h14v-96h28v-10h-42zM1141 713h35l-18 96zM454 -38h38v43h-38v-43zM789 -336v106h15
v-106h-15zM973 244v108h14v-108h-14zM1220 -336v106h13v-106h-13zM540 304h8t9 2q5 3 6 8.5t1 11.5q-1 13 -7.5 14.5t-16.5 1.5v-38zM1280 403v29h27v-29h-27zM529 -144q10 0 17 3t7 16q0 12 -6.5 14.5t-17.5 2.5v-36zM1103 -274q10 0 17 2.5t7 14.5q0 11 -7 14.5t-17 3.5
v-35zM668 -274q9 0 15.5 2.5t6.5 14.5q0 11 -6.5 14.5t-15.5 3.5v-35zM708 282h19l-8 49zM835 -299h19l-9 49zM1097 -166h19l-10 48zM1255 50l7 46l7 -46h-14zM881 50l7 46l6 -46h-13z" />
    <glyph glyph-name="a" unicode="a" horiz-adv-x="433" 
d="M351 427q8 12 21 7.5t25 -15t19 -23.5t4 -17q-4 -5 -16.5 -23.5t-28 -44l-31.5 -54.5t-27 -55.5t-15 -46.5t5 -27q13 -12 33 -3t39.5 26t35 35.5t18.5 26.5q3 7 8 8t8.5 -4.5t3.5 -17t-6 -27.5q-4 -11 -16.5 -29t-29.5 -38.5t-37 -40.5t-39.5 -35.5t-37.5 -24t-31 -4.5
q-32 9 -38 51t8 101l-50.5 -58t-47 -48t-42 -34t-35.5 -16q-17 -3 -34 3t-29 23t-16.5 46t4.5 71q10 54 41 108.5t72.5 100t88 77t87.5 39.5q18 3 29.5 -4t17.5 -19t7.5 -26.5t-0.5 -24.5q-31 -6 -65 -27.5t-65.5 -51.5t-58 -64t-43 -63.5t-20 -50t10.5 -24.5q13 -4 33.5 7
t45 32t51 49l52.5 58q17 43 40.5 86.5t50.5 85.5z" />
    <glyph glyph-name="P" unicode="P" horiz-adv-x="639" 
d="M352 596q10 9 24 11t27 -0.5t22.5 -7t10.5 -7.5q-16 -16 -42 -57l-58.5 -97t-67 -122l-67 -133.5t-60 -131t-43.5 -113.5q-23 8 -38 22t-21.5 31.5t-6.5 38t7 40.5q5 18 23.5 57.5t45 90t59 106.5l65.5 108.5t64.5 96t55.5 67.5zM108 421q-26 -3 -49.5 5.5t-38.5 26
t-18 41.5t13 52q24 41 77 77.5t120.5 62t142.5 38t142 5.5t119 -36t74 -85q19 -48 14.5 -97.5t-26.5 -96.5t-59 -89t-82 -73.5t-96.5 -49.5t-102.5 -18q-25 0 -40 18t-21 40.5t-3.5 44t12.5 29.5q49 -11 94 -4.5t83.5 25t69.5 45.5t51.5 56t29.5 57t3 50q-6 23 -26 39
t-48.5 26t-64 13.5t-71.5 1.5q-43 -2 -96 -20t-99.5 -46.5t-76.5 -64.5t-27 -73z" />
    <glyph glyph-name="A" unicode="A" horiz-adv-x="719" 
d="M146 -192q-50 3 -79.5 20.5t-42.5 43.5t-12 58t12 64q18 48 45.5 95.5t64.5 97.5q-17 -2 -30 -5.5t-21 -6.5q-5 4 -11.5 15t-9.5 24.5t-1 27.5t14 24q11 11 50 16.5t93 3.5q100 111 231 215.5t277 193.5q13 17 34.5 18t40 -6t29.5 -18t3 -18q-29 -26 -61 -71t-61 -101
t-52.5 -120t-36 -129.5t-10.5 -128.5t24 -117q-1 -5 -19.5 -18.5t-43 -23t-48.5 -8.5t-37 26q-19 37 -16 95t20 127q-33 5 -86.5 6t-110.5 -4q-36 -53 -65.5 -105t-49 -102.5t-29 -98t-5.5 -90.5zM656 590q-82 -65 -161.5 -145t-147.5 -168q41 -5 81 -12.5t76 -18.5
q13 44 30 89t37 89.5t41.5 86t43.5 79.5z" />
    <glyph glyph-name="numbersign" unicode="#" horiz-adv-x="578" 
d="M531 378q13 -11 15 -26.5t0 -29.5q-3 -17 -11 -34q-10 4 -39.5 8.5t-71.5 6.5l-34 -74q21 -2 36.5 -6t22.5 -9q13 -11 15.5 -26.5t0.5 -29.5q-3 -17 -11 -34q-10 5 -37 8t-65 6q-13 -36 -23 -67t-14 -54q-47 16 -62.5 50.5t-9.5 75.5q-14 1 -27.5 1h-27.5
q-15 -38 -25 -70.5t-15 -56.5q-46 16 -61.5 49.5t-10.5 74.5q-29 -2 -52 -4t-35 -6q11 23 29 45.5t44 33.5q8 3 18.5 6t24.5 5l21.5 41t25.5 43q-27 -2 -48.5 -4t-32.5 -6q11 23 29 45t44 33q10 5 26 8t36 6q18 29 34 49t25 28q10 11 25 13.5t29.5 0t25 -8t10.5 -9.5
q-21 -21 -46 -63q17 1 34.5 1h35.5l30 40.5t21 25.5q11 11 26 13.5t29.5 0t24.5 -8t10 -9.5q-11 -11 -23 -28.5t-25 -38.5q21 -2 36.5 -6t22.5 -9zM225 233q13 0 26.5 0.5t26.5 0.5q19 36 41 73q-14 1 -29 1h-30z" />
    <glyph glyph-name="at" unicode="@" horiz-adv-x="694" 
d="M488 414q7 11 19.5 7t23.5 -14t17.5 -21.5t2.5 -15.5q-4 -5 -15 -21.5t-25 -40l-29 -50.5t-25 -51t-13.5 -42.5t4.5 -25.5q9 -9 24 -4t30 16t29 26t22 26q22 31 34 65.5t15 69t-1 67t-13 58.5q-8 19 -24 39.5t-35.5 36.5t-40.5 24.5t-40 5.5q-46 -9 -98 -42.5
t-101.5 -82.5t-93 -109.5t-72 -123.5t-37.5 -124t10 -111q14 -38 45 -51t69.5 -9.5t80.5 20.5t77 41q14 10 18 0.5t-3 -28t-26 -41t-51 -38.5q-16 -8 -41.5 -13t-54 -5t-57 6.5t-52.5 20.5q-50 31 -69 82.5t-15 114.5t28.5 132.5t62.5 136t87 125t102.5 100t107.5 60.5
t103 6q25 -6 58 -24.5t63.5 -47t53.5 -65t28 -77.5q4 -35 1 -67t-13.5 -63t-28 -62t-41.5 -64q-13 -17 -38 -43t-52.5 -49.5t-54.5 -39t-43 -11.5q-29 8 -34 46t7 95q-25 -31 -49.5 -58.5t-47 -48.5t-41.5 -34t-34 -16t-30 2t-25.5 20t-14 41.5t4.5 65.5q10 49 40 101
t69 96.5t82 76t81 38.5q17 3 27.5 -3.5t16.5 -17.5t7 -24t0 -23q-29 -5 -59 -24.5t-57.5 -46t-49.5 -56.5t-35.5 -56.5t-15.5 -45t11 -21.5q11 -3 28 6t36.5 26t41 40.5l42.5 48.5q34 83 86 163z" />
    <glyph glyph-name="backslash" unicode="\" horiz-adv-x="500" 
d="M76 661q2 17 13.5 29t25 19.5t25.5 9.5t17 -1q-3 -28 6.5 -83.5t27.5 -128t43.5 -156.5t53.5 -167.5t57.5 -161t56.5 -137.5l-27.5 -16.5t-24.5 -9.5t-24 3.5t-26 21.5q-16 17 -40.5 69.5t-51.5 124.5t-53.5 156t-46 164.5t-29.5 150t-3 113.5z" />
    <glyph glyph-name="colon" unicode=":" horiz-adv-x="241" 
d="M-12 11q9 22 16 42.5t14 37t14.5 28t15.5 14.5t27 2t37.5 -7.5t31.5 -20.5t9 -36q-3 -22 -20 -40.5t-41 -28.5t-51.5 -9t-52.5 18zM117 350q-5 16 -0.5 34t15 34t24 28t25.5 17q8 3 26.5 4t36 -4t30 -17.5t8.5 -35.5q-3 -22 -20 -40.5t-41 -28.5t-51.5 -9t-52.5 18z" />
    <glyph glyph-name="semicolon" unicode=";" horiz-adv-x="241" 
d="M117 350q-5 16 -0.5 34t15 34t24 28t25.5 17q8 3 26.5 4t36 -4t30 -17.5t8.5 -35.5q-3 -22 -20 -40.5t-41 -28.5t-51.5 -9t-52.5 18zM-47 -85q9 22 22 57.5t27.5 70t27.5 61t21 29.5q9 3 26 2t33.5 -7.5t27.5 -20.5t8 -36q-2 -14 -12.5 -34.5t-26.5 -41.5t-36 -40.5
t-40.5 -32t-41 -15.5t-36.5 8z" />
    <glyph glyph-name="asciicircum" unicode="^" horiz-adv-x="359" 
d="M220 681l32 14.5t39.5 14.5t39.5 5.5t31 -13.5q11 -12 17.5 -37.5t10 -54.5t3.5 -56.5t-2 -43.5q-4 -23 -20.5 -33.5t-33.5 -15.5q-9 31 -22.5 67t-31.5 70q-3 -8 -9 -12q-11 -12 -29.5 -28.5t-39 -32.5t-38.5 -28t-27 -15l-12 -3t-16.5 -1t-16 6.5t-8.5 19.5
q14 10 34.5 29.5t41.5 42.5t40.5 47t31.5 43l-15 15v0z" />
    <glyph glyph-name="endash" unicode="&#x2013;" horiz-adv-x="635" 
d="M550 281q14 -13 15.5 -30t-2.5 -33q-4 -18 -14 -39q-11 6 -47.5 10.5t-86 7.5t-106.5 4.5t-109.5 0.5t-93.5 -4.5t-58 -10.5q11 30 24 51t41 36q11 6 44.5 12t78.5 10t96 5.5t96 0t78 -6.5t44 -14z" />
    </font>
</defs>
</svg>
