<svg xmlns="http://www.w3.org/2000/svg" width="28" height="22.018" viewBox="0 0 28 22.018">
  <path id="Shape_2" data-name="Shape 2" d="M1411.714,4086.528l-16.766,10.385a.584.584,0,0,1-.607.008.629.629,0,0,1-.305-.543v-5.542l-9.663-4.277a.632.632,0,0,1,0-1.147l1.118-.494-.015-.022a.532.532,0,0,1,.341-.122l8.218-3.627v-5.54a.629.629,0,0,1,.305-.543.586.586,0,0,1,.607.008l16.766,10.385a.635.635,0,0,1,0,1.07Zm-16.473,8.445a.366.366,0,0,1,.04-.036c.882-.542,2.121-1.3,3.488-2.145-3.182,1.7-3.239,1.684-3.413,1.626a.358.358,0,0,1-.115-.066Zm0-1.189c.013-.011.014-.03.028-.04,1.629-1.073,4.473-2.948,7.1-4.683l-6.742,3.555a.351.351,0,0,1-.383-.038Zm12.712-9.2c0,.007.011.012.014.019.085.174.124.251-.238.519l0,.011-.039.016c-.3.214-.833.545-1.766,1.12l-.886.546,3.389-1.787a.342.342,0,0,1,.183-.034Zm-.564-.088.069-.043.008.012a.874.874,0,0,1,.2-.059l-1.162-.72a.373.373,0,0,1,.062.145.381.381,0,0,1-.159.363l-4.927,3.354C1405.473,4085.415,1406.86,4084.712,1407.389,4084.493Zm-11.422-5.713a7.537,7.537,0,0,1,1.466-.715l-1.281-.793c0,.007.011.011.015.019C1396.223,4077.405,1396.23,4077.417,1395.967,4078.78Zm1.452-.344.147.341c-.12.058-1.937,1.021-1.936,1.022h0a.344.344,0,0,1-.39-.043v1.235l3.607-1.9a.344.344,0,0,1,.182-.034l-.479-.3-1.032-.639Zm-2.178.285c.052-.269.1-.513.134-.7a.355.355,0,0,1-.134-.07Zm4.083.516a.381.381,0,0,1-.109.495l-5.441,3.826,6.637-3.5a.346.346,0,0,1,.183-.034l-1.086-.673Zm2.543,2.143-4.673,3.2c2.131-1.126,4.357-2.3,5.669-3h0a.349.349,0,0,1,.183-.034l-1.082-.67a.367.367,0,0,1,.062.145A.382.382,0,0,1,1401.867,4081.38Zm-1.1-.67c-1,.637-2.119,1.357-3.249,2.083,2.522-1.339,3.5-1.835,3.91-2.009l.042-.029.006.009a.854.854,0,0,1,.211-.065l-.8-.493h0A.382.382,0,0,1,1400.766,4080.71Zm2.4,1.49.021.043-.257.136c-.407.291-1.143.76-2.436,1.58l3.355-1.769a.343.343,0,0,1,.183-.034l-.286-.177-.417-.259c0,.007.011.011.014.019C1403.421,4081.885,1403.459,4081.962,1403.171,4082.2Zm1,.643.008.015-.083.044c-.243.184-.661.456-1.352.905l-1.642,1.066,3.825-2.016a.336.336,0,0,1,.182-.034l-.786-.487c0,.008.011.012.014.019C1404.428,4082.531,1404.466,4082.608,1404.176,4082.843Zm1.113.662-3.252,2.146c2.5-1.333,3.486-1.852,3.908-2.042l.063-.043.008.012a.845.845,0,0,1,.209-.068l-.815-.5A.381.381,0,0,1,1405.289,4083.5Zm-10.048,8.488a.337.337,0,0,1,.034-.031l3.1-1.909c-.96.514-1.895,1.017-2.746,1.475a.353.353,0,0,1-.384-.034Zm-.365-2.143a.624.624,0,0,1,.365.573v.478c.007-.006.011-.013.018-.019l5.276-3.592c-3.17,1.689-4.339,2.309-4.812,2.523l-.074.048-.007-.013c-.2.086-.241.072-.3.054a.37.37,0,0,1-.248-.308.379.379,0,0,1,.164-.364l3.306-2.18-4.244,2.237a.355.355,0,0,1-.486-.164c-.085-.173-.124-.251.165-.487l-.008-.016.088-.047c.26-.2.719-.5,1.493-1l1.47-.955-3.994,2.106a.356.356,0,0,1-.486-.163c-.077-.156-.116-.237.171-.477l-.013-.027.144-.075c.346-.26,1-.678,2.178-1.432-1.762.927-2.59,1.354-3,1.543l-.132.091-.015-.024c-.218.094-.251.083-.3.068a.372.372,0,0,1-.247-.306.381.381,0,0,1,.159-.363l4.832-3.3c-1.437.763-3.234,1.721-5.474,2.918-.731.391-.733.392-.876.344a.364.364,0,0,1-.211-.186c-.064-.13-.1-.211.182-.46l-.021-.045.226-.121c.443-.337,1.306-.907,2.932-1.957l-4.124,2.175a.355.355,0,0,1-.475-.143.381.381,0,0,1,.108-.5l5.292-3.721-.3.134-6.469,3.411a.351.351,0,0,1-.329,0l-.421-.224-.237.1Zm.365-12.474a.321.321,0,0,1,.056-.047c.355-.193.46-.249.549-.247l-.605-.375Zm13.661,7.792c0,.008.011.012.014.019.079.16.118.239-.169.481l.011.022-.111.058c-.308.24-.881.621-1.9,1.3-1.23.818-2.873,1.9-4.515,2.99l-.382.253.753-.406c5.908-3.188,5.907-3.185,6.121-3.114a.341.341,0,0,1,.126.076l1.382-.856Z" transform="translate(-1384.008 -4074.984)" fill="#2b2828"/>
</svg>
