<svg xmlns="http://www.w3.org/2000/svg" width="191" height="40" viewBox="0 0 191 40">
  <g id="Group_1255" data-name="Group 1255" transform="translate(-258 -4699)">
    <g id="Group_1254" data-name="Group 1254" transform="translate(-606 -1220)">
      <circle id="Ellipse_32" data-name="Ellipse 32" cx="20" cy="20" r="20" transform="translate(864 5919)" fill="#334041"/>
      <path id="Icon_awesome-facebook-f" data-name="Icon awesome-facebook-f" d="M12.731,12.5l.617-4.022H9.49V5.868A2.011,2.011,0,0,1,11.757,3.7h1.754V.272A21.394,21.394,0,0,0,10.4,0C7.219,0,5.142,1.926,5.142,5.413V8.478H1.609V12.5H5.142v9.722H9.49V12.5Z" transform="translate(876.391 5928)" fill="#fff"/>
    </g>
    <g id="Group_1253" data-name="Group 1253" transform="translate(-606 -1220)">
      <circle id="Ellipse_33" data-name="Ellipse 33" cx="20" cy="20" r="20" transform="translate(915 5919)" fill="#334041"/>
      <path id="Icon_awesome-twitter" data-name="Icon awesome-twitter" d="M19.938,7.879c.014.2.014.395.014.592A12.869,12.869,0,0,1,6.994,21.429,12.87,12.87,0,0,1,0,19.385a9.422,9.422,0,0,0,1.1.056A9.121,9.121,0,0,0,6.754,17.5,4.562,4.562,0,0,1,2.5,14.337a5.744,5.744,0,0,0,.86.07,4.817,4.817,0,0,0,1.2-.155A4.555,4.555,0,0,1,.9,9.782V9.726a4.587,4.587,0,0,0,2.059.578,4.561,4.561,0,0,1-1.41-6.091,12.946,12.946,0,0,0,9.391,4.766,5.141,5.141,0,0,1-.113-1.043,4.559,4.559,0,0,1,7.882-3.116,8.967,8.967,0,0,0,2.891-1.1,4.542,4.542,0,0,1-2,2.51,9.13,9.13,0,0,0,2.623-.7,9.79,9.79,0,0,1-2.284,2.355Z" transform="translate(924 5926.619)" fill="#fff"/>
    </g>
    <g id="Group_1252" data-name="Group 1252" transform="translate(-606 -1220)">
      <circle id="Ellipse_34" data-name="Ellipse 34" cx="20" cy="20" r="20" transform="translate(964 5919)" fill="#334041"/>
      <path id="Icon_awesome-pinterest-p" data-name="Icon awesome-pinterest-p" d="M8.854.457C4.4.457,0,3.426,0,8.23c0,3.056,1.719,4.792,2.76,4.792.43,0,.677-1.2.677-1.536,0-.4-1.029-1.263-1.029-2.943A5.866,5.866,0,0,1,8.5,2.579c2.956,0,5.143,1.68,5.143,4.766,0,2.3-.924,6.628-3.919,6.628a1.927,1.927,0,0,1-2.005-1.9c0-1.641,1.146-3.229,1.146-4.922,0-2.873-4.076-2.352-4.076,1.12a5.1,5.1,0,0,0,.417,2.2c-.6,2.578-1.823,6.419-1.823,9.076,0,.82.117,1.628.2,2.448.148.165.074.148.3.065,2.187-2.995,2.109-3.581,3.1-7.5a3.52,3.52,0,0,0,3.008,1.563c4.609,0,6.68-4.492,6.68-8.542C16.667,3.27,12.943.457,8.854.457Z" transform="translate(976 5928.321)" fill="#fff"/>
    </g>
    <g id="Group_1251" data-name="Group 1251" transform="translate(-606 -1220)">
      <circle id="Ellipse_35" data-name="Ellipse 35" cx="20" cy="20" r="20" transform="translate(1015 5919)" fill="#334041"/>
      <path id="Icon_awesome-instagram" data-name="Icon awesome-instagram" d="M9.725,6.976a4.987,4.987,0,1,0,4.987,4.987A4.979,4.979,0,0,0,9.725,6.976Zm0,8.229a3.242,3.242,0,1,1,3.242-3.242A3.248,3.248,0,0,1,9.725,15.205Zm6.354-8.433a1.163,1.163,0,1,1-1.163-1.163A1.16,1.16,0,0,1,16.079,6.772Zm3.3,1.181A5.756,5.756,0,0,0,17.81,3.877a5.794,5.794,0,0,0-4.076-1.571c-1.606-.091-6.419-.091-8.025,0A5.786,5.786,0,0,0,1.634,3.873,5.775,5.775,0,0,0,.063,7.948c-.091,1.606-.091,6.419,0,8.025a5.756,5.756,0,0,0,1.571,4.076A5.8,5.8,0,0,0,5.71,21.62c1.606.091,6.419.091,8.025,0a5.756,5.756,0,0,0,4.076-1.571,5.794,5.794,0,0,0,1.571-4.076c.091-1.606.091-6.415,0-8.021ZM17.307,17.7a3.282,3.282,0,0,1-1.849,1.849c-1.28.508-4.319.391-5.733.391s-4.457.113-5.733-.391A3.282,3.282,0,0,1,2.142,17.7c-.508-1.28-.391-4.319-.391-5.734s-.113-4.457.391-5.734A3.282,3.282,0,0,1,3.991,4.381c1.28-.508,4.319-.391,5.733-.391s4.457-.113,5.733.391A3.282,3.282,0,0,1,17.307,6.23c.508,1.28.391,4.319.391,5.734S17.815,16.421,17.307,17.7Z" transform="translate(1025.783 5926.709)" fill="#fff"/>
    </g>
  </g>
</svg>
