<svg xmlns="http://www.w3.org/2000/svg" width="16.992" height="13.362" viewBox="0 0 16.992 13.362">
  <path id="Shape_2" data-name="Shape 2" d="M1400.822,4081.989l-10.175,6.3a.354.354,0,0,1-.188.054.358.358,0,0,1-.18-.049.381.381,0,0,1-.185-.33V4084.6l-5.864-2.6a.384.384,0,0,1,0-.7l.679-.3-.009-.013a.322.322,0,0,1,.207-.074l4.987-2.2v-3.362a.382.382,0,0,1,.185-.33.355.355,0,0,1,.368,0l10.175,6.3a.385.385,0,0,1,0,.649Zm-10,5.125a.25.25,0,0,1,.024-.022l2.117-1.3c-1.931,1.034-1.966,1.022-2.072.987a.231.231,0,0,1-.07-.04Zm0-.722c.008-.007.009-.018.017-.024.989-.651,2.715-1.789,4.307-2.842l-4.091,2.158a.214.214,0,0,1-.232-.023Zm7.714-5.585s.007.007.009.011c.052.106.075.152-.145.315l0,.006-.024.01c-.18.13-.505.331-1.072.68l-.537.332,2.057-1.084a.206.206,0,0,1,.111-.021Zm-.342-.054.042-.026,0,.007a.5.5,0,0,1,.121-.036l-.705-.437a.228.228,0,0,1,.038.088.231.231,0,0,1-.1.22l-2.99,2.036C1397.034,4081.314,1397.876,4080.888,1398.2,4080.754Zm-6.931-3.467a4.58,4.58,0,0,1,.89-.434l-.777-.481s.006.007.009.011C1391.421,4076.453,1391.425,4076.46,1391.266,4077.288Zm.881-.209.089.208c-.073.035-1.175.62-1.175.62h0a.213.213,0,0,1-.167.014.218.218,0,0,1-.069-.04v.75l2.189-1.154a.21.21,0,0,1,.111-.021l-.291-.18-.626-.388Zm-1.322.173c.031-.163.06-.311.081-.424a.213.213,0,0,1-.081-.042Zm2.478.313a.231.231,0,0,1-.066.3l-3.3,2.322,4.028-2.124a.211.211,0,0,1,.111-.021l-.659-.408Zm1.543,1.3-2.836,1.939c1.293-.683,2.644-1.4,3.44-1.82h0a.213.213,0,0,1,.111-.021l-.657-.407a.221.221,0,0,1,.038.088A.232.232,0,0,1,1394.846,4078.866Zm-.668-.407-1.972,1.264c1.531-.812,2.122-1.114,2.373-1.219l.025-.017,0,.005a.492.492,0,0,1,.128-.039l-.483-.3h0A.231.231,0,0,1,1394.178,4078.458Zm1.459.9.013.026-.156.083c-.247.176-.694.461-1.478.959l2.036-1.073a.207.207,0,0,1,.111-.021l-.173-.107-.253-.157s.006.007.009.012C1395.789,4079.172,1395.812,4079.219,1395.638,4079.363Zm.61.39,0,.009-.051.027c-.147.111-.4.276-.821.549l-1,.646,2.321-1.224a.2.2,0,0,1,.111-.021l-.477-.3s.007.007.009.012C1396.4,4079.564,1396.423,4079.611,1396.247,4079.753Zm.675.4-1.974,1.3c1.519-.809,2.116-1.124,2.372-1.239l.039-.026,0,.008a.511.511,0,0,1,.127-.042l-.495-.306A.231.231,0,0,1,1396.923,4080.155Zm-6.1,5.151a.213.213,0,0,1,.02-.019l1.88-1.158-1.667.9a.213.213,0,0,1-.233-.021Zm-.222-1.3a.379.379,0,0,1,.222.348v.29s.007-.008.011-.011l3.2-2.18c-1.924,1.025-2.633,1.4-2.92,1.531l-.045.029,0-.007c-.123.052-.146.043-.18.032a.224.224,0,0,1-.15-.187.23.23,0,0,1,.1-.221l2.006-1.323-2.575,1.358a.216.216,0,0,1-.295-.1c-.052-.1-.075-.152.1-.3l0-.01.053-.028c.158-.12.436-.3.906-.607l.892-.58-2.424,1.278a.216.216,0,0,1-.3-.1c-.047-.094-.071-.144.1-.29l-.008-.016.087-.046c.21-.158.605-.412,1.322-.869-1.069.563-1.572.821-1.82.937l-.08.055-.009-.015c-.132.057-.152.05-.179.042a.226.226,0,0,1-.15-.186.231.231,0,0,1,.1-.22l2.932-2.005c-.872.463-1.963,1.044-3.322,1.771-.444.237-.445.238-.532.209a.221.221,0,0,1-.128-.113c-.039-.079-.063-.128.11-.279l-.013-.027.137-.073c.269-.205.792-.55,1.779-1.188l-2.5,1.32a.215.215,0,0,1-.289-.087.231.231,0,0,1,.065-.3l3.212-2.258-.185.081-3.926,2.07a.213.213,0,0,1-.2,0l-.256-.136-.144.063Zm.222-7.57a.2.2,0,0,1,.034-.029c.215-.117.279-.151.333-.15l-.367-.228Zm8.29,4.729s.006.007.009.011c.048.1.072.145-.1.292l.007.014-.067.035c-.187.146-.535.377-1.154.789-.747.5-1.743,1.156-2.74,1.814l-.232.153.457-.246c3.586-1.935,3.585-1.933,3.715-1.89a.207.207,0,0,1,.076.046l.839-.52Z" transform="translate(-1384.008 -4074.984)" fill="#950017"/>
</svg>
