<svg xmlns="http://www.w3.org/2000/svg" width="34.44" height="34.605" viewBox="0 0 34.44 34.605">
  <g id="basket" transform="translate(0 0)">
    <path id="Path_4" data-name="Path 4" d="M34.434,17.376a1.954,1.954,0,0,0-2.068-1.79l-1.028.065V14.4a14.4,14.4,0,1,0-28.8,0v1.214l-.463-.03a1.947,1.947,0,0,0-.255,3.886c5.125.338,10.281.508,15.437.508,5.135,0,10.269-.168,15.364-.5a1.948,1.948,0,0,0,1.814-2.1ZM3.551,14.4a13.387,13.387,0,1,1,26.774,0v1.311l-1.145.062V14.4A12.241,12.241,0,0,0,4.7,14.4v1.343l-1.146-.065Zm24.614,1.424c-7.467.354-14.99.345-22.455-.029V14.4a11.227,11.227,0,1,1,22.455,0ZM33.2,18.142a.926.926,0,0,1-.645.321,233.769,233.769,0,0,1-30.668,0,.933.933,0,0,1,.058-1.864l.064,0a231.813,231.813,0,0,0,30.425,0,.938.938,0,0,1,.991.86.926.926,0,0,1-.225.684Zm0,0"/>
    <path id="Path_5" data-name="Path 5" d="M58.682,303.1a.506.506,0,0,0-.556.452c-.036.347-.078.71-.129,1.085q-2.094.12-4.195.2l.077-.937a.507.507,0,1,0-1.01-.083l-.087,1.058q-1.773.063-3.548.1l.04-.966a.507.507,0,0,0-1.013-.042L48.217,305q-1.765.029-3.532.033v-1a.507.507,0,0,0-1.014,0v1q-1.766,0-3.532-.033l-.043-1.039a.507.507,0,0,0-1.013.042l.04.979q-1.775-.037-3.548-.1l-.09-1.083a.507.507,0,1,0-1.01.083l.079.962q-2.1-.083-4.195-.2c-.053-.392-.1-.771-.134-1.133a.507.507,0,0,0-1.009.1c.339,3.344,1.307,8.088,4,11.708a4.625,4.625,0,0,0,3.7,1.857H51.446a4.624,4.624,0,0,0,3.7-1.858c2.679-3.605,3.649-8.329,3.991-11.658a.507.507,0,0,0-.453-.556Zm-.841,2.562a28.476,28.476,0,0,1-.65,2.928q-1.853.1-3.713.171l.24-2.9Q55.782,305.778,57.84,305.663Zm-2.188,6.913q-1.247.059-2.5.105l.239-2.9q1.744-.066,3.483-.157a20.136,20.136,0,0,1-1.225,2.954Zm-10.966,3.583v-2.3q1.584,0,3.167-.027l-.1,2.326Zm-4.085,0-.1-2.326q1.583.024,3.167.027v2.3Zm-9.12-6.537q1.739.091,3.483.157l.239,2.9q-1.25-.046-2.5-.105a20.171,20.171,0,0,1-1.225-2.954Zm4.5.193q1.67.056,3.344.089l.119,2.9q-1.613-.031-3.224-.084Zm4.359.107q1.664.026,3.329.029v2.894q-1.605,0-3.209-.028Zm4.343,2.923v-2.894q1.664,0,3.329-.03l-.119,2.9Q46.291,312.843,44.685,312.846ZM49.03,309.9q1.673-.033,3.344-.089l-.239,2.9q-1.61.053-3.224.084ZM52.7,305.9l-.239,2.9q-1.691.057-3.386.091l.119-2.9Q50.945,305.958,52.7,305.9Zm-4.522.116-.119,2.9q-1.685.027-3.371.03v-2.894Q46.431,306.041,48.175,306.012Zm-4.5.032v2.894q-1.686,0-3.371-.03l-.119-2.9q1.744.029,3.49.032Zm-4.505-.051.119,2.9q-1.694-.034-3.386-.092l-.24-2.9q1.752.061,3.506.1Zm-4.527-.135.24,2.9q-1.859-.071-3.713-.171a28.452,28.452,0,0,1-.65-2.928Q32.575,305.778,34.64,305.859Zm-.611,8.851q-.394-.53-.737-1.093,1,.045,2,.081l.178,2.155a3.6,3.6,0,0,1-1.437-1.143Zm2.477,1.425-.2-2.4q1.589.051,3.182.082l.1,2.344H36.911A3.568,3.568,0,0,1,36.505,316.136Zm12.266.023.1-2.344q1.592-.03,3.182-.082l-.2,2.4a3.568,3.568,0,0,1-.406.023Zm5.557-1.449a3.6,3.6,0,0,1-1.437,1.143l.178-2.155q1-.036,2-.081Q54.722,314.179,54.329,314.71Zm0,0" transform="translate(-27.241 -282.568)"/>
  </g>
</svg>
