<svg xmlns="http://www.w3.org/2000/svg" width="66" height="59.297" viewBox="0 0 66 59.297">
  <g id="diet" transform="translate(0 -26)">
    <g id="Group_1234" data-name="Group 1234" transform="translate(42.023 33.734)">
      <g id="Group_1233" data-name="Group 1233">
        <path id="Path_94" data-name="Path 94" d="M327.289,86a1.289,1.289,0,1,0,1.289,1.289A1.29,1.29,0,0,0,327.289,86Z" transform="translate(-326 -86)" fill="#fff"/>
      </g>
    </g>
    <g id="Group_1236" data-name="Group 1236" transform="translate(8.956 26)">
      <g id="Group_1235" data-name="Group 1235">
        <path id="Path_95" data-name="Path 95" d="M116.747,55.285C115.284,50.037,108.9,41.8,109.7,27.36A1.289,1.289,0,0,0,108.409,26H78.632a1.289,1.289,0,0,0-1.287,1.36c.788,14.37-5.572,22.695-7.06,27.915-2.691,9.411,1.7,21.567,7.85,29.522a1.289,1.289,0,0,0,1.02.5h28.735a1.289,1.289,0,0,0,1.02-.5C114.762,77.228,119.347,64.574,116.747,55.285ZM76.562,47.163a47.256,47.256,0,0,0,3.411-18.585h27.1a47.269,47.269,0,0,0,3.41,18.582q.154.389.321.785a40.831,40.831,0,0,1-34.556,0Q76.407,47.552,76.562,47.163Zm15.67,35.556H79.793c-6.64-8.876-8.621-18.948-7.351-25.4,6.981,2.68,13.594,8.454,19.79,13.147ZM73.138,54.829a37.155,37.155,0,0,1,1.58-3.568q.229-.473.465-.965a43.408,43.408,0,0,0,36.675,0q.235.492.463.962a35.927,35.927,0,0,1,1.576,3.573C106.529,57.6,99.586,63.6,93.52,68.212,87.429,63.577,80.508,57.6,73.138,54.829Zm34.109,27.89H94.81V70.469c6.24-4.726,12.812-10.462,19.769-13.139C116.112,65.477,112.115,76.141,107.247,82.719Z" transform="translate(-69.476 -26)" fill="#fff"/>
      </g>
    </g>
    <g id="Group_1238" data-name="Group 1238" transform="translate(42.507 38.868)">
      <g id="Group_1237" data-name="Group 1237">
        <path id="Path_96" data-name="Path 96" d="M333.705,132.03a51.715,51.715,0,0,1-1.407-5.184,1.289,1.289,0,1,0-2.52.543,54.339,54.339,0,0,0,1.478,5.443,1.289,1.289,0,1,0,2.45-.8Z" transform="translate(-329.749 -125.828)" fill="#fff"/>
      </g>
    </g>
    <g id="Group_1240" data-name="Group 1240" transform="translate(52.336 31.156)">
      <g id="Group_1239" data-name="Group 1239">
        <path id="Path_97" data-name="Path 97" d="M418.374,71.155H410.4l2.956-2.956a1.289,1.289,0,1,0-1.823-1.823l-5.156,5.156a1.289,1.289,0,0,0,0,1.823l5.156,5.156a1.289,1.289,0,1,0,1.823-1.823L410.4,73.733h7.974a1.289,1.289,0,0,0,0-2.578Z" transform="translate(-405.999 -65.999)" fill="#fff"/>
      </g>
    </g>
    <g id="Group_1242" data-name="Group 1242" transform="translate(0 31.156)">
      <g id="Group_1241" data-name="Group 1241">
        <path id="Path_98" data-name="Path 98" d="M13.287,71.534,8.13,66.378A1.289,1.289,0,0,0,6.307,68.2l2.956,2.956H1.289a1.289,1.289,0,1,0,0,2.578H9.263L6.307,76.69A1.289,1.289,0,0,0,8.13,78.513l5.156-5.156A1.289,1.289,0,0,0,13.287,71.534Z" transform="translate(0 -66)" fill="#fff"/>
      </g>
    </g>
  </g>
</svg>
