<svg xmlns="http://www.w3.org/2000/svg" width="69.945" height="73.001" viewBox="0 0 69.945 73.001">
  <g id="_023---Moisturising-Face" data-name="023---Moisturising-Face" transform="translate(-0.257)">
    <path id="Shape" d="M11.308,50.446,8.3,43.423A4.2,4.2,0,0,0,.616,46.815C6.16,59.012,6.43,60.333,8.889,62.79l9.855,9.855A1.217,1.217,0,0,0,19.6,73h13.19a1.217,1.217,0,0,0,1.217-1.217,30.67,30.67,0,0,0-.4-7.379,17.148,17.148,0,0,0,3.239,0c-.524,2.226-.4,3.594-.4,7.378A1.217,1.217,0,0,0,37.661,73H50.856a1.217,1.217,0,0,0,.86-.356l9.855-9.855c2.455-2.456,2.651-3.615,8.273-15.975a4.2,4.2,0,0,0-7.682-3.392l-3.015,7.025a6.178,6.178,0,0,0-4.845-.953,36.5,36.5,0,0,0,1.431-4.234C58.148,44.773,64,42.653,64,33.458c0-3.116-.543-6.956-3.641-7.379A33.077,33.077,0,0,0,65.279,3.173L64.792.953A1.217,1.217,0,0,0,63.6,0H6.856A1.217,1.217,0,0,0,5.669.953L5.158,3.264A33.028,33.028,0,0,0,10.1,26.091c-3.068.457-3.6,4.286-3.6,7.372,0,9.2,5.856,11.315,8.273,11.8a36.8,36.8,0,0,0,1.437,4.246,6.166,6.166,0,0,0-4.9.936Zm20.27,20.12H20.1l-9.49-9.5c-1.987-1.982-1.984-2.508-7.782-15.262a1.765,1.765,0,1,1,3.23-1.426c4.929,11.5,3.012,8.7,12.678,18.372a1.217,1.217,0,1,0,1.72-1.72c-6.665-6.664-6.98-6.849-8-8.4a3.688,3.688,0,0,1,4.7-.007A28.965,28.965,0,0,0,25.812,58.1c2.846.945,5.766,4.633,5.766,9.794Zm1.164-8.73a10.876,10.876,0,0,0-6.16-6.052,23.911,23.911,0,0,1-6.57-3.991c-4.18-7.407-4.718-16.334-4.724-24.839,2.578-4.543,9.34-15.022,19.94-21.416,10.623,6.441,17.4,16.936,19.985,21.491-.019,8.638-.535,17.155-4.662,24.682a24.181,24.181,0,0,1-6.676,4.072,10.887,10.887,0,0,0-6.164,6.06,16.3,16.3,0,0,1-4.969-.009Zm25.249-9.215c-1.011,1.55-1.3,1.713-8,8.4a1.217,1.217,0,0,0,1.72,1.72c9.573-9.571,7.746-6.857,12.678-18.366a1.765,1.765,0,1,1,3.23,1.426c-5.711,12.564-5.746,13.231-7.774,15.262l-9.5,9.5H38.878V67.89A11.7,11.7,0,0,1,41.3,60.576c2.853-3.567,3.763-1.031,11.99-7.956a3.688,3.688,0,0,1,4.7,0Zm3.575-19.164c0,6.126-2.97,8.318-5.178,9.1a69.957,69.957,0,0,0,1.226-13.141c1.125-.8,2.123-1.133,2.677-.865.3.144,1.275.925,1.275,4.9Zm1.06-31.025a30.187,30.187,0,0,1-4.988,23.331c-.116-9.087-2.516-15.313-7.341-19a1.217,1.217,0,1,0-1.478,1.933c3.517,2.69,5.533,7.092,6.162,13.322C50.1,14.606,42.566,6.714,34.7,2.433Zm-54.794,0H24.426a31.683,31.683,0,0,0-7.178,6.54,1.217,1.217,0,0,0,1.9,1.521A29.425,29.425,0,0,1,29.182,2.533,38.214,38.214,0,0,1,32.806,4.18c-10.213,6.575-16.735,16.4-19.8,21.856a30.109,30.109,0,0,1-5.178-23.6Zm1.1,31.025c0-3.982.973-4.763,1.277-4.907.543-.262,1.561.077,2.677.865a69.975,69.975,0,0,0,1.228,13.147C11.908,41.783,8.934,39.591,8.934,33.458Z" transform="translate(0 0)" fill="#fff"/>
    <path id="Shape-2" data-name="Shape" d="M17.762,22.269a5.322,5.322,0,0,1,4.086-.29l4.719,1.573a1.218,1.218,0,0,0,.769-2.312l-4.719-1.569a7.74,7.74,0,0,0-5.942.422,1.217,1.217,0,1,0,1.088,2.177Z" transform="translate(3.409 4.175)" fill="#fff"/>
    <path id="Shape-3" data-name="Shape" d="M33.216,23.615c.283,0,0,.067,5.11-1.635a5.311,5.311,0,0,1,4.086.29A1.217,1.217,0,1,0,43.5,20.093a7.744,7.744,0,0,0-5.943-.422l-4.718,1.573a1.217,1.217,0,0,0,.378,2.371Z" transform="translate(6.878 4.175)" fill="#fff"/>
    <path id="Shape-4" data-name="Shape" d="M27.316,27.042a1.217,1.217,0,0,0-1.54-.762c-.043.013-4.191,1.366-7.4-1.038a1.217,1.217,0,0,0-1.582.109,3.025,3.025,0,0,1-1.582.864,1.217,1.217,0,0,0,0,2.433,4.535,4.535,0,0,0,2.505-.921c.184.109.365.207.552.3a2.155,2.155,0,0,1-.624.62,1.217,1.217,0,0,0-1.217,1.217c0,1.5,2.247,2.068,4.225-1a11.945,11.945,0,0,0,5.9-.286,1.217,1.217,0,0,0,.756-1.542Z" transform="translate(2.978 5.417)" fill="#fff"/>
    <path id="Shape-5" data-name="Shape" d="M42,25.243c-3.189,2.391-7.31,1.067-7.395,1.038a1.217,1.217,0,1,0-.786,2.3,11.923,11.923,0,0,0,5.9.286c.618.96,1.678,2.213,3.009,2.213a1.237,1.237,0,0,0,1.243-1.217,1.191,1.191,0,0,0-1.191-1.217,2.005,2.005,0,0,1-.672-.629c.182-.094.365-.189.547-.3a4.535,4.535,0,0,0,2.505.927,1.217,1.217,0,1,0,0-2.433,3.02,3.02,0,0,1-1.573-.86A1.217,1.217,0,0,0,42,25.243Z" transform="translate(7.094 5.417)" fill="#fff"/>
    <path id="Shape-6" data-name="Shape" d="M25.541,35.229a7.778,7.778,0,0,0,8.65,0,1.217,1.217,0,1,0-1.35-2.025,5.353,5.353,0,0,1-5.949,0,1.217,1.217,0,1,0-1.35,2.025Z" transform="translate(5.361 7.15)" fill="#fff"/>
    <path id="Shape-7" data-name="Shape" d="M37.6,41.407a1.477,1.477,0,0,0-1.582-1.46C35.01,39.947,32.024,38,30.3,38c-1.747,0-4.691,1.947-5.712,1.947A1.478,1.478,0,0,0,23,41.407c0,1.717,3.437,3.893,7.3,3.893s7.3-2.178,7.3-3.893Zm-7.3-.973a22.856,22.856,0,0,1,3.8,1.494,8.167,8.167,0,0,1-7.6,0A22.614,22.614,0,0,1,30.3,40.433Z" transform="translate(4.928 8.233)" fill="#fff"/>
    <path id="Shape-8" data-name="Shape" d="M30.65,46H28.217a1.217,1.217,0,1,0,0,2.433H30.65a1.217,1.217,0,0,0,0-2.433Z" transform="translate(5.794 9.966)" fill="#fff"/>
    <circle id="Oval" cx="1.217" cy="1.217" r="1.217" transform="translate(13.328 12.167)" fill="#fff"/>
  </g>
</svg>
