<svg xmlns="http://www.w3.org/2000/svg" xmlns:xlink="http://www.w3.org/1999/xlink" width="108.894" height="7.155" viewBox="0 0 108.894 7.155">
  <defs>
    <clipPath id="clip-path">
      <rect id="Rectangle_120" data-name="Rectangle 120" width="108.894" height="7.155" fill="#fcc917"/>
    </clipPath>
  </defs>
  <g id="Group_1195" data-name="Group 1195" transform="translate(375.702 -400.741)">
    <g id="Group_127" data-name="Group 127" transform="translate(-375.702 400.741)" clip-path="url(#clip-path)">
      <path id="Path_75" data-name="Path 75" d="M-378.627,404.764l3.4,4.034,3.023-4.034" transform="translate(377.492 -403.203)" fill="none" stroke="#fcc917" stroke-miterlimit="10" stroke-width="1"/>
    </g>
    <g id="Group_128" data-name="Group 128" transform="translate(-375.702 400.741)" clip-path="url(#clip-path)">
      <path id="Path_76" data-name="Path 76" d="M-362.542,404.764l3.4,4.034,3.022-4.034" transform="translate(367.647 -403.203)" fill="none" stroke="#fcc917" stroke-miterlimit="10" stroke-width="1"/>
    </g>
    <g id="Group_129" data-name="Group 129" transform="translate(-375.702 400.741)" clip-path="url(#clip-path)">
      <path id="Path_77" data-name="Path 77" d="M-346.457,404.764l3.4,4.034,3.023-4.034" transform="translate(357.803 -403.203)" fill="none" stroke="#fcc917" stroke-miterlimit="10" stroke-width="1"/>
    </g>
    <g id="Group_130" data-name="Group 130" transform="translate(-375.702 400.741)" clip-path="url(#clip-path)">
      <path id="Path_78" data-name="Path 78" d="M-330.372,404.764l3.4,4.034,3.022-4.034" transform="translate(347.958 -403.203)" fill="none" stroke="#fcc917" stroke-miterlimit="10" stroke-width="1"/>
    </g>
    <g id="Group_131" data-name="Group 131" transform="translate(-375.702 400.741)" clip-path="url(#clip-path)">
      <path id="Path_79" data-name="Path 79" d="M-314.285,404.764l3.4,4.034,3.023-4.034" transform="translate(338.112 -403.203)" fill="none" stroke="#fcc917" stroke-miterlimit="10" stroke-width="1"/>
    </g>
    <g id="Group_132" data-name="Group 132" transform="translate(-375.702 400.741)" clip-path="url(#clip-path)">
      <path id="Path_80" data-name="Path 80" d="M-298.2,404.764l3.4,4.034,3.022-4.034" transform="translate(328.268 -403.203)" fill="none" stroke="#fcc917" stroke-miterlimit="10" stroke-width="1"/>
    </g>
    <g id="Group_133" data-name="Group 133" transform="translate(-375.702 400.741)" clip-path="url(#clip-path)">
      <path id="Path_81" data-name="Path 81" d="M-282.116,404.764l3.4,4.034,3.022-4.034" transform="translate(318.423 -403.203)" fill="none" stroke="#fcc917" stroke-miterlimit="10" stroke-width="1"/>
    </g>
    <g id="Group_134" data-name="Group 134" transform="translate(-375.702 400.741)" clip-path="url(#clip-path)">
      <path id="Path_82" data-name="Path 82" d="M-266.03,404.764l3.4,4.034,3.023-4.034" transform="translate(308.577 -403.203)" fill="none" stroke="#fcc917" stroke-miterlimit="10" stroke-width="1"/>
    </g>
    <g id="Group_135" data-name="Group 135" transform="translate(-375.702 400.741)" clip-path="url(#clip-path)">
      <path id="Path_83" data-name="Path 83" d="M-249.945,404.764l3.4,4.034,3.022-4.034" transform="translate(298.733 -403.203)" fill="none" stroke="#fcc917" stroke-miterlimit="10" stroke-width="1"/>
    </g>
    <g id="Group_136" data-name="Group 136" transform="translate(-375.702 400.741)" clip-path="url(#clip-path)">
      <path id="Path_84" data-name="Path 84" d="M-233.858,404.764l3.4,4.034,3.023-4.034" transform="translate(288.887 -403.203)" fill="none" stroke="#fcc917" stroke-miterlimit="10" stroke-width="1"/>
    </g>
    <g id="Group_137" data-name="Group 137" transform="translate(-375.702 400.741)" clip-path="url(#clip-path)">
      <path id="Path_85" data-name="Path 85" d="M-217.773,404.764l3.4,4.034,3.022-4.034" transform="translate(279.042 -403.203)" fill="none" stroke="#fcc917" stroke-miterlimit="10" stroke-width="1"/>
    </g>
    <g id="Group_138" data-name="Group 138" transform="translate(-375.702 400.741)" clip-path="url(#clip-path)">
      <path id="Path_86" data-name="Path 86" d="M-201.688,404.764l3.4,4.034,3.022-4.034" transform="translate(269.197 -403.203)" fill="none" stroke="#fcc917" stroke-miterlimit="10" stroke-width="1"/>
    </g>
    <g id="Group_139" data-name="Group 139" transform="translate(-375.702 400.741)" clip-path="url(#clip-path)">
      <path id="Path_87" data-name="Path 87" d="M-185.6,404.764l3.4,4.034,3.022-4.034" transform="translate(259.352 -403.203)" fill="none" stroke="#fcc917" stroke-miterlimit="10" stroke-width="1"/>
    </g>
    <g id="Group_140" data-name="Group 140" transform="translate(-375.702 400.741)" clip-path="url(#clip-path)">
      <path id="Path_88" data-name="Path 88" d="M-169.519,404.764l3.4,4.034,3.022-4.034" transform="translate(249.508 -403.203)" fill="none" stroke="#fcc917" stroke-miterlimit="10" stroke-width="1"/>
    </g>
    <g id="Group_141" data-name="Group 141" transform="translate(-375.702 400.741)" clip-path="url(#clip-path)">
      <path id="Path_89" data-name="Path 89" d="M-153.432,404.764l3.4,4.034,3.023-4.034" transform="translate(239.662 -403.203)" fill="none" stroke="#fcc917" stroke-miterlimit="10" stroke-width="1"/>
    </g>
    <g id="Group_142" data-name="Group 142" transform="translate(-375.702 400.741)" clip-path="url(#clip-path)">
      <path id="Path_90" data-name="Path 90" d="M-137.347,404.764l3.4,4.034,3.022-4.034" transform="translate(229.817 -403.203)" fill="none" stroke="#fcc917" stroke-miterlimit="10" stroke-width="1"/>
    </g>
    <g id="Group_143" data-name="Group 143" transform="translate(-375.702 400.741)" clip-path="url(#clip-path)">
      <path id="Path_91" data-name="Path 91" d="M-121.261,404.764l3.4,4.034,3.023-4.034" transform="translate(219.972 -403.203)" fill="none" stroke="#fcc917" stroke-miterlimit="10" stroke-width="1"/>
    </g>
    <g id="Group_144" data-name="Group 144" transform="translate(-375.702 400.741)" clip-path="url(#clip-path)">
      <path id="Path_92" data-name="Path 92" d="M-105.176,404.764l3.4,4.034,3.022-4.034" transform="translate(210.127 -403.203)" fill="none" stroke="#fcc917" stroke-miterlimit="10" stroke-width="1"/>
    </g>
  </g>
</svg>
