<svg xmlns="http://www.w3.org/2000/svg" width="51.828" height="68.715" viewBox="0 0 51.828 68.715">
  <g id="biscuit" transform="translate(-62.917)">
    <g id="Group_1200" data-name="Group 1200" transform="translate(62.917 0)">
      <g id="Group_1199" data-name="Group 1199">
        <path id="Path_93" data-name="Path 93" d="M113.631,13.533a4.66,4.66,0,0,0,.082-5.948,4.662,4.662,0,0,0-6.656-6.472,4.665,4.665,0,0,0-6.05,0,4.664,4.664,0,0,0-6.05,0,4.665,4.665,0,0,0-6.05,0,4.663,4.663,0,0,0-6.847,6.22,4.666,4.666,0,0,0-1.17,4.018,4.663,4.663,0,0,0-3.832,1.043,4.664,4.664,0,0,0-6.05,0,4.663,4.663,0,0,0-6.846,6.22,4.665,4.665,0,0,0-.133,6.2,4.664,4.664,0,0,0,0,6.05,4.665,4.665,0,0,0,0,6.05,4.664,4.664,0,0,0,0,6.05,4.664,4.664,0,0,0,0,6.05,4.664,4.664,0,0,0,0,6.05,4.659,4.659,0,0,0,.182,6.247,4.663,4.663,0,0,0,6.8,6.291,4.664,4.664,0,0,0,6.05,0,4.664,4.664,0,0,0,6.05,0,4.664,4.664,0,0,0,6.05,0,4.662,4.662,0,0,0,6.607-6.531,4.658,4.658,0,0,0,1.009-3.795,4.664,4.664,0,0,0,4.232-.955,4.664,4.664,0,0,0,6.05,0,4.662,4.662,0,0,0,6.607-6.531,4.66,4.66,0,0,0-.034-6.007,4.664,4.664,0,0,0,0-6.05,4.664,4.664,0,0,0,0-6.05,4.664,4.664,0,0,0,0-6.05,4.664,4.664,0,0,0,0-6.05,4.666,4.666,0,0,0,0-6.05ZM93.652,25.657a2.63,2.63,0,0,1,0,4.364l-1.25.843,1.25.843a2.63,2.63,0,0,1,0,4.364l-1.25.843,1.25.843a2.63,2.63,0,0,1,0,4.364l-1.25.843,1.25.843a2.63,2.63,0,0,1,0,4.364l-1.25.843,1.25.843a2.63,2.63,0,0,1,0,4.364l-1.25.843,1.25.843a2.629,2.629,0,0,1,.043,4.333l-1.181.832,1.181.832A2.629,2.629,0,1,1,90,65.521l-.843-1.25-.843,1.25a2.63,2.63,0,0,1-4.364,0l-.843-1.25-.843,1.25a2.63,2.63,0,0,1-4.364,0l-.843-1.25-.843,1.25a2.63,2.63,0,0,1-4.364,0l-.843-1.25-.843,1.25a2.629,2.629,0,1,1-3.829-3.516l1.132-.912-1.245-.751a2.63,2.63,0,0,1-.113-4.435l1.25-.843-1.25-.843a2.63,2.63,0,0,1,0-4.364l1.25-.843-1.25-.843a2.63,2.63,0,0,1,0-4.364l1.25-.843-1.25-.843a2.63,2.63,0,0,1,0-4.364l1.25-.843-1.25-.843a2.63,2.63,0,0,1,0-4.364l1.25-.843-1.25-.843a2.63,2.63,0,0,1,0-4.364l1.25-.843-1.25-.843a2.629,2.629,0,0,1,.054-4.4l1.156-.739-1.043-.891a2.629,2.629,0,1,1,3.888-3.467l.843,1.25.843-1.25a2.63,2.63,0,0,1,4.364,0l.843,1.25.843-1.25a2.63,2.63,0,0,1,4.364,0l.843,1.25.843-1.25a2.63,2.63,0,0,1,4.364,0l.843,1.25L90,14.476a2.629,2.629,0,1,1,3.753,3.576l-1.09.815,1.09.815a2.63,2.63,0,0,1-.1,4.29l-1.25.843Zm18-17.257a2.63,2.63,0,0,1-.1,4.29l-1.25.843,1.25.843a2.63,2.63,0,0,1,0,4.364l-1.25.843,1.25.843a2.63,2.63,0,0,1,0,4.364l-1.25.843,1.25.843a2.63,2.63,0,0,1,0,4.364l-1.25.843,1.25.843a2.63,2.63,0,0,1,0,4.364l-1.25.843,1.25.843a2.63,2.63,0,0,1,0,4.364l-1.25.843,1.25.843a2.628,2.628,0,0,1,.043,4.332l-1.181.831,1.181.832a2.629,2.629,0,1,1-3.693,3.618l-.843-1.25-.843,1.25a2.63,2.63,0,0,1-4.364,0l-.843-1.25-.843,1.25a2.628,2.628,0,0,1-4.078.352,4.663,4.663,0,0,0-.353-5.578,4.664,4.664,0,0,0,0-6.05,4.664,4.664,0,0,0,0-6.05,4.665,4.665,0,0,0,0-6.05,4.664,4.664,0,0,0,0-6.05,4.66,4.66,0,0,0,.082-5.948A4.662,4.662,0,0,0,89.159,12.4a4.664,4.664,0,0,0-5.736-.245,2.628,2.628,0,0,1,.641-3.857l1.156-.739-1.043-.891A2.629,2.629,0,1,1,88.064,3.2l.843,1.25.843-1.25a2.63,2.63,0,0,1,4.364,0l.843,1.25L95.8,3.2a2.63,2.63,0,0,1,4.364,0l.843,1.25.843-1.25a2.63,2.63,0,0,1,4.364,0l.843,1.25L107.9,3.2a2.629,2.629,0,1,1,3.753,3.576l-1.09.815Z" transform="translate(-62.917 0)" fill="#fff"/>
      </g>
    </g>
    <g id="Group_1202" data-name="Group 1202" transform="translate(90.392 8.664)">
      <g id="Group_1201" data-name="Group 1201">
        <circle id="Ellipse_15" data-name="Ellipse 15" cx="1.241" cy="1.241" r="1.241" fill="#fff"/>
      </g>
    </g>
    <g id="Group_1204" data-name="Group 1204" transform="translate(102.687 8.664)">
      <g id="Group_1203" data-name="Group 1203">
        <circle id="Ellipse_16" data-name="Ellipse 16" cx="1.241" cy="1.241" r="1.241" fill="#fff"/>
      </g>
    </g>
    <g id="Group_1206" data-name="Group 1206" transform="translate(102.687 18.07)">
      <g id="Group_1205" data-name="Group 1205">
        <circle id="Ellipse_17" data-name="Ellipse 17" cx="1.241" cy="1.241" r="1.241" fill="#fff"/>
      </g>
    </g>
    <g id="Group_1208" data-name="Group 1208" transform="translate(102.687 27.477)">
      <g id="Group_1207" data-name="Group 1207">
        <circle id="Ellipse_18" data-name="Ellipse 18" cx="1.241" cy="1.241" r="1.241" fill="#fff"/>
      </g>
    </g>
    <g id="Group_1210" data-name="Group 1210" transform="translate(102.687 36.883)">
      <g id="Group_1209" data-name="Group 1209">
        <circle id="Ellipse_19" data-name="Ellipse 19" cx="1.241" cy="1.241" r="1.241" fill="#fff"/>
      </g>
    </g>
    <g id="Group_1212" data-name="Group 1212" transform="translate(102.687 46.289)">
      <g id="Group_1211" data-name="Group 1211">
        <circle id="Ellipse_20" data-name="Ellipse 20" cx="1.241" cy="1.241" r="1.241" fill="#fff"/>
      </g>
    </g>
    <g id="Group_1214" data-name="Group 1214" transform="translate(72.494 19.944)">
      <g id="Group_1213" data-name="Group 1213" transform="translate(0)">
        <circle id="Ellipse_21" data-name="Ellipse 21" cx="1.241" cy="1.241" r="1.241" fill="#fff"/>
      </g>
    </g>
    <g id="Group_1216" data-name="Group 1216" transform="translate(84.788 19.944)">
      <g id="Group_1215" data-name="Group 1215">
        <circle id="Ellipse_22" data-name="Ellipse 22" cx="1.241" cy="1.241" r="1.241" fill="#fff"/>
      </g>
    </g>
    <g id="Group_1218" data-name="Group 1218" transform="translate(72.494 29.351)">
      <g id="Group_1217" data-name="Group 1217" transform="translate(0)">
        <circle id="Ellipse_23" data-name="Ellipse 23" cx="1.241" cy="1.241" r="1.241" fill="#fff"/>
      </g>
    </g>
    <g id="Group_1220" data-name="Group 1220" transform="translate(84.788 29.351)">
      <g id="Group_1219" data-name="Group 1219">
        <circle id="Ellipse_24" data-name="Ellipse 24" cx="1.241" cy="1.241" r="1.241" fill="#fff"/>
      </g>
    </g>
    <g id="Group_1222" data-name="Group 1222" transform="translate(72.494 38.758)">
      <g id="Group_1221" data-name="Group 1221" transform="translate(0)">
        <circle id="Ellipse_25" data-name="Ellipse 25" cx="1.241" cy="1.241" r="1.241" fill="#fff"/>
      </g>
    </g>
    <g id="Group_1224" data-name="Group 1224" transform="translate(84.788 38.758)">
      <g id="Group_1223" data-name="Group 1223">
        <circle id="Ellipse_26" data-name="Ellipse 26" cx="1.241" cy="1.241" r="1.241" fill="#fff"/>
      </g>
    </g>
    <g id="Group_1226" data-name="Group 1226" transform="translate(72.494 48.163)">
      <g id="Group_1225" data-name="Group 1225" transform="translate(0)">
        <circle id="Ellipse_27" data-name="Ellipse 27" cx="1.241" cy="1.241" r="1.241" fill="#fff"/>
      </g>
    </g>
    <g id="Group_1228" data-name="Group 1228" transform="translate(84.788 48.163)">
      <g id="Group_1227" data-name="Group 1227">
        <circle id="Ellipse_28" data-name="Ellipse 28" cx="1.241" cy="1.241" r="1.241" fill="#fff"/>
      </g>
    </g>
    <g id="Group_1230" data-name="Group 1230" transform="translate(72.494 57.57)">
      <g id="Group_1229" data-name="Group 1229" transform="translate(0)">
        <circle id="Ellipse_29" data-name="Ellipse 29" cx="1.241" cy="1.241" r="1.241" fill="#fff"/>
      </g>
    </g>
    <g id="Group_1232" data-name="Group 1232" transform="translate(84.788 57.57)">
      <g id="Group_1231" data-name="Group 1231">
        <circle id="Ellipse_30" data-name="Ellipse 30" cx="1.241" cy="1.241" r="1.241" fill="#fff"/>
      </g>
    </g>
  </g>
</svg>
