<svg xmlns="http://www.w3.org/2000/svg" width="96.667" height="15.875" viewBox="0 0 96.667 15.875">
  <g id="Group_1180" data-name="Group 1180" transform="translate(-490 -2723)">
    <path id="Icon_ionic-md-star-outline" data-name="Icon ionic-md-star-outline" d="M20.5,10.553l-6.006-.516L12.148,4.5,9.8,10.037,3.8,10.553,8.352,14.5,6.987,20.375l5.161-3.114,5.161,3.114L15.944,14.5Zm-7.668,5.576-.683-.412-.683.412-2.48,1.5L9.641,14.8l.181-.777-.6-.522L7.028,11.6l2.887-.248.794-.068.311-.734,1.128-2.662,1.127,2.662.311.734.794.068,2.888.248-2.191,1.9-.6.522.181.777.656,2.824Z" transform="translate(486.203 2718.5)"/>
    <path id="Icon_ionic-md-star-outline-2" data-name="Icon ionic-md-star-outline" d="M20.5,10.553l-6.006-.516L12.148,4.5,9.8,10.037,3.8,10.553,8.352,14.5,6.987,20.375l5.161-3.114,5.161,3.114L15.944,14.5Zm-7.668,5.576-.683-.412-.683.412-2.48,1.5L9.641,14.8l.181-.777-.6-.522L7.028,11.6l2.887-.248.794-.068.311-.734,1.128-2.662,1.127,2.662.311.734.794.068,2.888.248-2.191,1.9-.6.522.181.777.656,2.824Z" transform="translate(526.185 2718.5)"/>
    <path id="Icon_ionic-md-star-outline-3" data-name="Icon ionic-md-star-outline" d="M20.5,10.553l-6.006-.516L12.148,4.5,9.8,10.037,3.8,10.553,8.352,14.5,6.987,20.375l5.161-3.114,5.161,3.114L15.944,14.5Zm-7.668,5.576-.683-.412-.683.412-2.48,1.5L9.641,14.8l.181-.777-.6-.522L7.028,11.6l2.887-.248.794-.068.311-.734,1.128-2.662,1.127,2.662.311.734.794.068,2.888.248-2.191,1.9-.6.522.181.777.656,2.824Z" transform="translate(506.194 2718.5)"/>
    <path id="Icon_ionic-md-star-outline-4" data-name="Icon ionic-md-star-outline" d="M20.5,10.553l-6.006-.516L12.148,4.5,9.8,10.037,3.8,10.553,8.352,14.5,6.987,20.375l5.161-3.114,5.161,3.114L15.944,14.5Zm-7.668,5.576-.683-.412-.683.412-2.48,1.5L9.641,14.8l.181-.777-.6-.522L7.028,11.6l2.887-.248.794-.068.311-.734,1.128-2.662,1.127,2.662.311.734.794.068,2.888.248-2.191,1.9-.6.522.181.777.656,2.824Z" transform="translate(546.177 2718.5)"/>
    <path id="Icon_ionic-md-star-outline-5" data-name="Icon ionic-md-star-outline" d="M20.5,10.553l-6.006-.516L12.148,4.5,9.8,10.037,3.8,10.553,8.352,14.5,6.987,20.375l5.161-3.114,5.161,3.114L15.944,14.5Zm-7.668,5.576-.683-.412-.683.412-2.48,1.5L9.641,14.8l.181-.777-.6-.522L7.028,11.6l2.887-.248.794-.068.311-.734,1.128-2.662,1.127,2.662.311.734.794.068,2.888.248-2.191,1.9-.6.522.181.777.656,2.824Z" transform="translate(566.168 2718.5)"/>
  </g>
</svg>
