<svg xmlns="http://www.w3.org/2000/svg" width="80.807" height="87.732" viewBox="0 0 80.807 87.732">
  <g id="biscuit_2_" data-name="biscuit (2)" transform="matrix(0.788, -0.616, 0.616, 0.788, -56.761, 35.959)">
    <path id="Path_99" data-name="Path 99" d="M219.2,32.787a1.2,1.2,0,0,0,1.2-1.2V29.2a1.2,1.2,0,1,0-2.393,0V31.59A1.2,1.2,0,0,0,219.2,32.787Z" transform="translate(-126.148)" fill="#fff"/>
    <path id="Path_100" data-name="Path 100" d="M219.2,52a1.2,1.2,0,0,0-1.2,1.2V55.59a1.2,1.2,0,1,0,2.393,0V53.2A1.2,1.2,0,0,0,219.2,52Z" transform="translate(-126.148 -16.82)" fill="#fff"/>
    <path id="Path_101" data-name="Path 101" d="M203.2,46.393h2.393a1.2,1.2,0,1,0,0-2.393H203.2a1.2,1.2,0,0,0,0,2.393Z" transform="translate(-114.934 -11.213)" fill="#fff"/>
    <path id="Path_102" data-name="Path 102" d="M227.2,46.393h2.393a1.2,1.2,0,1,0,0-2.393H227.2a1.2,1.2,0,0,0,0,2.393Z" transform="translate(-131.754 -11.213)" fill="#fff"/>
    <path id="Path_103" data-name="Path 103" d="M66.189,244a4.189,4.189,0,1,0,4.189,4.189A4.194,4.194,0,0,0,66.189,244Zm0,5.984a1.8,1.8,0,1,1,1.8-1.8A1.8,1.8,0,0,1,66.189,249.984Z" transform="translate(-16.82 -151.377)" fill="#fff"/>
    <path id="Path_104" data-name="Path 104" d="M144.008,59.21a1.279,1.279,0,1,0-1.279-1.279A1.28,1.28,0,0,0,144.008,59.21Z" transform="translate(-73.396 -20.079)" fill="#fff"/>
    <path id="Path_105" data-name="Path 105" d="M168.008,39.21a1.279,1.279,0,1,0-1.279-1.279A1.28,1.28,0,0,0,168.008,39.21Z" transform="translate(-90.216 -6.063)" fill="#fff"/>
    <path id="Path_106" data-name="Path 106" d="M140.008,252.651a1.279,1.279,0,1,0,1.28,1.28A1.279,1.279,0,0,0,140.008,252.651Z" transform="translate(-70.593 -157.44)" fill="#fff"/>
    <path id="Path_107" data-name="Path 107" d="M103.392,88.377a4.785,4.785,0,1,0-6.753-6.753,4.78,4.78,0,0,0-7.18,0,4.78,4.78,0,0,0-7.18,0,4.78,4.78,0,0,0-7.18,0,4.78,4.78,0,0,0-7.18,0,4.78,4.78,0,0,0-7.18,0,4.78,4.78,0,0,0-7.18,0,4.78,4.78,0,0,0-7.18,0,4.785,4.785,0,1,0-6.752,6.753,4.779,4.779,0,0,0,0,7.18,4.779,4.779,0,0,0,0,7.18,4.779,4.779,0,0,0,0,7.18,4.779,4.779,0,0,0,0,7.18,4.785,4.785,0,1,0,6.752,6.753,4.78,4.78,0,0,0,7.18,0,4.78,4.78,0,0,0,7.18,0,4.78,4.78,0,0,0,7.18,0,4.78,4.78,0,0,0,7.18,0,4.78,4.78,0,0,0,7.18,0,4.78,4.78,0,0,0,7.18,0,4.78,4.78,0,0,0,7.18,0,4.781,4.781,0,1,0,6.738-6.753,4.765,4.765,0,0,0,.015-7.18,4.779,4.779,0,0,0,0-7.18,4.779,4.779,0,0,0,0-7.18,4.779,4.779,0,0,0,0-7.18Zm-3.162,1.2a2.393,2.393,0,1,1,0,4.787,1.2,1.2,0,0,0,0,2.393,2.393,2.393,0,1,1,0,4.787,1.2,1.2,0,0,0,0,2.393,2.393,2.393,0,1,1,0,4.787,1.2,1.2,0,0,0,0,2.393,2.385,2.385,0,0,1,.8,4.637,1.2,1.2,0,0,0-.8,1.127v.439a1.2,1.2,0,0,0,.8,1.127,2.388,2.388,0,1,1-3.189,2.243,1.2,1.2,0,0,0-2.393,0,2.393,2.393,0,0,1-4.787,0,1.2,1.2,0,0,0-2.393,0,2.393,2.393,0,0,1-4.787,0,1.2,1.2,0,0,0-2.393,0,2.393,2.393,0,0,1-4.787,0,1.2,1.2,0,0,0-2.393,0,2.393,2.393,0,0,1-4.787,0,1.2,1.2,0,0,0-2.393,0,2.393,2.393,0,0,1-4.787,0,1.2,1.2,0,0,0-2.393,0,2.393,2.393,0,0,1-4.787,0,1.2,1.2,0,0,0-2.393,0,2.393,2.393,0,0,1-4.787,0,1.2,1.2,0,0,0-2.393,0,2.393,2.393,0,1,1-2.393-2.393,1.2,1.2,0,1,0,0-2.393,2.393,2.393,0,0,1,0-4.787,1.2,1.2,0,1,0,0-2.393,2.393,2.393,0,0,1,0-4.787,1.2,1.2,0,1,0,0-2.393,2.393,2.393,0,1,1,0-4.787,1.2,1.2,0,1,0,0-2.393,2.393,2.393,0,1,1,0-4.787,1.2,1.2,0,1,0,0-2.393,2.393,2.393,0,1,1,2.393-2.393,1.2,1.2,0,1,0,2.393,0,2.393,2.393,0,0,1,4.787,0,1.2,1.2,0,1,0,2.393,0,2.393,2.393,0,0,1,4.787,0,1.2,1.2,0,1,0,2.393,0,2.393,2.393,0,0,1,4.787,0,1.2,1.2,0,1,0,2.393,0,2.393,2.393,0,0,1,4.787,0,1.2,1.2,0,1,0,2.393,0,2.393,2.393,0,0,1,4.787,0,1.2,1.2,0,1,0,2.393,0,2.393,2.393,0,0,1,4.787,0,1.2,1.2,0,1,0,2.393,0,2.393,2.393,0,0,1,4.787,0,1.2,1.2,0,1,0,2.393,0,2.393,2.393,0,1,1,2.393,2.393,1.2,1.2,0,1,0,0,2.393Z" transform="translate(0 -36.443)" fill="#fff"/>
    <path id="Path_108" data-name="Path 108" d="M133.928,126.388a1.2,1.2,0,0,0-1.5,0l-5.984,4.787a1.2,1.2,0,0,0-.449.934v5.871a1.2,1.2,0,0,0,.438.926l5.984,4.9a1.2,1.2,0,0,0,1.517,0l5.984-4.9a1.2,1.2,0,0,0,.438-.926v-5.871a1.2,1.2,0,0,0-.449-.934Zm4.039,11.026-4.787,3.919-4.787-3.919v-4.73l4.787-3.829,4.787,3.829Z" transform="translate(-61.672 -68.769)" fill="#fff"/>
    <ellipse id="Ellipse_31" data-name="Ellipse 31" cx="1" cy="1.5" rx="1" ry="1.5" transform="translate(69.508 63.5)" fill="#fff"/>
    <path id="Path_109" data-name="Path 109" d="M88.008,116.651a1.279,1.279,0,1,0,1.28,1.28A1.279,1.279,0,0,0,88.008,116.651Z" transform="translate(-34.15 -62.128)" fill="#fff"/>
    <path id="Path_110" data-name="Path 110" d="M112.008,116.651a1.279,1.279,0,1,0,1.28,1.28A1.279,1.279,0,0,0,112.008,116.651Z" transform="translate(-50.97 -62.128)" fill="#fff"/>
    <path id="Path_111" data-name="Path 111" d="M136.008,119.21a1.279,1.279,0,1,0-1.279-1.279A1.28,1.28,0,0,0,136.008,119.21Z" transform="translate(-67.79 -62.128)" fill="#fff"/>
    <path id="Path_112" data-name="Path 112" d="M160.008,119.21a1.279,1.279,0,1,0-1.279-1.279A1.28,1.28,0,0,0,160.008,119.21Z" transform="translate(-84.609 -62.128)" fill="#fff"/>
    <path id="Path_113" data-name="Path 113" d="M184.008,116.651a1.279,1.279,0,1,0,1.28,1.28A1.279,1.279,0,0,0,184.008,116.651Z" transform="translate(-101.429 -62.128)" fill="#fff"/>
    <path id="Path_114" data-name="Path 114" d="M112.008,188.651a1.279,1.279,0,1,0,1.28,1.28A1.279,1.279,0,0,0,112.008,188.651Z" transform="translate(-50.97 -112.587)" fill="#fff"/>
    <path id="Path_115" data-name="Path 115" d="M136.008,188.651a1.279,1.279,0,1,0,1.28,1.28A1.279,1.279,0,0,0,136.008,188.651Z" transform="translate(-67.79 -112.587)" fill="#fff"/>
    <path id="Path_116" data-name="Path 116" d="M160.008,188.651a1.279,1.279,0,1,0,1.28,1.28A1.279,1.279,0,0,0,160.008,188.651Z" transform="translate(-84.609 -112.587)" fill="#fff"/>
    <path id="Path_117" data-name="Path 117" d="M184.008,188.651a1.279,1.279,0,1,0,1.28,1.28A1.279,1.279,0,0,0,184.008,188.651Z" transform="translate(-101.429 -112.587)" fill="#fff"/>
    <path id="Path_118" data-name="Path 118" d="M88.008,140.651a1.279,1.279,0,1,0,1.28,1.28A1.279,1.279,0,0,0,88.008,140.651Z" transform="translate(-34.15 -78.948)" fill="#fff"/>
    <path id="Path_119" data-name="Path 119" d="M88.008,164.651a1.279,1.279,0,1,0,1.28,1.28A1.279,1.279,0,0,0,88.008,164.651Z" transform="translate(-34.15 -95.768)" fill="#fff"/>
    <path id="Path_120" data-name="Path 120" d="M112.008,140.651a1.279,1.279,0,1,0,1.28,1.28A1.279,1.279,0,0,0,112.008,140.651Z" transform="translate(-50.97 -78.948)" fill="#fff"/>
    <path id="Path_121" data-name="Path 121" d="M112.008,164.651a1.279,1.279,0,1,0,1.28,1.28A1.279,1.279,0,0,0,112.008,164.651Z" transform="translate(-50.97 -95.768)" fill="#fff"/>
    <path id="Path_122" data-name="Path 122" d="M88.008,188.651a1.279,1.279,0,1,0,1.28,1.28A1.279,1.279,0,0,0,88.008,188.651Z" transform="translate(-34.15 -112.587)" fill="#fff"/>
    <path id="Path_123" data-name="Path 123" d="M208.008,116.651a1.279,1.279,0,1,0,1.28,1.28A1.279,1.279,0,0,0,208.008,116.651Z" transform="translate(-118.249 -62.128)" fill="#fff"/>
    <path id="Path_124" data-name="Path 124" d="M208.008,140.651a1.279,1.279,0,1,0,1.28,1.28A1.279,1.279,0,0,0,208.008,140.651Z" transform="translate(-118.249 -78.948)" fill="#fff"/>
    <path id="Path_125" data-name="Path 125" d="M184.008,140.651a1.279,1.279,0,1,0,1.28,1.28A1.279,1.279,0,0,0,184.008,140.651Z" transform="translate(-101.429 -78.948)" fill="#fff"/>
    <path id="Path_126" data-name="Path 126" d="M208.008,164.651a1.279,1.279,0,1,0,1.28,1.28A1.279,1.279,0,0,0,208.008,164.651Z" transform="translate(-118.249 -95.768)" fill="#fff"/>
    <path id="Path_127" data-name="Path 127" d="M184.008,164.651a1.279,1.279,0,1,0,1.28,1.28A1.279,1.279,0,0,0,184.008,164.651Z" transform="translate(-101.429 -95.768)" fill="#fff"/>
    <path id="Path_128" data-name="Path 128" d="M208.008,188.651a1.279,1.279,0,1,0,1.28,1.28A1.279,1.279,0,0,0,208.008,188.651Z" transform="translate(-118.249 -112.587)" fill="#fff"/>
  </g>
</svg>
