<svg xmlns="http://www.w3.org/2000/svg" width="23.5" height="18.479" viewBox="0 0 23.5 18.479">
  <path id="Shape_2" data-name="Shape 2" d="M1384.254,4084.673l14.072,8.716a.49.49,0,0,0,.509.007.528.528,0,0,0,.256-.456v-4.652l8.11-3.589a.531.531,0,0,0,0-.963l-.938-.414.012-.018a.447.447,0,0,0-.286-.1l-6.9-3.044v-4.65a.527.527,0,0,0-.256-.455.491.491,0,0,0-.509.007l-14.072,8.716a.533.533,0,0,0,0,.9Zm13.826,7.088a.309.309,0,0,0-.034-.031l-2.927-1.8c2.67,1.43,2.719,1.414,2.865,1.365a.3.3,0,0,0,.1-.055Zm0-1c-.011-.009-.012-.025-.024-.033-1.368-.9-3.755-2.474-5.956-3.93l5.658,2.984a.3.3,0,0,0,.322-.032Zm-10.669-7.724c0,.006-.009.01-.012.016-.072.146-.1.211.2.436l0,.009.033.013c.249.179.7.458,1.482.94l.743.458-2.845-1.5a.288.288,0,0,0-.154-.028Zm.474-.074-.058-.036-.006.01a.731.731,0,0,0-.168-.049l.976-.6a.315.315,0,0,0-.052.122.32.32,0,0,0,.134.3l4.135,2.815C1389.492,4083.739,1388.328,4083.149,1387.885,4082.965Zm9.586-4.795a6.315,6.315,0,0,0-1.23-.6l1.075-.666c0,.006-.009.009-.012.016C1397.256,4077.016,1397.25,4077.026,1397.471,4078.17Zm-1.219-.289-.124.286c.1.049,1.625.857,1.625.858h0a.294.294,0,0,0,.231.019.29.29,0,0,0,.1-.055v1.037l-3.028-1.6a.288.288,0,0,0-.153-.029l.4-.249.866-.537Zm1.828.239c-.043-.226-.083-.43-.112-.587a.3.3,0,0,0,.112-.058Zm-3.427.433a.319.319,0,0,0,.092.415l4.566,3.212-5.571-2.938a.291.291,0,0,0-.153-.029l.912-.564Zm-2.135,1.8,3.923,2.682c-1.789-.945-3.657-1.934-4.758-2.517h0a.292.292,0,0,0-.153-.029l.908-.562a.307.307,0,0,0-.052.122A.32.32,0,0,0,1392.518,4080.352Zm.924-.563c.836.535,1.778,1.139,2.727,1.748-2.117-1.124-2.935-1.54-3.282-1.686l-.035-.024,0,.008a.719.719,0,0,0-.177-.054l.667-.414h0A.32.32,0,0,0,1393.443,4079.79Zm-2.019,1.251-.018.036.215.115c.341.244.959.638,2.044,1.326l-2.816-1.484a.286.286,0,0,0-.154-.029l.24-.148.35-.217c0,.006-.009.01-.012.016C1391.215,4080.776,1391.183,4080.841,1391.424,4081.04Zm-.843.54-.006.012.07.037c.2.154.554.383,1.135.76l1.378.895-3.21-1.692a.284.284,0,0,0-.153-.029l.66-.409c0,.006-.009.01-.012.016C1390.37,4081.318,1390.337,4081.383,1390.581,4081.58Zm-.934.556,2.73,1.8c-2.1-1.119-2.926-1.554-3.28-1.714l-.053-.036-.006.01a.722.722,0,0,0-.175-.057l.684-.423A.32.32,0,0,0,1389.647,4082.136Zm8.433,7.124a.282.282,0,0,0-.028-.026l-2.6-1.6c.806.432,1.59.853,2.3,1.238a.3.3,0,0,0,.323-.028Zm.307-1.8a.524.524,0,0,0-.307.481v.4c-.006,0-.009-.011-.015-.016l-4.428-3.015c2.661,1.418,3.642,1.938,4.039,2.118l.062.04.006-.01c.17.072.2.061.25.045a.311.311,0,0,0,.208-.259.319.319,0,0,0-.138-.305l-2.775-1.83,3.562,1.878a.3.3,0,0,0,.408-.137c.072-.145.1-.21-.139-.409l.006-.014-.073-.039c-.218-.166-.6-.416-1.253-.839l-1.234-.8,3.352,1.767a.3.3,0,0,0,.408-.137c.064-.13.1-.2-.143-.4l.011-.022-.121-.063c-.29-.219-.837-.569-1.828-1.2,1.479.778,2.174,1.136,2.516,1.3l.111.076.012-.02c.183.079.21.07.248.057a.313.313,0,0,0,.208-.257.32.32,0,0,0-.134-.3l-4.055-2.773c1.206.641,2.714,1.445,4.594,2.449.614.328.615.329.736.289a.306.306,0,0,0,.177-.156c.054-.109.087-.177-.153-.386l.018-.037-.19-.1c-.371-.283-1.1-.761-2.461-1.643l3.461,1.825a.3.3,0,0,0,.4-.12.32.32,0,0,0-.09-.419l-4.442-3.123.256.113,5.43,2.863a.3.3,0,0,0,.277,0l.354-.188.2.088Zm-.307-10.469a.268.268,0,0,0-.047-.04c-.3-.162-.386-.209-.461-.208l.508-.314Zm-11.466,6.54c0,.006-.009.01-.012.016-.066.135-.1.2.142.4l-.009.019.093.049c.259.2.74.521,1.6,1.091,1.033.687,2.411,1.6,3.79,2.51l.321.212-.632-.34c-4.959-2.676-4.958-2.673-5.137-2.614a.286.286,0,0,0-.106.064l-1.16-.719Z" transform="translate(-1384.008 -4074.984)" fill="#fff"/>
</svg>
